<?xml version="1.0" standalone="no"?>
<!DOCTYPE svg PUBLIC "-//W3C//DTD SVG 20010904//EN"
 "http://www.w3.org/TR/2001/REC-SVG-20010904/DTD/svg10.dtd">
<svg version="1.0" xmlns="http://www.w3.org/2000/svg"
 width="272.000000pt" height="272.000000pt" viewBox="0 0 272.000000 272.000000"
 preserveAspectRatio="xMidYMid meet">
<metadata>
Created by potrace 1.14, written by Peter Selinger 2001-2017
</metadata>
<g transform="translate(0.000000,272.000000) scale(0.100000,-0.100000)"
fill="#000000" stroke="none">
<path d="M1415 2595 c-22 -8 -41 -15 -43 -15 -15 -1 -34 -134 -33 -235 0 -122
-2 -145 -18 -145 -9 0 -11 -6 -6 -17 4 -10 9 -45 11 -78 2 -33 7 -71 11 -85
10 -39 11 -104 1 -117 -6 -8 -4 -20 6 -35 17 -24 22 -53 7 -44 -13 8 -22 -23
-12 -41 4 -9 6 -25 4 -37 -4 -19 -3 -19 7 -3 6 9 16 15 21 11 5 -3 -2 -19 -16
-36 -16 -18 -24 -39 -22 -50 14 -51 -96 28 -132 95 -8 15 -18 27 -22 27 -5 0
-6 7 -3 15 5 11 0 14 -17 13 -18 -2 -25 3 -27 20 -2 12 -8 22 -13 22 -5 0 -8
3 -8 8 3 20 -2 31 -15 26 -16 -6 -29 22 -19 39 5 8 2 8 -9 0 -20 -17 -29 -6
-21 25 5 22 3 24 -16 19 -17 -4 -24 0 -30 16 -5 13 -5 27 1 35 7 8 7 12 0 12
-5 0 -12 -7 -16 -15 -3 -8 -11 -15 -17 -15 -9 0 -9 4 0 14 13 15 -1 32 -18 21
-5 -3 -13 0 -17 6 -4 8 -9 7 -15 -2 -6 -10 -9 -8 -9 9 0 15 -5 22 -12 19 -7
-2 -21 10 -31 26 -10 16 -20 27 -23 24 -8 -8 -56 41 -50 51 3 6 -4 12 -15 15
-14 4 -18 10 -13 18 5 9 2 10 -12 5 -10 -5 -26 -9 -34 -10 -8 -1 -26 -7 -40
-14 l-25 -13 25 20 c14 11 31 19 38 16 6 -2 12 0 12 5 0 6 7 10 16 10 11 0 14
5 10 16 -3 9 -6 17 -6 20 0 2 -7 1 -15 -2 -8 -4 -21 -1 -28 5 -10 7 -17 5 -28
-10 -8 -11 -23 -25 -34 -31 -15 -8 -12 -2 8 19 23 25 25 31 13 36 -8 3 -18 2
-21 -3 -4 -6 -10 -10 -15 -10 -14 0 -21 32 -10 45 9 11 7 12 -9 8 -11 -3 -17
-11 -15 -18 3 -7 -4 -15 -16 -18 -17 -4 -20 -2 -15 14 4 10 -1 29 -9 41 -9 12
-16 18 -16 13 0 -6 -9 -16 -21 -23 -19 -12 -19 -11 -9 7 9 17 8 20 -5 15 -8
-4 -15 -10 -15 -14 0 -4 -9 -10 -20 -13 -11 -3 -20 -10 -20 -17 0 -6 4 -9 9
-6 5 4 12 0 14 -6 4 -10 8 -9 17 2 8 12 9 9 4 -12 -3 -16 -2 -28 3 -28 21 0
53 -39 53 -64 0 -20 5 -27 18 -25 30 3 52 -1 49 -8 -1 -5 1 -8 5 -8 4 0 13 -9
21 -19 8 -11 23 -20 34 -21 11 0 29 -10 40 -21 27 -25 55 -82 48 -94 -9 -14 9
-12 23 2 8 8 12 8 12 1 0 -6 11 -14 25 -17 14 -4 25 -11 25 -17 0 -6 5 -7 11
-3 7 4 9 -2 7 -17 -2 -13 -9 -23 -16 -22 -6 2 -12 -4 -12 -14 0 -14 -2 -14
-20 2 -11 10 -20 15 -20 12 0 -6 -30 9 -98 49 -27 16 -27 16 1 -6 22 -18 26
-25 15 -32 -10 -8 -9 -9 3 -5 24 8 42 -8 43 -40 1 -21 6 -28 19 -26 11 0 23
-9 29 -23 8 -16 17 -23 28 -19 10 3 22 -1 29 -9 6 -8 20 -12 30 -9 21 5 61
-32 61 -56 0 -10 3 -12 11 -4 5 5 21 8 35 5 21 -4 25 -9 21 -28 -4 -20 0 -24
23 -24 16 0 37 -11 55 -30 l28 -29 -24 -10 c-13 -5 -31 -5 -39 -1 -8 4 -21 5
-27 3 -7 -3 -13 0 -13 5 0 6 -9 14 -20 17 -11 4 -18 11 -14 16 3 6 -5 5 -17
-3 -13 -7 -28 -20 -33 -28 -8 -12 -11 -11 -17 5 -7 18 -8 17 -8 -5 -1 -16 -4
-21 -9 -13 -6 9 -17 10 -39 4 -17 -5 -33 -8 -35 -6 -2 2 -4 -8 -5 -23 -2 -26
-1 -26 7 -4 5 12 15 22 21 22 8 0 9 -3 0 -13 -8 -11 -6 -18 11 -33 12 -10 18
-14 15 -7 -5 7 0 9 13 6 11 -3 17 -9 14 -14 -6 -10 19 -12 29 -2 9 8 57 12 80
6 9 -2 17 -12 17 -21 1 -16 2 -15 11 1 12 21 51 24 43 3 -3 -8 -1 -17 5 -21 6
-3 11 -1 11 4 0 6 7 11 15 11 8 0 15 -4 15 -10 0 -5 7 -7 15 -4 8 4 15 1 15
-6 0 -7 8 -10 20 -7 13 3 28 -2 40 -16 11 -11 20 -15 20 -9 0 16 33 15 48 0
16 -16 15 -28 -2 -28 -8 0 -17 -7 -20 -16 -4 -10 -13 -13 -25 -9 -11 3 -22 2
-25 -4 -3 -5 -14 -8 -23 -7 -21 3 -38 -12 -47 -42 -4 -12 -12 -20 -17 -17 -5
4 -9 1 -9 -5 0 -6 -4 -8 -10 -5 -5 3 -10 -2 -11 -12 0 -16 -1 -16 -8 1 -7 19
-8 19 -16 0 -5 -10 -10 -30 -11 -44 -1 -14 -5 -36 -10 -49 -5 -17 -4 -22 4
-17 15 9 3 -25 -12 -37 -7 -6 -4 -7 6 -3 10 3 22 -2 27 -12 10 -16 10 -16 11
1 0 9 -5 17 -12 17 -6 0 -8 3 -5 6 4 4 14 1 22 -6 9 -7 15 -9 14 -4 -3 20 1
35 10 30 5 -3 12 6 15 20 5 20 12 25 27 21 14 -4 19 -2 15 8 -7 19 5 27 21 14
10 -9 13 -8 13 5 0 9 6 16 14 16 8 0 21 7 30 15 8 9 21 14 28 13 6 -2 12 3 13
10 0 17 7 18 30 4 17 -10 18 -11 3 -12 -23 0 -24 -39 -1 -55 11 -8 13 -14 5
-19 -7 -4 -12 -2 -12 3 0 6 -5 11 -11 11 -7 0 -9 -9 -5 -22 15 -52 15 -60 1
-54 -9 3 -12 0 -8 -10 3 -8 0 -21 -7 -29 -6 -8 -9 -24 -5 -37 17 -59 17 -61 5
-53 -9 6 -9 3 -1 -13 6 -11 11 -32 11 -45 0 -13 9 -32 20 -42 14 -13 18 -25
13 -49 -3 -17 -10 -36 -15 -43 -5 -7 -7 -17 -3 -24 4 -6 1 -16 -6 -21 -12 -8
-11 -9 1 -5 8 2 16 13 18 25 3 20 5 20 19 7 8 -8 13 -21 10 -28 -2 -6 2 -24
10 -39 12 -25 12 -28 -2 -28 -9 0 -15 9 -15 22 0 37 -12 12 -17 -36 -3 -36 -1
-46 11 -46 25 0 29 -20 10 -42 -18 -19 -18 -20 1 -17 11 2 19 -1 18 -7 -1 -6
4 -11 11 -11 9 0 14 14 14 39 1 21 -3 38 -9 38 -5 0 -9 10 -9 22 0 20 1 21 13
4 11 -15 12 -10 7 40 -13 116 3 215 36 228 10 4 11 11 4 31 -6 16 -6 34 0 51
6 14 10 44 10 67 0 23 4 57 9 75 8 27 7 36 -8 51 -10 10 -20 24 -23 33 -7 18
11 49 18 31 9 -21 41 -53 48 -46 3 3 6 -2 6 -12 0 -15 2 -16 17 -4 11 10 14
10 9 2 -4 -7 -3 -13 3 -13 5 0 12 4 15 9 8 12 66 -16 73 -34 4 -11 12 -10 39
5 34 20 34 20 34 -1 0 -15 3 -17 13 -9 6 6 21 17 32 25 19 14 19 16 3 29 -10
7 -18 23 -18 36 0 19 -2 21 -15 10 -11 -10 -19 -10 -27 -2 -6 6 -17 8 -24 5
-8 -3 -17 2 -20 11 -4 11 -13 15 -27 10 -16 -5 -19 -3 -15 14 4 16 2 18 -15
14 -13 -3 -25 2 -33 13 -10 14 -14 15 -14 4 -1 -11 -4 -10 -14 3 -7 10 -16 15
-19 11 -4 -3 -15 1 -25 10 -10 10 -22 14 -25 10 -10 -10 -8 3 5 31 9 22 16 25
41 20 17 -2 34 -7 39 -10 4 -3 8 -1 8 5 0 11 19 9 39 -3 10 -6 12 -5 7 2 -4 7
-1 12 8 12 9 0 16 -8 16 -17 0 -15 2 -16 10 -3 5 8 17 15 27 15 10 0 18 7 18
15 0 9 11 16 28 18 15 2 27 7 27 12 0 5 18 8 40 6 22 -2 38 0 34 5 -3 5 -1 9
4 9 6 0 13 12 17 28 4 15 9 21 12 15 3 -9 10 -9 28 3 13 9 28 13 32 11 5 -3
17 1 27 9 17 12 17 14 3 20 -9 3 -14 11 -10 17 3 6 1 7 -6 3 -9 -6 -9 -11 -1
-21 7 -9 8 -15 1 -20 -17 -10 -26 46 -10 56 9 6 -7 8 -46 7 -33 -2 -62 -5 -65
-8 -20 -20 -72 -50 -79 -45 -17 10 -4 40 17 39 17 0 19 2 10 13 -8 11 -7 12 6
7 9 -4 16 -3 15 2 -4 23 2 45 10 39 6 -3 20 8 32 24 12 17 28 27 35 24 8 -3
14 0 14 7 0 6 4 9 9 5 5 -3 13 -1 16 5 5 8 11 7 21 -1 17 -14 19 2 2 20 -9 8
-9 11 -1 9 6 -2 11 -1 10 2 -2 17 25 48 38 44 10 -4 13 -2 10 8 -4 9 10 22 37
38 24 13 48 28 53 32 6 5 19 16 30 24 11 9 -2 4 -29 -11 -44 -25 -50 -26 -58
-11 -5 9 -14 13 -21 9 -7 -4 -1 7 13 24 14 17 28 29 32 26 4 -2 10 7 14 21 3
13 14 32 25 42 10 9 16 22 12 28 -4 7 -2 7 7 0 19 -18 50 15 38 39 -5 10 -7
21 -4 24 3 3 -1 15 -9 27 -8 11 -15 25 -15 31 1 9 33 -43 35 -55 3 -23 25 -42
41 -36 18 7 18 8 -3 26 -13 10 -23 21 -23 25 0 4 7 2 15 -5 23 -19 34 -3 31
45 -3 47 7 58 36 43 14 -6 16 -5 12 7 -4 8 -12 15 -20 15 -8 0 -14 3 -15 8 -5
52 -3 69 8 60 6 -5 13 -18 15 -29 3 -18 5 -19 23 -5 19 13 19 15 2 33 -23 26
-22 36 3 23 16 -9 18 -8 14 5 -4 8 -13 15 -21 15 -8 0 -11 5 -8 10 3 6 3 15 0
20 -7 12 -35 -12 -35 -30 0 -6 -6 -10 -12 -7 -7 2 -21 -9 -30 -25 -10 -15 -25
-29 -33 -29 -8 -1 -21 -2 -27 -3 -8 -1 -13 -15 -13 -34 0 -24 -4 -32 -17 -32
-10 0 -17 -6 -16 -12 2 -7 -3 -12 -9 -10 -12 2 -17 -18 -16 -55 1 -7 -5 -13
-13 -13 -8 0 -14 -7 -14 -15 0 -8 -6 -15 -13 -15 -7 0 -19 -6 -26 -12 -12 -13
-16 -14 -46 -17 -12 -1 -13 -5 -5 -20 5 -11 7 -21 2 -23 -4 -2 -15 -16 -24
-33 -17 -30 -24 -32 -66 -19 -13 3 -22 3 -21 -2 5 -28 -6 -49 -45 -89 -25 -25
-49 -45 -54 -45 -4 0 -16 -6 -26 -13 -16 -12 -17 -17 -6 -36 7 -14 8 -21 1
-17 -20 13 -116 -50 -109 -71 4 -12 -41 -67 -48 -60 -4 3 -15 -4 -25 -16 l-18
-22 6 24 c3 13 1 26 -6 30 -7 5 -12 43 -14 101 -1 66 -6 95 -15 98 -10 3 -9 7
4 16 13 10 17 33 20 110 2 53 6 101 9 106 3 5 1 11 -5 15 -7 4 -7 12 0 25 6
12 6 21 1 25 -12 7 -14 231 -2 272 6 20 5 35 -2 42 -7 7 -7 18 1 36 9 20 9 24
1 19 -9 -5 -10 0 -7 14 4 12 5 22 5 22 -1 -1 -20 -7 -42 -15z m-864 -298 c-13
-13 -26 -3 -16 12 3 6 11 8 17 5 6 -4 6 -10 -1 -17z m179 -51 c0 -2 -7 -7 -16
-10 -8 -3 -12 -2 -9 4 6 10 25 14 25 6z m1421 -18 c18 -20 23 -28 16 -28 -2 0
-14 11 -27 25 -13 14 -20 25 -15 25 4 0 16 -10 26 -22z m-1376 -68 c-3 -5 -12
-10 -18 -10 -7 0 -6 4 3 10 19 12 23 12 15 0z m70 -60 c-3 -5 -11 -10 -16 -10
-6 0 -7 5 -4 10 3 6 11 10 16 10 6 0 7 -4 4 -10z m1165 -65 c0 -5 -5 -3 -10 5
-5 8 -10 20 -10 25 0 6 5 3 10 -5 5 -8 10 -19 10 -25z m-35 -95 c3 -5 1 -10
-4 -10 -6 0 -11 5 -11 10 0 6 2 10 4 10 3 0 8 -4 11 -10z m-296 -311 c-11 -21
-30 -21 -37 -1 -2 7 2 10 12 6 11 -4 16 -1 16 11 0 9 5 13 10 10 7 -4 6 -13
-1 -26z m-516 7 c3 -8 0 -17 -8 -19 -11 -5 -13 6 -6 31 2 6 9 0 14 -12z m694
-1 c0 -8 -4 -15 -9 -15 -10 0 -11 14 -1 23 9 10 10 9 10 -8z m20 -7 c-3 -8 -6
-5 -6 6 -1 11 2 17 5 13 3 -3 4 -12 1 -19z m-447 -319 c0 -6 -4 -7 -10 -4 -5
3 -10 11 -10 16 0 6 5 7 10 4 6 -3 10 -11 10 -16z"/>
<path d="M2296 2497 c3 -10 9 -15 12 -12 3 3 0 11 -7 18 -10 9 -11 8 -5 -6z"/>
<path d="M2270 2481 c0 -5 -9 -13 -21 -16 -16 -5 -18 -10 -8 -21 6 -8 17 -14
24 -14 7 0 11 -10 10 -23 -2 -15 2 -24 11 -24 17 0 17 6 0 48 -7 19 -11 40 -9
47 3 6 2 12 -1 12 -3 0 -6 -4 -6 -9z m0 -31 c0 -5 -5 -10 -11 -10 -5 0 -7 5
-4 10 3 6 8 10 11 10 2 0 4 -4 4 -10z"/>
<path d="M416 2425 c-3 -9 -11 -13 -17 -9 -8 5 -9 3 -4 -5 6 -10 11 -9 23 3 9
8 13 18 10 21 -3 3 -8 -1 -12 -10z"/>
<path d="M465 2380 c-8 -9 -15 -23 -15 -31 0 -12 -2 -12 -10 1 -6 9 -5 20 3
29 10 12 9 13 -3 6 -8 -5 -24 -9 -35 -8 -16 1 -17 1 -2 -3 9 -3 14 -10 11 -16
-4 -7 -2 -8 4 -4 8 5 12 -1 12 -15 0 -18 2 -19 15 -9 8 7 15 19 15 27 0 8 4
12 9 8 5 -3 12 -1 16 5 4 6 10 8 14 6 4 -3 8 1 8 8 0 18 -24 16 -42 -4z"/>
<path d="M2040 1999 c0 -5 5 -7 10 -4 6 3 10 8 10 11 0 2 -4 4 -10 4 -5 0 -10
-5 -10 -11z"/>
<path d="M2006 1973 c-6 -14 -5 -15 5 -6 7 7 10 15 7 18 -3 3 -9 -2 -12 -12z"/>
<path d="M713 1905 c0 -8 3 -13 5 -10 3 3 10 -3 17 -12 11 -14 13 -14 18 6 4
16 2 21 -8 18 -7 -3 -17 -1 -22 4 -6 6 -10 4 -10 -6z"/>
<path d="M790 1599 c0 -5 5 -7 10 -4 6 3 10 8 10 11 0 2 -4 4 -10 4 -5 0 -10
-5 -10 -11z"/>
<path d="M843 1573 c-7 -3 -13 -11 -13 -20 0 -12 2 -12 16 2 18 17 16 25 -3
18z"/>
<path d="M1770 1281 c0 -6 4 -13 10 -16 6 -3 7 1 4 9 -7 18 -14 21 -14 7z"/>
<path d="M1743 1250 c-29 -12 -29 -15 0 -16 14 -1 24 4 24 12 0 8 -1 14 -1 13
-1 0 -11 -4 -23 -9z"/>
<path d="M1348 595 c3 -21 10 -25 38 -25 26 0 32 4 31 19 0 11 -5 17 -9 15 -5
-3 -6 -9 -3 -14 3 -5 -3 -8 -14 -7 -11 0 -18 4 -15 9 2 4 -4 12 -14 17 -17 9
-18 7 -14 -14z"/>
<path d="M1388 528 c5 -7 12 -24 15 -38 3 -18 5 -15 6 13 1 28 -3 37 -15 37
-12 0 -14 -3 -6 -12z"/>
<path d="M1365 430 c-3 -5 -1 -10 4 -10 6 0 11 5 11 10 0 6 -2 10 -4 10 -3 0
-8 -4 -11 -10z"/>
<path d="M1405 361 c3 -5 0 -11 -7 -13 -7 -3 -8 -7 -3 -10 6 -3 15 0 22 7 10
10 9 14 -3 19 -8 3 -13 2 -9 -3z"/>
<path d="M1381 264 c0 -11 3 -14 6 -6 3 7 2 16 -1 19 -3 4 -6 -2 -5 -13z"/>
</g>
</svg>
