<svg width="91" height="37" viewBox="0 0 91 37" fill="none" xmlns="http://www.w3.org/2000/svg">
<g clip-path="url(#clip0_754_9447)">
<path d="M34.9402 12.4813C34.8836 12.5715 34.8033 12.6444 34.7081 12.6921C34.6128 12.7397 34.5063 12.7602 34.4002 12.7513C34.4502 12.4313 34.1502 12.4613 34.2602 12.0713C34.7202 11.9713 34.4302 12.6313 34.9402 12.4813ZM24.6102 16.1912C25.0002 16.1912 25.3602 16.1912 25.2902 15.7812C24.9802 15.7912 24.7102 15.8812 24.6102 16.1912ZM22.3102 18.5013C22.5602 18.5013 22.5902 18.6013 22.4402 18.7713C22.7202 18.9313 23.0002 18.7013 22.7102 19.1813C23.1502 18.9713 24.1102 18.5913 23.9302 18.1813C23.4302 18.7913 22.5302 17.9613 22.3102 18.4613V18.5013ZM21.0802 19.4512C21.5702 19.4512 22.0202 19.3912 22.1702 19.0412C22.0202 19.0412 21.9602 18.8913 21.9002 18.7713C22.0602 18.7713 22.2802 18.7713 22.3102 18.6413H21.6302C22.0902 19.2813 21.1302 18.8913 21.0802 19.4113V19.4512ZM2.34017 31.1912C2.34017 30.7012 2.14017 30.4812 1.66017 30.5112C1.71017 30.9512 2.12017 30.9912 2.34017 31.1912ZM11.9802 27.9313C11.9802 27.6313 12.5602 27.8712 12.8002 27.7912C12.7941 27.6436 12.8401 27.4984 12.9302 27.3812C12.6302 27.2312 12.4802 26.9313 12.1202 26.8413C12.4302 27.2913 11.7702 27.7912 11.9802 27.9712V27.9313ZM29.3702 9.19125C29.0702 9.28125 29.9902 8.48125 29.2302 8.51125C29.6502 8.99125 28.7902 9.09125 28.6902 8.65125C28.5843 8.64451 28.4786 8.66595 28.3837 8.71338C28.2889 8.76081 28.2083 8.83254 28.1502 8.92125C28.7302 8.78125 29.1902 9.43125 29.3702 9.19125ZM37.5202 10.8213C37.0424 11.003 36.6524 11.3609 36.4302 11.8213C36.2702 11.8213 36.0502 11.8213 36.0202 11.9613C36.7002 11.8913 37.2602 12.0313 37.3802 11.4113C37.5555 11.4648 37.7404 11.4791 37.9219 11.4531C38.1033 11.4272 38.2769 11.3617 38.4302 11.2612C37.9602 10.9412 37.1402 11.5412 37.5202 10.8512V10.8213ZM36.4302 11.2612C36.4302 11.3312 36.5402 11.4112 36.5702 11.2612C36.6002 11.1112 36.4302 11.1912 36.4302 10.9912C36.0902 10.9912 36.1002 11.2913 35.8902 11.3913C36.1702 11.6713 36.2502 11.4312 36.4302 11.2612ZM30.0502 13.9813C30.5902 13.9213 29.9302 14.5512 29.5102 14.3812C29.6202 14.1412 29.9602 13.9613 29.5102 13.8413C29.5389 14.0294 29.5159 14.2219 29.4437 14.3981C29.3715 14.5742 29.2527 14.7274 29.1002 14.8413C29.5202 14.7413 29.2602 15.3112 29.7802 15.1112C29.3902 14.6012 30.2702 14.5913 30.4602 14.7113C30.3202 14.2013 31.1202 14.4112 30.7302 14.0312C30.8902 14.0312 31.1102 14.0313 31.1402 13.8913C30.8102 13.9213 30.1502 13.6713 30.0502 13.9813ZM26.2402 15.8812C25.7402 15.7912 24.9002 16.1512 25.5602 16.4212C25.4902 15.8212 26.6202 16.2712 26.1102 16.5612C26.1902 16.5612 26.2702 16.5612 26.2402 16.6912C26.3297 16.7041 26.4209 16.6838 26.4964 16.634C26.5719 16.5843 26.6266 16.5086 26.6502 16.4212C26.2902 16.4612 26.2102 16.1912 26.2402 15.8812ZM1.52017 31.3612C1.19017 31.5312 1.04017 31.1613 0.300174 31.2313C0.300174 31.3913 -0.249826 31.7413 0.160174 31.9113C0.230174 31.0713 1.31017 31.8513 1.66017 31.5013C1.66017 31.7413 1.52017 32.1812 1.93017 32.0412C1.96017 31.6512 1.95017 31.3012 1.52017 31.3612ZM0.300174 35.1912C0.448056 35.0733 0.563347 34.9195 0.635103 34.7445C0.706859 34.5695 0.7327 34.3791 0.710174 34.1912C0.430174 34.1912 0.190174 34.9612 0.300174 35.1912ZM0.710174 31.9313C1.54017 31.8613 0.830174 32.5512 0.570174 32.6112C0.659705 32.5984 0.750857 32.6187 0.826401 32.6685C0.901946 32.7182 0.95665 32.7939 0.980174 32.8813C0.780174 32.9513 0.280174 32.7212 0.300174 33.0112C0.600174 33.1312 0.880174 33.0112 1.39017 33.1512C1.09017 32.4812 1.66017 33.1513 1.66017 32.3413C1.48017 32.0513 0.960174 31.2813 0.710174 31.9113V31.9313ZM58.8102 19.9813C58.8102 19.9813 58.8502 19.9813 58.8102 19.9613V19.9813ZM90.5502 24.1912C90.6623 24.5842 90.6929 24.996 90.6402 25.4012C90.3402 25.5312 90.6402 25.0113 90.4802 24.8713C90.1702 25.4313 90.2102 25.2113 89.8702 24.8713C89.7878 24.9067 89.7211 24.9708 89.6825 25.0518C89.6438 25.1327 89.6359 25.2249 89.6602 25.3112C90.3802 25.5912 89.9402 25.6612 90.5202 26.2212C90.0902 26.0912 90.2302 27.0613 89.8202 26.6413C89.6902 26.7413 89.8202 26.9112 89.9102 27.0612C90.0302 27.3712 90.4002 26.6812 90.4702 27.2012C90.3002 27.3512 90.2002 27.2012 90.0502 27.2912L90.1902 27.5312C90.8702 27.3113 90.3102 29.3012 90.6002 29.8112C90.4902 30.2512 89.7402 30.0613 90.0302 30.4613C89.8502 30.5213 89.7602 30.2212 89.6402 30.0612C89.4202 30.3112 89.8302 30.9912 89.1502 30.8312C89.7502 31.4112 89.6102 31.9413 89.7502 32.3713C89.1102 32.5413 89.5902 32.9913 88.9502 33.1613C88.9502 32.7213 89.3302 32.8813 89.2602 32.3413C88.8302 32.4213 88.8202 31.6713 88.2602 31.5013C88.2602 31.9513 88.5402 31.8712 88.7002 32.5012C88.0102 32.8112 88.5502 32.8112 88.3302 33.1912C87.6702 32.9012 88.6602 32.1912 88.1702 31.8612C87.6202 32.4012 87.9902 33.0612 87.3002 33.3212C87.3002 32.6212 86.1902 33.1212 85.8302 32.4612C83.8302 33.2412 82.4202 30.6712 80.1802 30.9212C78.9602 29.5012 75.5502 29.5413 74.7202 27.8413C74.5261 27.8216 74.3379 27.7637 74.1663 27.6711C73.9947 27.5784 73.8431 27.4527 73.7202 27.3013C73.6795 27.4621 73.6795 27.6304 73.7202 27.7912C72.6996 27.6041 71.7122 27.2671 70.7902 26.7912C71.1402 26.6012 71.3102 27.0913 71.7002 26.7313C71.3102 26.7313 70.5602 26.0512 70.3502 26.5812C70.0802 26.5812 69.8802 26.3713 69.7002 26.0213C69.9202 25.8313 70.0602 25.9212 70.2402 25.8612C69.9512 25.8643 69.6651 25.8047 69.4014 25.6866C69.1377 25.5685 68.9027 25.3946 68.7126 25.177C68.5226 24.9593 68.3819 24.7031 68.3004 24.4259C68.2188 24.1487 68.1983 23.8571 68.2402 23.5713C67.5302 23.1113 68.0802 24.2012 67.6302 24.4012L67.4302 24.1912C67.5402 24.8512 67.1002 24.6512 66.4302 24.6312C66.4302 24.4312 66.6102 24.6312 66.7902 24.4212C66.6002 24.4212 66.4902 24.0213 66.2302 24.2812C66.3902 23.9812 66.4702 24.1012 66.6702 23.7012C66.5502 23.3912 66.3102 23.5712 66.2102 23.1912C66.0202 23.3312 66.0602 23.5412 66.2102 23.7912C66.0002 23.9812 65.8602 23.8912 65.6702 23.9512C65.7317 23.7317 65.819 23.5203 65.9302 23.3213C65.5502 23.2113 65.2902 23.4513 64.7202 23.4113C64.4802 22.6613 63.9202 23.2013 63.7202 22.4113C63.8402 21.9913 63.9702 22.1212 64.1602 21.8312C63.5547 21.5392 63.0829 21.0281 62.8402 20.4012C62.3002 20.5012 63.1302 20.9412 62.5802 21.0312C62.8202 21.2812 63.1802 21.0313 63.3502 21.5213C63.2002 21.6213 63.0402 21.7113 62.8802 21.8013C62.8102 21.6213 63.2102 21.5512 63.1002 21.3612C62.7702 21.4212 62.6302 21.5613 62.2802 21.0513C61.9302 21.3813 61.6902 21.3212 61.5402 20.8612C61.4202 21.3312 61.0002 21.0013 60.6502 21.2313C60.7202 20.9013 60.2002 20.7013 59.9802 20.3713C60.0468 20.3094 60.1343 20.275 60.2252 20.275C60.3161 20.275 60.4036 20.3094 60.4702 20.3713C60.7202 19.7113 59.9202 19.9913 60.2202 19.3713C60.0587 19.336 59.8916 19.336 59.7302 19.3713C59.6593 18.9045 59.4079 18.4844 59.0302 18.2012C58.9702 18.5512 59.3402 19.0113 59.4202 19.3913C59.1702 19.4813 59.1002 18.8613 58.7502 19.3213C58.7403 19.5145 58.7403 19.708 58.7502 19.9012C58.6102 19.8012 57.9202 19.4412 57.8202 18.9012C57.4602 19.0112 57.7402 19.2813 57.6802 19.4613C57.6202 19.6413 57.5502 19.4613 57.5002 19.4613C57.4502 19.4613 57.3902 19.3713 57.3102 19.4113C57.4868 18.7249 57.8303 18.0928 58.3102 17.5713C58.2302 17.4013 58.1402 17.2312 57.9902 17.2912C57.8502 16.9412 58.3502 17.0713 58.3602 17.3913C58.2302 16.5313 58.9402 17.0713 58.4802 16.5312C58.9402 16.7412 59.3502 16.1112 59.0202 15.5312C59.8667 15.5837 60.6594 15.9639 61.2302 16.5913C61.8502 16.1813 62.4102 16.8913 63.2302 17.3013C62.8502 17.1013 62.7602 17.2413 62.7002 17.4613C62.6402 17.6713 62.6202 17.9512 62.4302 18.0812C62.5045 18.1115 62.5724 18.1556 62.6302 18.2113C62.7204 18.0257 62.8005 17.8354 62.8702 17.6413C62.8058 17.589 62.7487 17.5285 62.7002 17.4613C63.1102 17.2713 63.1702 17.4613 63.2102 17.5913H63.4302C63.3743 17.647 63.3331 17.7157 63.3102 17.7912C63.3802 17.7912 63.5002 17.7912 63.7402 17.6312C63.995 18.2117 64.2787 18.7791 64.5902 19.3312C64.7702 19.0812 64.5902 18.7412 64.3402 18.3812C64.4364 18.3518 64.5382 18.3451 64.6375 18.3617C64.7367 18.3783 64.8308 18.4177 64.9122 18.4769C64.9937 18.536 65.0603 18.6133 65.1068 18.7025C65.1532 18.7918 65.1784 18.8906 65.1802 18.9912C65.4402 18.8912 65.5302 18.7412 65.3902 18.5412C65.7202 18.9112 65.6102 20.0113 66.5002 20.4113C66.5902 20.1413 66.2802 19.7613 66.4302 19.5013C66.0702 19.6913 65.8902 19.5612 65.9702 18.9912C66.1602 18.8312 66.2802 18.9912 66.1602 18.9912C66.2602 19.1112 66.4302 18.9912 66.5802 18.9012C67.0402 19.3112 66.5802 19.4813 66.6402 19.8013C67.0802 19.7213 67.1402 19.6213 67.7202 19.4813C68.0802 19.9213 69.0902 21.0313 70.0402 20.4813C70.3802 20.8313 70.3002 20.9313 70.7602 21.1613C70.6802 20.8113 70.8902 20.5413 71.0002 20.2313C71.2502 20.2313 71.5302 20.5213 71.4602 20.7513C71.2984 20.7186 71.1473 20.6465 71.0202 20.5412C70.8102 20.7812 71.3602 21.2212 71.4602 21.5412C71.5302 21.3912 71.4602 21.2012 71.6702 21.1012C72.1102 21.4712 72.1602 21.9313 72.6702 22.4313C72.4002 21.7513 72.5902 21.5212 72.2802 21.2412C72.6702 21.2412 72.7902 21.2412 72.8602 21.6912C72.8602 20.5912 74.6902 22.6313 74.8602 21.9113C75.1802 21.7513 74.8602 22.2013 75.1402 22.3713C74.9602 22.3713 74.8302 22.2813 74.6502 22.3713C74.6502 22.6313 75.1102 22.5312 74.6502 22.9712C74.9602 23.2312 74.8602 22.6212 75.1902 22.8112C75.5802 23.5912 75.8302 23.3412 76.3202 24.1912C76.3902 23.9612 76.4802 24.0413 76.6802 23.9813C76.3102 23.5713 75.5702 23.0912 75.5402 22.6012C75.6902 22.5412 75.7702 22.7613 75.8702 22.8913C76.3102 22.6113 75.8702 23.3512 76.5102 23.4512C76.5102 23.1712 76.3802 22.4512 76.0302 22.6312C76.3802 21.9912 76.7602 22.8712 76.8702 23.2412C76.9702 23.0412 77.1302 22.8412 76.9402 22.5612C77.1202 22.4912 77.1902 22.8912 77.3802 22.7812C77.2502 23.2512 77.3802 23.5713 77.0202 23.7812C77.5683 24.1377 78.191 24.3635 78.8402 24.4412C78.8402 24.7912 78.5002 24.5212 78.3202 24.9012C78.6302 25.1612 78.5302 24.5512 78.8602 24.7412L79.1402 25.2113C79.0539 25.2334 78.9625 25.2245 78.8821 25.1861C78.8016 25.1477 78.7372 25.0823 78.7002 25.0013C78.5902 25.1013 78.7002 25.2713 78.6002 25.3713C79.0409 25.484 79.4957 25.5312 79.9502 25.5112C80.3102 25.8612 80.7002 26.5113 81.0202 25.9813C81.1802 26.2913 80.7502 26.5212 80.5102 26.4512L80.6402 26.6813C80.9202 26.3613 81.4302 26.8013 81.9702 26.5312C81.9702 27.3813 82.8302 27.2613 83.2202 27.8413C83.5402 27.4813 82.0702 27.3013 82.9702 26.8413C82.9702 27.2513 83.3702 27.4612 83.7602 27.6012C83.8302 26.5412 82.4602 26.9112 82.5402 25.8312C82.4002 25.9212 82.4002 26.1512 82.1402 26.1112C82.6002 25.8012 81.5102 25.5812 82.0002 25.2912C81.9402 25.0312 81.3802 25.2913 81.5902 24.7513C80.9302 24.9613 81.0802 24.3513 80.5902 24.3413C80.6702 24.2213 80.7502 24.1013 80.5902 24.0713C80.5902 23.8813 80.9302 23.9613 81.1302 23.9313C81.1302 23.8113 80.5302 23.5713 80.5902 23.8013C80.3102 23.7213 80.7802 23.2713 81.1302 23.3913C80.9802 22.7713 80.6902 23.2212 80.4502 22.4412C79.8302 22.7312 79.7702 22.6512 79.1002 22.4412C78.9302 22.2612 79.0402 22.2313 79.1002 22.0312C78.8102 22.3313 78.7102 21.9713 78.2802 22.0312C78.3702 21.2212 77.2802 21.5312 77.4702 20.6712C77.3783 20.7286 77.3043 20.8105 77.2566 20.9077C77.2089 21.0049 77.1893 21.1135 77.2002 21.2212C77.2002 20.4712 76.7302 20.7913 76.6502 20.0013C75.3402 19.7513 75.4302 18.7112 74.1902 18.1912C74.1902 17.1012 71.4902 16.6313 72.2902 15.4813C72.2902 15.3313 72.0202 15.3913 72.0202 15.2113C71.8502 15.2813 72.1202 15.7312 71.4802 15.6112C71.4802 15.2412 71.7002 15.3413 71.4802 15.0713C71.0302 15.3013 69.9802 14.4813 70.2502 13.9813C69.8602 13.6713 69.2502 13.4012 69.0302 13.8512C68.8609 13.6098 68.6387 13.4104 68.3804 13.2683C68.1221 13.1261 67.8347 13.0451 67.5402 13.0312C67.7202 12.6513 68.1102 12.8912 68.6202 12.6312C68.1702 12.2212 67.6202 12.8812 67.1302 12.9012C67.7302 12.4812 66.7502 12.2812 66.8602 12.6312C66.3902 12.6312 66.6602 11.9212 66.3202 11.8112C66.1802 11.8112 66.2102 11.9812 66.1802 12.0812C64.0751 10.9832 61.8364 10.163 59.5202 9.64125C59.3202 9.70125 59.5802 9.81125 59.5202 10.0412C59.0702 9.71125 58.4202 10.3613 58.3002 9.64125C58.5002 9.71125 59.0002 9.48125 58.9802 9.77125C58.9802 9.57125 59.1602 9.53125 59.3902 9.23125C59.3902 8.48125 58.3902 9.37125 58.5702 9.37125C57.9302 9.37125 58.9202 9.37125 58.4402 8.96125C58.1902 8.76125 57.2002 9.41125 57.2102 8.69125C57.0102 8.81125 57.3602 9.30125 56.9402 8.82125C56.5102 9.01125 57.1302 9.49125 56.8102 9.64125C56.4902 9.79125 56.8102 9.32125 56.6702 8.96125H55.9902C55.8602 9.33125 55.3102 9.28125 54.9902 9.50125C54.7502 9.50125 54.6802 9.27125 54.7202 8.96125C54.9302 9.02125 54.8302 9.39125 55.2602 9.23125C55.5002 9.11125 55.5102 8.75125 55.6702 8.55125C55.3102 8.55125 55.2202 8.74125 55.2602 9.09125C54.7402 9.21125 55.0402 8.50125 54.4502 8.69125C54.4502 8.97125 54.1402 8.80125 54.0402 9.23125C53.9302 9.23125 53.9002 9.09125 53.7702 9.09125C53.6402 9.09125 53.7102 8.97125 53.6302 8.96125C54.1802 8.32125 51.6302 8.44125 51.7302 8.82125C51.5902 9.15125 51.3302 8.77125 51.3702 8.55125C51.4058 8.51208 51.436 8.46836 51.4602 8.42125C51.4338 8.43133 51.4111 8.44913 51.3951 8.47233C51.379 8.49553 51.3703 8.52304 51.3702 8.55125C51.1502 8.76125 50.7302 8.76125 50.6402 9.09125C50.2902 8.65125 50.0002 9.57125 49.8302 8.96125C49.3402 9.21125 50.0702 9.33125 49.9702 9.64125C49.6102 9.52125 49.0302 9.50125 49.1502 9.77125C49.0902 9.97125 48.9802 9.77125 48.7402 9.77125C49.0302 9.40125 48.9602 9.17125 48.6102 8.82125C48.5202 9.65125 47.6102 8.48125 47.3802 9.37125C47.5102 9.76125 47.8802 9.37125 47.9302 9.64125C47.9302 10.0913 46.8402 9.49125 46.8402 9.37125C46.7475 9.40524 46.663 9.45846 46.5924 9.52739C46.5217 9.59633 46.4664 9.67944 46.4302 9.77125C46.4902 9.30125 46.0302 9.50125 45.7602 9.09125C45.6002 9.14125 45.2902 9.69125 45.6202 9.77125C45.3702 10.3913 45.3302 9.02125 45.0802 9.64125C45.0802 9.34125 43.7702 9.27125 44.5302 9.09125C44.5302 8.80125 44.0502 9.03125 43.8502 8.96125C42.7502 10.1013 41.7402 10.1513 40.0502 10.5913C40.0502 9.78125 39.6802 9.89125 39.2402 9.77125C39.2402 9.48125 39.7202 9.71125 39.9202 9.64125C39.5502 9.29125 39.3902 9.53125 38.9702 9.37125C39.2602 9.57125 38.9702 10.3013 39.6402 10.1813C39.6402 10.4013 39.5802 10.7012 39.7802 10.7212C39.7802 10.9212 38.5802 10.5412 38.8302 11.4012C38.3502 11.4012 38.8302 11.2112 38.5602 10.8612C38.2802 11.1412 37.8702 10.8612 37.8802 10.4512C37.5202 10.6212 36.9902 10.9213 36.8802 10.3213C36.6502 10.6713 36.0702 10.7812 35.1102 10.7212C35.1102 11.0812 35.4002 11.0712 35.6502 11.1312C35.5964 11.289 35.5071 11.4324 35.3892 11.5503C35.2713 11.6682 35.128 11.7575 34.9702 11.8112C35.2302 11.2112 34.1502 11.5613 34.8402 11.2713C34.6402 11.2025 34.4226 11.2047 34.2241 11.2776C34.0256 11.3504 33.8582 11.4895 33.7502 11.6712C33.9802 11.7212 34.0102 11.5712 34.0202 11.4012C34.2702 11.4012 34.3102 11.5712 34.5702 11.5412C34.4802 11.6612 34.4002 11.7812 34.5702 11.8112C34.4502 12.2112 34.1302 11.7312 33.8902 11.8112C33.6502 11.8912 33.6402 11.9312 33.6202 12.0812C33.6002 12.2312 34.2402 12.0813 34.0202 12.6213C33.2966 12.4848 32.5502 12.5329 31.8502 12.7612C31.8502 13.1812 32.1702 13.5312 31.8502 13.8512C31.2102 13.8512 31.4002 13.5013 30.7602 13.7113C31.0602 13.2013 30.1202 13.0512 30.7602 13.0312C30.7602 12.7913 30.6002 12.7512 30.6302 12.4912H29.9502C29.8502 12.8512 30.2302 12.7512 30.3502 12.9012C30.2402 13.3012 30.0102 12.7212 29.6802 12.9012C29.8402 13.1912 30.2602 13.2112 30.4902 13.4412C31.0102 13.5212 29.6302 13.6012 29.8102 13.1712C29.5202 13.3712 29.9602 13.5513 29.5402 13.7113C29.1702 13.5413 29.3302 13.3212 29.4002 13.0312C29.1302 12.8612 28.8802 13.1112 29.0002 12.3512C28.4402 12.7712 28.7202 13.6313 28.4502 13.7113C28.4502 14.0113 28.8002 14.0013 29.1302 13.9813C28.7602 14.6613 28.1302 14.1913 27.2302 14.3913C27.2755 14.2799 27.3441 14.1795 27.4315 14.097C27.5189 14.0144 27.623 13.9516 27.7367 13.9128C27.8505 13.8739 27.9713 13.8599 28.0909 13.8717C28.2105 13.8835 28.3262 13.9209 28.4302 13.9813C28.4902 13.5513 28.1802 13.5012 28.2902 13.0312C28.1721 13.1207 28.0283 13.1698 27.8802 13.1712C27.9402 13.3812 28.3102 13.2813 28.1602 13.7113C27.2602 13.9713 26.9202 14.3813 26.3902 14.3913C26.1402 14.1713 26.4902 13.9613 26.1202 13.7113C25.6902 13.9013 26.3102 14.3813 25.9802 14.5213C25.7302 14.5213 25.9002 14.0713 25.7102 13.9813C25.4402 14.2113 25.5402 13.9813 25.1702 13.9813C25.4102 14.7513 26.1102 14.4013 26.3902 14.8013C27.1902 14.5513 27.8102 14.7413 28.2902 14.3913C29.0302 15.2213 27.6302 15.0213 27.6102 15.7513C27.3602 15.7513 27.5202 15.3013 27.2102 15.3413C26.9002 15.3813 27.0902 15.6812 27.0702 15.8812C26.5702 15.7912 26.0702 15.5713 25.7102 15.7513C25.4702 15.3813 26.3102 15.4813 25.8502 15.3413C26.5443 15.4426 27.2519 15.2975 27.8502 14.9313C26.7302 14.7813 24.8502 14.9313 24.1802 15.7513C24.4902 15.9613 24.4902 16.0812 24.1802 16.2912C24.5002 16.3612 24.7802 16.4512 24.1802 16.7012C24.3302 17.0412 25.6102 16.9813 25.6702 16.4313C26.1002 16.3813 25.3302 16.8212 25.8102 16.8312C25.3002 16.8312 24.7002 17.3612 24.3202 17.1012C24.2102 17.2312 24.3202 17.6512 24.1802 18.1012C23.9902 18.1012 23.7902 18.1013 23.7702 18.2313C23.4102 18.1213 24.0802 17.5913 23.5002 17.5513C23.4109 17.5405 23.3208 17.5617 23.2457 17.6112C23.1707 17.6606 23.1155 17.735 23.0902 17.8213C23.2011 17.9476 23.3421 18.0439 23.5002 18.1012C23.2502 18.5912 23.1302 17.8613 22.8202 17.9613C22.9702 17.5313 22.8202 17.6012 22.9602 17.2812C23.3702 17.3813 23.2202 17.3813 23.6402 17.2812C23.4302 17.0312 23.0702 16.9412 22.9602 16.6012C22.7402 17.0612 22.6302 17.0612 22.4102 16.6012C22.0402 16.7212 22.7302 17.1512 22.0102 17.0112C21.9102 17.4712 22.2902 17.4512 22.4102 17.6912C22.3602 18.0212 21.8902 17.6912 22.0102 17.4212C21.5902 17.3212 21.6102 17.6513 21.1902 17.5513C21.4302 17.6813 21.4102 18.0513 21.8702 17.9613C22.0102 18.4713 21.4102 18.2313 21.3302 18.5013C21.0902 18.4013 21.3302 18.2513 21.3302 18.0913C21.0846 18.2405 20.7914 18.2906 20.5102 18.2313C21.0502 18.5813 20.6202 18.3513 20.9202 19.0513C20.7602 19.0513 20.6802 19.0513 20.6502 19.1813C20.3902 18.9313 20.5402 18.9313 20.1102 19.0513C20.5502 19.2113 20.2202 19.7712 20.1102 20.1312C19.7302 20.1312 19.8302 19.9012 19.5602 20.1312C19.5102 20.4612 20.1802 20.0612 19.9702 20.5412C19.8602 20.4212 19.6002 20.4613 19.5602 20.2713C19.3602 20.3813 19.3702 20.7012 19.2902 20.9512C19.1964 20.7849 19.1472 20.5972 19.1472 20.4062C19.1472 20.2153 19.1964 20.0276 19.2902 19.8612C19.2402 19.9712 20.0202 20.0113 19.5602 19.5913C18.5002 19.4513 18.8402 20.5913 18.2002 20.5913V21.1312C18.6902 20.7912 18.5202 21.0613 19.0202 21.2713C19.0202 21.4713 18.2102 21.4712 18.8802 21.5412C18.6202 22.0512 18.3602 21.8512 17.9302 21.6712C17.8602 22.0012 17.7702 22.2812 17.5302 21.6712C17.1502 22.3712 16.6402 22.4012 15.7602 22.7612C15.9002 23.1612 16.6702 22.9412 16.7102 23.4412C16.4302 23.7112 16.4402 23.3812 16.1702 23.3112C16.1702 23.5012 16.1702 23.6913 16.3002 23.7113C15.9902 23.7113 15.8702 23.8912 15.6202 23.5812C15.4502 23.7812 15.4202 24.3212 15.7602 24.2612C15.6402 24.4912 15.5102 24.7313 15.0802 24.6613C15.0802 24.5013 15.0802 24.4213 14.9402 24.3913C14.9402 24.1413 15.3902 24.3012 15.3502 23.9912C15.3102 23.6812 14.9102 23.7913 14.6702 23.7113C14.7811 23.8376 14.9221 23.9339 15.0802 23.9912C14.7802 24.1412 14.0802 24.3412 13.8602 24.9412C14.2102 25.4812 14.5002 24.4712 14.8102 24.9412C14.6302 25.1712 14.1602 25.1013 14.1302 25.4813C14.1302 25.6613 14.4702 25.5913 14.6702 25.6213C14.6702 25.9113 14.3302 25.9113 13.9902 25.8913C14.1602 26.3713 13.6502 26.8912 13.1802 27.1112C13.2703 26.9941 13.3163 26.8489 13.3102 26.7012C12.9602 26.8012 12.5002 27.2013 12.0902 26.8413C12.0302 27.3713 11.4402 27.3713 11.0002 27.5213C11.0002 27.7813 11.6402 27.2812 11.2802 27.7912C11.4302 27.7912 11.5202 27.7912 11.5502 27.6512C11.9602 27.8212 10.9802 28.1812 11.6802 28.3312C10.5402 29.1712 9.91017 28.7612 8.97017 30.1012C9.64017 30.3612 8.89017 30.4712 9.37017 30.7812C9.43017 31.1012 8.76017 30.7013 8.97017 31.1813C8.75017 31.1813 8.73017 31.0613 8.56017 31.0513C8.69017 31.4713 7.97017 31.6813 7.61017 32.0013C7.61017 32.1513 7.88017 32.0913 7.88017 32.2713L8.29017 31.8612C8.52017 31.9512 8.37017 32.1812 8.15017 32.1312C8.24017 32.2712 8.46017 32.2812 8.42017 32.5412C8.17804 32.6899 7.88814 32.74 7.61017 32.6812C7.90017 33.4112 7.08017 33.6813 7.20017 34.3113C6.81017 34.2513 6.88017 33.7213 6.52017 33.6313C6.52017 33.3013 7.14017 33.7012 6.93017 33.2212C7.17017 33.5612 7.15017 33.3213 7.47017 33.4913C7.47017 33.1513 7.17017 33.1613 7.06017 32.9513C6.60017 33.0713 6.49017 33.5513 5.84017 33.4913C5.94017 33.6013 6.05017 33.8712 5.84017 33.9012L6.25017 34.3113C5.40017 34.5913 5.01017 35.5713 4.76017 36.4813C4.37017 36.4113 4.18017 36.1512 3.76017 36.0712C4.32017 35.7812 3.61017 35.7512 3.63017 35.2612C3.43017 35.2612 3.24017 35.2612 3.22017 35.3912C3.39017 35.1012 3.10017 34.6812 2.40017 34.5812C2.53017 34.4312 2.71017 34.5813 2.95017 34.3113C2.89017 34.1013 2.77017 34.3113 2.54017 34.3113C2.69017 34.1413 2.66017 34.0312 2.40017 34.0412C2.40017 33.7312 2.98017 33.9812 3.22017 33.9012C3.01017 33.6112 2.41017 33.8513 2.95017 33.4913C2.82017 33.3913 2.40017 33.4912 1.95017 33.3612C2.40017 33.1412 2.02017 32.9412 2.08017 32.3612C2.45017 32.3612 2.36017 32.1312 2.63017 32.3612C2.44017 32.7512 2.26017 32.8113 2.63017 33.1713C3.18017 32.6513 2.04017 31.5612 3.17017 30.8612C2.34017 30.7612 2.62017 30.3113 1.95017 30.1813C2.03017 30.0613 2.11017 29.9413 1.95017 29.9113C2.23017 29.8413 2.38017 29.7013 2.22017 29.0913C1.92017 29.1713 1.63017 29.9413 1.81017 30.0913C1.81017 30.5713 1.44017 29.6213 1.40017 30.0913C1.07017 29.8413 1.67017 29.6013 1.00017 29.8213C1.12017 29.2413 1.55017 29.3813 1.13017 28.8713C1.57017 28.7513 1.32017 29.3212 1.67017 29.2812C2.02017 29.2413 1.98017 29.0512 1.95017 28.7412C2.17017 29.2412 2.77017 28.9613 2.76017 28.4613C2.96017 28.7713 3.09017 28.2912 3.17017 28.6012C3.17017 29.1412 2.96017 28.6013 2.76017 28.8713C2.98017 28.7713 4.70017 29.0212 3.76017 29.4212C4.07017 29.7412 4.24017 29.5813 4.71017 29.5513C4.83643 29.4422 4.92991 29.3003 4.98017 29.1413C4.95684 29.0558 4.90365 28.9816 4.83025 28.9321C4.75686 28.8825 4.66812 28.8609 4.58017 28.8713C4.10017 28.8713 5.06017 29.2413 4.58017 29.2812C4.53017 29.5513 4.47017 28.6913 3.76017 28.8713C4.04017 28.7313 4.47017 28.3812 4.71017 28.6012C4.62008 28.4841 4.57407 28.3389 4.58017 28.1912C4.21017 28.1012 4.32017 28.4812 4.17017 28.6012C3.82017 28.6012 4.03017 28.0212 3.49017 28.1912C3.87017 27.8212 3.65017 27.6913 4.17017 27.5213C4.12017 27.2513 3.65017 27.4112 3.76017 26.9712C4.26017 26.9712 4.29017 26.7812 4.76017 26.9712C4.62017 26.3312 4.05017 26.9712 3.94017 26.2912C4.17017 26.2912 4.20017 26.4012 4.21017 26.5612C4.43017 26.3912 4.43017 26.1912 4.65017 26.1912V25.2412C5.57017 25.7312 5.65017 24.7012 6.14017 24.7012C5.92017 24.3012 5.71017 24.6413 5.46017 24.4313C5.90017 24.1513 6.08017 24.2313 5.74017 23.7513C6.03017 23.6613 6.17017 24.1312 6.14017 23.6112C6.60017 23.7312 6.14017 23.9212 6.42017 24.1512C6.77017 23.5612 7.54017 23.6613 6.96017 22.6613C7.12017 22.6613 7.20017 22.6612 7.23017 22.5312C7.54017 22.5312 7.54017 22.8913 7.37017 23.0713C7.97017 23.0713 7.96017 22.5313 8.45017 22.8013C8.45017 22.5613 8.22017 22.4913 7.91017 22.5312C7.63017 22.2012 8.61017 22.5312 8.86017 22.5312C8.75017 22.2312 8.53017 22.0513 8.05017 22.1213C7.92017 21.8613 8.45017 21.6613 8.05017 21.5713C8.11017 21.1413 8.63017 22.4413 8.73017 21.5713C9.03017 22.1613 9.27017 21.7513 9.68017 21.7113C9.56017 21.5113 9.47017 21.7113 9.13017 21.5713C9.13017 21.4313 9.40017 21.4813 9.41017 21.3013C9.24017 21.1113 8.89017 21.0012 8.73017 21.1712C8.66017 20.9512 9.09017 20.9212 9.54017 20.7612C9.47017 20.5612 9.70017 20.0612 9.41017 20.0812C9.99017 20.1712 9.89017 19.7012 10.9002 19.8112C11.2202 19.4212 11.0902 19.1912 10.9002 18.8112C11.4002 18.7212 11.4702 19.4112 11.5802 18.6712C11.8902 18.7612 12.4002 18.9412 12.6702 18.6712C12.6702 18.4712 11.8602 18.4812 12.5302 18.4012C12.5302 18.0812 12.0602 18.1512 12.1202 17.7212C12.7002 17.7212 13.3302 17.7213 13.4802 17.1813C13.5749 17.2145 13.6609 17.2686 13.7318 17.3396C13.8028 17.4106 13.8569 17.4966 13.8902 17.5913C14.0002 16.8013 14.0702 17.1713 14.4302 16.5913C14.3702 16.3813 14.2602 16.6413 14.0202 16.5913C14.4502 15.9113 15.6802 16.9213 15.7902 15.7713C15.7902 15.6513 15.1902 15.4113 15.2502 15.6413C14.8202 15.4213 15.5302 15.2113 15.5202 14.9613C15.8602 14.9613 15.5202 15.4213 15.5202 15.5013C15.9602 15.4013 16.1202 15.0113 16.3302 14.6813C16.8102 14.6813 16.9002 15.3213 16.7402 15.5013H17.5602C17.3202 15.1413 17.2702 15.3613 16.8802 15.0913C16.8102 14.6613 17.0702 14.5613 17.1502 14.2812C18.3002 14.1412 18.5002 13.8012 19.5902 14.0112C19.7402 14.0112 19.6802 13.7413 19.8602 13.7313C19.7802 13.6013 19.5502 13.5912 19.5902 13.3312C19.7002 13.3312 19.7302 13.4613 19.8602 13.4613C20.0502 13.2713 20.1602 12.7912 20.0002 12.6512C19.8402 12.5112 19.7102 12.8112 19.4602 12.7812C19.5503 12.8984 19.5963 13.0436 19.5902 13.1912C18.9602 12.9312 19.8102 12.6712 19.4602 12.1912C20.0702 12.5012 19.7702 12.3213 20.2702 12.0513C20.2702 12.2113 20.2702 12.3012 20.4102 12.3312C20.5502 12.3612 20.2402 12.4313 20.1302 12.4613C20.0202 12.4913 20.2702 12.6013 20.2702 12.7313C20.5102 12.7313 20.5802 12.5012 20.5402 12.1912C21.3902 12.1912 23.0202 11.4813 22.8502 12.0513C23.8002 11.7613 23.9102 11.3112 24.4802 10.5612C24.2102 11.0912 24.8102 10.9712 25.1602 11.5112C25.2902 11.4112 25.3902 10.8712 24.7502 10.9712C25.2202 10.7112 25.7502 10.5212 25.8402 9.88125C26.2157 9.85067 26.5838 9.75949 26.9302 9.61125C26.8802 9.40125 26.6902 9.73125 26.6602 9.47125C27.0902 9.00125 27.7502 9.47125 28.2802 8.93125C28.1901 9.04844 28.1441 9.19357 28.1502 9.34125C28.6602 9.48125 28.5402 9.00125 28.9602 9.07125C28.7102 9.43125 29.1302 9.21125 29.5102 9.47125C29.6202 9.47125 29.6402 9.34125 29.7802 9.34125C29.7579 9.00495 29.7111 8.67073 29.6402 8.34125C30.4402 8.48125 30.8402 8.00125 31.2702 8.61125C31.1302 8.13125 31.3302 8.42125 31.9502 8.07125C31.368 7.96864 30.7724 7.96864 30.1902 8.07125V7.52125C30.5602 7.52125 30.6502 7.73125 30.4602 7.93125C30.8902 7.67125 31.1402 8.01125 31.6802 7.80125C31.6802 7.39125 30.6802 7.99125 30.8702 7.39125C31.4602 7.58125 31.8702 7.14125 32.5002 7.52125C32.6802 6.74125 34.0602 6.88125 34.8102 6.30125C35.0702 6.30125 34.5202 6.88125 35.2102 6.71125C35.1201 6.59407 35.0741 6.44894 35.0802 6.30125C35.2002 6.41561 35.2925 6.55583 35.3502 6.71125C35.6902 6.60125 35.8802 6.34125 36.3002 6.30125C36.0502 6.57125 36.4202 6.98125 36.7102 7.12125C36.8002 7.00125 36.8302 6.57125 36.9802 6.12125C36.9802 6.54125 38.0702 6.39125 37.6602 6.12125C37.8802 5.69125 37.8302 6.66125 38.3402 6.39125C37.7102 5.84125 38.7902 6.21125 38.8802 5.39125C39.2602 5.24125 39.8102 5.61125 39.8302 5.39125C40.2502 5.52125 39.6702 5.75125 39.6902 5.93125C39.9792 5.65551 40.3561 5.49036 40.7547 5.46476C41.1533 5.43916 41.5483 5.55475 41.8702 5.79125C41.8702 5.69125 42.3002 5.08125 42.6802 5.39125C42.3502 4.61125 43.3202 4.49125 44.3102 4.84125C43.6802 4.11125 44.8302 5.27125 44.5802 4.44125C44.9402 4.93125 46.0402 4.81125 46.7602 4.57125C47.0402 4.57125 46.5602 4.94125 47.0302 4.98125C47.5302 4.53125 48.4002 4.52125 48.6602 4.16125C48.8002 4.95125 49.7602 4.93125 50.2902 4.71125C50.2902 4.36125 50.0602 4.89125 49.7502 4.71125C49.5702 4.03125 50.4902 4.62125 50.1502 4.30125C50.2502 4.04125 50.7902 4.46125 50.9702 4.57125C50.9702 4.75125 50.7302 4.79125 50.7002 4.98125C50.8602 4.78125 51.2602 4.82125 51.2402 4.44125L52.0502 4.84125C52.1602 4.84125 52.1902 4.71125 52.3302 4.71125C52.2702 4.45125 51.8002 4.60125 51.9202 4.16125C52.5902 4.08125 51.9902 4.61125 52.7302 4.57125C53.1802 3.73125 54.0302 4.41125 54.5002 4.03125C54.1602 4.63125 55.3902 4.03125 55.5902 4.30125C55.5902 4.48125 55.3502 4.51125 55.3102 4.71125C55.8102 4.71125 55.8302 4.52125 56.2602 4.71125C56.4275 4.5529 56.5662 4.36683 56.6702 4.16125C56.7402 4.68125 58.2802 4.90125 58.5702 4.44125C58.8302 4.44125 58.6602 4.90125 58.8502 4.98125C59.0102 4.82125 59.3202 4.83125 59.6602 4.84125C59.4302 3.84125 60.3102 5.19125 60.8802 4.71125C60.8802 5.25125 61.2302 5.07125 61.5602 4.98125C61.6102 5.25125 61.5602 5.40125 61.2902 5.39125C61.6576 5.60924 62.0851 5.70386 62.5102 5.66125V5.25125C61.9802 5.07125 62.1802 5.75125 61.8302 5.39125C62.3802 4.91125 63.6302 5.12125 63.7402 5.66125C64.0602 5.66125 63.6602 5.04125 64.1402 5.25125C63.7902 5.87125 64.7702 5.74125 65.3602 5.79125C65.8002 6.02125 64.7002 5.84125 64.6802 6.07125C65.2802 6.35125 65.5102 5.99125 66.1802 6.20125C66.2402 6.49125 66.0902 6.56125 66.0402 6.74125C66.3802 6.74125 66.4702 6.54125 66.5902 6.34125C67.1202 6.48125 67.3102 6.97125 67.9402 7.02125C67.9402 7.40125 67.3802 7.26125 66.9402 7.29125C67.0202 7.68125 67.0402 7.52125 67.2202 7.97125C67.5102 7.38125 67.4002 7.71125 67.7602 7.29125C68.3102 7.45125 68.6102 7.23125 68.9802 7.29125C69.2502 8.29125 70.3202 7.68125 70.8802 8.78125C71.2702 8.71125 71.1202 8.68125 71.5602 8.51125C71.6202 8.99125 71.8502 9.09125 72.2402 8.92125C72.7402 9.13125 71.6902 8.92125 71.9702 9.33125C71.9702 9.68125 72.2002 9.14125 72.5202 9.33125C72.5202 9.52125 72.5202 9.71125 72.6502 9.73125C72.4602 9.89125 71.9202 9.73125 71.6502 9.73125C71.7397 9.84934 71.7887 9.9931 71.7902 10.1413C72.0902 10.1413 72.4302 9.59125 72.1902 10.1413C72.3902 10.0133 72.6174 9.93402 72.8535 9.90971C73.0897 9.8854 73.3283 9.91675 73.5502 10.0013C73.5502 10.1213 73.5502 10.1313 73.4102 10.1413V10.4113C73.2702 10.4113 73.3202 10.1413 73.1402 10.1413C72.5802 11.0513 74.5202 11.1413 75.0502 10.9613C75.0502 11.1713 74.9202 11.1912 74.9102 11.3612C75.1702 11.0412 75.3302 11.8212 75.7202 11.3612C76.0502 11.4412 75.3902 11.6513 75.3102 11.7713C75.8202 12.2213 76.7102 12.2712 76.8102 13.1312C77.1402 13.0512 77.1002 12.6012 77.6202 12.7212C77.5502 13.2212 77.3902 13.0612 77.9002 12.9912C77.8826 13.3297 77.9267 13.6685 78.0302 13.9912C78.4902 13.7512 78.7302 14.0812 79.3902 13.9912C79.3302 14.2512 79.0002 14.2412 79.1202 14.6712C79.2402 15.1012 79.6202 14.8912 79.8002 15.0812C79.8002 14.6512 78.8902 14.7812 79.3902 14.2612C79.6902 14.8712 79.8002 14.5112 80.0702 14.2612C80.1802 14.2612 80.2102 14.4012 80.3402 14.4012C80.3402 14.5212 80.3402 14.5312 80.4802 14.5412C80.3658 14.6613 80.2256 14.7536 80.0702 14.8112C80.1602 14.9512 80.3802 14.9513 80.3402 15.2113C80.4046 15.1932 80.4632 15.1588 80.5105 15.1116C80.5578 15.0643 80.5921 15.0056 80.6102 14.9412C80.7502 15.0312 80.5502 15.6712 81.0202 15.7612C81.4802 15.6112 80.6402 15.7612 80.8802 15.3512C81.6102 15.2412 81.3402 16.2913 81.9702 15.8913C81.8902 16.3313 82.2202 16.3113 81.9702 16.5713C82.3702 16.4113 82.6502 16.9213 82.6502 17.2513C82.7674 17.1612 82.9125 17.1151 83.0602 17.1213C83.4993 18.0124 84.1232 18.7998 84.8902 19.4313C84.8812 19.2175 84.823 19.0088 84.7202 18.8213C84.8902 18.6813 84.9902 18.8213 85.1402 18.7313C84.8525 17.9343 84.6317 17.1148 84.4802 16.2812C84.7902 15.9812 84.8902 16.4712 85.2002 16.1712C83.7102 15.9212 84.2702 13.0512 83.3802 12.0412C83.6002 11.9312 83.5402 11.7513 83.7802 11.6413C82.5502 10.4713 83.1502 9.08125 82.1602 7.86125C82.4302 7.59125 82.5402 7.96125 82.7702 7.86125C81.7702 7.03125 82.2202 6.77125 81.8702 6.34125C81.9702 5.90125 82.2002 5.95125 82.6202 5.74125C82.4302 5.43125 82.1002 5.74125 81.9202 5.36125C82.3302 5.02125 82.3402 4.98125 82.8102 4.99125C82.0702 4.82125 81.5002 4.58125 81.5502 3.68125C81.2102 4.05125 81.4602 4.01125 81.4802 4.36125C81.1602 4.16125 80.3202 2.25125 80.8002 1.61125C80.5702 1.38125 80.7002 1.86125 80.3802 1.70125C80.5302 1.18125 80.1002 0.501249 80.6902 0.0912495C81.0602 0.471249 81.0202 0.641251 81.2902 0.841251C80.7202 -0.0587486 82.4502 0.92125 81.9702 0.12125C81.8402 -0.19875 82.3302 0.171249 82.4102 0.331249C82.7202 0.211249 82.0302 -0.15875 82.5502 -0.21875C82.6202 0.21125 82.7802 0.271252 83.1602 0.521252C82.7633 0.89435 82.4968 1.38516 82.4002 1.92125C83.0202 2.27125 82.5402 2.77125 82.9302 3.34125C83.2402 3.45125 83.6002 3.34125 83.9302 3.39125C83.8602 3.82125 83.9302 3.74125 84.2302 4.16125C84.2838 4.07038 84.3121 3.96678 84.3121 3.86125C84.3121 3.75572 84.2838 3.65212 84.2302 3.56125C83.8202 3.32125 83.5002 2.78125 82.9702 3.04125C82.8902 2.79125 83.0502 2.60125 82.8602 2.32125C83.0702 2.27125 83.2502 2.32125 83.4602 2.27125C83.1502 2.83125 83.6702 2.41125 83.9302 2.79125C84.1402 2.51125 83.3502 1.98125 83.9302 1.79125C83.9302 2.18125 84.5802 2.79125 84.0202 3.00125C84.1537 3.05857 84.2656 3.15656 84.3402 3.28125C84.3969 3.14479 84.4948 3.02943 84.6202 2.95125C83.9602 2.95125 84.7402 2.28125 84.0502 1.72125C84.5302 1.84125 84.0502 1.47125 84.4402 1.32125C84.5502 1.54125 84.7302 1.48125 84.8402 1.72125C85.1002 1.41125 84.4802 1.51125 84.6802 1.19125C85.6802 0.96125 84.6802 1.98125 85.6802 1.73125C85.5602 1.52125 85.6802 1.27125 86.1502 1.45125C85.9117 1.68038 85.772 1.99352 85.7607 2.32407C85.7495 2.65461 85.8677 2.97649 86.0902 3.22125C85.8002 3.29125 85.3902 3.22125 85.3202 3.52125C85.6302 3.62125 86.0702 3.18125 86.3202 3.38125C86.7502 3.10125 85.8802 2.48125 86.0402 2.12125C86.2202 2.45125 87.1502 2.96125 86.5502 3.24125C87.1102 3.74125 87.2902 2.99125 87.2302 2.53125C87.5802 2.53125 87.3202 2.86125 87.6902 3.04125C87.3102 2.95125 87.4902 3.23125 87.4802 3.48125C87.3102 3.63125 87.2102 3.48125 87.0602 3.57125C87.3702 4.07125 87.3302 5.03125 87.6402 5.57125C87.3139 5.60558 87.0046 5.73414 86.7502 5.94125C86.9502 6.58125 87.3702 6.34125 87.6502 6.67125C86.8602 6.67125 87.4702 6.97125 87.4602 7.41125C87.2902 7.57125 87.1902 7.41125 87.0902 7.32125C86.8102 7.62125 87.3802 7.65125 87.4402 7.90125C87.5102 7.75125 87.4402 7.56125 87.6502 7.46125C87.7202 8.31125 88.1502 8.58125 88.7402 9.02125C88.3502 9.16125 88.7402 9.69125 88.1702 9.67125C88.4502 10.1012 88.5202 9.87125 88.7802 9.67125C88.7802 9.82125 88.7802 9.96125 88.9202 9.90125C88.9802 10.1812 88.7902 10.4012 88.5402 10.6012C88.3602 10.3112 88.5402 10.4112 88.7102 10.3512C88.3402 9.90125 88.1902 10.0713 87.8002 10.4113C88.3302 10.7213 88.4702 11.4112 89.2202 11.4712C89.0402 11.5212 88.9102 11.3712 88.7302 11.4712C88.7302 12.0412 89.1902 12.2012 89.3302 13.0112C89.0202 13.1712 89.0602 12.6412 89.0502 12.5412C88.4402 12.6812 88.9602 13.1212 89.1102 13.4512C88.8702 13.6212 88.6802 13.5812 88.5602 13.3112C88.5602 14.2512 89.1802 14.6412 89.7802 15.1112C88.9002 14.6312 89.8402 15.3012 89.5202 15.7412C89.7602 15.8212 90.1002 15.5512 90.2202 16.1112L89.7502 16.3913C89.8402 16.6713 90.0502 16.5113 90.2402 16.3913C90.3202 16.6813 90.2402 16.7512 89.9602 16.7212C90.9002 17.2112 89.1402 18.7213 90.2502 19.0713C90.2502 19.2513 90.1502 19.3812 90.2502 19.5612C90.0502 19.5612 90.0802 19.3713 89.7802 19.0513C89.5202 19.1813 89.9702 19.4912 90.0102 19.7012L89.3102 20.1213L89.5202 20.4712C89.6302 20.4012 89.5202 20.2713 89.5202 20.1613C89.7902 19.8713 89.9202 20.1612 90.1702 19.9412C90.1702 20.1012 89.9702 20.2112 90.1702 20.4212C90.0202 20.4912 89.9402 20.2713 89.8402 20.1413C90.1493 20.6443 90.3503 21.2062 90.4302 21.7912C90.2602 21.9312 90.1602 21.7912 90.0102 21.8812C90.1102 22.0712 89.8502 22.2412 90.1902 22.7212C90.4002 21.9112 90.4802 23.1812 90.4902 23.4912C91.0802 23.5412 90.8402 23.4912 90.9102 24.1912C90.0402 24.0112 90.4802 23.4513 89.6302 23.3713C89.4802 23.5613 89.7202 23.6813 89.8902 23.5312C89.9802 23.7512 89.8902 23.9212 89.5602 24.0412C89.7802 24.3812 90.2002 24.1912 90.5502 24.1912ZM83.0502 8.90125C83.3402 8.90125 83.3602 9.64125 83.8402 9.69125C84.0002 9.32125 83.0802 8.52125 83.0502 8.92125V8.90125ZM3.43017 32.1912C3.16017 32.1012 3.43017 31.5013 2.89017 31.6413V32.3212C3.09017 32.2912 3.43017 32.3612 3.43017 32.1912ZM3.57017 30.2912C3.32017 29.9412 2.87017 29.8112 2.57017 29.4712C2.59684 29.6627 2.54649 29.8569 2.43017 30.0112C2.65017 30.0112 2.90017 30.0112 2.84017 30.2912C2.94 30.3172 3.0442 30.3217 3.14589 30.3045C3.24759 30.2872 3.34448 30.2487 3.43017 30.1912C3.43017 30.2912 3.49017 30.4912 3.56017 30.2812L3.57017 30.2912ZM6.83017 25.5312C6.44017 25.5312 6.14017 25.5313 6.02017 25.8013C6.27017 25.9813 5.72017 26.5013 5.47017 26.6213C5.47017 26.3813 5.61017 25.9413 5.20017 26.0713C5.20017 26.6213 5.20017 27.2213 5.20017 27.8413C5.89017 27.6213 5.37017 27.3713 5.61017 26.6213C6.04605 26.2921 6.45106 25.9239 6.82017 25.5213L6.83017 25.5312ZM6.97017 26.0812C6.70583 26.1342 6.45729 26.2474 6.24393 26.4122C6.03057 26.577 5.85817 26.7889 5.74017 27.0312C6.71017 26.9913 6.43017 26.4013 6.96017 26.0713L6.97017 26.0812ZM9.55017 22.9512C9.22017 23.0112 9.25017 22.7012 8.87017 22.8112C9.04017 23.2512 8.43017 22.9212 8.60017 23.3612C9.13017 23.4412 9.21017 23.0712 9.54017 22.9412L9.55017 22.9512ZM11.1802 27.0312C10.9002 26.7812 10.2502 27.0313 9.95017 27.1613C10.4902 27.1213 10.9002 27.4913 11.1702 27.0213L11.1802 27.0312ZM11.3102 21.0312C11.3102 21.3413 10.5702 21.0312 10.6302 21.4412C11.0302 21.4412 11.0502 21.7413 11.4502 21.7113C11.4802 21.4013 11.7302 21.1312 11.3002 21.0412L11.3102 21.0312ZM12.8102 20.4912C12.7002 20.0712 13.1502 19.2612 12.6702 19.6712C13.0102 19.8912 11.8802 19.7812 11.8602 20.0812C11.9602 20.0812 12.0202 20.1912 11.9902 20.3512C12.4302 20.4712 12.1802 19.9112 12.5402 19.9412C12.5602 20.1912 12.4302 20.6313 12.8002 20.5013L12.8102 20.4912ZM13.3502 25.6512C13.2956 25.8082 13.2028 25.9491 13.0802 26.0612C13.0721 26.0317 13.0544 26.0056 13.0301 25.987C13.0057 25.9684 12.9758 25.9583 12.9452 25.9583C12.9145 25.9583 12.8847 25.9684 12.8603 25.987C12.8359 26.0056 12.8183 26.0317 12.8102 26.0612C12.9902 26.0612 13.0702 26.2512 13.3502 26.1912C13.4302 26.1212 13.6802 25.6813 13.3402 25.6613L13.3502 25.6512ZM14.5702 18.9912C14.3861 18.858 14.1588 18.7985 13.933 18.8244C13.7072 18.8504 13.4993 18.9598 13.3502 19.1312C13.7002 19.0512 13.8402 19.1312 13.7602 19.5312C14.1002 19.4513 14.2102 19.1013 14.5602 19.0013L14.5702 18.9912ZM16.5702 17.2313C16.7802 17.2313 17.0702 17.2313 17.1102 17.0913C16.6302 17.0913 17.4002 16.6413 16.9802 16.6813C16.9802 16.8513 16.8302 16.7713 16.7102 16.6813C16.6902 16.8813 16.5402 16.9512 16.6002 17.2412L16.5702 17.2313ZM18.0702 19.4012C17.5502 19.6312 17.2202 19.0013 17.0702 19.2713C17.1502 19.2713 17.2302 19.2712 17.2002 19.4012C17.1702 19.5312 16.8702 19.8012 16.7902 20.0812C17.0602 20.0812 17.0602 20.2612 17.2002 20.3512C17.1002 19.7712 17.4802 19.2612 17.7402 19.8112C17.8502 19.6212 18.0502 19.5913 18.1002 19.4113L18.0702 19.4012ZM18.4702 14.4012C17.9602 14.3012 18.1802 14.9212 17.7902 14.9512V14.5412H17.1102C17.1163 14.6889 17.0703 14.8341 16.9802 14.9512C17.4102 14.8812 17.2802 15.3612 17.7902 15.2212C18.1002 14.9712 18.4302 14.8312 18.5002 14.3812L18.4702 14.4012ZM21.8702 12.5013C21.5002 12.4013 21.5902 12.7713 21.3302 12.7713C21.2202 12.4813 21.2002 13.2713 21.3302 13.3213C21.3802 13.0613 21.7102 13.0713 21.6002 12.6413C21.8202 12.6313 22.1502 12.5913 21.9002 12.4813L21.8702 12.5013ZM24.0402 16.3112C23.6702 16.2412 23.4102 16.1812 23.2302 16.3112C23.0502 16.4412 24.1302 17.3312 24.0702 16.2912L24.0402 16.3112ZM23.7702 16.9813C23.7702 17.3813 23.7702 17.6713 24.0402 17.8013C23.9902 17.5013 24.2902 16.8413 23.8002 16.9613L23.7702 16.9813ZM29.2002 10.9813C28.8602 10.9813 28.5002 10.9812 28.5202 11.3812C28.7379 11.2912 28.9824 11.2912 29.2002 11.3812V10.9813ZM31.1102 8.98125C30.7602 8.86125 30.3402 8.76125 30.1102 9.12125C30.6702 8.97125 31.0002 9.48125 31.1402 8.95125L31.1102 8.98125ZM32.1902 12.1012C31.5302 12.2412 31.2502 12.2212 30.9702 12.5112C31.3102 12.5112 30.9702 12.9712 30.9702 13.0612C31.1502 13.0612 31.2302 13.2512 31.5102 13.1912C31.1702 12.8112 31.3602 12.5112 32.0502 12.5112C32.0534 12.3492 32.1136 12.1934 32.2202 12.0713L32.1902 12.1012ZM34.0902 8.57125C34.2383 8.57269 34.3821 8.62178 34.5002 8.71125C34.4756 8.59437 34.4753 8.47367 34.4994 8.35668C34.5235 8.23969 34.5714 8.12891 34.6402 8.03125C33.9902 8.09125 34.4902 7.86125 34.2302 7.62125C33.9702 7.38125 33.6202 7.97125 33.9602 8.03125C33.8502 8.11125 34.2402 8.06125 34.1202 8.54125L34.0902 8.57125ZM34.9102 9.66125C34.4702 9.78125 34.4902 9.45125 34.2302 9.39125C34.5002 9.82125 33.6902 9.81125 34.0902 9.93125C34.2702 9.93125 34.2802 9.76125 34.5002 9.80125C34.5002 9.90125 34.5002 10.0613 34.6402 10.0713C34.6802 9.82125 35.0102 9.93125 34.9402 9.63125L34.9102 9.66125ZM38.8502 7.89125H38.4302C38.4302 9.21125 39.1002 8.89125 38.5602 8.17125C38.7702 8.12125 38.9302 8.09125 38.8802 7.86125L38.8502 7.89125ZM41.2902 8.03125C40.9202 8.03125 40.2902 7.64125 40.0702 8.03125C40.2702 8.19125 41.1702 8.27125 41.3202 8.00125L41.2902 8.03125ZM42.2902 9.25125C41.9702 9.52125 41.6302 9.02125 41.2902 9.39125C41.7102 9.48125 41.5202 9.80125 41.2902 9.93125C41.4816 9.90459 41.6758 9.95494 41.8302 10.0713C41.8502 9.60125 42.0202 9.63125 42.2702 9.19125L42.2902 9.25125ZM45.5502 7.25125C45.5002 6.94125 44.8302 7.14125 44.7402 7.25125C44.5202 7.61125 45.7302 7.61125 45.5302 7.19125L45.5502 7.25125ZM46.6402 7.65125C46.3702 7.65125 46.4702 7.28125 46.1002 7.38125C46.1902 7.75125 45.8302 7.65125 45.8302 7.92125C46.1902 7.89125 46.4902 7.83125 46.6202 7.59125L46.6402 7.65125ZM48.0002 7.25125C47.6602 6.98125 47.0002 7.25125 46.6402 7.38125C47.0102 7.28125 46.9102 7.65125 47.1802 7.65125C47.1802 6.92125 47.6702 7.57125 47.9802 7.19125L48.0002 7.25125ZM48.6802 5.25125C48.4102 5.25125 48.5002 4.88125 48.1302 4.98125C48.1902 5.30125 47.5202 4.90125 47.7302 5.38125C48.1102 4.96125 48.3702 5.81125 48.6602 5.19125L48.6802 5.25125ZM52.3402 7.83125C52.0002 7.83125 52.0202 7.52125 51.8002 7.42125C51.8802 7.42125 51.9602 7.31125 51.8002 7.29125C51.7216 7.64612 51.678 8.00786 51.6702 8.37125C51.6702 8.27125 51.7802 8.21125 51.9402 8.24125C52.1002 8.27125 51.9402 8.50125 52.0702 8.51125C52.0302 8.07125 52.2702 7.99125 52.3202 7.73125L52.3402 7.83125ZM55.6002 7.42125C55.6327 7.68978 55.5727 7.96136 55.4302 8.19125C56.0302 8.11125 56.1002 7.42125 55.5802 7.32125L55.6002 7.42125ZM56.2802 8.10125C56.2802 8.48125 55.8702 8.42125 55.8802 8.78125H56.4302C56.2502 8.33125 56.8602 7.98125 56.2602 8.00125L56.2802 8.10125ZM60.6302 8.10125C60.4302 8.03125 60.2902 7.90125 60.0902 7.83125C59.9102 8.11125 60.1502 8.23125 59.9502 8.64125C60.2002 8.64125 60.2402 8.54125 60.0902 8.37125C60.3702 8.31125 60.5802 8.24125 60.6102 8.00125L60.6302 8.10125ZM76.2302 18.8713C76.2302 18.5513 76.0902 18.2812 75.8202 18.1912C75.6502 18.5812 75.7502 18.8113 76.2302 18.8713ZM78.4302 19.9512C78.2402 19.9512 78.2102 19.7313 78.0302 19.6813C78.0302 20.4813 77.0302 19.5412 76.9402 20.3612C77.2502 20.0712 78.2802 20.4712 78.4302 19.9512ZM79.6602 20.3612C79.3202 20.5512 79.5702 20.6313 79.3802 20.7713C79.294 20.7459 79.2195 20.6908 79.1701 20.6157C79.1206 20.5406 79.0994 20.4505 79.1102 20.3612C79.2702 20.3612 79.5002 20.3613 79.5202 20.2313C79.2702 20.0613 78.4102 19.6413 78.7102 20.0913C78.8802 19.7813 79.3602 20.3812 78.8402 20.4912C78.9275 20.5148 79.0032 20.5695 79.053 20.645C79.1027 20.7206 79.1231 20.8117 79.1102 20.9012C79.6802 21.1012 80.2302 20.5612 79.6302 20.3612H79.6602ZM82.2402 19.8213C81.7302 20.0413 81.6202 19.1913 81.4202 19.5513C81.6302 19.6613 81.4202 19.7513 81.5602 20.0913C81.8702 20.1113 82.1902 20.1213 82.2102 19.8213H82.2402ZM83.6002 26.6112C83.6002 26.2712 83.3802 26.1913 83.3202 25.9313C83.0202 25.8613 82.5102 26.2712 82.9202 26.4712C83.0902 26.0212 83.2202 26.7512 83.5702 26.6112H83.6002ZM61.0002 18.0612C61.0748 18.1878 61.1063 18.3352 61.0902 18.4813C61.2146 18.4013 61.3639 18.3693 61.5102 18.3913C61.5902 18.1113 61.3302 17.7912 61.0002 18.0612ZM60.6402 19.0612C60.4902 18.7612 60.3302 18.4813 60.0602 18.6213C60.1602 18.9313 60.2102 19.2612 60.6402 19.0612ZM61.2702 19.3213C61.1102 19.4113 61.0402 19.1812 60.9002 19.2212C60.9602 19.4712 60.7402 19.2212 60.5902 19.2212L61.1502 20.1512C61.3002 20.0912 61.4702 19.9312 61.5702 20.0612C61.4402 20.1612 61.5702 20.3213 61.6602 20.4813C62.1302 19.8213 60.7502 19.8913 61.2702 19.3213ZM63.6502 18.5412C63.6502 18.4112 63.5502 18.2512 63.3702 18.1012C63.4131 18.2177 63.4432 18.3384 63.4602 18.4613C63.5166 18.5019 63.5816 18.5293 63.6502 18.5412ZM65.1102 19.4113C64.6102 19.5813 65.3102 20.0512 64.8102 20.2212C65.0202 20.6812 65.4302 19.7113 65.1102 19.4113ZM69.1102 24.2912C68.9842 24.368 68.8372 24.403 68.6902 24.3913C68.6902 24.7213 68.9502 24.7013 68.9902 25.1613C69.4302 24.9613 68.9502 24.5512 69.1202 24.2912H69.1102ZM72.9102 24.5713C72.6602 24.7613 72.5802 24.3113 72.3502 24.4313C72.4602 24.5713 71.7602 24.9813 72.3502 24.9113C72.3502 24.8413 72.2902 24.7713 72.3502 24.7313C72.4102 24.6913 73.0102 24.9913 72.9202 24.5713H72.9102ZM80.3402 26.1912C80.1702 26.3812 79.5702 26.4613 79.7102 26.7313C79.8902 26.5713 80.6702 26.6312 80.3402 26.1912ZM82.9602 27.9512C82.6802 28.1712 82.4802 28.0212 82.3302 27.6912C82.1558 27.7726 82.0171 27.9149 81.9402 28.0913C81.8611 27.9664 81.8292 27.8175 81.8502 27.6712C81.762 27.7531 81.6579 27.8159 81.5443 27.8554C81.4307 27.895 81.3101 27.9106 81.1902 27.9012C81.5202 28.1012 81.3502 28.3013 81.5902 28.3013C81.7202 27.9313 82.5102 28.3013 82.8702 28.3013C82.7802 28.1913 83.0102 28.0712 82.9602 27.9212V27.9512ZM88.4302 15.0412C88.1102 15.4312 88.4302 15.5212 88.0502 15.7412C88.1702 15.9912 88.4002 16.9713 88.5802 16.3713C88.2102 16.4313 88.5802 15.8512 88.4702 15.6512C88.7602 15.9912 88.7102 16.2412 88.8402 16.5412C89.2902 16.4512 89.0202 16.1813 89.1702 16.0213C89.2402 16.1413 89.3502 16.1112 89.4202 16.1912C89.2102 16.3012 89.2202 16.4713 89.4202 16.6813C89.5079 16.631 89.582 16.5601 89.636 16.4747C89.69 16.3893 89.7224 16.292 89.7302 16.1912C89.0102 16.1912 89.6702 15.4613 89.0602 15.3213C89.1008 15.3819 89.1283 15.4503 89.1407 15.5222C89.1532 15.5942 89.1503 15.6679 89.1324 15.7386C89.1145 15.8094 89.0819 15.8755 89.0367 15.9328C88.9915 15.9902 88.9348 16.0373 88.8702 16.0713C88.8702 15.8613 88.8702 15.6713 88.8702 15.4613C88.4802 15.7913 88.4302 15.1912 88.4302 15.0412ZM85.7402 26.3413C85.8949 26.3784 86.0519 26.4051 86.2102 26.4212C86.2102 26.2912 86.1502 26.1712 86.1102 26.0412C86.0297 26.0596 85.9545 26.0962 85.8903 26.1482C85.8262 26.2003 85.7748 26.2663 85.7402 26.3413ZM88.6202 17.7713C88.0602 17.8913 88.4202 17.4912 88.2802 17.1912C87.6902 17.5012 87.6402 16.7012 87.5602 16.5112C87.4002 16.6312 87.1002 16.7212 87.1602 16.9012C87.6802 17.1912 88.1602 17.5512 88.1602 18.2412C88.2222 18.2442 88.2842 18.234 88.342 18.2113C88.3999 18.1886 88.4522 18.1539 88.4957 18.1095C88.5391 18.0651 88.5727 18.012 88.5942 17.9537C88.6156 17.8954 88.6245 17.8332 88.6202 17.7713ZM87.5402 16.1912C88.0102 16.1912 87.4202 15.3212 87.2402 15.4212C87.2394 15.7066 87.3465 15.9817 87.5402 16.1912ZM88.1102 12.3812C87.9702 12.8312 88.9202 13.5112 88.6002 13.1912C88.2802 12.8712 88.5702 12.3513 88.1102 12.3913V12.3812ZM87.5202 10.8413C87.6502 11.2313 88.2402 11.8412 88.2802 11.3312C87.9902 11.3012 88.0302 10.7012 87.5202 10.8512V10.8413ZM86.3602 9.19125C86.728 9.5386 87.0266 9.95259 87.2402 10.4113C87.5602 10.1713 87.9502 10.6212 87.8202 10.0612C87.6402 10.1212 87.5002 10.0612 87.2902 10.2212C87.2402 10.0912 86.7902 8.95125 86.3602 9.19125ZM88.4302 30.3913C87.9202 30.3913 87.5502 29.9013 87.8702 29.4613C87.5902 29.1613 87.6902 29.7212 87.4102 29.7412C87.0602 29.4512 87.2402 29.4812 86.9902 29.0412C86.9302 28.5712 87.3302 29.4512 87.5002 29.3612C87.7202 28.7012 87.0302 28.7913 86.6902 28.2713C86.6002 27.7413 86.4502 27.1112 86.2802 26.4912C85.4702 26.8612 86.2802 28.0312 84.8402 27.9712C84.8402 28.2012 84.9402 28.2212 85.1102 28.2412C85.1082 28.3036 85.0839 28.3631 85.0416 28.409C84.9994 28.4549 84.9421 28.4841 84.8802 28.4912C84.9993 28.5366 85.131 28.5366 85.2502 28.4912C85.2502 28.6412 85.2502 28.7813 85.3902 28.7313C84.9102 29.3013 85.9802 29.1412 85.7502 29.6112C86.1402 29.6112 86.5602 29.5512 86.8202 30.0812C87.0402 29.9712 86.9802 29.7912 87.2202 29.6912C87.0602 30.5312 87.3802 29.5613 87.7502 30.3213C87.5102 30.2313 87.1902 30.4712 87.0102 30.1312C86.7402 30.2612 87.2002 30.5812 87.2402 30.7912C87.5002 30.1912 87.8602 30.7213 88.4302 30.3913ZM88.9702 30.2313C88.9702 30.0413 88.4802 28.9613 87.9702 29.3913C88.2619 29.6862 88.5799 29.9539 88.9202 30.1912L88.9702 30.2313ZM89.5402 28.0013C89.2702 28.3613 88.7002 28.0013 88.7602 28.3013C88.9502 28.2313 89.0502 28.4812 89.2102 28.5112C89.2102 28.9912 88.7602 28.7513 88.8302 29.2113C89.0602 29.1413 88.9002 29.3712 89.0402 29.5612C89.2467 29.1557 89.4205 28.7344 89.5602 28.3013C89.7602 28.6613 90.0202 28.8413 90.3202 28.8013C90.2402 28.6313 90.1602 28.0212 90.1202 28.4512C90.1202 28.5212 90.1802 28.5912 90.1202 28.6312C89.8902 28.1912 89.6102 28.4113 89.4902 28.0013H89.5402Z" fill="#EAEAEA"/>
</g>
<defs>
<clipPath id="clip0_754_9447">
<rect width="90.85" height="36.4" fill="white"/>
</clipPath>
</defs>
</svg>
