<svg width="168" height="88" viewBox="0 0 168 88" fill="none" xmlns="http://www.w3.org/2000/svg">
<path d="M166.832 6.83223L86.8322 86.8322C86.4607 87.2041 86.0196 87.4992 85.534 87.7005C85.0484 87.9018 84.5279 88.0054 84.0022 88.0054C83.4766 88.0054 82.9561 87.9018 82.4705 87.7005C81.9849 87.4992 81.5437 87.2041 81.1722 86.8322L1.17222 6.83223C0.800581 6.46059 0.50578 6.01939 0.304649 5.53381C0.103519 5.04824 0 4.52781 0 4.00223C0 3.47665 0.103519 2.95621 0.304649 2.47064C0.50578 1.98507 0.800581 1.54387 1.17222 1.17223C1.92278 0.421663 2.94077 0 4.00222 0C4.5278 0 5.04824 0.103526 5.53381 0.304657C6.01938 0.505788 6.46058 0.800585 6.83223 1.17223L84.0022 78.3422L161.172 1.17223C161.544 0.800585 161.985 0.505788 162.471 0.304657C162.956 0.103526 163.477 0 164.002 0C164.528 0 165.048 0.103526 165.534 0.304657C166.019 0.505788 166.461 0.800585 166.832 1.17223C167.204 1.54387 167.499 1.98507 167.7 2.47064C167.901 2.95621 168.004 3.47665 168.004 4.00223C168.004 4.52781 167.901 5.04824 167.7 5.53381C167.499 6.01939 167.204 6.46059 166.832 6.83223Z" fill="white"/>
</svg>
