<svg width="37" height="29" viewBox="0 0 37 29" fill="none" xmlns="http://www.w3.org/2000/svg">
<path d="M15.29 8.58008C15.29 8.51008 14.9001 8.57979 14.8301 8.52979C14.9201 8.64979 15.4 8.58008 15.29 8.58008Z" fill="#EAEAEA"/>
<path d="M16.2401 9.7499L16.0701 9.7299L16.4901 9.8999L16.2401 9.7499Z" fill="#EAEAEA"/>
<path d="M16.23 10.8398C16.94 10.7298 16.1101 10.44 16.3701 10.25H16.5303L15.96 10.1597C16.05 10.3597 16.43 10.6498 16.23 10.8398Z" fill="#EAEAEA"/>
<path d="M14.6899 11.4199C14.9599 11.4199 14.92 11.5398 14.77 11.2798H14.7002C14.7002 11.2798 14.7099 11.3599 14.6899 11.4199Z" fill="#EAEAEA"/>
<path d="M14.7004 11.3098C14.7004 11.1898 14.4704 11.3798 14.7004 11.3098Z" fill="#EAEAEA"/>
<path d="M14.8599 11.8398L14.6099 11.6899C14.4499 11.6899 14.41 11.8498 14.29 11.7998C14.43 11.9598 14.5999 11.9198 14.8599 11.8398Z" fill="#EAEAEA"/>
<path d="M15.3798 11.98L15.2802 11.8999C15.2102 11.9199 15.1798 11.94 15.3798 11.98Z" fill="#EAEAEA"/>
<path d="M15.0601 11.7397L15.2802 11.8999C15.3902 11.8999 15.6202 11.9001 15.2002 11.8301C15.4102 11.8401 15.2101 11.8097 15.0601 11.7397Z" fill="#EAEAEA"/>
<path d="M15.1603 11.6499C15.3203 11.5699 15.4203 11.4599 15.6603 11.6499C15.6003 11.3099 15.0603 11.3499 15.1603 11.6499Z" fill="#EAEAEA"/>
<path d="M16.9704 10.8901L17.1804 10.7798L16.9401 10.6797C17.0601 10.7297 16.7404 10.9001 16.9704 10.8901Z" fill="#EAEAEA"/>
<path d="M14.4902 12.7798C14.6402 12.7798 14.9003 12.7297 15.0903 12.7197L14.9199 12.6001C14.7983 12.7025 14.6486 12.765 14.4902 12.7798Z" fill="#EAEAEA"/>
<path d="M15.0903 12.7197L15.3501 12.8801C15.3801 12.7301 15.2603 12.7097 15.0903 12.7197Z" fill="#EAEAEA"/>
<path d="M16.1801 12.0099L15.6301 11.7399L16.1801 12.0599V12.0099Z" fill="#EAEAEA"/>
<path d="M14.4701 13.4199L14.1201 13.3299L14.6501 13.4899L14.4701 13.4199Z" fill="#EAEAEA"/>
<path d="M14.5303 13.8401C14.2403 13.7701 14.0399 13.9301 13.8599 13.8401C13.9099 13.9601 14.1601 14.0504 14.3901 14.1404C14.2601 14.0704 14.3003 13.9701 14.5303 13.8401Z" fill="#EAEAEA"/>
<path d="M14.7202 14.3101C14.6136 14.2529 14.5033 14.2024 14.3901 14.1597C14.4901 14.2294 14.602 14.2806 14.7202 14.3101Z" fill="#EAEAEA"/>
<path d="M15.2803 13.1699C15.1251 13.1758 14.9738 13.2204 14.8403 13.2998L15.27 13.23C15.2686 13.2095 15.2722 13.1888 15.2803 13.1699Z" fill="#EAEAEA"/>
<path d="M15.2805 13.23C15.2805 13.3 15.2805 13.3499 15.2805 13.3799C15.2763 13.33 15.2763 13.2799 15.2805 13.23Z" fill="#EAEAEA"/>
<path d="M15.79 12.4399C16.03 12.5399 16.2799 12.7498 16.6499 12.5498C16.3599 12.4798 16.15 12.5899 15.79 12.4399Z" fill="#EAEAEA"/>
<path d="M15.8101 13.0698L15.9102 12.8901C15.7785 12.9201 15.6419 12.9201 15.5103 12.8901L15.8101 13.0698Z" fill="#EAEAEA"/>
<path d="M15.9501 13.1599L15.8101 13.0698L15.7801 13.1399L15.9501 13.1599Z" fill="#EAEAEA"/>
<path d="M15.1203 14.0098C15.1783 14.0256 15.2305 14.0578 15.2712 14.102C15.3119 14.1463 15.3393 14.2007 15.3503 14.2598C15.426 14.1771 15.4717 14.0717 15.4802 13.96C15.3402 13.94 15.1003 13.8998 15.1203 14.0098Z" fill="#EAEAEA"/>
<path d="M15.6001 13.9399C15.6801 13.8599 15.5999 13.82 15.4399 13.77C15.4846 13.8242 15.5124 13.8902 15.52 13.96C15.54 13.96 15.6001 13.9599 15.6001 13.9399Z" fill="#EAEAEA"/>
<path d="M14.92 14.5698C15.001 14.5347 15.0781 14.4912 15.15 14.4399C15.02 14.4799 14.81 14.5598 14.92 14.5698Z" fill="#EAEAEA"/>
<path d="M15.1403 13.6499C15.0803 13.6499 15.0303 13.6499 15.1403 13.6499Z" fill="#EAEAEA"/>
<path d="M15.1403 13.6499C15.223 13.6926 15.3099 13.7262 15.3999 13.75C15.3627 13.7001 15.3152 13.659 15.2603 13.6299L15.1403 13.6499Z" fill="#EAEAEA"/>
<path d="M15.46 14.8501V14.77C15.4 14.86 15.2402 14.91 14.9302 15.02C15.0709 15.112 15.2323 15.1667 15.3999 15.1797L15.4502 14.8198L15.46 14.8501Z" fill="#EAEAEA"/>
<path d="M15.4102 14.4497C15.8402 14.5097 16.0302 14.6798 16.4902 14.5698C16.4902 14.3598 16.1302 14.4198 15.9502 14.2998C16.0502 14.6398 15.71 14.1997 15.46 14.4497C15.4071 14.3972 15.3695 14.3317 15.3503 14.2598C15.2906 14.3271 15.2232 14.3876 15.15 14.4399C15.21 14.4399 15.24 14.4399 15.21 14.4399H15.3701C15.2801 14.5399 15.26 14.4399 15.21 14.4399H15.1401L15.3701 14.7798C15.4701 14.6998 15.4602 14.6497 15.4102 14.4497Z" fill="#EAEAEA"/>
<path d="M17.6001 12.73H17.5C17.53 12.76 17.6001 12.77 17.6001 12.73Z" fill="#EAEAEA"/>
<path d="M17.3101 12.8701C17.2501 12.8701 17.0799 12.87 17.1299 12.75C17.1799 12.63 17.3302 12.75 17.4702 12.75C17.3957 12.697 17.3067 12.6685 17.2153 12.6685C17.1239 12.6685 17.0344 12.697 16.96 12.75H17.0103C16.7891 12.9021 16.5357 13.0014 16.27 13.04C16.6203 13.0086 16.968 12.9519 17.3101 12.8701Z" fill="#EAEAEA"/>
<path d="M16.4702 13.6499L16.6802 13.9399L17.0601 13.79H16.8301C16.9201 13.65 16.6502 13.6499 16.4702 13.6499Z" fill="#EAEAEA"/>
<path d="M15.1301 15.2299L14.6801 15.1899L15.3201 15.3599L15.1301 15.2299Z" fill="#EAEAEA"/>
<path d="M15.1901 15.5999L14.7901 15.5899L15.0301 15.6899L15.1901 15.5999Z" fill="#EAEAEA"/>
<path d="M15.3501 19.3901C15.1801 19.4901 15.1001 19.5799 15.0801 19.6499C15.3301 19.5299 15.7101 19.4201 15.3501 19.3901Z" fill="#EAEAEA"/>
<path d="M15.1899 16.9697L15.0601 17.0698C15.1086 17.0439 15.1524 17.01 15.1899 16.9697Z" fill="#EAEAEA"/>
<path d="M14.9905 16.9798V16.9198C14.9605 16.9098 14.9105 16.9098 14.9905 16.9798Z" fill="#EAEAEA"/>
<path d="M15.02 17.1997C15.0109 17.1792 15.0063 17.1572 15.0063 17.1348C15.0063 17.1124 15.0109 17.0903 15.02 17.0698H14.96C14.96 17.0698 15.01 17.1397 15.02 17.1997Z" fill="#EAEAEA"/>
<path d="M15.3901 17.9097C15.2201 18.0797 15.3001 18.0397 15.3901 17.9497V17.9097ZM15.6 17.6401C15.5342 17.6255 15.4657 17.6255 15.3998 17.6401C15.5198 17.6401 15.5302 17.7198 15.4902 17.7798C15.6002 17.7998 15.71 17.7599 15.6 17.6499V17.6401Z" fill="#EAEAEA"/>
<path d="M14.7803 16.27L14.8999 16.4399C14.8999 16.3599 14.9901 16.33 15.0601 16.29C14.9501 16.29 14.7903 16.33 14.7803 16.27Z" fill="#EAEAEA"/>
<path d="M17.7603 14.7998C17.7003 14.7998 17.7602 14.7397 17.7002 14.7197H17.4702C17.4794 14.7481 17.4955 14.7738 17.5171 14.7944C17.5386 14.8151 17.565 14.83 17.5938 14.8379C17.6225 14.8458 17.6526 14.8465 17.6816 14.8398C17.7107 14.8332 17.7378 14.8195 17.7603 14.7998Z" fill="#EAEAEA"/>
<path d="M15.3301 17.35C15.4301 17.29 14.81 17.3496 14.98 17.2796C14.46 17.2096 15.6001 17.65 15.3301 17.35Z" fill="#EAEAEA"/>
<path d="M34.0801 21.7799L31.1501 24.5099L17.7301 10.0699L4.3001 24.5099L1.3701 21.7799L17.7301 4.1899L34.0801 21.7799Z" fill="#EAEAEA"/>
<path d="M35.7902 20.04C35.8602 20.17 36.1303 19.85 36.2003 19.81C35.9703 19.7 35.7102 20.12 35.7902 20.04Z" fill="#EAEAEA"/>
<path d="M33.5101 18.9899L33.6601 18.8999L33.1201 18.9399L33.5101 18.9899Z" fill="#EAEAEA"/>
<path d="M32.0302 17.3901C31.6502 18.0201 32.6499 17.8798 32.7299 18.3398L32.6498 18.5L33.1899 18.2397C32.8099 17.9497 32.1102 17.7601 32.0302 17.3901Z" fill="#EAEAEA"/>
<path d="M32.3702 15.48C32.2202 15.73 32.0203 15.4797 32.4903 15.7397C32.4879 15.7131 32.4879 15.6863 32.4903 15.6597C32.4399 15.6073 32.3991 15.5467 32.3702 15.48Z" fill="#EAEAEA"/>
<path d="M32.5103 15.65C32.6803 15.8 32.5803 15.38 32.5103 15.65Z" fill="#EAEAEA"/>
<path d="M31.6699 14.9895L32.0601 15.0398C32.1401 14.8798 31.9801 14.6597 32.1401 14.6497C31.8301 14.5197 31.7499 14.6495 31.6699 14.9895Z" fill="#EAEAEA"/>
<path d="M31.1001 15.14H31.2803C31.3103 15.11 31.3001 15.07 31.1001 15.14Z" fill="#EAEAEA"/>
<path d="M31.6701 15.27L31.2805 15.1797C31.2205 15.2897 31.0601 15.4497 31.4401 15.2397C31.2701 15.3597 31.4601 15.27 31.6701 15.27Z" fill="#EAEAEA"/>
<path d="M31.71 15.48C31.71 15.71 31.7902 15.9401 31.4102 15.8901C31.8702 16.2401 32.18 15.84 31.71 15.48Z" fill="#EAEAEA"/>
<path d="M31.4102 17.8103V18.1101H31.7202C31.6002 18.1001 31.6002 17.6503 31.4102 17.8103Z" fill="#EAEAEA"/>
<path d="M30.6602 13.3599C30.5295 13.5163 30.4124 13.6836 30.3101 13.8599H30.5903C30.6003 13.7499 30.5102 13.5299 30.6602 13.3599Z" fill="#EAEAEA"/>
<path d="M30.3101 13.8599L29.8901 13.79C30.0701 14.03 30.2001 13.9899 30.3101 13.8599Z" fill="#EAEAEA"/>
<path d="M30.4801 15.6399L31.2501 15.6699L30.4001 15.5699L30.4801 15.6399Z" fill="#EAEAEA"/>
<path d="M29.8101 12.4199L30.2001 12.3199L29.5801 12.4299L29.8101 12.4199Z" fill="#EAEAEA"/>
<path d="M29.1899 11.8399C29.4999 11.7399 29.4199 11.3601 29.6499 11.3501C29.3984 11.2396 29.1185 11.2115 28.8501 11.2701C29.0701 11.3201 29.1899 11.4899 29.1899 11.8399Z" fill="#EAEAEA"/>
<path d="M28.4102 11.2699C28.5564 11.285 28.7038 11.2852 28.8501 11.2701C28.7056 11.2345 28.5547 11.2343 28.4102 11.2699Z" fill="#EAEAEA"/>
<path d="M29.6001 13.3301C29.7067 13.1901 29.7568 13.015 29.7402 12.8398L29.5103 13.23L29.6001 13.3301Z" fill="#EAEAEA"/>
<path d="M30.1699 14.7302C29.8599 14.7302 29.3901 14.6299 29.3901 15.1599C29.7001 15.0699 29.6999 14.7602 30.1699 14.7302Z" fill="#EAEAEA"/>
<path d="M29.3003 13.8301L29.4702 14.1597C29.5502 14.0797 29.6203 13.9197 29.7803 13.9097L29.3003 13.8301Z" fill="#EAEAEA"/>
<path d="M29.0801 13.7999L29.3001 13.8399L29.2401 13.7199L29.0801 13.7999Z" fill="#EAEAEA"/>
<path d="M28.5303 11.9897C28.4347 11.9904 28.3397 11.9715 28.252 11.9336C28.1642 11.8957 28.0851 11.84 28.02 11.77C28.0863 11.9711 28.1958 12.1554 28.3403 12.3101C28.4603 12.2401 28.6903 12.1397 28.5303 11.9897Z" fill="#EAEAEA"/>
<path d="M26.75 10.4097V10.48H26.8101L26.75 10.4097Z" fill="#EAEAEA"/>
<path d="M28.3003 12.3901C28.3503 12.5601 28.4902 12.55 28.6402 12.52C28.5281 12.4691 28.4266 12.3979 28.3403 12.3101C28.2903 12.3401 28.2503 12.3701 28.3003 12.3901Z" fill="#EAEAEA"/>
<path d="M27.91 11.0298C27.8998 11.1463 27.8998 11.2635 27.91 11.3799C27.97 11.2299 28.01 10.9698 27.91 11.0298Z" fill="#EAEAEA"/>
<path d="M28.9702 12.4899C29.0302 12.3999 29.0002 12.4299 28.9702 12.4899Z" fill="#EAEAEA"/>
<path d="M28.9702 12.4899C28.8604 12.4805 28.7499 12.4806 28.6401 12.49C28.7262 12.5392 28.8213 12.5702 28.9199 12.5803L28.9702 12.4899Z" fill="#EAEAEA"/>
<path d="M24.3599 11.8599C24.6699 11.6099 25.2099 11.6597 25.1299 12.1997C25.5799 12.2497 26.38 11.2 26.71 10.48C26.58 10.59 26.4603 10.7001 26.0503 10.6001C25.9803 10.8401 26.21 11.52 25.75 11.54C25.28 11.34 25.5903 11.1699 25.5903 10.8599C25.3603 11.3399 24.6602 10.9197 24.2002 11.4897L24.6699 11.6099C24.5999 11.6499 24.3599 11.7099 24.3599 11.8599Z" fill="#EAEAEA"/>
<path d="M27.1401 11.0002L27.27 11.07C27.2254 10.8257 27.2461 10.5739 27.3301 10.3401C27.2349 10.3166 27.136 10.3136 27.0396 10.3308C26.9431 10.348 26.8512 10.3852 26.77 10.4402L27.21 10.99L27.1401 11.0002Z" fill="#EAEAEA"/>
<path d="M27.71 11.54C27.32 11.75 26.95 11.6301 26.71 12.1001C27.02 12.3901 27.1802 12.1001 27.4902 12.1001C26.9502 11.6701 27.8001 12.0998 27.6401 11.5498C27.763 11.5944 27.8777 11.6585 27.98 11.7397C27.9303 11.6145 27.8966 11.4838 27.8799 11.3501L27.7402 11.4399C27.6702 11.2399 27.7999 11.3401 27.8799 11.3501H27.9302L27.29 11.0098C27.3804 11.2206 27.5253 11.4039 27.71 11.54Z" fill="#EAEAEA"/>
<path d="M28.4701 15.5298C28.4804 15.4943 28.5014 15.4631 28.5301 15.4399C28.4601 15.4499 28.4201 15.4598 28.4701 15.5298Z" fill="#EAEAEA"/>
<path d="M28.4702 15.1401C28.5402 15.1401 28.7003 15.0497 28.7803 15.1997C28.8603 15.3497 28.6201 15.3399 28.5301 15.4399C28.6801 15.4399 28.9802 15.4401 28.9302 15.1201H28.8501C28.7975 14.8021 28.85 14.4753 29 14.1899C28.7788 14.4796 28.6005 14.7997 28.4702 15.1401Z" fill="#EAEAEA"/>
<path d="M28 13.3999L27.4502 13.1299L27.3799 13.6001L27.5303 13.4297C27.6903 13.7297 27.84 13.4899 28 13.3999Z" fill="#EAEAEA"/>
<path d="M26.8601 10.2199L27.2501 9.9599L26.5501 10.1599L26.8601 10.2199Z" fill="#EAEAEA"/>
<path d="M26.3201 9.7099L26.6301 9.4599L26.3201 9.4799V9.7099Z" fill="#EAEAEA"/>
<path d="M5.18033 20.0699C5.18033 20.0699 5.18033 19.9502 5.18033 19.8902C5.18033 19.8302 5.15033 20.0499 5.18033 20.0699Z" fill="#EAEAEA"/>
<path d="M4.8501 20.39L4.93994 20.5799C4.89994 20.4599 4.8601 20.38 4.8501 20.39Z" fill="#EAEAEA"/>
<path d="M10.27 8.54973C9.83002 8.47973 9.22031 8.28973 9.57031 8.54973L9.93994 8.78996C9.9642 8.72127 10.0089 8.66143 10.0679 8.61858C10.1268 8.57573 10.1972 8.55164 10.27 8.54973Z" fill="#EAEAEA"/>
<path d="M3.7002 19.4199H3.8501L3.62988 19.04C3.64988 19.18 3.6702 19.2999 3.7002 19.4199Z" fill="#EAEAEA"/>
<path d="M5.12988 20.52H4.76025C4.88337 20.5303 5.00676 20.5303 5.12988 20.52Z" fill="#EAEAEA"/>
<path d="M9.32991 14.9297L9.13997 14.4897C8.92997 14.7097 9.18991 14.7697 9.32991 14.9297Z" fill="#EAEAEA"/>
<path d="M20.27 3.43994C20.1544 3.11322 19.9894 2.80612 19.7803 2.52979C20.0003 3.11979 20.05 3.73994 20.27 3.43994Z" fill="#EAEAEA"/>
<path d="M8.01009 23.79C8.07009 23.61 8.01009 23.4897 8.01009 23.4297C7.93009 23.6497 7.92009 23.73 8.01009 23.79Z" fill="#EAEAEA"/>
<path d="M19.0801 1.78L19.1899 2.04025C19.4222 2.15529 19.6246 2.32264 19.7803 2.52979C19.6003 2.08979 19.3901 1.65 19.0801 1.78Z" fill="#EAEAEA"/>
<path d="M29.6001 19.1499V19.2197C29.6001 19.2197 29.6001 19.1699 29.6001 19.1499Z" fill="#EAEAEA"/>
<path d="M33.1802 25.2197C33.0887 25.3341 32.9881 25.4414 32.8799 25.54C32.9399 25.52 33.0402 25.4297 33.1802 25.2197Z" fill="#EAEAEA"/>
<path d="M24.4302 7.3999C24.5602 7.4999 24.4802 7.3999 24.4302 7.3999Z" fill="#EAEAEA"/>
<path d="M17.4702 4.5498C17.5002 4.6498 17.4902 4.6498 17.4702 4.5498Z" fill="#EAEAEA"/>
<path d="M24.4502 7.70996C24.448 7.62762 24.4308 7.5461 24.3999 7.46973C24.4036 7.55188 24.4208 7.63314 24.4502 7.70996Z" fill="#EAEAEA"/>
<path d="M24.6001 7.54004L24.6602 7.66992C24.7002 7.64992 24.7301 7.59004 24.6001 7.54004Z" fill="#EAEAEA"/>
<path d="M24.2603 7.25977C24.3245 7.31634 24.3724 7.3887 24.3999 7.46973V7.3999L24.2603 7.25977Z" fill="#EAEAEA"/>
<path d="M19.4199 9.94971C19.4199 9.94971 19.4199 9.99979 19.4199 10.0298C19.5999 9.98979 19.5999 9.94971 19.4199 9.94971Z" fill="#EAEAEA"/>
<path d="M10.6001 15.2397C10.3601 14.6997 10.51 14.6498 10.71 14.5898L9.70996 13.8701L10.6001 15.2397Z" fill="#EAEAEA"/>
<path d="M7.04004 17.8799H6.49023C6.34023 17.0999 6.74033 16.9899 6.09033 16.8799C7.04033 17.8799 5.14033 18.1098 6.09033 19.0698H5.7002C5.7602 19.0198 5.70002 18.9597 5.77002 18.9097C4.95002 18.8397 6.2299 19.8597 5.6499 20.1997C5.60932 20.2269 5.56305 20.2444 5.51465 20.251C5.46625 20.2575 5.41743 20.2532 5.37109 20.2378C5.32476 20.2223 5.28236 20.1964 5.24756 20.1621C5.21276 20.1278 5.18608 20.0861 5.16992 20.04C5.16992 20.17 5.23 20.2997 5.25 20.4497C5.27 20.5997 5.04986 20.28 5.10986 20.25L4.9502 20.5898C5.03396 20.8624 5.08118 21.1447 5.09033 21.4297C4.93033 21.3197 5.08998 21.2398 4.97998 21.0898C4.97998 21.2598 4.97998 21.4301 4.97998 21.6201C4.79998 21.3001 4.7999 20.7998 4.8999 20.7598C4.5499 20.1498 4.58986 20.2297 4.60986 20.4297C4.62986 20.6297 4.61018 20.9699 4.43018 20.6099V20.3101C4.27825 19.9589 4.17393 19.5888 4.12012 19.21C4.1446 19.5235 4.19467 19.8348 4.27002 20.1401C4.36832 20.4647 4.4223 20.8011 4.43018 21.1401C4.37018 21.0501 4.33027 21.03 4.28027 21.48C4.28027 21.07 4.22018 21 4.18018 21.04C4.19894 21.0688 4.21545 21.0987 4.22998 21.1299V20.29C4.30493 20.6495 4.30493 21.0204 4.22998 21.3799C4.22998 21.3299 4.4802 20.85 4.7002 20.48C4.8602 20.57 4.70031 20.6899 4.57031 20.8799C4.45563 21.0338 4.37704 21.2115 4.34033 21.3999C4.54033 21.2499 4.51008 21.5797 4.08008 21.6997L4.7002 21.4897C4.5255 21.5735 4.3403 21.6342 4.1499 21.6699L4.4502 21.6099C4.0972 21.6981 3.73387 21.7386 3.37012 21.73C3.28086 21.7463 3.18936 21.7463 3.1001 21.73C3.3792 21.6225 3.66675 21.5389 3.95996 21.48C4.26996 21.4 4.44014 21.3397 4.14014 21.1997C4.40014 21.1997 4.5899 21.2998 4.8999 21.3198C4.76852 21.2305 4.65104 21.1229 4.55029 21C4.4024 20.8576 4.26179 20.7072 4.12988 20.5498C4.33988 20.5498 4.55023 20.5498 4.74023 20.5498C4.4664 20.5189 4.21158 20.3949 4.01855 20.1982C3.82553 20.0016 3.70599 19.7441 3.68018 19.4697C3.45966 19.4256 3.2351 19.4055 3.01025 19.4097C3.01025 19.1797 3.14021 18.9297 3.22021 18.6797C3.36021 18.6797 3.46986 18.8801 3.60986 19.1201C3.60986 19.0601 3.60986 18.9899 3.60986 18.9399C3.94986 18.9399 4.13006 19.2698 4.31006 19.5898L3.85986 19.5C4.07646 19.8385 4.37181 20.1196 4.72021 20.3198C4.69625 20.2588 4.69625 20.1909 4.72021 20.1299C4.7759 20.1983 4.8434 20.2559 4.91992 20.2998C4.97992 20.2998 4.92029 20.2198 4.80029 20.0698C5.02029 20.1898 5.21992 20.3197 5.41992 20.4497L5.22021 20.2598H5.37988C5.45226 20.2443 5.52314 20.221 5.59033 20.1899L6.04004 20.04C5.92004 19.12 5.49016 18.0401 5.91016 17.1401C6.14016 17.6701 6.50016 17.7601 6.91016 18.1401C6.26016 17.8801 6.61994 18.8601 6.18994 19.1401C6.41994 19.0001 6.58988 19.2399 6.62988 19.3599L6.78027 18.3599C7.14027 18.7099 7.18023 18.48 7.49023 18.46C6.64023 17.9 7.44023 17.5301 7.49023 17.0601C7.76023 17.2801 7.9501 17.5701 7.6001 17.8301C8.4701 18.0001 7.14994 16.5797 7.93994 16.6797C7.86994 16.7597 7.80014 16.7597 7.89014 16.9097C7.89014 16.5297 8.42004 16.2498 8.54004 16.5498L8.47998 16.6401C9.03998 16.2101 9.93012 15.0897 9.37012 14.4297C9.46012 14.4997 10.0602 15.1998 10.1602 15.3398L8.91016 12.48C9.37016 13.06 10.9103 13.9401 10.8403 14.6401C10.9728 14.6229 11.0939 14.5567 11.1807 14.4551C11.2675 14.3535 11.3137 14.2234 11.3101 14.0898C11.1501 14.0898 10.3099 13.5799 10.3999 13.4199C11.2799 13.6699 10.9203 13.4998 11.7803 13.5898C11.5503 13.5898 10.8403 12.69 11.0503 12.52C11.1503 12.67 11.8902 13.2697 11.9102 13.4297L11.5503 12.1699C11.5503 12.4299 12.2203 12.8397 12.5503 12.9497C12.3403 12.8497 12.96 12.5401 13 12.3301H12.6099C13.2499 11.9001 11.9603 10.71 12.5103 10.21C12.6203 10.43 13.41 11.3397 13.77 11.1597C13.47 10.6397 12.2701 8.70992 12.3901 7.91992L12.7202 8.0498L12.79 7.42969C13.3398 8.57148 13.7881 9.75968 14.1299 10.98C14.5099 10.98 14.4702 11.1799 14.7402 10.8599C15.0602 10.9599 14.9201 11.3397 14.8501 11.4497L15.6699 10.8599C15.1399 10.4399 15.67 9.86 15.25 9.5L15.0303 10.75C14.5103 10.33 14.0301 8.99982 14.6201 8.56982C14.9301 8.62982 15.4001 9.48988 15.6201 9.62988C15.5101 9.39988 15.7402 8.83967 15.9102 8.90967L15.9702 9.37012C16.1902 9.31012 16.1401 9.0398 16.1201 8.7998C16.1001 8.5598 16.18 8.30973 16.46 8.46973C16.56 8.46973 17.1599 8.98992 16.9199 8.66992C16.0163 7.79824 15.221 6.82109 14.5503 5.75977C14.7678 5.71541 14.9882 5.68857 15.21 5.67969C15.48 5.6564 15.7512 5.71214 15.9902 5.83984C16.2018 6.13732 16.3417 6.47948 16.3999 6.83984C16.4622 7.19577 16.5949 7.53572 16.79 7.83984C16.7161 7.65814 16.6723 7.46581 16.6602 7.27002C16.8002 7.35002 16.8802 7.87014 16.9902 7.64014C16.7502 6.89014 17.3301 7.35994 16.8501 6.93994C16.9601 6.52994 17.0803 6.93967 17.2603 6.65967C17.1581 6.24116 17.1273 5.80857 17.1699 5.37988C17.1899 4.89499 17.2846 4.41613 17.4502 3.95996C17.4584 4.17068 17.4953 4.3794 17.5601 4.58008C17.6389 4.51401 17.7224 4.45367 17.8101 4.3999C18.0687 4.88535 18.3594 5.35295 18.6802 5.7998C18.6802 6.0398 18.8002 6.46973 18.6802 6.71973C18.7602 6.62973 18.8903 6.43004 19.0103 6.54004C19.0103 7.39004 18.7399 6.37982 18.6499 7.31982C18.7899 6.88982 19.1001 6.99971 19.3901 6.94971C19.6301 6.30971 19.0103 6.36977 18.8003 6.50977C19.0403 5.50977 19.7001 4.93982 20.5801 5.31982C21.2201 5.68982 20.4801 6.01 20.6401 6C21.4201 7.06 22.4401 5.77986 22.6401 6.85986C22.4801 7.47986 21.8601 7.59992 21.6401 7.91992C21.1801 7.71992 21.4102 7.15992 21.1802 6.91992L21.25 7.37012C21.02 7.37012 20.72 7.26002 20.71 7.02002C20.56 7.57002 21.8699 8.40982 22.1099 9.31982C22.3399 9.31982 22.65 9.31988 22.73 9.12988L22.5 8.98975C22.65 8.51975 23.2699 8.94006 23.1899 8.56006C23.6499 8.61006 24.2702 8.5601 24.4302 9.1001L24.04 9.58984C24.17 9.45984 24.0899 9.09988 23.8599 9.12988C24.1999 9.12988 23.7703 10.2499 24.5103 9.85986L24.5801 9.31982C25.0501 9.36982 25.82 9.23971 25.98 9.69971C26.29 9.13971 25.8599 9.69996 26.1699 8.95996C25.7099 9.75996 25.4303 8.12006 25.0503 9.06006C25.4303 8.27006 24.9302 8.42014 25.1602 7.64014C25.0202 7.79014 24.9803 8.01014 24.8003 7.64014L24.6099 7.70996C24.6123 7.83401 24.5779 7.95603 24.5103 8.06006C24.0503 8.24006 23.6601 7.79982 23.3501 7.81982C23.2801 7.58982 23.5802 7.72975 23.6602 7.48975H23.2002C23.5102 7.16975 23.3501 6.55977 23.8901 6.75977L23.5903 6.40967C23.5903 6.03967 23.4099 5.6899 23.1099 5.6499C23.0399 5.4299 22.3803 5.58975 22.7603 5.48975L22.5801 5.3999L22.3301 5.21973L21.8301 4.8999L21.8999 4.7998C21.4923 4.38976 21.0398 4.02735 20.5503 3.71973C19.9786 3.27688 19.5615 2.6642 19.3599 1.96973C18.9381 1.78063 18.5878 1.46215 18.3599 1.06006L18.3003 0.419922C18.1476 0.305879 18.0182 0.163309 17.9199 0C17.5699 0.25 17.1303 0.46 17.0503 1C16.7903 0.51 16.28 1.00008 15.79 1.58008C15.3935 2.15377 14.9485 2.69227 14.46 3.18994L14.6802 3.68994C14.21 4.19858 13.8188 4.77498 13.52 5.3999L13.8701 5.68994C13.7601 6.07994 13.59 6.14004 13.29 6.29004C12.9826 6.39306 12.7026 6.56395 12.4702 6.79004C12.3802 6.64004 12.4699 6.55004 12.6699 6.54004C11.4199 6.40004 12.1301 8.20996 11.1201 8.20996C11.1201 8.44996 11.0001 8.49977 10.8301 8.50977V8.45996L10.7803 8.50977H10.4502C10.5531 8.52328 10.6574 8.52328 10.7603 8.50977C10.6448 8.65946 10.566 8.83439 10.5303 9.02002L10.1201 8.75C9.86012 8.75 10.1803 9.01994 10.5103 9.18994C10.4905 9.31919 10.4905 9.45083 10.5103 9.58008C9.83025 9.17008 10.3501 10.14 9.6001 9.72998C9.8101 10.1 9.1502 10.6601 9.7002 11.3101C9.6202 11.2401 9.53986 11.2497 9.60986 11.1597C9.38986 11.2597 9.16996 11.3497 9.20996 11.6597L8.7002 11.3101L8.97998 12.2197C8.49998 12.2197 8.25986 12.1198 8.10986 11.5898C8.16986 12.5898 7.93029 12.1899 8.05029 13.1099L7.78027 12.8198C7.65027 12.9798 7.77998 13.59 7.47998 13.46C6.60998 13.3 5.80998 15.1 4.47998 15.52C5.47998 16.14 3.71033 15.5697 4.34033 16.2197C4.09033 16.0897 3.86031 16.1098 3.82031 15.7998C3.59031 16.4398 2.81988 16.1798 3.12988 17.0098C2.87988 16.8798 2.92025 16.6401 2.76025 16.5801C2.76025 16.6501 2.76014 16.8798 2.64014 16.8198C2.52014 16.7598 2.53025 16.5999 2.51025 16.4399C2.12025 16.9299 2.67998 17.5797 3.22998 18.1597C2.65998 18.2197 2.51002 18.4499 2.77002 18.9399C2.45002 18.9399 2.02006 18.9398 2.31006 18.5098C2.09006 18.6898 0.590059 19.8 1.31006 20C1.22174 20.0123 1.14126 20.0571 1.08398 20.1255C1.02671 20.1938 0.996667 20.281 1 20.3701C0.636427 20.6718 0.301656 21.0065 0 21.3701L0.260254 21.25C0.880254 21.4 0.550254 21.52 0.260254 21.73C0.321706 21.8466 0.410785 21.9462 0.52002 22.02H0.399902C0.428427 22.1749 0.493294 22.3207 0.588867 22.4458C0.684441 22.5709 0.808313 22.6715 0.950195 22.7397C1.1402 22.8297 1.25025 22.8698 1.51025 23.5498L1.87012 23.23C2.36012 22.98 2.37998 23.2301 2.47998 23.6201C2.57998 24.0101 2.80018 24.6197 3.18018 24.7397C3.18018 24.5897 3.12033 24.43 3.09033 24.29C3.32033 24.29 3.35 24.7697 3.5 25.4697C3.60621 26.1188 3.81563 26.7471 4.12012 27.3301C4.21012 27.5501 3.95029 27.3801 3.80029 27.3301C4.88029 29.0801 4.2101 27.2199 4.6001 27.1499C4.63592 27.0465 4.68634 26.9488 4.75 26.8599C4.89 27.2099 4.6601 28.2199 5.1001 27.8599C5.2301 27.9299 5.51029 27.2098 5.80029 26.5698C6.09029 25.9298 6.37029 25.3599 6.80029 25.3999C6.57029 25.2599 6.38029 25.0901 6.55029 24.6201C6.71029 24.3701 7.08018 24.3399 7.43018 24.1899C7.62483 24.1401 7.79352 24.0187 7.90283 23.8501C8.01215 23.6815 8.05393 23.4778 8.02002 23.2798C8.05871 23.2773 8.09755 23.2831 8.13379 23.2969C8.17003 23.3107 8.20277 23.3322 8.22998 23.3599C8.46998 22.7799 8.74006 22.2801 8.56006 21.8301C9.96006 22.7501 9.2401 19.91 10.3501 20.96L10.9199 20.2197L11.02 20.3501C11.49 19.9801 11.3702 19.5797 11.2402 19.1797C11.4102 19.1797 11.45 19.3199 11.5 19.3799C12.31 18.9599 12.3203 18.8501 12.2603 17.8101L12.6699 18.0898C12.5899 17.7498 14.0902 17.6999 14.2402 16.6899C14.2986 16.7491 14.3342 16.8268 14.3403 16.9097C14.5603 15.8197 16.9001 16.1799 15.8101 14.6899L15.9199 13.9297C15.2599 14.4297 15.43 13.3101 14.98 13.3501C15.14 13.0201 15.89 13.17 15.73 13.48H15.6299C16.2399 14.21 16.37 13.17 16.73 13.73C17.0566 13.3508 17.4826 13.0702 17.96 12.9199C18.0998 13.1769 18.2571 13.4238 18.4302 13.6597C18.4802 13.3497 18.5203 13.03 18.5503 12.71L18.7603 13C18.7603 13.26 18.63 13.7 18.52 13.54C18.44 14.06 18.8499 13.3797 18.9399 13.2397C18.9751 13.3468 18.978 13.4622 18.9478 13.5708C18.9175 13.6794 18.8555 13.7766 18.77 13.8501C18.65 13.9801 18.5403 14.0801 18.5703 14.1201H18.6699V14.0098C18.8799 13.7898 19.05 13.5097 19.21 13.7397C19.37 13.9697 18.9903 14.17 19.0103 14.23C19.0303 14.29 19.0103 14.3101 19.0103 14.3101L19.0903 14.4399V14.5L19.1802 14.6201C19.2553 14.4281 19.3488 14.2436 19.46 14.0698C19.8 14.0198 19.8401 14.5298 20.1001 13.8398C19.6601 14.8398 21.51 15.8398 21.46 16.2998C21.6989 16.3099 21.9316 16.3817 22.1348 16.5078C22.338 16.6339 22.505 16.8103 22.6201 17.02C22.6201 16.84 23.05 16.3497 23.29 16.7197C22.2 17.5197 23.4002 17.7201 22.9302 18.6001C23.1802 17.9401 23.93 19.3899 24.21 18.4199C24.38 18.7599 23.8601 18.7799 23.8101 19.1899C24.8101 19.4599 24.8102 20.8 25.7002 21.46C25.8402 21.35 25.9103 21.0398 26.2603 21.0298L26 22.0298C26.2 22.1298 26.8702 21.4797 26.6802 22.1797C26.7602 22.0397 26.86 21.8301 27 21.8901C27.0779 22.0824 27.1681 22.269 27.27 22.4497C27.32 22.5297 27.3702 22.6197 27.4302 22.6997C27.4902 22.7797 27.5999 22.92 27.6899 23.02C28.0599 23.46 28.4701 23.86 28.8701 24.25C29.7243 25.0034 30.5075 25.8335 31.21 26.73C31.735 26.3576 32.3423 26.1173 32.98 26.0298C32.58 25.9398 32.79 25.69 32.98 25.46C32.81 25.46 32.8803 24.97 32.7803 24.73C33.1597 24.7087 33.5371 24.6618 33.9102 24.5898C33.7802 23.7998 34.9101 23.5897 34.6201 22.9897L34.4199 23.3398C34.4199 22.8598 34.0099 22.6398 33.6499 22.3398C33.2605 22.0964 32.946 21.7504 32.7402 21.3398C32.8302 21.8398 32.52 21.7 32.29 21.54C32.06 21.38 31.9103 21.2201 31.8403 22.1201C31.7403 21.9401 31.8403 21.6799 31.7803 21.4399C31.7803 22.0099 31.66 22.2399 31.48 22.1499V22C31.4285 22.0616 31.3717 22.1184 31.3101 22.1699C30.9982 21.6817 30.7717 21.1442 30.6401 20.5801L30.4502 21.0698C30.4049 20.9164 30.4049 20.7535 30.4502 20.6001C29.9602 21.1201 30.6902 20.9201 30.2202 21.6001C30.2859 21.4447 30.3035 21.273 30.2715 21.1074C30.2394 20.9418 30.1589 20.7896 30.04 20.6699C29.9508 20.5602 29.8833 20.4346 29.8403 20.2998C29.8064 20.197 29.7987 20.0875 29.8179 19.981C29.8371 19.8744 29.8825 19.7744 29.9502 19.6899C29.6802 19.3899 29.6299 20.1501 29.3599 19.8501L29.5103 19.5698L29.1602 19.75C29.0202 19.52 29.1599 19.1697 29.3799 18.9897C29.3799 19.0497 29.5601 19.0699 29.6201 19.1099C29.6201 18.6199 28.8699 18.4798 28.8799 18.3198L29.0103 18.73C28.0103 18.11 27.4203 16.8597 26.2603 16.4897L26.1499 16.6997C25.2899 16.3897 25.8899 16.0598 25.1499 15.5298H25.21C25.0831 15.5447 24.9546 15.5281 24.8359 15.481C24.7172 15.4338 24.6123 15.3576 24.5303 15.2598C24.8803 15.2598 24.6203 14.6001 25.0303 14.6201C24.1003 14.2801 24.4802 14.5397 23.4702 14.6797L23.6499 14.3301C23.2699 14.4101 23.1303 14.5198 22.7603 14.2598C23.2403 14.2598 22.9803 13.6597 23.5703 13.6797C23.5203 12.4397 22.0203 13.2201 22.5703 12.1001C21.5203 12.4801 22.6999 13.1001 22.3799 13.1001C22.2699 13.4801 21.5702 13.3601 21.4502 13.1001C21.3502 12.9801 21.5101 12.6601 21.6201 12.3101C21.6857 12.0868 21.6894 11.8499 21.6313 11.6245C21.5733 11.3992 21.4554 11.1935 21.29 11.0298C21.37 11.1198 21.4202 11.0299 21.4902 11.1499C21.3502 10.5999 20.7401 10.8501 20.6001 10.0801C20.1201 10.4701 20.1503 9.54006 19.7803 10.3101L20.5 10.8198C20.2334 10.7597 19.9566 10.7597 19.6899 10.8198C19.4199 10.8198 19.2 10.76 19 10.21C19.0553 10.1393 19.1271 10.083 19.209 10.0464C19.2909 10.0098 19.3807 9.99401 19.4702 10C19.3602 9.54 19.09 9.8301 18.98 9.3501C19.09 8.8901 19.3101 9.0701 19.5801 9.3501C19.8501 9.6301 20.1302 9.93012 20.4902 9.87012C20.4002 9.28012 19.4402 9.58012 19.9702 8.87012C19.6102 9.29012 19.45 9.07 19.25 8.75C19.05 8.43 18.8002 8.0198 18.4902 8.2998L18.5903 7.70996C18.4903 7.70996 18.2901 7.8299 18.1401 7.6499C18.2451 7.46257 18.3621 7.28216 18.4902 7.10986C18.2102 7.22986 18.0103 6.80008 17.7803 6.33008C17.6351 6.33031 17.4932 6.37527 17.375 6.45947C17.2568 6.54368 17.1678 6.6627 17.1201 6.7998C18.1201 5.7498 17.37 7.36973 17.75 7.46973C16.75 9.46973 17.0402 6.40994 15.7002 8.18994C15.8702 7.89994 16.45 7.79986 16.23 8.35986C15.9675 8.53214 15.6491 8.59679 15.3403 8.54004C14.4903 9.59004 15.6599 8.92012 15.3999 9.62012C14.8899 9.32012 15.1001 10.29 14.8901 10.79L14.6299 10.3501C13.5299 11.0801 14.9903 11.4497 14.0103 11.9497C14.0103 11.6797 13.9201 11.4001 13.8901 11.1001L13.5801 11.6797L13.29 11.1997C13.15 11.6397 13.1801 11.7201 13.0601 11.8501C12.9324 11.9704 12.7831 12.0651 12.6201 12.1299C12.9401 12.2799 13.23 12.7598 12.98 13.0498C12.59 13.0498 12.7399 12.6298 12.4199 13.0498C12.2899 12.7498 12.1001 12.3998 12.5801 12.5298C12.4901 12.3998 12.4401 12.2299 12.3501 12.1099C11.9201 12.1099 11.8102 12.5697 11.6802 12.7197C11.7467 12.6698 11.827 12.6423 11.9102 12.6401L11.8599 13.6401C11.6499 13.6401 11.6103 13.44 11.5703 13.27C11.5003 13.42 11.57 13.6501 11.46 13.8501C11.21 13.5401 10.91 13.2797 11 12.9097L10.8101 13.75C10.6501 13.67 10.2002 13.75 10.1602 13.54C9.71016 13.69 10.0302 14.81 9.43018 15C9.45028 15.0457 9.46045 15.0951 9.46045 15.145C9.46045 15.1949 9.45028 15.2443 9.43018 15.29C9.01018 15.61 8.35008 15.6197 8.33008 16.4297L7.58008 16.21C7.37008 16.67 8.5802 16.47 8.2002 17.21C7.9702 17.78 7.61008 16.9597 7.33008 16.9697C7.40008 17.4197 7.60008 18.2698 6.83008 18.2598C6.81008 18.0598 6.97004 18.0299 7.04004 17.8799ZM4.41992 21.1597C4.41992 20.9897 4.42025 20.5601 4.51025 20.8701C4.60025 21.5601 4.50992 21.2997 4.41992 21.1597ZM4.95996 19.4199C5.01996 19.5899 4.86014 19.6399 4.64014 19.6099C4.66923 19.5505 4.71514 19.501 4.77197 19.4673C4.82881 19.4335 4.89393 19.4171 4.95996 19.4199ZM22.96 6.41992C22.91 6.09992 22.9202 6.21967 22.9702 6.40967L22.96 6.41992ZM23.1699 6.94971C23.206 6.94529 23.2404 6.93207 23.27 6.91113C23.2997 6.89019 23.3241 6.86256 23.3403 6.83008C23.2203 6.89008 23.1303 6.82969 23.0703 6.67969C23.0103 6.78969 22.9902 6.89994 23.1802 6.93994L23.1699 6.94971ZM18.9102 14.1997V14.0601C19.1402 14.0301 19.0299 14.0999 18.9199 14.1899L18.9102 14.1997Z" fill="#EAEAEA"/>
<path d="M4.95996 20.3901C4.87291 20.3584 4.78918 20.3181 4.70996 20.27C4.7389 20.3087 4.77679 20.3395 4.82031 20.3604C4.86384 20.3812 4.91171 20.3917 4.95996 20.3901Z" fill="#EAEAEA"/>
<path d="M16.8901 7.96973C16.8174 7.9287 16.753 7.87477 16.7002 7.81006C16.7602 7.93006 16.8201 7.99973 16.8901 7.96973Z" fill="#EAEAEA"/>
<path d="M25.7002 8.43994L25.3701 8.27979C25.5001 8.37979 25.4602 8.49986 25.4702 8.60986C25.5402 8.52986 25.6002 8.36994 25.7002 8.43994Z" fill="#EAEAEA"/>
<path d="M25.5198 12.6499C25.5998 12.6499 25.5997 12.72 25.6697 12.71L25.8299 12.5498C25.6699 12.3998 25.4398 12.4099 25.5198 12.6499Z" fill="#EAEAEA"/>
<path d="M24.7403 9.75977C24.4603 10.0598 24.74 10.1197 24.92 10.2397C25.36 9.87975 25.0503 9.81977 24.7403 9.75977Z" fill="#EAEAEA"/>
<path d="M24.9702 10.2798C25.0349 10.3162 25.0894 10.3675 25.1299 10.4297C25.3099 10.2997 25.1002 10.3298 24.9702 10.2798Z" fill="#EAEAEA"/>
<path d="M23.8402 7.25001C23.8402 7.40001 24.2599 6.94988 24.1899 7.10988C24.6499 6.84988 23.2202 6.98001 23.8402 7.25001Z" fill="#EAEAEA"/>
<path d="M23.8901 10.8199L24.2001 10.4199L23.8101 10.5899L23.8901 10.8199Z" fill="#EAEAEA"/>
<path d="M22.8799 9.19013L23.0303 9.56025C23.0603 9.54165 23.0946 9.53144 23.1299 9.53144C23.1652 9.53144 23.1999 9.54165 23.23 9.56025C23.08 9.34025 22.9799 9.08013 22.8799 9.19013Z" fill="#EAEAEA"/>
<path d="M23.23 9.52002C23.26 9.56623 23.2996 9.60541 23.3462 9.63477C23.3928 9.66412 23.4454 9.68287 23.5 9.68994C23.4243 9.61325 23.3319 9.55515 23.23 9.52002Z" fill="#EAEAEA"/>
<path d="M23.4201 10.5399V10.3899L23.2701 10.1599L23.4201 10.5399Z" fill="#EAEAEA"/>
<path d="M20.0704 6.02979L19.69 5.83008C19.6639 5.85585 19.6443 5.88749 19.6329 5.92236C19.6215 5.95724 19.6187 5.99406 19.6246 6.03027C19.6304 6.06649 19.6452 6.10088 19.6671 6.13037C19.6889 6.15986 19.7171 6.1835 19.7501 6.19971C19.8801 6.15971 20.0304 6.22979 20.0704 6.02979Z" fill="#EAEAEA"/>
<path d="M20.0103 7.97998C20.0282 7.83814 20.0831 7.70344 20.1699 7.58984L19.71 8L20.0103 7.97998Z" fill="#EAEAEA"/>
<path d="M19.2701 7.3999C19.1501 7.5099 18.7504 7.55977 18.9904 7.75977C19.0904 7.64977 19.3801 7.7199 19.2701 7.3999Z" fill="#EAEAEA"/>
<path d="M15.7402 6.71973L15.8003 6.64014L15.2402 5.73975C15.4002 6.06975 15.6002 6.39973 15.7402 6.71973Z" fill="#EAEAEA"/>
<path d="M13.8098 12.3599C14.3198 12.1699 13.4297 11.85 13.9597 11.73C13.8597 11.48 13.53 11.8301 13.45 11.6001C13.44 11.9901 13.2298 12.0099 13.8098 12.3599Z" fill="#EAEAEA"/>
<path d="M13.4502 11.6499C13.4648 11.5773 13.4648 11.5023 13.4502 11.4297C13.4385 11.5025 13.4385 11.577 13.4502 11.6499Z" fill="#EAEAEA"/>
<path d="M34.7202 24.5298L35.2202 24.3599L34.7803 24.2998L34.7202 24.5298Z" fill="#EAEAEA"/>
<path d="M34.96 23.2798L35.46 23.6997C35.4 23.4797 35.3403 23.2698 35.2803 23.0698C35.2203 23.1598 35.11 23.3398 34.96 23.2798Z" fill="#EAEAEA"/>
<path d="M4.15011 19.6499V19.8799C4.15011 19.9799 4.15011 20.0298 4.15011 20.0498C4.14397 20.0693 4.14397 20.0903 4.15011 20.1099V19.6499Z" fill="#EAEAEA"/>
<path d="M4.9701 19.3699L4.9101 19.4099L5.4301 19.7099L4.9701 19.3699Z" fill="#EAEAEA"/>
<path d="M6.87012 16.2197C6.75012 16.3097 6.72986 16.5199 6.60986 16.6099C6.74986 16.3099 7.44012 16.6497 6.87012 16.2197Z" fill="#EAEAEA"/>
</svg>
