<svg width="90" height="91" viewBox="0 0 90 91" fill="none" xmlns="http://www.w3.org/2000/svg">
<g clip-path="url(#clip0_754_9448)">
<path d="M33.3767 41.9019C33.4026 41.7986 33.3996 41.6901 33.368 41.5884C33.3364 41.4867 33.2774 41.3957 33.1975 41.3253C33.0013 41.583 32.8151 41.3459 32.61 41.6953C32.8564 42.0964 33.1317 41.4301 33.3767 41.9019ZM28.8985 31.881C29.1686 32.1623 29.4179 32.422 29.0737 32.6554C28.8662 32.4249 28.7441 32.1678 28.8985 31.881ZM28.9718 28.622C29.145 28.8023 29.2379 28.7547 29.2566 28.5288C29.5659 28.6199 29.594 28.9812 29.7394 28.4396C29.8926 28.9024 30.2834 29.8581 29.863 30.0122C29.9567 29.2291 28.7347 29.1547 28.943 28.6497L28.9718 28.622ZM28.8052 27.0768C29.1446 27.4303 29.413 27.7964 29.2644 28.147C29.1605 28.0388 29.0107 28.0994 28.8826 28.1393C28.9934 28.2547 29.1458 28.4134 29.0728 28.525L28.6018 28.0345C29.3821 27.9231 28.4359 27.5007 28.7764 27.1045L28.8052 27.0768ZM24.2947 5.42801C23.9412 5.76738 23.644 5.77548 23.3332 5.40846C23.6852 5.13979 23.9981 5.40784 24.2947 5.42801ZM28.6196 14.6395C28.4032 14.8473 28.9781 15.0995 29.0866 15.328C28.9758 15.4259 28.903 15.5596 28.8809 15.7057C28.5649 15.5932 28.2446 15.6928 27.9303 15.4954C28.4696 15.4074 28.3732 14.585 28.6485 14.6118L28.6196 14.6395ZM27.1458 40.1626C27.0029 39.8839 27.0631 41.1016 26.5583 40.5326C27.1955 40.5031 26.672 39.8135 26.2853 40.0461C26.2072 39.9744 26.1494 39.8833 26.1179 39.782C26.0864 39.6807 26.0823 39.5729 26.1061 39.4696C26.4068 39.9849 27.1943 39.8665 27.1458 40.1626ZM33.9661 44.9126C33.7664 44.4421 33.7543 43.9129 33.9326 43.4338C33.8217 43.3183 33.6694 43.1597 33.7496 43.041C34.1701 43.58 34.6589 43.887 34.2948 44.403C34.4548 44.4924 34.5932 44.6159 34.7002 44.7647C34.8071 44.9136 34.8801 45.0841 34.9138 45.2643C34.3574 45.1469 34.2223 44.1398 33.9878 44.8918L33.9661 44.9126ZM33.5286 43.8216C33.5791 43.7731 33.713 43.7971 33.6256 43.9226C33.5382 44.0481 33.4781 43.8701 33.3339 44.0086C33.0984 43.7633 33.3217 43.5628 33.2484 43.342C33.6443 43.3501 33.5266 43.574 33.5286 43.8216ZM31.072 37.3356C31.4027 37.7667 31.4 36.8543 30.9865 36.6691C30.8896 36.9147 30.9952 37.2846 30.597 37.0431C30.7526 36.9335 30.8756 36.7836 30.9526 36.6095C31.0296 36.4354 31.0579 36.2437 31.0344 36.0547C31.2531 36.427 31.4842 35.8447 31.7001 36.3583C31.0621 36.4302 31.6643 37.0719 31.8825 37.1258C31.4177 37.378 32.1232 37.8097 31.579 37.7915C31.6898 37.9069 31.8422 38.0656 31.762 38.1842C31.555 37.9254 30.9176 37.6225 31.072 37.3356ZM29.8038 33.2714C29.3925 32.9731 29.0705 32.1178 29.7223 32.4069C29.241 32.772 30.3483 33.2754 30.2042 32.7067C30.2596 32.7644 30.315 32.8221 30.388 32.7104C30.4594 32.7661 30.5078 32.8459 30.5242 32.9349C30.5407 33.0238 30.524 33.1157 30.4772 33.1932C30.2568 32.9058 30.0066 33.0351 29.8038 33.2714ZM23.8494 4.71878C23.7435 4.363 23.3727 4.51105 22.9107 3.92878C23.0261 3.81797 22.8976 3.17883 23.3042 3.35684C22.7468 3.9891 24.0574 4.22793 24.0473 4.7228C24.2205 4.55658 24.4409 4.15086 24.6239 4.54357C24.3633 4.83532 24.1039 5.07051 23.8494 4.71878ZM25.7672 1.18615C25.7845 1.37451 25.7534 1.56417 25.6769 1.73715C25.6003 1.91012 25.4809 2.06066 25.3298 2.17448C25.1359 1.97251 25.5251 1.2661 25.7672 1.18615ZM23.6996 3.73972C24.2239 4.38691 24.2299 3.39688 24.0931 3.16778C24.1458 3.24129 24.2236 3.29294 24.3118 3.31298C24.4001 3.33302 24.4925 3.32005 24.5718 3.27653C24.4838 3.08378 23.9716 2.88241 24.1947 2.69598C24.489 2.82927 24.5964 3.11436 25.0506 3.38528C24.3595 3.63291 25.2376 3.58004 24.6533 4.14103C24.3194 4.21204 23.4038 4.37024 23.6851 3.75357L23.6996 3.73972ZM55.3187 53.9258C55.3187 53.9258 55.3464 53.9547 55.3043 53.9397L55.3187 53.9258ZM80.3381 73.9053C80.6993 73.714 81.0175 73.4509 81.2733 73.1322C81.1593 72.8257 80.992 73.4023 80.7802 73.3838C80.9694 72.7724 80.8384 72.9536 80.3577 72.9438C80.3262 72.8599 80.3263 72.7673 80.3579 72.6834C80.3895 72.5995 80.4506 72.5299 80.5296 72.4876C81.2303 72.813 80.976 72.4472 81.7817 72.4777C81.3901 72.2576 82.1867 71.6867 81.5998 71.6819C81.5819 71.5188 81.7946 71.4949 81.9651 71.4559C82.2718 71.3278 82.0304 72.0726 82.454 71.7629C82.4444 71.5364 82.267 71.5681 82.228 71.3976L82.4981 71.3324C82.8103 71.9753 83.8579 70.1931 84.4267 70.049C84.6679 69.6649 84.0114 69.2555 84.5008 69.1877C84.4194 69.0163 84.1407 69.1592 83.9421 69.1834C83.9701 68.8516 84.7446 68.6764 84.1582 68.2967C84.9921 68.3278 85.2775 67.8597 85.6846 67.6629C85.364 67.0835 86.021 67.1181 85.7004 66.5387C85.383 66.8434 85.7616 67.0067 85.3236 67.3302C85.0835 66.9646 84.5356 67.4768 84.0251 67.1906C84.3497 66.879 84.4859 67.1364 85.0512 66.8154C84.7969 66.103 85.1709 66.4925 85.2926 66.0707C84.6263 65.7954 84.7999 67.0013 84.2224 66.8764C84.231 66.1057 84.9634 65.9154 84.6731 65.2377C84.1681 65.7225 83.76 64.5755 83.0346 64.7729C82.2121 62.79 79.3817 63.5529 78.0106 61.7639C76.1414 61.8674 73.8085 59.3799 72.0074 59.9586C71.8588 59.8322 71.6867 59.7365 71.501 59.6769C71.3153 59.6173 71.1197 59.595 70.9253 59.6112C71.0132 59.4706 71.1346 59.3539 71.2788 59.2719C70.4369 58.6653 69.51 58.1865 68.5282 57.8509C68.6335 58.235 69.1047 58.0183 69.1151 58.5489C68.845 58.2676 67.8351 58.1975 68.0719 57.679C67.8849 57.4842 67.5949 57.4854 67.2178 57.598C67.2331 57.8883 67.395 57.9269 67.4764 58.0983C67.2785 57.8878 67.0373 57.7226 66.7695 57.6142C66.5016 57.5058 66.2135 57.4567 65.9249 57.4704C65.6362 57.484 65.354 57.56 65.0975 57.6931C64.8411 57.8263 64.6166 58.0134 64.4394 58.2416C63.6158 58.0481 64.783 57.6899 64.6156 57.2268L64.3256 57.228C64.8779 56.8502 64.4289 56.6713 63.9504 56.2019C63.8061 56.3404 64.0751 56.3317 64.0483 56.607C63.9167 56.47 63.5519 56.6676 63.5594 56.3C63.4538 56.6232 63.5958 56.5978 63.4458 57.0191C63.1391 57.1473 63.1027 56.8495 62.7593 57.0405C62.7287 56.8065 62.9079 56.6899 63.1921 56.625C63.1837 56.3419 63.0218 56.3032 62.9335 56.1246C62.8178 56.321 62.7257 56.5305 62.6592 56.7485C62.3166 56.5506 62.3097 56.1968 61.8861 55.8134C61.1788 56.1597 61.1805 55.3817 60.4721 55.7846C60.2523 56.162 60.4361 56.1658 60.3585 56.5037C59.7285 56.2692 59.033 56.2829 58.4128 56.5419C58.1109 56.0831 59.0031 56.3771 58.6871 55.918C59.0337 55.918 59.1027 56.3508 59.5739 56.1341C59.5421 55.9566 59.4962 55.7789 59.4503 55.6011C59.272 55.6753 59.4986 56.0123 59.2853 56.0646C59.1001 55.785 59.1041 55.587 58.4938 55.6878C58.4894 55.2068 58.2799 55.0752 57.8442 55.2856C58.1001 54.8735 57.5712 54.7991 57.4947 54.3873C57.3052 54.6664 56.8008 54.4298 56.4103 54.4997C56.4118 54.5905 56.4477 54.6775 56.5106 54.743C56.5736 54.8086 56.659 54.8479 56.7497 54.8531C56.4468 55.4906 56.0947 54.7196 55.8552 55.3654C55.718 55.2733 55.6023 55.1527 55.5159 55.0119C55.1301 55.284 54.6529 55.3937 54.1871 55.3173C54.398 55.0316 54.9861 54.9799 55.3156 54.7745C55.2074 54.5318 54.7117 54.9107 54.8011 54.3396C54.9336 54.1987 55.0733 54.0647 55.2194 53.9379C55.0503 53.9062 54.3128 53.6578 53.854 53.9597C53.684 53.6238 54.0727 53.6388 54.161 53.4708C54.2493 53.3029 54.0709 53.3771 54.0363 53.341C54.0017 53.3049 53.8952 53.324 53.8687 53.2386C53.4959 53.8413 53.2778 54.5269 53.234 55.2343C53.056 55.2943 52.871 55.3471 52.8104 55.1974C52.461 55.3388 52.901 55.6094 53.1388 55.395C52.4284 55.8968 53.3096 56.035 52.6015 56.0772C53.0716 56.2636 52.9011 56.9956 52.2542 57.1593C52.8783 57.7336 53.7016 58.0421 54.5494 58.0193C54.6831 58.7505 55.5831 58.6627 56.4467 58.9702C56.0393 58.8347 56.0779 58.6728 56.1951 58.4771C56.305 58.2884 56.4931 58.0801 56.4553 57.853C56.5286 57.8857 56.6074 57.9041 56.6876 57.9072C56.6163 58.1008 56.5345 58.2903 56.4427 58.4751C56.3604 58.4648 56.2772 58.4655 56.1951 58.4771C56.342 58.9045 56.5206 58.8162 56.6421 58.755L56.7944 58.9137C56.796 58.8348 56.817 58.7574 56.8556 58.6886C56.9041 58.7391 56.9872 58.8256 57.038 59.1096C57.6332 58.8913 58.2389 58.703 58.853 58.5453C58.7973 58.8483 58.4274 58.9539 57.9945 59.0229C58.04 59.1128 58.1056 59.1908 58.1864 59.2509C58.2671 59.311 58.3607 59.3516 58.4597 59.3693C58.5588 59.3871 58.6606 59.3817 58.7572 59.3534C58.8538 59.3251 58.9425 59.2748 59.0163 59.2064C59.1243 59.4632 59.0784 59.632 58.8372 59.6695C59.3326 59.6513 60.0499 58.8101 60.9548 59.1751C60.8224 59.427 60.3336 59.4666 60.2499 59.7548C60.1377 59.3636 59.9192 59.3238 59.5635 59.7762C59.5797 60.0241 59.7782 59.9999 59.6951 59.9133C59.8509 59.9023 59.8821 60.1081 59.921 60.2786C60.5354 60.3265 60.3394 59.8769 60.6118 59.6985C60.8588 60.0713 60.8282 60.1839 61.129 60.6992C61.6957 60.6542 63.1959 60.6139 63.4571 61.6801C63.945 61.683 63.9618 61.556 64.4463 61.7285C64.1384 61.9132 64.0891 62.2517 63.9416 62.5458C64.1148 62.7261 64.5179 62.7272 64.6353 62.5174C64.4998 62.4234 64.343 62.3643 64.1791 62.3455C64.2068 62.0278 64.9051 62.1198 65.2052 61.9703C65.1454 62.1247 64.9599 62.2058 65.0332 62.4265C65.6049 62.4876 65.9713 62.2051 66.6852 62.2267C66.0077 62.5029 65.9734 62.7993 65.5567 62.7696C65.8268 63.0509 65.9099 63.1375 66.283 62.8763C65.4895 63.6381 68.2285 63.5453 67.8268 64.1666C67.9331 64.5082 68.036 63.9657 68.3526 64.05C68.2279 63.9201 68.073 63.8887 68.0132 63.6965C68.2008 63.5165 68.4472 63.9175 68.446 63.281C68.8483 63.3245 68.339 63.6749 68.7046 63.7813C69.5374 63.5224 69.5302 63.8759 70.4827 63.6407C70.3652 63.8504 70.4853 63.86 70.5805 64.0458C70.0285 64.0628 69.1698 63.8615 68.7955 64.1792C68.8561 64.329 69.0702 64.2343 69.2333 64.2164C69.336 64.7277 69.5651 63.8978 70.0805 64.2902C69.8785 64.4841 69.2691 64.889 69.1565 64.5119C68.9373 65.2076 69.8352 64.8723 70.1783 64.6953C70.1033 64.906 70.0699 65.1599 69.7363 65.2168C69.8105 65.3951 70.1475 65.1686 70.1997 65.3818C70.4487 64.9625 70.7696 64.8347 70.6717 64.4295C71.3085 64.5781 71.9026 64.8708 72.4083 65.2853C72.6608 65.0429 72.2305 64.9846 72.38 64.5916C72.7822 64.6351 72.273 64.9855 72.6386 65.0919L73.1715 64.9684C73.1277 64.8908 73.058 64.831 72.9746 64.7996C72.8912 64.7682 72.7994 64.7671 72.7153 64.7964C72.7113 64.6478 72.9101 64.6094 72.9129 64.4681C73.2995 64.7079 73.6485 65.0033 73.9489 65.3449C74.4507 65.3622 75.1897 65.1933 75.029 65.7912C75.3634 65.6919 75.2315 65.2225 75.0148 65.0978L75.2708 65.0323C75.2339 65.4559 75.9045 65.519 76.0837 66.0956C76.6968 65.5069 77.2059 66.2103 77.8944 66.09C77.8563 66.5701 76.7084 65.6344 76.9999 66.6022C77.2956 66.3182 77.7242 66.4613 78.0953 66.6457C77.3791 67.4303 76.6972 66.1858 75.9735 66.9915C75.9415 66.8282 76.1074 66.6689 75.8985 66.5091C75.9934 67.0556 75.0798 66.4217 75.21 66.976C74.9809 67.1128 74.7806 66.5288 74.5365 67.0543C74.2309 66.4327 73.8948 66.9634 73.5482 66.6169C73.5171 66.7577 73.4859 66.8985 73.3534 66.8039C73.2164 66.9355 73.5096 67.1253 73.6264 67.2904C73.5399 67.3735 72.9512 67.1069 73.1587 66.9909C72.9071 66.8443 72.908 67.495 73.2369 67.6644C72.6858 67.9856 72.8096 67.4647 72.0807 67.8318C71.8605 67.1837 71.7612 67.1958 71.1457 66.858C70.8981 66.86 70.9527 66.9602 70.85 67.142C70.8655 66.725 70.5366 66.9022 70.282 66.5505C69.7601 67.1764 69.2288 66.1754 68.74 66.9081C68.7178 66.8021 68.7256 66.692 68.7627 66.5903C68.7997 66.4885 68.8646 66.3992 68.9498 66.3324C68.4088 66.8518 68.3141 66.2912 67.6888 66.7806C66.6012 66.0088 65.9133 66.794 64.6794 66.2597C63.8932 67.0146 61.6842 65.3925 61.4087 66.7661C61.3005 66.87 61.1568 66.6336 61.0269 66.7583C60.9597 66.5872 61.4713 66.4703 60.9415 66.0918C60.6746 66.348 60.8991 66.4374 60.552 66.4657C60.4062 65.9818 59.0875 65.7924 58.9138 66.3334C58.4201 66.2668 57.8029 66.0138 57.9751 65.5434C57.6838 65.5885 57.386 65.5663 57.1045 65.4784C56.8231 65.3906 56.5656 65.2394 56.3517 65.0365C56.2022 65.4296 56.6454 65.5447 56.8111 66.0926C56.2037 66.052 56.2989 65.1981 55.9739 64.8308C56.0865 65.5545 55.2635 64.9861 55.5922 64.8231C55.2667 64.484 54.9415 65.1705 54.6267 65.0015C54.5297 64.9005 54.6731 64.8044 54.7245 64.7135C52.4745 63.9555 50.3323 62.9087 48.3518 61.5993C48.2566 61.4134 48.516 61.5248 48.6403 61.3222C48.0906 61.2262 48.1093 60.3071 47.5069 60.7192C47.6959 60.815 47.8762 61.335 48.0716 61.1197C47.9273 61.2582 48.0231 61.4158 47.966 61.7895C47.425 62.3089 47.3744 60.9712 47.4991 61.101C47.0558 60.6393 47.7415 61.3535 47.1133 61.2912C46.7959 61.2494 46.5791 60.0851 46.0667 60.5909C46.0147 60.3636 46.6106 60.2767 45.9734 60.3061C45.8127 59.8644 46.5883 59.9792 46.4749 59.6445C46.3615 59.3097 46.2441 59.8661 45.8874 60.0144L45.4165 59.5239C45.5933 59.1739 45.1763 58.8118 45.1134 58.4286C44.9472 58.2555 44.7328 58.3643 44.5369 58.6078C44.7256 58.7177 44.9233 58.3893 45.1056 58.8103C45.1853 59.0666 44.9326 59.3231 44.8991 59.577C44.6498 59.3174 44.7245 59.1208 45.0047 58.9073C44.7311 58.4491 44.4267 59.1572 44.1551 58.6C44.3571 58.4061 44.0198 58.3002 44.2607 57.9303C44.1845 57.851 44.0627 57.9263 43.9727 57.8325C43.8827 57.7387 43.8446 57.8723 43.782 57.8216C43.7012 58.6615 42.0217 56.739 42.3651 56.548C42.5062 56.2184 42.052 56.2941 41.921 56.4753C41.9174 56.5281 41.9068 56.5802 41.8895 56.6302C41.8786 56.6043 41.8757 56.5756 41.8813 56.5479C41.8869 56.5203 41.9007 56.4949 41.921 56.4753C41.9201 56.1712 41.6292 55.8682 41.8049 55.5747C41.2451 55.627 41.7079 54.7806 41.1502 55.0805C40.9911 54.5539 41.5833 54.9973 41.7376 54.7105C41.4017 54.5339 40.9856 54.1294 41.2635 54.029C41.3662 53.8472 41.1457 53.9063 40.9795 53.7332C40.9135 54.1987 40.6991 54.3075 40.2042 54.2974C40.7406 53.6576 39.2664 53.8115 39.7491 53.0292C40.1204 52.8529 40.0954 53.3899 40.3248 53.239C40.6494 52.9273 39.4616 52.5566 39.3751 52.6397C39.3354 52.5493 39.3153 52.4515 39.3161 52.3528C39.3169 52.2541 39.3385 52.1567 39.3797 52.0669C39.0822 52.4357 38.9079 51.9654 38.4251 52.0546C38.3504 51.9045 38.5324 51.3 38.8187 51.4826C39.0927 50.8729 38.0768 51.7929 38.3509 51.1832C38.1345 51.3909 37.1767 50.4945 37.5732 51.1673C37.364 51.3682 37.1975 50.8627 37.0085 50.7669C37.069 49.1839 36.4055 48.4207 35.5525 46.8969C34.9682 47.4579 34.7913 47.1148 34.4 46.8805C34.1908 47.0814 34.6891 47.2683 34.7772 47.4611C34.2684 47.4366 34.3307 47.1549 33.9244 46.9628C34.2696 47.0335 34.5953 46.3187 34.9728 46.8851C35.1315 46.7327 35.3063 46.4817 35.4592 46.6121C35.6035 46.4736 34.4983 45.8711 35.2918 45.4559C34.9594 45.1096 35.1547 45.5874 34.7153 45.6351C34.7233 45.2392 34.2374 45.1374 33.9486 45.4285C33.8219 45.0511 33.6712 44.461 33.1622 44.7972C33.2554 44.3889 32.933 43.8944 32.2249 43.2434C32.4846 42.9941 32.6782 43.2102 32.8946 43.349C32.9712 43.2009 33.0128 43.0372 33.0162 42.8705C33.0196 42.7039 32.9847 42.5386 32.9142 42.3875C32.6614 42.9906 32.1659 41.9692 32.4346 42.6678C32.2465 42.5711 32.0975 42.4126 32.0125 42.219C31.9276 42.0253 31.9119 41.8083 31.9682 41.6045C32.1636 41.7357 32.0762 41.8613 31.9605 41.9862C32.1336 42.1666 32.2839 42.0777 32.4424 42.286C32.4666 42.138 32.4978 41.9971 32.6371 42.099C32.8426 41.7354 32.2747 41.837 32.1662 41.6085C32.0577 41.38 32.0796 41.345 32.1739 41.2267C32.2683 41.1084 32.6034 41.674 32.8405 41.1413C32.2409 40.7138 31.7587 40.1421 31.4386 39.479C31.7415 39.1881 32.2156 39.1765 32.2248 38.7241C31.7816 38.2624 31.6607 38.6419 31.3689 38.0348C31.2088 38.6044 30.4496 38.0302 30.8784 38.5057C30.7053 38.672 30.5656 38.5843 30.3989 38.786L29.9279 38.2955C30.1183 37.974 30.3094 38.3174 30.5007 38.3C30.713 37.9437 30.1354 38.1794 30.0367 37.8167C30.3567 37.7313 30.662 38.0204 30.9872 38.027C31.405 38.3467 30.507 37.2959 30.3215 37.7235C30.2649 37.3758 30.6995 37.5685 30.524 37.1548C30.1451 37.0056 30.0972 37.2734 29.9365 37.5247C29.6269 37.4477 29.6341 37.0942 29.169 37.7072C29.0841 37.0123 29.8984 36.6187 29.7691 36.3685C29.9855 36.1607 30.2207 36.4201 30.4348 36.672C30.669 35.9342 29.8937 35.8052 29.4146 35.0175C29.3657 35.1273 29.3408 35.2463 29.3418 35.3665C29.3428 35.4867 29.3695 35.6053 29.4203 35.7143C29.471 35.8233 29.5446 35.9201 29.636 35.9982C29.7274 36.0763 29.8344 36.1339 29.95 36.1671C29.6814 36.5082 29.4306 36.3192 29.1677 36.724C29.1505 36.5769 29.0863 36.4392 28.9848 36.3313C29.1778 36.2292 29.3619 36.5653 29.5682 36.1593C29.1324 35.33 29.1927 34.8008 28.8329 34.4116C28.501 34.3836 28.5919 34.7815 28.1554 34.6878C27.9946 34.246 28.7702 34.3608 28.6427 34.0258C28.4695 33.8455 28.2627 34.2798 28.0662 34.205C28.0451 33.851 27.9484 34.0824 27.6922 33.8155C28.4138 33.4553 28.6461 34.2027 29.1286 34.1276C29.5023 34.8778 30.0688 35.1935 30.1488 35.7821C31.26 35.7411 30.1461 34.8697 30.6588 34.3497C30.4857 34.1694 30.2719 34.5964 30.086 34.3451C29.9002 34.0938 30.2482 34.0231 30.3786 33.8701C29.9674 33.5718 29.4624 33.3635 29.3429 32.9792C28.9098 33.0623 29.5637 33.599 29.1441 33.3641C29.698 33.7946 30.0834 34.4055 30.2336 35.0907C29.3497 34.3867 28.1558 32.9267 28.2833 31.8755C28.6494 31.9537 28.736 31.8706 28.6728 31.5015C28.9449 31.6839 29.2038 31.8235 28.9685 31.2176C29.3177 31.0903 30.1609 32.0552 29.8057 32.4794C30.0675 32.8242 29.8516 31.964 30.1912 32.3033C29.838 31.9354 29.8048 31.1356 29.354 31.0415C29.3716 30.8721 29.7508 30.6606 29.9784 30.2479C29.8468 30.1109 29.7083 29.9666 29.7882 29.8622C29.4595 29.6787 29.5413 30.529 29.1107 30.1384C29.0412 30.0814 28.994 30.0017 28.9777 29.9133C28.9614 29.8249 28.9769 29.7336 29.0215 29.6556C29.1895 29.6482 29.3566 29.6832 29.5075 29.7574C29.6878 29.2377 29.0781 29.6568 28.9355 29.3639C28.7292 29.7699 28.6758 29.6132 28.542 29.9358C28.8981 30.1623 28.7942 30.0541 29.0129 30.4263C28.6871 30.448 28.3729 30.2507 28.0515 30.4068C28.2309 29.9295 28.1547 29.8502 27.6705 30.0101C27.5008 29.66 28.2889 29.86 27.6892 29.4376C27.9518 29.0468 28.2006 29.3348 28.4568 29.2551C28.6602 28.9905 28.0966 28.88 27.985 29.1536C27.622 28.9199 27.8739 28.7058 27.5108 28.4721C27.7708 28.5552 28.0239 28.2845 28.2776 28.6786C28.7424 28.4264 28.1537 28.1598 28.2931 27.9151C28.0547 27.8112 28.1127 28.0882 27.9973 28.1991C27.9349 27.9185 27.7679 27.6724 27.5304 27.5106C28.1569 27.6577 27.6931 27.5068 28.4059 27.2384C28.295 27.123 28.2396 27.0653 28.3126 26.9536C27.9522 26.9392 28.0561 27.0474 27.8449 26.6541C28.265 26.8607 28.4404 26.2348 28.6239 25.9062C28.3607 25.6321 28.2641 25.8635 28.243 25.5094C28.4464 25.2448 28.6219 26.0051 28.8227 25.5212C28.66 25.525 28.5087 25.3097 28.344 25.4125C28.2848 25.192 28.5226 24.9776 28.6475 24.7467C28.4626 24.7943 28.293 24.8888 28.1553 25.021C28.0176 25.1533 27.9163 25.3188 27.8612 25.5017C27.9059 25.3894 28.475 25.9243 27.8535 25.8834C27.0183 25.2158 28.0761 24.6715 27.6329 24.2098L28.0224 23.8358C28.1165 24.4248 28.1935 24.1151 28.6913 24.3304C28.8356 24.1918 28.2746 23.6076 28.7891 24.0424C28.9769 23.5016 28.6526 23.4526 28.2249 23.2671C28.4145 22.988 28.5541 22.7292 27.9479 22.9785C28.1897 22.2196 27.8581 21.831 27.5083 20.9468C27.8938 20.7708 28.2684 21.4786 28.6568 21.1612C28.6576 20.7722 28.4265 21.008 28.189 20.8617C28.326 20.7301 28.4631 20.5985 28.5676 20.6784C28.3529 20.4548 28.3996 20.2436 28.0028 20.2779C28.0294 20.0168 28.3981 19.6212 28.5903 19.908C28.6731 19.6621 28.7562 19.4021 28.4079 19.1404C28.2925 19.2512 28.2348 19.3066 28.1162 19.2264C27.9358 19.3996 28.3629 19.6134 28.1116 19.7992C27.8603 19.9851 27.6626 19.6203 27.4386 19.5026C27.6066 19.4952 27.7737 19.5302 27.9246 19.6045C27.825 19.2842 27.4845 18.6407 27.7649 18.0665C28.3968 17.9449 27.8691 18.8536 28.4228 18.7517C28.4641 18.4626 28.0881 18.1721 28.3414 17.8872C28.4713 17.7626 28.6562 18.0563 28.8164 18.1798C29.0256 17.9789 28.7901 17.7337 28.5402 17.5023C29.0042 17.2925 29.0261 16.5645 28.8592 16.0731C28.8371 16.2192 28.7643 16.3529 28.6535 16.4508C28.4833 16.1291 28.4532 15.5202 27.9096 15.4738C28.2503 15.0634 27.8417 14.6379 27.6452 14.2166C27.8327 14.0365 27.9153 14.8445 28.0338 14.2316C28.1377 14.3398 28.2001 14.4047 28.1199 14.5233C28.5264 14.7013 28.1074 13.745 28.7004 14.1461C28.5168 12.742 27.7847 12.5715 28.1003 10.9654C28.7518 11.2686 28.3118 10.6514 28.8678 10.783C29.1402 10.6046 28.3876 10.3984 28.8793 10.2174C28.7269 10.0587 28.6265 10.1274 28.5016 10.0117C28.8946 9.81458 28.5474 9.14978 28.5289 8.66847C28.6371 8.56458 28.7808 8.8009 28.9107 8.67623L28.8989 9.25594C29.1231 9.35952 29.1851 9.09202 28.9967 8.96796C29.16 8.93592 29.3196 9.08768 29.4794 8.87876C29.4189 8.60118 29.2543 8.35736 29.0194 8.19752C29.7468 7.90112 29.3737 7.12262 29.9112 6.77285C29.5978 6.53309 29.264 6.95065 28.9498 6.7533C28.7117 6.98185 29.4296 7.15205 28.938 7.33301C29.3494 7.27065 29.1625 7.42244 29.5067 7.53553C29.2615 7.77101 29.0609 7.54768 28.8332 7.61378C28.6012 7.19885 28.8713 6.78707 28.3778 6.35975C28.5264 6.3557 28.7974 6.24805 28.6736 6.07579L29.2533 6.08758C28.8665 5.28052 29.3033 4.32047 29.7866 3.50988C29.466 3.27704 29.1469 3.32006 28.7983 3.07251C28.9769 3.67731 28.4636 3.18593 28.124 3.53972C27.9855 3.39546 27.8539 3.2584 27.9338 3.15394C27.8423 3.47742 27.3385 3.55911 26.7816 3.12344C26.7634 3.3211 26.9963 3.34705 26.9677 3.70717C26.7747 3.80933 26.8431 3.57733 26.6838 3.41142C26.665 3.63736 26.5649 3.69191 26.3921 3.49743C26.1684 3.71213 26.7505 3.95736 26.859 4.18589C26.5044 4.23526 26.2619 3.63623 26.3762 4.27509C26.2141 4.25057 25.9953 3.87835 25.5899 3.64379C25.7429 4.12076 25.3354 3.98517 24.9586 4.43015C25.2148 4.69704 24.9866 4.79141 25.3395 4.82688C25.4892 4.41972 25.4079 4.24832 25.9238 4.26588C25.9296 5.02276 24.3538 4.95536 24.6315 6.25528C23.9845 5.72583 23.8538 6.23946 23.296 5.8462C23.2649 5.98702 23.2337 6.12784 23.1013 6.0332C23.2447 6.28365 23.2476 6.48882 22.6968 6.79588C22.5467 6.52407 22.9013 5.78159 23.1342 5.80755C23.4804 5.47511 22.5389 5.86617 22.8502 5.5118C22.4413 5.4469 22.6837 6.04593 22.3784 5.41026C22.0431 5.89852 22.4419 6.11173 21.7832 6.16199C22.0013 6.56249 22.2394 5.98738 22.4529 6.26755C22.6665 6.54772 22.5017 6.65046 22.2573 6.84352C22.7703 6.65593 22.9839 7.28265 22.6163 7.62173C22.9785 7.5513 22.7222 7.97751 23.0013 7.82052C23.3908 7.44652 22.8558 7.66904 22.9121 7.33777C22.9923 7.56572 24.3639 8.63328 24.0014 7.67819C24.4469 7.68017 24.4492 7.91361 24.7531 8.27342C24.7619 8.43999 24.7243 8.60573 24.6444 8.75214C24.5666 8.79448 24.4762 8.80751 24.3896 8.78888C24.3031 8.77025 24.2261 8.72119 24.1726 8.6506C23.8401 8.30436 24.7719 8.74059 24.4683 8.36664C24.6285 8.14358 23.9666 8.69592 23.6047 8.05911C23.6976 8.35804 23.7429 8.91062 24.0678 8.93138C23.9209 8.94755 23.7844 9.01487 23.6821 9.12156C23.3609 8.917 23.7112 8.73316 23.6939 8.54185C23.4515 8.28939 23.1785 8.84257 22.9271 8.3353C22.9234 8.86567 22.6773 8.79701 22.9148 9.28984C22.6854 9.44077 22.4753 8.99093 22.2341 9.37502C22.5804 9.73569 22.4641 9.88892 22.9267 10.0964C22.3681 10.4386 22.435 9.58421 21.8683 9.97582C22.0276 10.1417 22.1277 10.0872 22.25 9.98358C22.2798 10.26 22.1355 10.3985 22.2879 10.5572L21.6026 11.2152C22.5932 11.5394 21.9057 12.3105 22.245 12.664C21.8041 12.7823 21.9039 12.3953 21.5793 12.3605C21.6821 12.8718 21.8644 12.9462 21.2827 13.0334C21.4187 13.3049 21.8546 13.0804 21.4588 13.4189C21.8639 13.6676 21.6824 13.2042 22.0422 13.2469C21.859 13.908 22.4645 14.3941 21.3414 14.6683C21.4522 14.7837 21.5076 14.8415 21.4346 14.9531C21.6493 15.1767 21.909 14.9274 21.9211 14.6801C22.3367 15.1129 21.9402 15.4797 22.4744 15.6462C22.3012 15.8124 22.0914 15.695 21.9056 15.4436C21.4736 15.4702 22.3904 15.9486 22.5636 16.1289C22.271 16.2573 21.9888 16.2233 21.7068 15.8286C21.4292 15.9149 21.652 16.4357 21.3101 16.2095C21.0415 16.5506 22.3393 16.0253 21.781 16.7C22.4144 16.5078 22.2849 16.9649 22.54 17.2883C22.3126 17.3403 22.3945 17.1368 22.0581 16.9886C21.9571 17.0855 22.1801 17.2456 22.0572 17.3775C21.8024 17.3865 21.4807 17.2102 21.4925 16.9771C21.2853 17.0789 21.5615 17.4099 21.7577 17.8453C21.565 17.9333 21.3636 18.4455 21.1772 18.2225C21.6438 18.5785 21.2355 18.8319 22.0144 19.4843C21.9547 19.9852 21.6987 20.0507 21.293 20.1769C21.5744 20.5999 22.1206 20.1725 21.663 20.7643C21.9426 20.9256 22.4257 21.1688 22.4179 21.5506C22.2737 21.6891 21.7199 21.0979 22.1262 21.6366C21.8954 21.8582 21.6204 21.4707 21.3517 21.8118C21.7534 22.2302 22.1898 22.6846 21.9041 23.1668C21.9937 23.2121 22.0923 23.2366 22.1926 23.2387C22.293 23.2407 22.3925 23.2202 22.4838 23.1786C21.9902 23.8051 22.3055 23.5993 22.1365 24.2607C21.9435 24.3629 22.0548 24.1034 21.8525 23.965C21.6598 24.7461 23.2403 24.9338 22.4869 25.8096C22.4004 25.8928 21.8117 25.6262 22.0191 25.5102C21.5626 25.3524 21.9029 26.0099 21.7156 26.1759C21.9511 26.4211 22.0475 25.8573 22.1052 25.8019C22.3378 26.1885 22.1673 26.574 22.0747 26.9541C22.4071 27.3003 22.9311 26.922 22.9501 26.6819L23.518 27.2734C23.0921 27.3496 23.2162 27.1612 22.7513 27.0669C22.3927 27.3142 22.5006 27.571 22.354 27.8226C23.0495 28.7491 22.9428 29.1289 23.8492 29.7697C23.9531 29.8779 23.7168 30.0216 23.8342 30.1584C23.685 30.1907 23.5185 30.0317 23.3587 30.2406C23.4349 30.32 23.5494 30.2516 23.6394 30.3454C23.634 30.614 23.3639 31.0258 23.1521 31.0073C22.9403 30.9889 23.0667 30.6873 22.8719 30.5278C23.0188 30.5116 23.1554 30.4443 23.2577 30.3376C22.6338 30.0632 23.035 30.8564 22.4463 30.9364C23.0924 31.1617 22.7548 31.07 22.9063 31.6176C23.0217 31.5068 23.0866 31.4445 23.2053 31.5247C23.3239 31.6049 23.1596 31.3328 23.1051 31.2327C23.0506 31.1326 23.3031 31.2367 23.3968 31.1467C23.563 31.3198 23.4456 31.5296 23.1943 31.7154C23.783 32.3286 24.3998 33.9961 24.6932 33.4787C25.1419 34.3648 24.8935 34.7558 24.7473 35.6864C24.9426 35.1246 25.2716 35.6405 25.9035 35.519C25.9214 35.682 25.6012 36.1281 25.23 35.5972C25.368 36.1163 25.598 36.6302 25.1987 37.1384C25.4367 37.4305 25.6259 37.7591 25.7589 38.1117C25.5727 38.221 25.6792 37.8554 25.4709 38.0139C25.4297 38.6496 26.2258 38.8001 26.2033 39.5564C26.2255 39.4103 26.2983 39.2766 26.4091 39.1787C26.8633 39.4496 26.4339 39.6955 26.7753 39.95C26.8618 39.5203 26.994 39.9756 27.4447 40.0697C27.5209 40.149 27.441 40.2535 27.538 40.3545C27.28 40.5713 27.0065 40.7691 26.7197 40.9461C27.3747 41.4262 27.3055 42.0472 28.0433 41.9349C27.6001 42.1663 27.9478 42.1097 28.1248 42.7994C27.6475 42.4505 27.235 42.0208 26.9058 41.5298L26.5091 41.9107C26.7653 42.1776 26.9792 42.0971 26.9918 41.8215C27.1021 42.3118 27.5205 42.2566 27.743 42.7916C27.4473 43.0755 27.1875 41.9387 26.8863 42.4913C27.4319 42.7853 27.3985 43.3857 28.109 43.577C27.671 44.2471 28.7277 45.1456 28.8288 46.0883C29.0089 46.2758 29.0463 45.4774 29.4016 46.0928C29.2546 46.109 29.1181 46.1763 29.0158 46.283C29.1814 46.2904 29.3465 46.2599 29.4985 46.1938C29.6547 46.5153 29.5987 46.8324 29.8607 47.163C29.8824 46.7957 30.4344 46.7786 30.7362 46.8909C30.712 47.0389 30.4226 47.3584 30.2019 47.7782C30.5048 47.4873 31.1515 48.3775 30.6728 48.2687C30.515 48.7252 31.1801 48.0174 31.3385 48.5722C30.5055 48.4987 31.5204 49.0215 30.9912 49.6543C31.1462 50.0323 31.794 50.1728 31.6491 50.3396C32.0338 50.5525 31.798 49.9749 31.9417 49.8646C31.943 50.2641 32.0849 50.6503 32.3425 50.9556C32.6001 51.2609 32.957 51.4657 33.3505 51.5341C33.2784 51.6034 33.1362 52.336 33.623 52.3954C32.8318 52.6976 33.4171 53.4804 34.3552 53.9521C33.3923 54.0033 35.0255 54.0294 34.2536 54.4239C34.8564 54.3442 35.5317 55.2208 35.8573 55.9064C36.0512 56.1084 35.9856 55.5059 36.34 55.8172C36.3617 56.4895 36.957 57.124 36.8774 57.5609C37.5442 57.1148 38.1947 57.8211 38.4031 58.3558C38.1506 58.5982 38.3736 58.0652 38.0291 57.9662C37.4139 58.3074 38.4767 58.5624 38.0104 58.5387C37.8921 58.7909 38.569 58.8896 38.773 58.9432C38.9029 58.8186 38.7655 58.6177 38.8818 58.4645C38.8483 58.7184 39.1542 58.9793 38.8663 59.228L39.7158 59.5353C39.792 59.6146 39.719 59.7263 39.8159 59.8273C39.5868 59.9641 39.3695 59.5212 39.1352 59.9125C39.5416 60.4512 39.5083 59.6513 39.992 60.2128C39.6977 61.1192 40.7769 61.2613 40.8283 61.8636C41.0257 61.2028 41.4447 62.5055 41.778 62.4628C41.9078 62.3382 41.7633 62.1443 41.8798 61.9769C42.2261 62.3376 42.1029 62.4836 42.5378 62.6622C42.5394 62.8925 42.5013 63.1214 42.425 63.3388C42.8486 63.0292 44.0739 63.9877 43.9429 64.5154C44.123 64.703 44.337 64.2618 44.5263 64.3434C44.5217 64.5696 44.7437 64.7863 44.9863 65.0247C44.1057 65.5513 45.689 65.2511 45.7375 65.9947C46.127 65.6207 46.2396 65.9979 46.4032 66.2982C46.6326 66.1473 46.7062 66.0074 46.512 65.8195C46.9237 65.9336 47.288 66.1764 47.5517 66.5126L47.256 66.7965C46.759 66.5389 47.3881 66.2122 46.886 66.209C46.9207 66.9382 47.9379 67.6944 48.4036 67.3998C48.6252 67.6306 47.9009 67.7715 48.3849 67.9723C48.5897 67.2904 49.1746 68.0874 49.6193 68.4783C50.09 68.6364 49.1983 67.9676 49.3504 67.7939C49.9679 68.0328 49.8675 68.448 50.483 68.7859C50.7338 68.6283 50.6804 68.4716 50.7756 68.3109C51.011 68.5561 50.9291 68.7596 50.868 68.9847C51.336 69.27 51.8211 69.0677 52.2935 69.4875C52.5676 69.2243 52.0787 68.9173 51.7956 68.5792C52.1324 68.3668 52.0308 68.492 52.4801 68.3102C52.2553 68.928 52.4172 68.6201 52.3635 69.1707C52.8599 69.4566 52.909 69.8254 53.2085 70.0507C54.1168 69.5529 54.4179 70.7472 55.5992 70.3893C55.8188 70.7191 55.6933 70.6317 55.8754 71.0668C56.2632 70.7776 56.4946 70.8743 56.6421 71.2733C57.1399 71.4886 56.2612 70.8766 56.7509 70.7946C57.0033 70.5522 56.7731 71.0921 57.1318 71.1914C57.2688 71.0598 57.4059 70.9282 57.5103 71.0081C57.4942 70.7602 57.0048 70.4815 56.8178 70.2868C56.9649 70.2695 57.1026 70.2054 57.2105 70.1038C57.4182 70.3202 57.257 70.9464 57.4875 70.3923C57.5337 70.6252 57.6339 70.844 57.7799 71.0312C57.926 71.2184 58.1138 71.3688 58.3284 71.4703C58.415 71.3872 58.4222 71.3803 58.3325 71.2724L58.5272 71.0854C58.4303 70.9844 58.2701 71.2074 58.1455 71.0776C58.414 70.0434 59.8226 71.3805 60.0598 71.8874C60.2113 71.742 60.1357 71.6344 60.2514 71.5094C60.2006 71.9186 60.8741 71.4938 60.8124 72.0937C61.0986 72.2763 60.793 71.6548 60.8241 71.514C61.502 71.5702 62.1544 72.1776 62.844 71.6541C63.0149 71.9475 62.6626 72.2303 63.1093 72.5223C63.4215 72.1255 63.1952 72.1209 63.498 72.5373C63.73 72.2902 64.0049 72.0873 64.3093 71.9385C64.4548 72.4365 64.8591 72.3811 65.2513 72.9195C65.3973 72.6962 65.1615 72.465 65.5548 72.2538C65.9481 72.0425 66.0598 72.4621 66.3215 72.4603C66.0113 72.7582 65.4748 72.0117 65.446 72.7325C66.0938 72.5264 65.9103 72.8551 65.917 73.223C65.9932 73.3024 66.1149 73.2271 66.205 73.3208C66.2915 73.2377 66.2987 73.2308 66.4029 73.3249C66.4103 73.1592 66.3798 72.9941 66.3137 72.8421C66.477 72.8101 66.6294 72.9688 66.7892 72.7598C66.8208 72.8188 66.8366 72.8849 66.8353 72.9517C66.8339 73.0186 66.8154 73.084 66.7815 73.1416C66.9434 73.1802 67.2665 72.5927 67.6569 72.8694C67.8673 73.3051 67.3938 72.5953 67.2642 73.0524C67.6905 73.6552 68.2609 72.7332 68.4087 73.4647C68.6706 73.1022 68.8848 73.3541 68.8992 72.9937C69.0608 73.393 69.6226 73.2418 69.8606 73.0133C69.8768 73.1602 69.9441 73.2967 70.0508 73.399C70.9978 73.0986 71.9979 73.0032 72.9845 73.1192C72.8242 73.2607 72.6333 73.3634 72.4268 73.4191C72.4435 73.6387 72.6138 73.6138 72.6528 73.7844C71.8787 74.1287 71.1346 74.5371 70.4284 75.0051C70.4267 75.4365 70.8494 75.1693 70.8477 75.6007C69.6354 74.699 67.953 77.0907 66.6081 77.1482C66.6811 77.3831 66.5097 77.4645 66.5966 77.7138C64.9007 77.6368 64.3136 79.0323 62.7479 79.1632C62.7402 79.5449 63.0832 79.368 63.1704 79.6032C61.8791 79.4567 62.0032 79.9614 61.4506 80.0067C61.2025 80.3836 61.3979 80.5148 61.5373 80.9633C61.1821 81.0409 61.1771 80.5882 60.7783 80.7215C60.8171 81.2527 60.7951 81.2876 61.1279 81.6197C60.4927 81.2037 59.9248 80.9587 59.3103 81.6181C59.3417 81.1166 59.486 81.3247 59.7523 81.0967C59.3864 81.0044 57.4269 81.7213 57.2976 82.5108C56.9724 82.5042 57.4087 82.2655 57.0717 82.1455C56.8005 82.6138 56.0122 82.7746 56.125 83.4842C56.6554 83.4879 56.7503 83.3413 57.0816 83.3975C56.0376 83.6097 57.9427 84.1789 57.0332 84.3867C56.7123 84.5146 57.3186 84.6118 57.4894 84.5586C57.6175 84.8654 56.8728 84.6239 57.1896 85.0406C57.5483 84.7932 57.7024 84.8671 58.1459 84.9681C58.1401 84.4234 58.3096 83.8912 58.6294 83.4502C59.3113 83.6551 59.3395 82.9625 60.0208 82.8491C60.3148 82.9965 60.4848 83.3324 60.7494 83.5358C61.0111 83.1875 61.0019 83.2934 61.5126 83.2189C61.4842 83.3205 61.4291 83.4127 61.353 83.4858C61.2769 83.5589 61.1825 83.6102 61.0798 83.6344C60.6227 83.5049 60.0116 83.6481 59.8321 83.0857C59.5963 83.2011 59.5701 83.4481 59.2365 83.505C59.3459 83.6911 59.5066 83.7863 59.616 83.9724C59.8052 83.361 59.8624 84.027 60.3166 83.9513C60.2601 84.2967 59.3306 84.0939 59.5953 84.6439C59.8766 84.3738 60.7668 84.4202 60.5304 83.8708C60.6642 83.9274 60.8125 83.9403 60.954 83.9077C60.8949 84.0431 60.8794 84.1936 60.9099 84.3382C60.4528 83.8622 60.5097 84.8888 59.6279 84.779C60.0469 85.0421 59.4476 84.9521 59.6095 85.3373C59.8443 85.2643 59.9257 85.4357 60.175 85.3488C60.1315 85.7511 59.7742 85.2346 59.6819 85.6005C60.2086 86.4811 60.2518 85.0533 60.764 85.9478C60.5294 86.0067 60.4322 86.2664 60.8876 86.4808C60.8876 86.15 61.0168 85.8324 61.2474 85.5953C61.4781 85.3583 61.7922 85.2207 62.1228 85.2116C61.9724 84.9539 61.638 84.7067 61.8059 84.4484C62.0927 84.6028 62.0801 85.2249 62.3975 85.2667C62.4933 85.7708 61.4435 85.5726 61.2947 85.9374C61.6574 85.8387 62.6694 86.1563 62.4558 85.5296C63.2043 85.5872 62.788 86.2365 62.4146 86.5118C62.657 86.7643 62.715 86.3482 63.1011 86.4904C62.773 86.2786 63.0996 86.2145 63.273 86.0342C63.2635 85.8077 63.086 85.8394 63.047 85.6689C63.6224 85.5462 64.2872 84.8525 64.8914 84.7021C64.6902 84.443 64.5687 84.1309 64.5419 83.8039C65.1421 83.5049 65.2598 83.9741 65.6918 83.9475C65.1447 83.3776 65.7835 83.6099 66.094 83.2979C66.0917 83.0645 65.907 83.1031 65.7728 83.0933C65.7953 82.6836 66.2117 83.074 66.4336 82.9441C66.3739 83.0985 66.1884 83.1796 66.2617 83.4003C66.9233 82.8621 67.4159 82.9853 68.1419 83.1062C67.9727 82.7279 68.6252 82.6421 68.216 82.2448C68.7201 82.149 68.6026 82.3588 68.6384 82.6848C68.7466 82.5809 68.8476 82.484 68.9013 82.6265C69.1448 82.4759 69.1719 82.1865 69.1431 81.8676C68.8092 81.9386 69.006 81.9992 69.0805 82.1634C68.4996 82.2082 68.5184 81.9822 68.4935 81.4654C69.0842 81.633 69.6789 81.2561 70.2416 81.7556C70.153 81.5911 69.9548 81.6012 69.9022 81.4021C70.3134 81.0073 70.7474 81.2283 71.4286 80.7683C71.3293 80.4339 70.9747 80.8298 70.8957 80.8919C70.5742 80.3549 71.2517 80.4253 71.5936 80.3049C71.5501 80.0141 71.3896 79.9047 71.1117 80.0051C71.7898 79.3541 72.5005 79.5312 73.2551 79.6385C72.2994 79.3362 73.4337 79.5502 73.5295 79.0146C73.7534 79.1324 73.7941 79.5646 74.2812 79.2633L74.1576 78.7304C74.4219 78.6014 74.452 78.8637 74.497 79.0838C74.7616 78.9407 74.7567 78.8345 74.5411 78.6533C75.5456 78.992 75.4159 76.6766 76.4371 77.2349C76.567 77.1102 76.5915 76.9481 76.7906 76.8955C76.652 76.7513 76.5358 76.9045 76.0972 76.9097C76.0109 76.6322 76.5462 76.7421 76.7253 76.6255L76.5435 75.8296L76.9414 75.7387C76.9671 75.8665 76.7971 75.8772 76.7178 75.9534C76.6956 76.349 76.9948 76.242 77.0093 76.5747C77.1247 76.4638 77.0655 76.2434 77.3555 76.2422C77.3021 76.0855 77.088 76.1802 76.925 76.1981C77.502 76.0727 78.0465 75.8285 78.5238 75.4809C78.5071 75.2613 78.3368 75.2862 78.2979 75.1156C78.5042 75.0562 78.4467 74.7509 79.0284 74.6637C78.5896 75.3762 79.5611 74.5543 79.7916 74.3468C80.2363 74.7378 80.0341 74.5993 80.5875 74.165C79.8551 73.6621 79.7559 74.3673 79.1095 73.8096C79.1426 73.5698 79.3954 73.6598 79.4049 73.8863C79.626 73.7989 79.6863 73.6162 79.5443 73.295C79.9419 73.2183 80.0957 73.6528 80.3381 73.9053ZM64.1145 79.0849C64.3154 79.2941 64.863 78.796 65.2315 79.1076C65.0754 79.4792 63.8612 79.3697 64.1289 79.071L64.1145 79.0849ZM25.7709 5.52169C25.519 5.38926 25.2732 5.99957 25.0002 5.51309L25.4907 5.04213C25.6076 5.20718 25.8936 5.40395 25.7709 5.52169ZM24.4974 6.93859C24.0717 7.00066 23.6663 6.76609 23.2133 6.78517C23.3698 6.67181 23.4751 6.501 23.5058 6.31018C23.6582 6.46888 23.8314 6.64921 23.9918 6.41201C24.0796 6.46604 24.1551 6.53807 24.2131 6.62337C24.2711 6.70866 24.3103 6.80528 24.3283 6.90686C24.4004 6.8376 24.5862 6.74236 24.4832 6.9383L24.4974 6.93859ZM23.3216 12.5868C23.0515 12.3055 22.8437 12.0891 22.9554 11.8156C23.2584 11.8712 23.2526 11.1144 23.166 10.8509C22.9928 11.0171 22.7724 11.4229 22.5822 11.0371C22.979 10.6561 23.4118 10.2406 23.859 9.81119C24.1782 10.4613 23.6377 10.2593 23.2629 10.9519C23.3274 11.4943 23.3423 12.0414 23.3075 12.5866L23.3216 12.5868ZM23.8153 12.3069C23.6704 12.0796 23.58 11.8219 23.5511 11.5538C23.5222 11.2858 23.5556 11.0147 23.6487 10.7617C24.2917 11.4891 23.6722 11.6958 23.8012 12.3066L23.8153 12.3069ZM23.3444 16.3357C23.1591 16.0562 22.9563 16.2925 22.7725 15.9422C23.2076 15.7601 22.5471 15.5486 22.9822 15.3665C23.407 15.6934 23.1955 16.0074 23.3303 16.3355L23.3444 16.3357ZM27.4164 14.6858C27.0421 14.657 26.7723 14.0149 26.6583 13.7085C27.0034 14.1257 27.5543 14.1652 27.4022 14.6855L27.4164 14.6858ZM23.1784 18.9351C23.402 18.7204 22.6659 18.4013 23.0032 18.1606C23.2802 18.4491 23.5105 18.2558 23.7658 18.5651C23.563 18.8014 23.5414 19.1688 23.1787 18.9209L23.1784 18.9351ZM23.8277 20.3911C23.4486 20.6026 23.176 21.4882 23.1393 20.858C23.5334 20.9509 22.6715 20.212 22.874 19.9898C22.9433 20.0619 23.0642 20.029 23.1588 19.8965C23.5501 20.1308 22.973 20.3383 23.244 20.5772C23.4382 20.4185 23.6655 20.02 23.828 20.3769L23.8277 20.3911ZM27.9238 17.2069C27.9993 17.0588 28.0367 16.8943 28.0326 16.7281C28.0056 16.7428 27.9746 16.7481 27.9443 16.7434C27.914 16.7387 27.8861 16.7242 27.8648 16.702C27.8436 16.6799 27.8302 16.6514 27.8267 16.621C27.8233 16.5905 27.8299 16.5597 27.8456 16.5334C27.9702 16.6632 28.1627 16.5893 28.3133 16.8329C28.3183 16.939 28.174 17.4241 27.9241 17.1927L27.9238 17.2069ZM23.9647 22.6995C23.7411 22.6589 23.5407 22.5362 23.4031 22.3554C23.2654 22.1746 23.2003 21.9488 23.2207 21.7225C23.4054 22.0304 23.5601 22.076 23.7932 21.7412C23.971 22.0419 23.7947 22.3636 23.965 22.6854L23.9647 22.6995ZM24.0803 25.3611C24.2257 25.5126 24.4266 25.7218 24.3533 25.8476C24.0209 25.5014 24.2295 26.3684 23.9675 26.0378C24.0901 25.92 23.9285 25.8673 23.7805 25.843C23.9109 25.6901 23.8575 25.5334 24.1083 25.3758L24.0803 25.3611ZM26.6845 24.9402C26.4902 24.4058 25.8072 24.6041 25.8981 24.3089C25.9535 24.3666 26.0089 24.4243 26.0819 24.3127C26.1549 24.201 26.1419 23.7976 26.2885 23.5459C26.4755 23.7407 26.6053 23.616 26.7672 23.6547C26.2796 23.9843 26.1748 24.6116 26.7517 24.4182C26.6908 24.6292 26.8077 24.7942 26.7125 24.9549L26.6845 24.9402ZM23.3548 28.6917C22.9295 28.393 23.5291 28.1223 23.2806 27.8202L22.9848 28.1042L22.5139 27.6137C22.6246 27.5158 22.6975 27.3821 22.7196 27.236C22.9669 27.5946 23.2231 27.1684 23.4753 27.6332C23.5097 28.03 23.6373 28.365 23.3612 28.7272L23.3548 28.6917ZM24.3391 32.4601C24.0107 32.2625 24.3399 32.0712 24.1598 31.8836C23.8744 32.0051 24.4305 31.4435 24.5566 31.5027C24.4036 31.7188 24.6394 31.9499 24.253 32.1684C24.3982 32.334 24.5979 32.5998 24.3454 32.4956L24.3391 32.4601ZM28.5903 31.3867C28.2835 31.1683 28.0602 31.0223 28.0293 30.8024C27.9984 30.5825 29.3883 30.7452 28.5966 31.4222L28.5903 31.3867ZM28.8866 30.7279C29.1751 30.4509 29.3843 30.25 29.665 30.3547C29.414 30.5264 29.1457 31.1999 28.8929 30.7634L28.8866 30.7279ZM28.3193 38.8003C28.0838 38.555 27.8344 38.2953 28.1368 38.0327C28.2227 38.2521 28.3921 38.4285 28.6078 38.5232L28.3193 38.8003ZM28.1994 41.5632C27.8705 41.3938 27.5074 41.1601 27.6078 40.7449C27.8875 41.2527 28.4839 41.1375 28.1986 41.6056L28.1994 41.5632ZM31.198 40.1814C30.8419 39.6083 30.6335 39.4202 30.6488 39.0174C30.8843 39.2626 30.9806 38.6988 31.0455 38.6365C31.1702 38.7663 31.3626 38.6924 31.5133 38.9359C31.0037 38.9539 30.9189 39.2987 31.3968 39.7964C31.2821 39.911 31.2114 40.0623 31.1971 40.2238L31.198 40.1814ZM29.9676 43.9967C30.0712 44.1026 30.2062 44.1723 30.3525 44.1955C30.2512 44.2587 30.1639 44.3421 30.0962 44.4405C30.0285 44.5389 29.9818 44.6502 29.959 44.7675C29.5521 44.257 29.7325 44.777 29.3793 44.7557C29.0261 44.7343 29.2093 44.0732 29.488 44.2769C29.4695 44.1422 29.7036 44.4581 29.9667 44.0391L29.9676 43.9967ZM31.3217 43.8333C31.1036 43.4328 30.8794 43.6758 30.656 43.5298C31.1532 43.4267 30.585 42.8494 30.9486 43.0548C31.0733 43.1847 30.9576 43.3096 31.1388 43.4406C31.2109 43.3713 31.3263 43.2605 31.4305 43.3546C31.2779 43.5566 31.5858 43.7184 31.3209 43.8757L31.3217 43.8333ZM32.7738 47.9012L32.4829 47.5983C33.435 46.6841 33.6682 47.389 32.7749 47.4981C32.8843 47.6842 32.9734 47.8204 32.7729 47.9437L32.7738 47.9012ZM34.5646 49.5644C34.3084 49.2975 33.5907 49.1131 33.7197 48.6843C33.9736 48.7178 34.6547 49.3116 34.5638 49.6068L34.5646 49.5644ZM36.1373 49.4407C36.1104 49.0229 35.5143 49.1239 35.5457 48.6224C35.9015 48.8631 36.0007 48.5044 35.9352 48.2484C36.0485 48.405 36.2194 48.5102 36.4102 48.541C36.085 48.8809 36.2244 48.9828 36.0801 49.4679L36.1373 49.4407ZM36.9524 53.1775C36.6942 53.3561 36.3744 52.7343 36.3914 52.5932C36.4987 52.1852 37.3368 53.058 36.8953 53.2046L36.9524 53.1775ZM37.9959 53.6867C37.8089 53.4919 37.6112 53.8203 37.4271 53.4842C37.7563 53.2928 37.4349 53.1024 37.6296 52.9154C37.8573 53.1959 38.0218 53.4538 37.9387 53.7138L37.9959 53.6867ZM38.6492 54.9447C38.219 54.8865 37.9567 54.2234 37.8011 53.8737C37.9852 54.2098 38.1829 53.8815 38.3699 54.0762C37.8433 54.5818 38.6515 54.4851 38.5921 54.9719L38.6492 54.9447ZM37.6775 56.8204C37.4905 56.6257 37.286 56.9468 37.1018 56.6107C37.3742 56.4323 36.6217 56.2261 37.1133 56.0451C37.0736 56.6101 37.8668 56.209 37.6204 56.8475L37.6775 56.8204ZM42.0734 57.6736C41.838 57.4284 41.6282 57.6575 41.4037 57.5681C41.4591 57.6258 41.4352 57.7597 41.3099 57.6581C41.5115 57.3556 41.7422 57.0737 41.9989 56.8164C41.9268 56.8856 41.9597 57.0065 42.0921 57.1012C42.2246 57.1958 42.2797 56.9211 42.3769 57.0079C42.0319 57.2838 42.1404 57.5123 41.9874 57.7285L42.0734 57.6736ZM44.0355 60.3092C44.2517 60.1466 44.4061 59.9153 44.4732 59.6533C44.831 60.1415 44.3818 60.6698 43.9495 60.364L44.0355 60.3092ZM44.997 60.3287C45.2711 60.0655 44.9438 59.8113 45.2104 59.5692L45.5914 59.966C45.1421 60.1478 45.3121 60.8302 44.911 60.3836L44.997 60.3287ZM48.0097 63.4665C47.8207 63.3708 47.63 63.3598 47.441 63.264C47.5183 62.9403 47.771 63.0303 47.9283 62.602C48.1014 62.7824 48.057 62.8805 47.8305 62.89C47.9811 63.1336 48.0761 63.3335 47.9237 63.5214L48.0097 63.4665ZM66.5828 67.2603C66.352 67.4819 66.0603 67.5679 65.8084 67.4355C65.9719 67.0428 66.2071 66.9556 66.5828 67.2603ZM68.8855 68.0992C68.754 67.9622 68.5745 68.0929 68.4138 67.9977C68.9908 67.4436 67.6202 67.3733 68.1493 66.7405C68.1549 67.1649 69.1568 67.6309 68.8855 68.0992ZM70.0332 68.7025C69.9348 68.3257 70.1656 68.4506 70.135 68.2166C70.057 68.172 69.9657 68.1564 69.8773 68.1728C69.7889 68.1891 69.7092 68.2362 69.6523 68.3058C69.7631 68.4212 69.9224 68.5871 69.8424 68.6916C69.5467 68.629 68.6481 68.2995 69.1805 68.2042C69.0746 68.5416 69.8398 68.4723 69.559 68.021C69.6365 68.0677 69.7284 68.0844 69.8173 68.068C69.9063 68.0515 69.9861 68.0031 70.0418 67.9318C70.5808 68.2044 70.5722 68.9752 70.0124 68.6809L70.0332 68.7025ZM71.4305 70.9376C71.236 70.4173 70.5467 70.9267 70.6678 70.5331C70.8926 70.6084 70.8121 70.3945 71.1543 70.2601C71.3835 70.4698 71.6123 70.6937 71.4097 70.9159L71.4305 70.9376ZM77.2703 67.2159C77.0251 67.4514 76.815 67.3481 76.5859 67.4849C76.3276 67.317 76.2701 66.6652 76.6984 66.8224C76.4915 67.2567 77.1081 66.8449 77.2495 67.1943L77.2703 67.2159ZM55.4505 56.8353C55.5935 56.8014 55.7216 56.7221 55.8158 56.6093C55.8443 56.7545 55.9246 56.8843 56.0417 56.9746C55.8952 57.2263 55.4843 57.2603 55.4505 56.8353ZM55.9225 55.883C55.6022 55.9826 55.2894 56.0611 55.2034 55.7694C55.4963 55.6268 55.769 55.4343 55.9225 55.883ZM56.5464 56.1574C56.5005 55.9797 56.2861 56.0885 56.218 55.9598C56.4399 55.8299 56.1072 55.8444 56.0033 55.7362L57.062 55.496C57.1226 55.6458 57.1249 55.8792 57.2879 55.8613C57.27 55.6983 57.4755 55.6812 57.6532 55.6353C57.5027 56.4315 56.5974 55.3875 56.5464 56.1574ZM57.6321 58.4144C57.5383 58.5044 57.3536 58.5431 57.1208 58.5172C57.2344 58.4675 57.3424 58.4057 57.4428 58.3328C57.5112 58.3453 57.576 58.3732 57.6321 58.4144ZM59.2708 58.865C59.0471 58.3866 59.871 58.566 59.6473 58.0876C60.1246 57.9205 59.7088 58.8881 59.2708 58.865ZM65.5613 58.3706C65.5294 58.2265 65.4528 58.0963 65.3425 57.9983C65.5806 57.7698 65.7462 57.9712 66.1057 57.6814C66.2662 58.1373 65.638 58.0751 65.5682 58.3778L65.5613 58.3706ZM68.3951 60.9177C68.359 60.6058 67.979 60.8597 67.9062 60.6107C68.0834 60.5931 67.8943 59.8042 68.2525 60.2783C68.202 60.3268 68.1099 60.332 68.1226 60.4029C68.1353 60.4739 68.7673 60.699 68.402 60.9249L68.3951 60.9177ZM74.7095 65.1553C74.7288 64.901 74.371 64.4128 74.6627 64.3268C74.672 64.5675 75.2555 65.0886 74.7095 65.1553ZM77.7937 65.8262C77.7584 65.4719 77.5117 65.4315 77.1698 65.5519C77.1077 65.3697 77.1143 65.1712 77.1882 64.9935C77.0434 65.0229 76.9139 65.103 76.8229 65.2195C76.8209 65.0992 76.794 64.9806 76.7439 64.8712C76.6938 64.7619 76.6215 64.6641 76.5317 64.5841C76.9045 64.6836 76.9311 64.4225 77.0973 64.5956C76.9204 64.9456 77.7345 65.2592 77.9838 65.5189C77.8421 65.5302 77.9148 65.7792 77.772 65.847L77.7937 65.8262ZM72.2696 78.7132C72.3293 78.2123 72.6159 78.3808 72.5114 77.9543C72.7748 77.8677 73.641 77.3549 73.3329 77.9003C73.1199 77.5918 72.9578 78.2604 72.7373 78.3196C73.1834 78.2933 73.3291 78.0841 73.6356 77.9701C73.8823 78.357 73.5006 78.3492 73.489 78.5682C73.6241 78.5356 73.6786 78.6358 73.7848 78.6308C73.7187 78.4032 73.8483 78.2927 74.1383 78.2915C74.1628 78.3895 74.1629 78.4921 74.1388 78.5902C74.1146 78.6883 74.0668 78.779 73.9995 78.8545C73.5009 78.3351 73.4314 79.3168 72.9079 78.9737C72.9798 78.9611 73.0482 78.9334 73.1087 78.8926C73.1692 78.8518 73.2204 78.7987 73.259 78.7368C73.2976 78.6748 73.3228 78.6055 73.3328 78.5332C73.3429 78.4609 73.3376 78.3873 73.3173 78.3172C73.1659 78.4627 73.0288 78.5943 72.8773 78.7397C72.8453 78.2298 72.3778 78.6093 72.2696 78.7132ZM78.5577 68.9466C78.6916 69.0324 78.8197 69.1272 78.9409 69.2302C78.8471 69.3203 78.719 69.3601 78.5975 69.4213C78.555 69.3505 78.5294 69.2709 78.5224 69.1886C78.5155 69.1063 78.5276 69.0235 78.5577 68.9466ZM74.3705 76.9595C74.0692 76.4724 74.03 77.0091 73.7166 77.1159C73.5316 76.4756 72.9199 76.9936 72.7274 77.0675C72.7032 76.869 72.5603 76.5903 72.7317 76.5089C73.3011 76.6831 73.8932 76.78 74.3909 76.3022C74.436 76.3449 74.4716 76.3966 74.4953 76.4541C74.5189 76.5115 74.5302 76.5733 74.5282 76.6354C74.5263 76.6975 74.5113 76.7585 74.4841 76.8144C74.4569 76.8702 74.4182 76.9197 74.3705 76.9595ZM72.4828 77.2747C72.8083 77.6138 71.7721 77.7907 71.7196 77.5916C71.9248 77.3934 72.1975 77.2802 72.4828 77.2747ZM70.1292 80.3246C70.3569 79.912 71.5053 80.1263 71.0529 80.1171C70.6004 80.1079 70.4262 80.6772 70.1364 80.3177L70.1292 80.3246ZM68.6097 80.9656C68.9811 80.7893 69.8297 80.7924 69.4896 81.1745C69.2671 80.9861 68.862 81.4305 68.617 80.9587L68.6097 80.9656ZM66.6161 81.2716C67.1215 81.2964 67.6269 81.2251 68.1057 81.0615C68.1542 81.4585 68.7489 81.4282 68.2549 81.7222C68.1735 81.5508 68.0333 81.4914 68.0032 81.2291C67.8748 81.2831 66.7408 81.748 66.6161 81.2716ZM83.3422 68.082C82.9889 67.7142 82.3792 67.7866 82.2835 68.3222C81.8731 68.328 82.3463 68.0123 82.1668 67.7965C81.7153 67.7448 81.8616 67.8539 81.371 67.9783C80.9904 68.2605 81.9023 67.9396 81.9551 68.1246C81.6314 68.7404 81.2184 68.1803 80.6078 68.2952C80.1632 68.5973 79.6048 68.9255 79.0399 69.2322C78.7458 68.3917 80.1507 68.1657 79.1101 67.1685C79.276 67.0092 79.3597 67.0675 79.4919 67.1762C79.5355 67.1316 79.5616 67.0729 79.5654 67.0106C79.5693 66.9484 79.5507 66.8868 79.5129 66.8372C79.6282 66.8917 79.7194 66.9867 79.7692 67.1041C79.8774 67.0002 79.9784 66.9032 80.0393 67.0389C80.118 66.2978 80.7436 67.1805 80.9234 66.6891C81.1935 66.9704 81.4411 67.3149 82.0035 67.1354C82.0765 67.3703 81.9051 67.4516 81.9992 67.694C82.4943 66.9968 82.0162 67.8995 82.8207 67.64C82.5896 67.5292 82.5411 67.1322 82.1711 67.2378C82.0779 66.953 82.6273 67.0632 82.8065 66.9466C82.5538 67.5497 83.1854 67.4423 83.3422 68.082ZM83.6007 68.5824C83.4637 68.714 82.3453 69.1085 82.3022 68.4428C82.717 68.449 83.1304 68.4929 83.5372 68.574L83.6007 68.5824ZM82.3869 70.538C82.4596 70.0939 81.8052 69.9321 82.0631 69.7676C82.1442 69.9531 82.3938 69.8521 82.5263 69.9467C82.8725 69.6143 82.3877 69.4559 82.768 69.1878C82.8768 69.4022 82.9319 69.1275 83.1659 69.0969C83.0164 69.5267 82.8329 69.9439 82.6172 70.3446C83.0154 70.2396 83.3253 70.3025 83.5042 70.5466C83.3262 70.6066 82.8308 70.9714 83.1132 70.6447C83.1637 70.5962 83.2558 70.591 83.2431 70.52C82.7664 70.6589 82.7312 70.3045 82.3523 70.5019L82.3869 70.538Z" fill="#EAEAEA"/>
</g>
<defs>
<clipPath id="clip0_754_9448">
<rect width="90.85" height="36.4" fill="white" transform="matrix(0.692584 0.721338 0.721338 -0.692584 0.175293 25.3398)"/>
</clipPath>
</defs>
</svg>
