<svg width="37" height="58" viewBox="0 0 37 58" fill="none" xmlns="http://www.w3.org/2000/svg">
<path d="M15.46 9.50977C15.46 9.43977 15.07 9.50947 15 9.45947C15.09 9.57947 15.57 9.50977 15.46 9.50977Z" fill="#EAEAEA"/>
<path d="M16.41 10.6796L16.24 10.6596L16.66 10.8296L16.41 10.6796Z" fill="#EAEAEA"/>
<path d="M16.3999 11.7695C17.1099 11.6595 16.28 11.3697 16.54 11.1797H16.7002L16.1299 11.0894C16.2199 11.2894 16.5999 11.5795 16.3999 11.7695Z" fill="#EAEAEA"/>
<path d="M14.8599 12.3496C15.1299 12.3496 15.0899 12.4695 14.9399 12.2095H14.8701C14.8701 12.2095 14.8799 12.2896 14.8599 12.3496Z" fill="#EAEAEA"/>
<path d="M14.8703 12.2395C14.8703 12.1195 14.6403 12.3095 14.8703 12.2395Z" fill="#EAEAEA"/>
<path d="M15.0298 12.7695L14.7798 12.6196C14.6198 12.6196 14.58 12.7795 14.46 12.7295C14.6 12.8895 14.7698 12.8495 15.0298 12.7695Z" fill="#EAEAEA"/>
<path d="M15.5497 12.9097L15.4501 12.8296C15.3801 12.8496 15.3497 12.8697 15.5497 12.9097Z" fill="#EAEAEA"/>
<path d="M15.23 12.6694L15.4501 12.8296C15.5601 12.8296 15.7901 12.8298 15.3701 12.7598C15.5801 12.7698 15.38 12.7394 15.23 12.6694Z" fill="#EAEAEA"/>
<path d="M15.3302 12.5796C15.4902 12.4996 15.5902 12.3896 15.8302 12.5796C15.7702 12.2396 15.2302 12.2796 15.3302 12.5796Z" fill="#EAEAEA"/>
<path d="M17.1403 11.8198L17.3503 11.7095L17.11 11.6094C17.23 11.6594 16.9103 11.8298 17.1403 11.8198Z" fill="#EAEAEA"/>
<path d="M14.6602 13.7095C14.8102 13.7095 15.0703 13.6594 15.2603 13.6494L15.0898 13.5298C14.9682 13.6322 14.8185 13.6947 14.6602 13.7095Z" fill="#EAEAEA"/>
<path d="M15.2603 13.6494L15.52 13.8098C15.55 13.6598 15.4303 13.6394 15.2603 13.6494Z" fill="#EAEAEA"/>
<path d="M16.35 12.9396L15.8 12.6696L16.35 12.9896V12.9396Z" fill="#EAEAEA"/>
<path d="M14.64 14.3496L14.29 14.2596L14.82 14.4196L14.64 14.3496Z" fill="#EAEAEA"/>
<path d="M14.7002 14.7697C14.4102 14.6997 14.2098 14.8597 14.0298 14.7697C14.0798 14.8897 14.3301 14.98 14.5601 15.07C14.4301 15 14.4702 14.8997 14.7002 14.7697Z" fill="#EAEAEA"/>
<path d="M14.8901 15.2397C14.7836 15.1825 14.6732 15.132 14.5601 15.0894C14.66 15.159 14.7719 15.2103 14.8901 15.2397Z" fill="#EAEAEA"/>
<path d="M15.4502 14.0996C15.295 14.1055 15.1438 14.1501 15.0103 14.2295L15.4399 14.1597C15.4385 14.1392 15.4422 14.1185 15.4502 14.0996Z" fill="#EAEAEA"/>
<path d="M15.4504 14.1597C15.4504 14.2297 15.4504 14.2796 15.4504 14.3096C15.4462 14.2597 15.4462 14.2096 15.4504 14.1597Z" fill="#EAEAEA"/>
<path d="M15.96 13.3696C16.2 13.4696 16.4498 13.6795 16.8198 13.4795C16.5298 13.4095 16.32 13.5196 15.96 13.3696Z" fill="#EAEAEA"/>
<path d="M15.98 13.9995L16.0801 13.8198C15.9484 13.8498 15.8118 13.8498 15.6802 13.8198L15.98 13.9995Z" fill="#EAEAEA"/>
<path d="M16.12 14.0896L15.98 13.9995L15.95 14.0696L16.12 14.0896Z" fill="#EAEAEA"/>
<path d="M15.2902 14.9394C15.3482 14.9553 15.4004 14.9875 15.4411 15.0317C15.4818 15.0759 15.5092 15.1304 15.5202 15.1894C15.5959 15.1068 15.6416 15.0014 15.6501 14.8896C15.5101 14.8696 15.2702 14.8294 15.2902 14.9394Z" fill="#EAEAEA"/>
<path d="M15.77 14.8696C15.85 14.7896 15.7699 14.7497 15.6099 14.6997C15.6545 14.7539 15.6824 14.8199 15.6899 14.8896C15.7099 14.8896 15.77 14.8896 15.77 14.8696Z" fill="#EAEAEA"/>
<path d="M15.0899 15.4995C15.1709 15.4644 15.248 15.4209 15.3199 15.3696C15.1899 15.4096 14.9799 15.4895 15.0899 15.4995Z" fill="#EAEAEA"/>
<path d="M15.3102 14.5796C15.2502 14.5796 15.2002 14.5796 15.3102 14.5796Z" fill="#EAEAEA"/>
<path d="M15.3102 14.5796C15.393 14.6223 15.4798 14.6559 15.5698 14.6797C15.5326 14.6298 15.4852 14.5887 15.4302 14.5596L15.3102 14.5796Z" fill="#EAEAEA"/>
<path d="M18.2603 16.4098C17.8603 16.4098 17.4999 16.1897 17.9199 16.0197C17.145 15.8949 16.3529 15.9253 15.5898 16.1095C15.692 16.1005 15.7953 16.1118 15.8931 16.1427C15.9909 16.1736 16.0816 16.2237 16.1602 16.2897C16.3802 16.2297 16.67 15.8999 17.02 16.0499C17.37 16.1999 16.8799 16.2397 16.6699 16.3497C17.1699 16.2597 17.3901 16.6497 18.1201 16.5997L17.8599 16.3898C17.9799 16.3898 18.1603 16.4598 18.2603 16.4098Z" fill="#EAEAEA"/>
<path d="M15.6299 15.7798V15.6997C15.5699 15.7897 15.4101 15.8397 15.1001 15.9497C15.2408 16.0417 15.4022 16.0964 15.5698 16.1094L15.6201 15.7495L15.6299 15.7798Z" fill="#EAEAEA"/>
<path d="M15.5801 15.3794C16.0101 15.4394 16.2002 15.6095 16.6602 15.4995C16.6602 15.2895 16.3001 15.3495 16.1201 15.2295C16.2201 15.5695 15.8799 15.1294 15.6299 15.3794C15.577 15.3269 15.5394 15.2614 15.5202 15.1894C15.4605 15.2568 15.3931 15.3173 15.3199 15.3696C15.3799 15.3696 15.4099 15.3696 15.3799 15.3696H15.54C15.45 15.4696 15.4299 15.3696 15.3799 15.3696H15.3101L15.54 15.7095C15.64 15.6295 15.6301 15.5794 15.5801 15.3794Z" fill="#EAEAEA"/>
<path d="M17.77 13.6597H17.6699C17.6999 13.6897 17.77 13.6997 17.77 13.6597Z" fill="#EAEAEA"/>
<path d="M17.48 13.7998C17.42 13.7998 17.2498 13.7997 17.2998 13.6797C17.3498 13.5597 17.5001 13.6797 17.6401 13.6797C17.5657 13.6267 17.4766 13.5981 17.3853 13.5981C17.2939 13.5981 17.2044 13.6267 17.1299 13.6797H17.1802C16.959 13.8318 16.7056 13.9311 16.4399 13.9697C16.7903 13.9383 17.1379 13.8816 17.48 13.7998Z" fill="#EAEAEA"/>
<path d="M16.6401 14.5796L16.8501 14.8696L17.23 14.7197H17C17.09 14.5797 16.8201 14.5796 16.6401 14.5796Z" fill="#EAEAEA"/>
<path d="M15.3 16.1596L14.85 16.1196L15.49 16.2896L15.3 16.1596Z" fill="#EAEAEA"/>
<path d="M15.36 16.5296L14.96 16.5196L15.2 16.6196L15.36 16.5296Z" fill="#EAEAEA"/>
<path d="M20.27 37.4194L20.3799 37.5098C20.3483 37.474 20.3113 37.4433 20.27 37.4194Z" fill="#EAEAEA"/>
<path d="M20.29 36.8198H20.1001C20.2101 36.8298 20.28 36.8398 20.29 36.8198Z" fill="#EAEAEA"/>
<path d="M15.3999 25.5796C15.0299 25.6996 14.4599 25.8396 14.8999 25.8296H15.3398C15.2598 25.7396 15.3099 25.6796 15.3999 25.5796Z" fill="#EAEAEA"/>
<path d="M17.9902 31.8496H18.1201L17.71 31.7695L17.9902 31.8496Z" fill="#EAEAEA"/>
<path d="M19.77 31.9395L19.4902 32.0996C19.5897 32.0578 19.6835 32.0039 19.77 31.9395Z" fill="#EAEAEA"/>
<path d="M20.77 40.7398L21.21 40.8296C21.17 40.6796 20.94 40.7498 20.77 40.7398Z" fill="#EAEAEA"/>
<path d="M15.52 20.3198C15.35 20.4198 15.27 20.5096 15.25 20.5796C15.5 20.4596 15.88 20.3498 15.52 20.3198Z" fill="#EAEAEA"/>
<path d="M15.6602 37.1897C15.7417 37.2381 15.8354 37.2627 15.9302 37.26C15.8934 37.2287 15.85 37.2062 15.8032 37.1941C15.7565 37.1819 15.7075 37.1802 15.6602 37.1897Z" fill="#EAEAEA"/>
<path d="M15.2604 20.8896L15.3601 20.8296C15.3212 20.8015 15.2905 20.7637 15.2712 20.7197C15.2519 20.6758 15.2445 20.6273 15.25 20.5796C15.07 20.6796 14.9504 20.7796 15.2604 20.8896Z" fill="#EAEAEA"/>
<path d="M20.3701 52.7397H20.3101C20.3701 52.7697 20.3801 52.7597 20.3701 52.7397Z" fill="#EAEAEA"/>
<path d="M15.99 56.2397C15.974 56.1945 15.974 56.1449 15.99 56.0996C15.99 56.0996 15.93 56.1697 15.99 56.2397Z" fill="#EAEAEA"/>
<path d="M16.8799 17.6294C16.9496 17.6389 17.0202 17.6389 17.0898 17.6294C17.0202 17.64 16.9495 17.64 16.8799 17.6294Z" fill="#EAEAEA"/>
<path d="M17.96 21.6693C18.04 21.6493 18.02 21.6593 17.96 21.6693Z" fill="#EAEAEA"/>
<path d="M15.3599 17.8994L15.23 17.9995C15.2785 17.9736 15.3223 17.9397 15.3599 17.8994Z" fill="#EAEAEA"/>
<path d="M15.1604 17.9095V17.8494C15.1304 17.8394 15.0804 17.8395 15.1604 17.9095Z" fill="#EAEAEA"/>
<path d="M15.1899 18.1294C15.1808 18.1089 15.1763 18.0868 15.1763 18.0645C15.1763 18.0421 15.1808 18.02 15.1899 17.9995H15.1299C15.1299 17.9995 15.1799 18.0694 15.1899 18.1294Z" fill="#EAEAEA"/>
<path d="M19.21 46.3096C19.34 46.3996 19.32 46.3696 19.21 46.3096Z" fill="#EAEAEA"/>
<path d="M20.23 27.9497C19.69 27.8297 19.7601 27.7594 19.8701 27.6694L18.6201 27.7598L20.23 27.9497Z" fill="#EAEAEA"/>
<path d="M20.3901 38.8794L20.7797 38.6797C21.4197 38.9197 21.1997 39.0894 21.7797 38.8994C20.4197 38.8994 21.6397 38.1294 20.2797 38.1094L20.5698 37.9795C20.5698 37.9795 20.6398 37.9796 20.5698 38.0596C21.2198 37.7996 19.5697 37.8696 19.7797 37.5396C19.8384 37.4767 19.9142 37.4319 19.9975 37.4106C20.0808 37.3894 20.1683 37.3925 20.2499 37.4194L19.9101 37.1694C19.9101 37.0994 20.1698 37.1094 20.1498 37.1694L20.04 36.7798C19.8076 36.717 19.5801 36.6365 19.3598 36.5396C19.5498 36.4396 19.4999 36.5896 19.6699 36.5396L19.3398 36.3198C19.6898 36.2298 20.0299 36.4096 19.9799 36.5596C21.3399 36.3596 19.6401 36.3797 20.4301 35.9497L20.6098 36.1494C21.3798 36.0194 21.0998 35.8594 21.6098 35.6294C21.3598 35.6894 20.4 36.0894 20.06 35.8594C20.16 35.7894 20.2099 35.7096 19.9399 35.5796C20.4199 35.5796 20.3 35.4598 20.27 35.2998H20.9101C20.7301 35.1398 20.3998 35.1498 20.1098 35.0498C20.1798 34.8698 20.6698 34.8296 21.1098 34.7896C21.2098 34.4896 20.3201 34.9896 20.2001 34.6396C20.4401 34.3896 20.1997 34.2197 19.7997 33.9297C20.0197 33.7497 20.1901 33.9297 20.3701 33.9297L19.8598 33.7695C19.8598 33.7695 20.0298 33.7695 20.1098 33.7695C19.9098 33.6395 19.47 33.7696 19.29 33.5596C18.59 33.5096 20.29 33.1396 19.52 32.8896C19.71 32.8296 19.9201 32.8896 20.1601 32.8896C19.8349 32.64 19.4696 32.4475 19.08 32.3198L19.4999 32.0796C18.9797 32.1803 18.4405 32.0917 17.9799 31.8296L17.4501 31.9795L17.1098 31.6694C17.3043 31.6284 17.5056 31.6284 17.7001 31.6694L17.54 31.6094C17.8659 31.5097 18.2141 31.5097 18.54 31.6094L18.1401 31.7197C18.5329 31.8147 18.9356 31.8614 19.3398 31.8594C19.2719 31.8428 19.21 31.8086 19.1601 31.7598C19.2496 31.7733 19.3406 31.7733 19.4301 31.7598C19.4901 31.7598 19.3499 31.7597 19.1899 31.6597L19.8998 31.5894H19.6201L20.0698 31.1694C19.3498 30.8794 18.2899 30.6194 17.9999 30.1694C18.488 30.2306 18.9821 30.2306 19.4701 30.1694C18.8101 30.2994 19.7501 30.5398 19.6201 30.7798C19.6801 30.6498 19.98 30.6795 20.08 30.7095L19.4902 30.2798C19.9902 30.2798 19.87 30.1898 20.08 30.0698C19.08 30.1598 19.41 29.7498 19.08 29.5698C19.42 29.5698 19.7601 29.5698 19.6801 29.8198C20.4301 29.5798 18.5001 29.5098 19.1401 29.2798C19.1401 29.2798 19.14 29.3594 19.27 29.3794C18.97 29.2594 19.2099 28.9598 19.4999 29.0298C19.5443 28.8997 19.5559 28.7607 19.5341 28.625C19.5123 28.4893 19.4578 28.361 19.3749 28.2515C19.292 28.1419 19.1832 28.0544 19.0585 27.9966C18.9339 27.9387 18.7973 27.9121 18.6601 27.9194C18.7701 27.9194 19.66 27.9197 19.85 27.9897L16.9902 27.3594C17.7202 27.4194 19.4601 27.2095 19.8701 27.4995C19.9801 27.4095 20.1001 27.3096 19.8701 27.1396C19.5029 27.2236 19.1239 27.244 18.7499 27.1997C19.14 27.1033 19.5187 26.9657 19.8798 26.7896C19.7198 26.8796 18.5798 26.7894 18.6098 26.6494C18.7798 26.6494 19.7398 26.6494 19.8598 26.6494L18.7402 26.3198C19.1636 26.3775 19.5941 26.3571 20.0102 26.2598C19.7902 26.2598 20.0099 25.9694 19.9199 25.8794L19.6601 26.0195C19.8301 25.6495 18.0798 25.6498 18.1298 25.2798C18.3698 25.2798 19.5599 25.3897 19.7099 25.1997C18.6117 25.0887 17.531 24.8468 16.4902 24.4795L16.8198 24.4194L16.4501 24.1597C17.3101 24.3197 19.14 24.7698 19.85 25.0098C20.11 24.8698 20.2301 25.0098 20.2001 24.7598C20.2896 24.7239 20.3889 24.7221 20.4794 24.7554C20.5699 24.7886 20.6449 24.8542 20.6899 24.9395L20.8901 24.4395C20.2201 24.4395 20.2201 24.0694 19.6601 24.0894L20.35 24.6196C19.68 24.6196 18.44 24.3095 18.56 23.9595C19.0342 23.9384 19.5092 23.9586 19.9799 24.0195C19.7499 24.0195 19.5399 23.6897 19.7099 23.6597L20.0698 23.8096C20.3198 23.6096 19.1698 23.4898 19.8198 23.2598C19.8198 23.1798 20.6797 23.0195 20.2797 22.9995C19.0475 23.1311 17.8061 23.1549 16.5698 23.0698C16.9206 22.8609 17.293 22.6897 17.6801 22.5596C18.2801 22.4196 19.1098 22.7596 19.6298 22.6396C19.4655 22.6325 19.3034 22.5986 19.1498 22.5396C19.2998 22.4496 19.7198 22.5396 19.6298 22.3896C18.9498 22.3896 19.69 22.0098 19.06 22.2998C18.86 22.1198 19.1999 22.1094 19.1699 21.8994C18.5813 21.9182 17.9976 21.7914 17.4701 21.5298C17.6415 21.5316 17.8122 21.5145 17.9799 21.4795C18.0399 21.1095 18.35 20.9098 18.35 20.5698C18.52 20.5698 18.7202 20.3695 19.0102 20.4395C18.8902 20.3895 18.6601 20.3497 18.6401 20.2397C19.2301 20.0397 18.7299 20.4798 19.4399 20.3198C19.0499 20.3198 18.8998 20.0494 18.6498 19.8994C18.0398 19.8994 18.5297 20.2494 18.7797 20.3994C18.0233 20.4263 17.2791 20.2051 16.6601 19.7695C16.4501 19.4895 17.2098 19.6496 17.0898 19.5996C17.2298 19.0696 15.6101 19.1497 16.2201 18.6997C16.7021 18.6153 17.1935 18.5982 17.6801 18.6494C17.8801 18.8894 17.3398 19.0094 17.3598 19.1694L17.6098 18.9697C17.7898 19.0497 17.93 19.1996 17.77 19.2896C18.25 19.1396 17.86 18.3797 18.31 17.9697C18.1396 17.8553 17.9338 17.8055 17.7299 17.8296L17.7997 17.9595C17.3697 18.0795 17.1999 17.7094 16.9999 17.8794C16.6999 17.6994 16.2199 17.5098 16.4599 17.2598L17.0698 17.2095C16.8998 17.2095 16.7098 17.3695 16.8998 17.4395C16.6198 17.3395 17.7298 17.0597 16.8998 16.9497L16.4799 17.1196C16.1699 16.9496 15.4799 16.7298 15.7099 16.5098C15.1099 16.6098 15.7798 16.5597 15.0698 16.7197C15.9598 16.5797 15.0699 17.2796 15.9599 17.0596C15.1399 17.2196 15.6099 17.3398 14.9599 17.5498C15.1699 17.5498 15.3499 17.4697 15.2499 17.6597C15.3095 17.6494 15.3705 17.6494 15.4301 17.6597C15.5257 17.6165 15.6264 17.5864 15.7299 17.5698C16.1999 17.6598 16.1799 17.9498 16.4199 18.0498C16.3299 18.1598 16.1899 18.0498 15.9799 18.0498L16.33 18.1997C15.89 18.1997 15.59 18.4897 15.33 18.1997V18.4297C15.07 18.5697 14.9701 18.7496 15.1601 18.8696C15.0701 18.9796 15.66 19.1398 15.31 19.0498L15.5898 19.4097H15.4701C15.4701 19.7697 16.2201 20.1496 15.4101 20.5596C15.5201 20.6796 15.6597 20.8098 15.5297 21.0098H15.1401C15.2801 21.1598 14.7501 21.4696 15.1401 21.5396C14.0901 21.6996 14.9099 22.2896 14.7299 22.5396H15.2299C15.2299 22.7296 15.3497 22.9096 15.5497 23.1396H15.9999C16.3699 23.3396 15.6799 23.6497 15.7299 23.9697C15.5599 23.9697 15.5999 23.8696 15.7299 23.8096C14.7299 24.1896 16.4699 24.6097 15.7299 24.9497C15.8999 25.0397 15.8399 25.0997 15.7299 25.1597L15.4902 25.2798C15.575 25.2596 15.6558 25.2257 15.7299 25.1797C15.7596 25.2866 15.8228 25.3812 15.9101 25.4497H15.4301C15.2501 25.5497 15.66 25.5297 16.02 25.4497C16.111 25.5046 16.2084 25.5481 16.31 25.5796C15.53 25.6496 16.5702 25.8295 15.7402 25.9395C16.1502 26.0095 16.0498 26.4297 16.8998 26.4897C16.7898 26.4897 16.7299 26.4897 16.7299 26.4897C16.6299 26.5997 16.5299 26.6998 16.7299 26.7998L16.1201 26.8496L16.9399 27.0894C16.7761 27.1694 16.598 27.2163 16.4159 27.2266C16.2339 27.2369 16.0516 27.2104 15.8798 27.1494C16.6098 27.4994 16.1598 27.4295 16.8798 27.7295H16.4902C16.4902 27.8395 17.0299 28.0098 16.7099 28.0698C15.9499 28.3098 16.5998 29.2396 15.8998 29.8496C17.0698 29.7296 15.3797 30.1297 16.2797 30.1597C16.0097 30.1597 15.8498 30.2797 15.6098 30.1597C15.8798 30.4697 15.1799 30.6194 15.9399 30.8394C15.6599 30.8394 15.5301 30.7694 15.3701 30.8394C15.4301 30.8394 15.6101 30.9397 15.4501 30.9697C15.3232 30.9841 15.195 30.9518 15.0898 30.8794C15.0898 31.1994 15.99 31.2295 16.79 31.2495C16.41 31.4095 16.4602 31.4894 16.9902 31.6094C16.7302 31.6594 16.4498 31.7594 16.3598 31.6094C16.3598 31.7194 15.9801 32.2898 16.6201 32.2998C16.4501 32.2998 16.5701 32.4495 16.6201 32.4795C16.6201 32.7295 16.5301 32.7497 16.6201 32.9897L16.7201 32.9297C17.4901 33.0197 16.8902 33.1296 16.9902 33.3296H16.9101C16.3501 33.7796 17.17 33.5297 16.54 33.9697H17.02C18.02 33.9697 16.4097 34.3596 16.7997 34.6196L17.08 34.5195C17.43 34.6695 15.6797 34.9196 15.5497 35.0596C15.4197 35.1996 15.3998 35.0097 15.3398 34.9697C14.7298 35.3397 15.9598 34.9696 16.1098 35.2896C15.7698 35.3396 15.2499 35.2297 15.1899 35.4097C14.9099 35.5097 16.2901 35.9495 15.6401 36.2095C15.7524 36.1619 15.8731 36.1377 15.9951 36.1377C16.117 36.1377 16.2377 36.1619 16.35 36.2095C16.45 36.4095 15.3499 36.7394 16.1899 36.9194C16.1239 36.9326 16.0562 36.9326 15.9902 36.9194C16.2002 37.0694 16.3397 37.4095 16.7797 37.4995C15.1297 37.6395 17.59 38.4297 16.06 38.4297L16.1401 38.8896H15.9902C15.8902 39.1796 16.2501 39.2896 16.6201 39.3896C16.5201 39.4596 16.37 39.3896 16.29 39.3896C15.99 39.8296 16.05 39.8695 16.81 40.2295H16.3198C16.5998 40.3295 15.5401 40.8498 16.1201 41.2798C16.0418 41.2717 15.9646 41.2546 15.8901 41.2295C16.4801 41.7095 14.5198 42.3698 16.3198 42.5498L16.77 42.8594C16.91 42.4494 17.55 42.9195 17.85 42.7495C17.96 42.9095 17.3101 43.1697 17.2201 42.9697H17.31C16.36 42.8997 16.97 43.4695 16.31 43.4595C16.36 44.2595 15.8397 45.0396 15.7997 45.7896L16.5297 45.7095V45.9697C16.3597 46.0397 15.9499 46.0594 15.9799 45.8794C15.5699 45.9694 16.3302 46.1895 16.4902 46.1895C16.1902 46.5595 15.6401 46.0495 15.6201 46.1895V46.3394H15.7099C16.0099 46.4594 16.33 46.4697 16.29 46.6997C16.25 46.9297 15.84 46.7696 15.81 46.8296C15.78 46.8896 15.73 46.8297 15.81 46.9097L15.7499 47.2397L16.3198 47.1094C16.6098 47.2594 16.3201 47.4195 16.9501 47.2695C15.9501 47.4895 16.59 48.4996 16.27 48.6396C16.69 48.8396 16.6901 49.0396 16.6401 49.2896C16.7601 49.2296 17.41 49.1897 17.33 49.4097C15.99 49.3297 16.7397 49.7995 15.7797 49.9795C16.4197 49.8195 15.94 50.5896 16.85 50.3496C16.74 50.5296 16.3397 50.3497 16.0297 50.4897C16.5497 50.9197 15.6901 51.4397 15.8701 51.9697C16.1009 51.9212 16.339 51.9212 16.5698 51.9697L15.6899 52.2495C15.7799 52.3595 16.69 52.3496 16.1 52.5396C16.25 52.5396 16.4697 52.4696 16.5297 52.5396C15.6697 53.5396 17.2301 54.6595 15.6201 55.7095C15.9601 55.5695 15.9902 55.7098 16.0102 55.7798C16.0902 55.7098 16.4401 55.7798 16.6801 55.7798L16.02 56.2295C16.68 56.3095 16.0199 56.6997 16.6899 56.7397L16.58 56.5996C17.33 56.7896 18.2401 56.3396 19.2001 56.3696C18.3501 56.1596 20.4501 55.8195 19.2001 55.4795C19.3901 55.4095 19.5099 55.5495 19.7299 55.4795C19.3199 55.3895 19.2299 55.2794 19.4199 55.0894H19.52C19.42 54.5494 19.8198 54.3197 20.0898 53.6997L19.6201 53.7495C19.6801 53.6195 19.8301 53.5898 19.9501 53.5298C19.2301 53.3798 19.9501 53.8998 19.1201 53.7598C20.1201 53.5898 19.1199 52.8398 20.2299 52.7598C20.2299 52.5598 19.6799 52.8194 19.6899 52.6094L19.9799 52.5596L19.6 52.5098C19.66 52.3798 20.0297 52.3096 20.2797 52.3096C20.2797 52.3096 20.3498 52.3997 20.3798 52.4297C20.7298 52.2597 20.2598 51.9496 20.3798 51.8896L20.2001 52.0796C19.9201 51.5296 20.3099 50.8596 19.7099 50.3296H19.4799C19.0699 49.9196 19.73 49.9998 19.54 49.5498H19.5898C19.3698 49.4598 19.2597 49.3397 19.2797 49.2197C19.5397 49.3297 19.79 49.0097 20.08 49.1597C19.64 48.7097 19.7298 48.9394 18.8998 48.6494L19.27 48.5796C18.94 48.4796 18.7601 48.4695 18.6601 48.2495C18.9801 48.4295 19.2301 48.1096 19.6601 48.3096C20.4701 47.8396 18.8397 47.6194 20.0297 47.3994C19.0297 47.1894 19.4602 47.8095 19.2402 47.6895C18.9002 47.7895 18.4698 47.5094 18.5698 47.3594C18.6698 47.2094 19.8901 47.1095 19.8701 46.7295C19.8701 46.7295 19.9401 46.7296 19.9301 46.8096C20.2001 46.6696 19.5802 46.5294 20.0102 46.3594C19.3802 46.2594 20.0099 46.1394 19.2499 46.1094L19.4301 46.4497C19.2301 46.2597 18.2999 46.0695 18.7499 45.7495C18.9217 45.7884 19.0871 45.8524 19.2402 45.9395C19.4702 45.8395 19.0798 45.7597 19.3198 45.6597C20.1098 45.6597 19.49 46.0796 20.1 46.2896C20.43 46.1896 19.5198 45.8895 20.3798 45.9995C19.2898 45.8495 20.5199 45.6296 19.6899 45.3696H20.1601C20.0901 45.3696 19.8601 45.2394 19.8701 45.1694L20.4902 45.2998C19.9602 45.0998 20.9501 44.9095 20.6601 44.7095C20.6601 45.1195 20.0902 44.7995 19.7402 44.9795C19.1102 44.4695 20.9902 44.6794 20.7402 44.1094C20.8002 44.1894 20.4499 44.3998 20.2299 44.2798C20.374 44.1267 20.5576 44.0157 20.7602 43.9595C20.6602 43.5795 20.2699 44.0194 19.9799 43.8594C20.5599 43.7294 19.75 43.6698 19.56 43.5098H20.04C20.35 43.0698 19.0401 43.3895 19.4101 42.9995L20.08 43.1694L19.9101 42.9595H20.4599C20.0499 42.7395 20.16 42.6697 20.31 42.4497C19.97 42.4497 19.4299 42.4495 19.4199 42.2295C19.7099 42.0995 19.88 42.2998 19.81 42.0298C20.11 42.0998 20.49 42.1598 20.04 42.2798C20.2 42.2798 20.3499 42.3396 20.4999 42.3496C20.8299 42.2096 20.5798 41.9994 20.5698 41.8994C20.5615 41.9252 20.5474 41.9486 20.5283 41.9678C20.5091 41.9869 20.4857 42.0015 20.4599 42.0098L19.79 41.6094C19.9417 41.5535 20.1085 41.5535 20.2602 41.6094C20.2602 41.5294 19.9901 41.4794 19.9501 41.3594C20.2945 41.3306 20.6403 41.3967 20.9501 41.5498L20.5102 41.1694C20.6802 41.1694 20.9798 40.9798 21.1298 41.0298C21.3598 40.8198 20.3599 40.5195 20.6699 40.2495C20.5909 40.2332 20.5182 40.1953 20.4599 40.1396C20.5499 39.8896 21.0299 39.6596 20.4599 39.3496L21.1601 39.1797C21.0001 38.9397 20.2702 39.4098 20.0102 39.0098C19.7502 38.6098 20.6097 38.9096 20.7997 38.8096C20.4497 38.6696 19.7297 38.4197 20.2997 38.1597C20.4397 38.7297 20.3401 38.7994 20.3901 38.8794ZM20.08 35.8794C20.18 35.9294 20.4899 36.0494 20.2099 36.0894C19.6599 36.0594 19.92 36.0094 20.08 35.9194V35.8794ZM18.9199 31.3696C19.0799 31.4196 18.9998 31.4796 18.8198 31.5596C18.6398 31.6396 18.7699 31.4797 18.9199 31.4097V31.3696ZM15.56 18.8394C15.39 19.0094 15.47 18.9694 15.56 18.8794V18.8394ZM15.77 18.5698C15.7041 18.5552 15.6356 18.5552 15.5698 18.5698C15.6898 18.5698 15.7001 18.6495 15.6601 18.7095C15.7701 18.7295 15.88 18.6896 15.77 18.5796V18.5698ZM15.9599 47.1094H16.08C16.22 47.2094 16.0999 47.1794 15.9599 47.1494V47.1094Z" fill="#EAEAEA"/>
<path d="M19.5801 31.9194C19.4937 31.9298 19.4062 31.9298 19.3198 31.9194C19.4033 31.9528 19.4966 31.9528 19.5801 31.9194Z" fill="#EAEAEA"/>
<path d="M19.8599 22.7295C19.7839 22.7789 19.699 22.813 19.6099 22.8296C19.7699 22.8396 19.8299 22.8095 19.8599 22.7295Z" fill="#EAEAEA"/>
<path d="M14.9502 17.1997L15.0698 17.3696C15.0698 17.2896 15.16 17.2597 15.23 17.2197C15.12 17.2197 14.9602 17.2597 14.9502 17.1997Z" fill="#EAEAEA"/>
<path d="M17.9302 15.7295C17.8702 15.7295 17.9301 15.6694 17.8701 15.6494H17.6401C17.6493 15.6778 17.6655 15.7035 17.687 15.7241C17.7086 15.7448 17.7349 15.7596 17.7637 15.7676C17.7924 15.7755 17.8225 15.7762 17.8516 15.7695C17.8806 15.7629 17.9078 15.7492 17.9302 15.7295Z" fill="#EAEAEA"/>
<path d="M16.5498 17.0499C16.9598 17.0499 16.8202 16.9297 16.7402 16.8097C16.1802 16.7897 16.3598 16.9199 16.5498 17.0499Z" fill="#EAEAEA"/>
<path d="M16.7699 16.7796C16.7602 16.7629 16.7552 16.7437 16.7552 16.7244C16.7552 16.7051 16.7602 16.686 16.7699 16.6692C16.4899 16.6592 16.6699 16.7096 16.7699 16.7796Z" fill="#EAEAEA"/>
<path d="M15.5 18.2796C15.6 18.2196 14.9799 18.2793 15.1499 18.2093C14.6299 18.1393 15.77 18.5796 15.5 18.2796Z" fill="#EAEAEA"/>
<path d="M17.89 16.9496L17.39 16.9996L17.79 17.0596L17.89 16.9496Z" fill="#EAEAEA"/>
<path d="M17.5201 17.8896L17.6602 17.6997C17.5994 17.7035 17.5393 17.6855 17.4903 17.6494C17.4703 17.7694 17.3701 17.8996 17.5201 17.8896Z" fill="#EAEAEA"/>
<path d="M17.4903 17.6494C17.4949 17.6343 17.4961 17.6187 17.4946 17.603C17.4931 17.5873 17.4884 17.572 17.481 17.5581C17.4735 17.5442 17.4634 17.5315 17.4512 17.5215C17.439 17.5115 17.4253 17.5041 17.4102 17.4995C17.4129 17.5286 17.4213 17.5568 17.4351 17.5825C17.4488 17.6083 17.4677 17.631 17.4903 17.6494Z" fill="#EAEAEA"/>
<path d="M18.04 17.2096L17.94 17.2696L17.9 17.4096L18.04 17.2096Z" fill="#EAEAEA"/>
<path d="M17.4199 19.9394L17.5698 20.1493C17.7398 20.1493 17.8398 20.1497 17.7798 20.0297C17.6746 19.9573 17.5468 19.925 17.4199 19.9394Z" fill="#EAEAEA"/>
<path d="M18.77 19.3096C18.6489 19.3593 18.5207 19.3895 18.3901 19.3994H19.0103L18.77 19.3096Z" fill="#EAEAEA"/>
<path d="M18.9399 19.9197C19.1099 19.9197 19.4399 20.2197 19.3999 19.9197C19.2299 19.9297 19.0799 19.7297 18.9399 19.9197Z" fill="#EAEAEA"/>
<path d="M18.16 23.0496L18.15 22.9996L17.13 23.0096L18.16 23.0496Z" fill="#EAEAEA"/>
<path d="M20.5898 25.8095C20.8398 25.5595 19.96 25.7497 20.27 25.5297C20.03 25.4697 20.0201 25.7094 19.8101 25.6494C20.0701 25.7994 19.9198 25.8795 20.5898 25.8095Z" fill="#EAEAEA"/>
<path d="M19.77 25.6494L19.6201 25.5796C19.6657 25.6114 19.7163 25.6349 19.77 25.6494Z" fill="#EAEAEA"/>
<path d="M15.44 56.8196L15.23 56.9796L15.57 56.8796L15.44 56.8196Z" fill="#EAEAEA"/>
<path d="M16.2002 57.1196H15.5498L16.1401 57.2197C16.1401 57.2197 16.0502 57.1496 16.2002 57.1196Z" fill="#EAEAEA"/>
<path d="M21.3901 35.4697H21.23C21.06 35.4697 21.05 35.5294 21.02 35.6094L21.3901 35.4697Z" fill="#EAEAEA"/>
<path d="M20.9 37.6296L20.92 37.5896L20.33 37.6596L20.9 37.6296Z" fill="#EAEAEA"/>
<path d="M21.6501 39.4297C21.6501 39.3497 21.5401 39.2695 21.5701 39.1895C21.6701 39.3495 20.9201 39.4497 21.6501 39.4297Z" fill="#EAEAEA"/>
<path d="M34.25 22.7096L31.32 25.4396L17.9 10.9996L4.47002 25.4396L1.54002 22.7096L17.9 5.11959L34.25 22.7096Z" fill="#EAEAEA"/>
<path d="M35.9601 20.9697C36.0301 21.0997 36.3003 20.7797 36.3703 20.7397C36.1403 20.6297 35.8801 21.0497 35.9601 20.9697Z" fill="#EAEAEA"/>
<path d="M33.68 19.9196L33.83 19.8296L33.29 19.8696L33.68 19.9196Z" fill="#EAEAEA"/>
<path d="M32.2001 18.3198C31.8201 18.9498 32.8198 18.8095 32.8998 19.2695L32.8197 19.4297L33.3598 19.1694C32.9798 18.8794 32.2801 18.6898 32.2001 18.3198Z" fill="#EAEAEA"/>
<path d="M32.5401 16.4097C32.3901 16.6597 32.1902 16.4094 32.6602 16.6694C32.6578 16.6428 32.6578 16.616 32.6602 16.5894C32.6098 16.537 32.569 16.4763 32.5401 16.4097Z" fill="#EAEAEA"/>
<path d="M32.6802 16.5797C32.8502 16.7297 32.7502 16.3097 32.6802 16.5797Z" fill="#EAEAEA"/>
<path d="M31.8398 15.9192L32.23 15.9695C32.31 15.8095 32.1501 15.5894 32.3101 15.5794C32.0001 15.4494 31.9198 15.5792 31.8398 15.9192Z" fill="#EAEAEA"/>
<path d="M31.27 16.0697H31.4502C31.4802 16.0397 31.47 15.9997 31.27 16.0697Z" fill="#EAEAEA"/>
<path d="M31.84 16.1997L31.4504 16.1094C31.3904 16.2194 31.2301 16.3794 31.6101 16.1694C31.4401 16.2894 31.63 16.1997 31.84 16.1997Z" fill="#EAEAEA"/>
<path d="M31.8799 16.4097C31.8799 16.6397 31.9601 16.8698 31.5801 16.8198C32.0401 17.1698 32.3499 16.7697 31.8799 16.4097Z" fill="#EAEAEA"/>
<path d="M31.5801 18.7399V19.0398H31.8901C31.7701 19.0298 31.7701 18.5799 31.5801 18.7399Z" fill="#EAEAEA"/>
<path d="M30.8301 14.2896C30.6995 14.446 30.5823 14.6133 30.48 14.7896H30.7603C30.7703 14.6796 30.6801 14.4596 30.8301 14.2896Z" fill="#EAEAEA"/>
<path d="M30.48 14.7896L30.0601 14.7197C30.2401 14.9597 30.37 14.9196 30.48 14.7896Z" fill="#EAEAEA"/>
<path d="M30.65 16.5696L31.42 16.5996L30.57 16.4996L30.65 16.5696Z" fill="#EAEAEA"/>
<path d="M29.98 13.3496L30.37 13.2496L29.75 13.3596L29.98 13.3496Z" fill="#EAEAEA"/>
<path d="M29.3599 12.7696C29.6699 12.6696 29.5898 12.2898 29.8198 12.2798C29.5683 12.1693 29.2884 12.1412 29.02 12.1998C29.24 12.2498 29.3599 12.4196 29.3599 12.7696Z" fill="#EAEAEA"/>
<path d="M28.5801 12.1995C28.7264 12.2147 28.8737 12.2149 29.02 12.1998C28.8755 12.1642 28.7246 12.164 28.5801 12.1995Z" fill="#EAEAEA"/>
<path d="M29.77 14.2598C29.8766 14.1198 29.9267 13.9447 29.9102 13.7695L29.6802 14.1597L29.77 14.2598Z" fill="#EAEAEA"/>
<path d="M30.3398 15.6599C30.0298 15.6599 29.5601 15.5596 29.5601 16.0896C29.8701 15.9996 29.8698 15.6899 30.3398 15.6599Z" fill="#EAEAEA"/>
<path d="M29.4702 14.7598L29.6401 15.0894C29.7201 15.0094 29.7902 14.8494 29.9502 14.8394L29.4702 14.7598Z" fill="#EAEAEA"/>
<path d="M29.25 14.7296L29.47 14.7696L29.41 14.6496L29.25 14.7296Z" fill="#EAEAEA"/>
<path d="M28.7002 12.9194C28.6046 12.9201 28.5097 12.9012 28.4219 12.8633C28.3341 12.8254 28.2551 12.7697 28.1899 12.6997C28.2562 12.9008 28.3657 13.0851 28.5103 13.2397C28.6303 13.1697 28.8602 13.0694 28.7002 12.9194Z" fill="#EAEAEA"/>
<path d="M26.9199 11.3394V11.4097H26.98L26.9199 11.3394Z" fill="#EAEAEA"/>
<path d="M28.4702 13.3198C28.5202 13.4898 28.6601 13.4797 28.8101 13.4497C28.698 13.3988 28.5965 13.3276 28.5103 13.2397C28.4603 13.2697 28.4202 13.2998 28.4702 13.3198Z" fill="#EAEAEA"/>
<path d="M28.0799 11.9595C28.0697 12.076 28.0697 12.1932 28.0799 12.3096C28.1399 12.1596 28.1799 11.8995 28.0799 11.9595Z" fill="#EAEAEA"/>
<path d="M29.1401 13.4196C29.2001 13.3296 29.1701 13.3596 29.1401 13.4196Z" fill="#EAEAEA"/>
<path d="M29.1401 13.4196C29.0303 13.4102 28.9199 13.4102 28.8101 13.4197C28.8961 13.4689 28.9913 13.4999 29.0898 13.51L29.1401 13.4196Z" fill="#EAEAEA"/>
<path d="M24.5298 12.7896C24.8398 12.5396 25.3798 12.5894 25.2998 13.1294C25.7498 13.1794 26.5499 12.1297 26.8799 11.4097C26.7499 11.5197 26.6302 11.6298 26.2202 11.5298C26.1502 11.7698 26.3799 12.4497 25.9199 12.4697C25.4499 12.2697 25.7603 12.0996 25.7603 11.7896C25.5303 12.2696 24.8301 11.8494 24.3701 12.4194L24.8398 12.5396C24.7698 12.5796 24.5298 12.6396 24.5298 12.7896Z" fill="#EAEAEA"/>
<path d="M27.3101 11.9299L27.4399 11.9997C27.3953 11.7554 27.416 11.5036 27.5 11.2698C27.4049 11.2463 27.3059 11.2433 27.2095 11.2605C27.113 11.2777 27.0211 11.3149 26.9399 11.3699L27.3799 11.9197L27.3101 11.9299Z" fill="#EAEAEA"/>
<path d="M27.8799 12.4697C27.4899 12.6797 27.1199 12.5598 26.8799 13.0298C27.1899 13.3198 27.3502 13.0298 27.6602 13.0298C27.1202 12.5998 27.9701 13.0295 27.8101 12.4795C27.9329 12.524 28.0476 12.5882 28.1499 12.6694C28.1002 12.5442 28.0665 12.4135 28.0498 12.2798L27.9102 12.3696C27.8402 12.1696 27.9698 12.2698 28.0498 12.2798H28.1001L27.46 11.9395C27.5503 12.1503 27.6952 12.3336 27.8799 12.4697Z" fill="#EAEAEA"/>
<path d="M28.64 16.4595C28.6503 16.424 28.6713 16.3928 28.7001 16.3696C28.6301 16.3796 28.59 16.3895 28.64 16.4595Z" fill="#EAEAEA"/>
<path d="M28.6401 16.0698C28.7101 16.0698 28.8702 15.9794 28.9502 16.1294C29.0302 16.2794 28.7901 16.2696 28.7001 16.3696C28.8501 16.3696 29.1501 16.3698 29.1001 16.0498H29.02C28.9674 15.7317 29.02 15.405 29.1699 15.1196C28.9487 15.4093 28.7705 15.7294 28.6401 16.0698Z" fill="#EAEAEA"/>
<path d="M28.1699 14.3296L27.6201 14.0596L27.5498 14.5298L27.7002 14.3594C27.8602 14.6594 28.0099 14.4196 28.1699 14.3296Z" fill="#EAEAEA"/>
<path d="M27.03 11.1496L27.42 10.8896L26.72 11.0896L27.03 11.1496Z" fill="#EAEAEA"/>
<path d="M26.49 10.6396L26.8 10.3896L26.49 10.4096V10.6396Z" fill="#EAEAEA"/>
<path d="M5.35025 20.9996C5.35025 20.9996 5.35025 20.8799 5.35025 20.8199C5.35025 20.7599 5.32025 20.9796 5.35025 20.9996Z" fill="#EAEAEA"/>
<path d="M5.02002 21.3197L5.10986 21.5096C5.06986 21.3896 5.03002 21.3097 5.02002 21.3197Z" fill="#EAEAEA"/>
<path d="M10.4399 9.47942C9.99994 9.40942 9.39023 9.21942 9.74023 9.47942L10.1099 9.71965C10.1341 9.65095 10.1789 9.59112 10.2378 9.54826C10.2967 9.50541 10.3671 9.48133 10.4399 9.47942Z" fill="#EAEAEA"/>
<path d="M3.87012 20.3496H4.02002L3.7998 19.9697C3.8198 20.1097 3.84012 20.2296 3.87012 20.3496Z" fill="#EAEAEA"/>
<path d="M5.2998 21.4497H4.93018C5.0533 21.46 5.17668 21.46 5.2998 21.4497Z" fill="#EAEAEA"/>
<path d="M9.49984 15.8594L9.30989 15.4194C9.09989 15.6394 9.35984 15.6994 9.49984 15.8594Z" fill="#EAEAEA"/>
<path d="M20.4399 4.36963C20.3244 4.0429 20.1593 3.73581 19.9502 3.45947C20.1702 4.04947 20.2199 4.66963 20.4399 4.36963Z" fill="#EAEAEA"/>
<path d="M8.18002 24.7197C8.24002 24.5397 8.18002 24.4194 8.18002 24.3594C8.10002 24.5794 8.09002 24.6597 8.18002 24.7197Z" fill="#EAEAEA"/>
<path d="M19.25 2.70969L19.3599 2.96994C19.5921 3.08498 19.7945 3.25232 19.9502 3.45947C19.7702 3.01947 19.56 2.57969 19.25 2.70969Z" fill="#EAEAEA"/>
<path d="M29.77 20.0796V20.1494C29.77 20.1494 29.77 20.0996 29.77 20.0796Z" fill="#EAEAEA"/>
<path d="M33.3501 26.1494C33.2586 26.2638 33.158 26.3711 33.0498 26.4697C33.1098 26.4497 33.2101 26.3594 33.3501 26.1494Z" fill="#EAEAEA"/>
<path d="M24.6001 8.32959C24.7301 8.42959 24.6501 8.32959 24.6001 8.32959Z" fill="#EAEAEA"/>
<path d="M17.6401 5.47949C17.6701 5.57949 17.6601 5.57949 17.6401 5.47949Z" fill="#EAEAEA"/>
<path d="M24.6201 8.63965C24.6179 8.55731 24.6007 8.47579 24.5698 8.39941C24.5736 8.48157 24.5907 8.56283 24.6201 8.63965Z" fill="#EAEAEA"/>
<path d="M24.77 8.46973L24.8301 8.59961C24.8701 8.57961 24.9 8.51973 24.77 8.46973Z" fill="#EAEAEA"/>
<path d="M24.4302 8.18945C24.4944 8.24603 24.5423 8.31839 24.5698 8.39941V8.32959L24.4302 8.18945Z" fill="#EAEAEA"/>
<path d="M19.5898 10.8794C19.5898 10.8794 19.5898 10.9295 19.5898 10.9595C19.7698 10.9195 19.7698 10.8794 19.5898 10.8794Z" fill="#EAEAEA"/>
<path d="M10.77 16.1694C10.53 15.6294 10.6799 15.5795 10.8799 15.5195L9.87988 14.7998L10.77 16.1694Z" fill="#EAEAEA"/>
<path d="M7.20996 18.8096H6.66016C6.51016 18.0296 6.91025 17.9196 6.26025 17.8096C7.21025 18.8096 5.31025 19.0395 6.26025 19.9995H5.87012C5.93012 19.9495 5.86994 19.8894 5.93994 19.8394C5.11994 19.7694 6.39982 20.7894 5.81982 21.1294C5.77924 21.1566 5.73297 21.1741 5.68457 21.1807C5.63617 21.1872 5.58735 21.1829 5.54102 21.1675C5.49468 21.152 5.45228 21.1261 5.41748 21.0918C5.38268 21.0575 5.35601 21.0158 5.33984 20.9697C5.33984 21.0997 5.39992 21.2294 5.41992 21.3794C5.43992 21.5294 5.21979 21.2097 5.27979 21.1797L5.12012 21.5195C5.20388 21.7921 5.2511 22.0744 5.26025 22.3594C5.10025 22.2494 5.2599 22.1695 5.1499 22.0195C5.1499 22.1895 5.1499 22.3598 5.1499 22.5498C4.9699 22.2298 4.96982 21.7295 5.06982 21.6895C4.71982 21.0795 4.75979 21.1594 4.77979 21.3594C4.79979 21.5594 4.7801 21.8996 4.6001 21.5396V21.2397C4.44817 20.8885 4.34385 20.5185 4.29004 20.1396C4.31452 20.4532 4.36459 20.7644 4.43994 21.0698C4.53825 21.3944 4.59223 21.7308 4.6001 22.0698C4.5401 21.9798 4.5002 21.9597 4.4502 22.4097C4.4502 21.9997 4.3901 21.9297 4.3501 21.9697C4.36886 21.9985 4.38537 22.0284 4.3999 22.0596V21.2197C4.47485 21.5792 4.47485 21.9501 4.3999 22.3096C4.3999 22.2596 4.65012 21.7797 4.87012 21.4097C5.03012 21.4997 4.87023 21.6196 4.74023 21.8096C4.62555 21.9635 4.54697 22.1412 4.51025 22.3296C4.71025 22.1796 4.68 22.5094 4.25 22.6294L4.87012 22.4194C4.69542 22.5032 4.51023 22.5639 4.31982 22.5996L4.62012 22.5396C4.26712 22.6278 3.90379 22.6682 3.54004 22.6597C3.45078 22.676 3.35928 22.676 3.27002 22.6597C3.54912 22.5522 3.83668 22.4686 4.12988 22.4097C4.43988 22.3297 4.61006 22.2694 4.31006 22.1294C4.57006 22.1294 4.75982 22.2295 5.06982 22.2495C4.93844 22.1601 4.82097 22.0526 4.72021 21.9297C4.57232 21.7873 4.43171 21.6368 4.2998 21.4795C4.5098 21.4795 4.72016 21.4795 4.91016 21.4795C4.63633 21.4486 4.38151 21.3246 4.18848 21.1279C3.99545 20.9313 3.87591 20.6738 3.8501 20.3994C3.62958 20.3553 3.40502 20.3352 3.18018 20.3394C3.18018 20.1094 3.31014 19.8594 3.39014 19.6094C3.53014 19.6094 3.63979 19.8098 3.77979 20.0498C3.77979 19.9898 3.77979 19.9196 3.77979 19.8696C4.11979 19.8696 4.29998 20.1995 4.47998 20.5195L4.02979 20.4297C4.24638 20.7682 4.54173 21.0493 4.89014 21.2495C4.86617 21.1884 4.86617 21.1206 4.89014 21.0596C4.94582 21.128 5.01332 21.1856 5.08984 21.2295C5.14984 21.2295 5.09021 21.1495 4.97021 20.9995C5.19021 21.1195 5.38984 21.2494 5.58984 21.3794L5.39014 21.1895H5.5498C5.62218 21.174 5.69306 21.1507 5.76025 21.1196L6.20996 20.9697C6.08996 20.0497 5.66008 18.9698 6.08008 18.0698C6.31008 18.5998 6.67008 18.6898 7.08008 19.0698C6.43008 18.8098 6.78986 19.7898 6.35986 20.0698C6.58986 19.9298 6.7598 20.1696 6.7998 20.2896L6.9502 19.2896C7.3102 19.6396 7.35016 19.4096 7.66016 19.3896C6.81016 18.8296 7.61016 18.4597 7.66016 17.9897C7.93016 18.2097 8.12002 18.4998 7.77002 18.7598C8.64002 18.9298 7.31986 17.5094 8.10986 17.6094C8.03986 17.6894 7.97006 17.6894 8.06006 17.8394C8.06006 17.4594 8.58996 17.1795 8.70996 17.4795L8.6499 17.5698C9.2099 17.1398 10.1 16.0194 9.54004 15.3594C9.63004 15.4294 10.2301 16.1295 10.3301 16.2695L9.08008 13.4097C9.54008 13.9897 11.0803 14.8698 11.0103 15.5698C11.1428 15.5526 11.2638 15.4864 11.3506 15.3848C11.4374 15.2832 11.4836 15.1531 11.48 15.0195C11.32 15.0195 10.4798 14.5096 10.5698 14.3496C11.4498 14.5996 11.0902 14.4295 11.9502 14.5195C11.7202 14.5195 11.0102 13.6197 11.2202 13.4497C11.3202 13.5997 12.0601 14.1994 12.0801 14.3594L11.7202 13.0996C11.7202 13.3596 12.3902 13.7694 12.7202 13.8794C12.5102 13.7794 13.1299 13.4698 13.1699 13.2598H12.7798C13.4198 12.8298 12.1302 11.6396 12.6802 11.1396C12.7902 11.3596 13.5799 12.2694 13.9399 12.0894C13.6399 11.5694 12.4401 9.63961 12.5601 8.84961L12.8901 8.97949L12.96 8.35938C13.5098 9.50117 13.958 10.6894 14.2998 11.9097C14.6798 11.9097 14.6402 12.1096 14.9102 11.7896C15.2302 11.8896 15.09 12.2694 15.02 12.3794L15.8398 11.7896C15.3098 11.3696 15.8399 10.7897 15.4199 10.4297L15.2002 11.6797C14.6802 11.2597 14.2 9.92951 14.79 9.49951C15.1 9.55951 15.57 10.4196 15.79 10.5596C15.68 10.3296 15.9101 9.76936 16.0801 9.83936L16.1401 10.2998C16.3601 10.2398 16.31 9.96949 16.29 9.72949C16.27 9.48949 16.3499 9.23941 16.6299 9.39941C16.7299 9.39941 17.3298 9.91961 17.0898 9.59961C16.1863 8.72793 15.3909 7.75078 14.7202 6.68945C14.9377 6.64509 15.1581 6.61826 15.3799 6.60938C15.6499 6.58609 15.9211 6.64183 16.1602 6.76953C16.3717 7.06701 16.5117 7.40917 16.5698 7.76953C16.6321 8.12546 16.7648 8.46541 16.96 8.76953C16.886 8.58783 16.8422 8.3955 16.8301 8.19971C16.9701 8.27971 17.0502 8.79982 17.1602 8.56982C16.9202 7.81982 17.5 8.28963 17.02 7.86963C17.13 7.45963 17.2502 7.86936 17.4302 7.58936C17.328 7.17085 17.2973 6.73826 17.3398 6.30957C17.3598 5.82468 17.4545 5.34581 17.6201 4.88965C17.6283 5.10037 17.6652 5.30909 17.73 5.50977C17.8088 5.4437 17.8923 5.38336 17.98 5.32959C18.2386 5.81504 18.5294 6.28264 18.8501 6.72949C18.8501 6.96949 18.9701 7.39941 18.8501 7.64941C18.9301 7.55941 19.0602 7.35973 19.1802 7.46973C19.1802 8.31973 18.9098 7.30951 18.8198 8.24951C18.9598 7.81951 19.2701 7.92939 19.5601 7.87939C19.8001 7.23939 19.1802 7.29945 18.9702 7.43945C19.2102 6.43945 19.87 5.86951 20.75 6.24951C21.39 6.61951 20.6501 6.93969 20.8101 6.92969C21.5901 7.98969 22.6101 6.70955 22.8101 7.78955C22.6501 8.40955 22.0301 8.52961 21.8101 8.84961C21.3501 8.64961 21.5801 8.08961 21.3501 7.84961L21.4199 8.2998C21.1899 8.2998 20.8899 8.18971 20.8799 7.94971C20.7299 8.49971 22.0398 9.33951 22.2798 10.2495C22.5098 10.2495 22.8199 10.2496 22.8999 10.0596L22.6699 9.91943C22.8199 9.44943 23.4399 9.86975 23.3599 9.48975C23.8199 9.53975 24.4401 9.48979 24.6001 10.0298L24.21 10.5195C24.34 10.3895 24.2598 10.0296 24.0298 10.0596C24.3698 10.0596 23.9402 11.1796 24.6802 10.7896L24.75 10.2495C25.22 10.2995 25.9899 10.1694 26.1499 10.6294C26.4599 10.0694 26.0298 10.6296 26.3398 9.88965C25.8798 10.6896 25.6002 9.04975 25.2202 9.98975C25.6002 9.19975 25.1001 9.34982 25.3301 8.56982C25.1901 8.71982 25.1502 8.93982 24.9702 8.56982L24.7798 8.63965C24.7822 8.76369 24.7478 8.88571 24.6802 8.98975C24.2202 9.16975 23.83 8.72951 23.52 8.74951C23.45 8.51951 23.7501 8.65943 23.8301 8.41943H23.3701C23.6801 8.09943 23.5201 7.48945 24.0601 7.68945L23.7603 7.33936C23.7603 6.96936 23.5798 6.61959 23.2798 6.57959C23.2098 6.35959 22.5502 6.51943 22.9302 6.41943L22.75 6.32959L22.5 6.14941L22 5.82959L22.0698 5.72949C21.6623 5.31944 21.2097 4.95703 20.7202 4.64941C20.1485 4.20657 19.7315 3.59389 19.5298 2.89941C19.108 2.71032 18.7577 2.39183 18.5298 1.98975L18.4702 1.34961C18.3175 1.23557 18.1881 1.093 18.0898 0.929688C17.7398 1.17969 17.3002 1.38969 17.2202 1.92969C16.9602 1.43969 16.45 1.92977 15.96 2.50977C15.5635 3.08346 15.1184 3.62196 14.6299 4.11963L14.8501 4.61963C14.3799 5.12827 13.9887 5.70467 13.6899 6.32959L14.04 6.61963C13.93 7.00963 13.76 7.06973 13.46 7.21973C13.1526 7.32274 12.8725 7.49363 12.6401 7.71973C12.5501 7.56973 12.6398 7.47973 12.8398 7.46973C11.5898 7.32973 12.3 9.13965 11.29 9.13965C11.29 9.37965 11.17 9.42945 11 9.43945V9.38965L10.9502 9.43945H10.6201C10.723 9.45297 10.8273 9.45297 10.9302 9.43945C10.8147 9.58915 10.736 9.76407 10.7002 9.94971L10.29 9.67969C10.03 9.67969 10.3502 9.94963 10.6802 10.1196C10.6604 10.2489 10.6604 10.3805 10.6802 10.5098C10.0002 10.0998 10.52 11.0697 9.77002 10.6597C9.98002 11.0297 9.32012 11.5897 9.87012 12.2397C9.79012 12.1697 9.70979 12.1794 9.77979 12.0894C9.55979 12.1894 9.33988 12.2794 9.37988 12.5894L8.87012 12.2397L9.1499 13.1494C8.6699 13.1494 8.42979 13.0495 8.27979 12.5195C8.33979 13.5195 8.10021 13.1196 8.22021 14.0396L7.9502 13.7495C7.8202 13.9095 7.9499 14.5196 7.6499 14.3896C6.7799 14.2296 5.9799 16.0297 4.6499 16.4497C5.6499 17.0697 3.88025 16.4994 4.51025 17.1494C4.26025 17.0194 4.03023 17.0395 3.99023 16.7295C3.76023 17.3695 2.9898 17.1095 3.2998 17.9395C3.0498 17.8095 3.09018 17.5698 2.93018 17.5098C2.93018 17.5798 2.93006 17.8095 2.81006 17.7495C2.69006 17.6895 2.70018 17.5296 2.68018 17.3696C2.29018 17.8596 2.8499 18.5094 3.3999 19.0894C2.8299 19.1494 2.67994 19.3796 2.93994 19.8696C2.61994 19.8696 2.18998 19.8695 2.47998 19.4395C2.25998 19.6195 0.75998 20.7297 1.47998 20.9297C1.39166 20.942 1.31118 20.9868 1.25391 21.0552C1.19663 21.1235 1.16659 21.2107 1.16992 21.2998C0.806349 21.6015 0.471578 21.9362 0.169922 22.2998L0.430176 22.1797C1.05018 22.3297 0.720176 22.4497 0.430176 22.6597C0.491628 22.7763 0.580707 22.8759 0.689941 22.9497H0.569824C0.598349 23.1045 0.663216 23.2504 0.758789 23.3755C0.854362 23.5006 0.978234 23.6012 1.12012 23.6694C1.31012 23.7594 1.42018 23.7995 1.68018 24.4795L2.04004 24.1597C2.53004 23.9097 2.5499 24.1598 2.6499 24.5498C2.7499 24.9398 2.9701 25.5494 3.3501 25.6694C3.3501 25.5194 3.29025 25.3597 3.26025 25.2197C3.49025 25.2197 3.51992 25.6994 3.66992 26.3994C3.77613 27.0485 3.98556 27.6768 4.29004 28.2598C4.38004 28.4798 4.12021 28.3098 3.97021 28.2598C5.05021 30.0098 4.38002 28.1496 4.77002 28.0796C4.80585 27.9762 4.85627 27.8785 4.91992 27.7896C5.05992 28.1396 4.83002 29.1496 5.27002 28.7896C5.40002 28.8596 5.68021 28.1395 5.97021 27.4995C6.26021 26.8595 6.54021 26.2896 6.97021 26.3296C6.74021 26.1896 6.55021 26.0198 6.72021 25.5498C6.88021 25.2998 7.2501 25.2696 7.6001 25.1196C7.79476 25.0698 7.96344 24.9484 8.07275 24.7798C8.18207 24.6112 8.22386 24.4075 8.18994 24.2095C8.22864 24.2069 8.26747 24.2128 8.30371 24.2266C8.33995 24.2404 8.3727 24.2619 8.3999 24.2896C8.6399 23.7096 8.90998 23.2098 8.72998 22.7598C10.13 23.6798 9.41002 20.8396 10.52 21.8896L11.0898 21.1494L11.1899 21.2798C11.6599 20.9098 11.5402 20.5094 11.4102 20.1094C11.5802 20.1094 11.6199 20.2496 11.6699 20.3096C12.4799 19.8896 12.4902 19.7797 12.4302 18.7397L12.8398 19.0195C12.7598 18.6795 14.2602 18.6296 14.4102 17.6196C14.4686 17.6788 14.5041 17.7565 14.5103 17.8394C14.7303 16.7494 17.07 17.1096 15.98 15.6196L16.0898 14.8594C15.4298 15.3594 15.5999 14.2398 15.1499 14.2798C15.3099 13.9498 16.0599 14.0997 15.8999 14.4097H15.7998C16.4098 15.1397 16.5399 14.0997 16.8999 14.6597C17.2266 14.2805 17.6525 13.9999 18.1299 13.8496C18.2697 14.1066 18.427 14.3535 18.6001 14.5894C18.6501 14.2794 18.6902 13.9596 18.7202 13.6396L18.9302 13.9297C18.9302 14.1897 18.7999 14.6297 18.6899 14.4697C18.6099 14.9897 19.0199 14.3094 19.1099 14.1694C19.145 14.2765 19.1479 14.3919 19.1177 14.5005C19.0874 14.6091 19.0254 14.7063 18.9399 14.7798C18.8199 14.9098 18.7102 15.0098 18.7402 15.0498H18.8398V14.9395C19.0498 14.7195 19.2199 14.4394 19.3799 14.6694C19.5399 14.8994 19.1602 15.0997 19.1802 15.1597C19.2002 15.2197 19.1802 15.2397 19.1802 15.2397L19.2603 15.3696V15.4297L19.3501 15.5498C19.4252 15.3577 19.5188 15.1732 19.6299 14.9995C19.9699 14.9495 20.01 15.4595 20.27 14.7695C19.83 15.7695 21.6799 16.7695 21.6299 17.2295C21.8688 17.2396 22.1015 17.3114 22.3047 17.4375C22.5079 17.5636 22.675 17.74 22.79 17.9497C22.79 17.7697 23.22 17.2794 23.46 17.6494C22.37 18.4494 23.5701 18.6498 23.1001 19.5298C23.3501 18.8698 24.0999 20.3196 24.3799 19.3496C24.5499 19.6896 24.03 19.7096 23.98 20.1196C24.98 20.3896 24.9801 21.7296 25.8701 22.3896C26.0101 22.2796 26.0802 21.9695 26.4302 21.9595L26.1699 22.9595C26.3699 23.0595 27.0401 22.4094 26.8501 23.1094C26.9301 22.9694 27.0299 22.7598 27.1699 22.8198C27.2478 23.0121 27.338 23.1987 27.4399 23.3794C27.4899 23.4594 27.5401 23.5494 27.6001 23.6294C27.6601 23.7094 27.7699 23.8497 27.8599 23.9497C28.2299 24.3897 28.64 24.7897 29.04 25.1797C29.8942 25.933 30.6774 26.7632 31.3799 27.6597C31.905 27.2873 32.5122 27.047 33.1499 26.9595C32.7499 26.8695 32.9599 26.6196 33.1499 26.3896C32.9799 26.3896 33.0502 25.8997 32.9502 25.6597C33.3296 25.6384 33.707 25.5915 34.0801 25.5195C33.9501 24.7295 35.08 24.5194 34.79 23.9194L34.5898 24.2695C34.5898 23.7895 34.1798 23.5695 33.8198 23.2695C33.4304 23.0261 33.1159 22.6801 32.9102 22.2695C33.0002 22.7695 32.69 22.6297 32.46 22.4697C32.23 22.3097 32.0803 22.1498 32.0103 23.0498C31.9103 22.8698 32.0102 22.6096 31.9502 22.3696C31.9502 22.9396 31.8299 23.1696 31.6499 23.0796V22.9297C31.5984 22.9913 31.5416 23.0481 31.48 23.0996C31.1681 22.6114 30.9417 22.0739 30.8101 21.5098L30.6201 21.9995C30.5748 21.8461 30.5748 21.6832 30.6201 21.5298C30.1301 22.0498 30.8601 21.8498 30.3901 22.5298C30.4558 22.3744 30.4735 22.2027 30.4414 22.0371C30.4094 21.8715 30.3289 21.7193 30.21 21.5996C30.1207 21.4899 30.0532 21.3643 30.0103 21.2295C29.9763 21.1267 29.9686 21.0172 29.9878 20.9106C30.007 20.8041 30.0524 20.7041 30.1201 20.6196C29.8501 20.3196 29.7998 21.0798 29.5298 20.7798L29.6802 20.4995L29.3301 20.6797C29.1901 20.4497 29.3298 20.0994 29.5498 19.9194C29.5498 19.9794 29.73 19.9996 29.79 20.0396C29.79 19.5496 29.0398 19.4095 29.0498 19.2495L29.1802 19.6597C28.1802 19.0397 27.5902 17.7894 26.4302 17.4194L26.3198 17.6294C25.4598 17.3194 26.0598 16.9895 25.3198 16.4595H25.3799C25.253 16.4744 25.1246 16.4578 25.0059 16.4106C24.8872 16.3635 24.7823 16.2873 24.7002 16.1895C25.0502 16.1895 24.7902 15.5298 25.2002 15.5498C24.2702 15.2098 24.6501 15.4694 23.6401 15.6094L23.8198 15.2598C23.4398 15.3398 23.3002 15.4495 22.9302 15.1895C23.4102 15.1895 23.1502 14.5894 23.7402 14.6094C23.6902 13.3694 22.1902 14.1498 22.7402 13.0298C21.6902 13.4098 22.8698 14.0298 22.5498 14.0298C22.4398 14.4098 21.7401 14.2898 21.6201 14.0298C21.5201 13.9098 21.68 13.5897 21.79 13.2397C21.8556 13.0165 21.8594 12.7795 21.8013 12.5542C21.7432 12.3289 21.6253 12.1232 21.46 11.9595C21.54 12.0495 21.5902 11.9596 21.6602 12.0796C21.5202 11.5296 20.91 11.7798 20.77 11.0098C20.29 11.3998 20.3202 10.4697 19.9502 11.2397L20.6699 11.7495C20.4033 11.6893 20.1265 11.6893 19.8599 11.7495C19.5899 11.7495 19.3699 11.6896 19.1699 11.1396C19.2252 11.069 19.297 11.0127 19.3789 10.9761C19.4608 10.9395 19.5506 10.9237 19.6401 10.9297C19.5301 10.4697 19.2599 10.7598 19.1499 10.2798C19.2599 9.81979 19.48 9.99979 19.75 10.2798C20.02 10.5598 20.3002 10.8598 20.6602 10.7998C20.5702 10.2098 19.6101 10.5098 20.1401 9.7998C19.7801 10.2198 19.6199 9.99969 19.4199 9.67969C19.2199 9.35969 18.9702 8.94949 18.6602 9.22949L18.7603 8.63965C18.6603 8.63965 18.4601 8.75959 18.3101 8.57959C18.415 8.39226 18.532 8.21185 18.6602 8.03955C18.3802 8.15955 18.1802 7.72977 17.9502 7.25977C17.805 7.26 17.6632 7.30495 17.5449 7.38916C17.4267 7.47337 17.3377 7.59239 17.29 7.72949C18.29 6.67949 17.5399 8.29941 17.9199 8.39941C16.9199 10.3994 17.2101 7.33963 15.8701 9.11963C16.0401 8.82963 16.6199 8.72955 16.3999 9.28955C16.1374 9.46183 15.819 9.52648 15.5103 9.46973C14.6603 10.5197 15.8298 9.8498 15.5698 10.5498C15.0598 10.2498 15.2701 11.2197 15.0601 11.7197L14.7998 11.2798C13.6998 12.0098 15.1602 12.3794 14.1802 12.8794C14.1802 12.6094 14.0901 12.3298 14.0601 12.0298L13.75 12.6094L13.46 12.1294C13.32 12.5694 13.35 12.6498 13.23 12.7798C13.1023 12.9 12.9531 12.9948 12.79 13.0596C13.11 13.2096 13.3999 13.6895 13.1499 13.9795C12.7599 13.9795 12.9098 13.5595 12.5898 13.9795C12.4598 13.6795 12.27 13.3295 12.75 13.4595C12.66 13.3295 12.61 13.1596 12.52 13.0396C12.09 13.0396 11.9801 13.4994 11.8501 13.6494C11.9166 13.5995 11.997 13.5719 12.0801 13.5698L12.0298 14.5698C11.8198 14.5698 11.7802 14.3697 11.7402 14.1997C11.6702 14.3497 11.7399 14.5798 11.6299 14.7798C11.3799 14.4698 11.0799 14.2094 11.1699 13.8394L10.98 14.6797C10.82 14.5997 10.3701 14.6797 10.3301 14.4697C9.88008 14.6197 10.2001 15.7397 9.6001 15.9297C9.62021 15.9754 9.63037 16.0248 9.63037 16.0747C9.63037 16.1246 9.62021 16.174 9.6001 16.2197C9.1801 16.5397 8.52 16.5494 8.5 17.3594L7.75 17.1396C7.54 17.5996 8.75012 17.3996 8.37012 18.1396C8.14012 18.7096 7.78 17.8894 7.5 17.8994C7.57 18.3494 7.77 19.1995 7 19.1895C6.98 18.9895 7.13996 18.9596 7.20996 18.8096ZM4.58984 22.0894C4.58984 21.9194 4.59018 21.4898 4.68018 21.7998C4.77018 22.4898 4.67984 22.2294 4.58984 22.0894ZM5.12988 20.3496C5.18988 20.5196 5.03006 20.5696 4.81006 20.5396C4.83916 20.4802 4.88506 20.4307 4.94189 20.397C4.99873 20.3632 5.06385 20.3467 5.12988 20.3496ZM23.1299 7.34961C23.0799 7.02961 23.0901 7.14936 23.1401 7.33936L23.1299 7.34961ZM23.3398 7.87939C23.3759 7.87497 23.4103 7.86176 23.4399 7.84082C23.4696 7.81988 23.494 7.79224 23.5103 7.75977C23.3903 7.81977 23.3002 7.75938 23.2402 7.60938C23.1802 7.71937 23.1601 7.82963 23.3501 7.86963L23.3398 7.87939ZM19.0801 15.1294V14.9897C19.3101 14.9597 19.1998 15.0296 19.0898 15.1196L19.0801 15.1294Z" fill="#EAEAEA"/>
<path d="M5.12988 21.3198C5.04283 21.2881 4.9591 21.2478 4.87988 21.1997C4.90882 21.2383 4.94671 21.2691 4.99023 21.29C5.03376 21.3109 5.08163 21.3214 5.12988 21.3198Z" fill="#EAEAEA"/>
<path d="M17.0601 8.89941C16.9873 8.85839 16.9229 8.80446 16.8701 8.73975C16.9301 8.85975 16.9901 8.92941 17.0601 8.89941Z" fill="#EAEAEA"/>
<path d="M25.8701 9.36963L25.54 9.20947C25.67 9.30947 25.6301 9.42955 25.6401 9.53955C25.7101 9.45955 25.7701 9.29963 25.8701 9.36963Z" fill="#EAEAEA"/>
<path d="M25.6898 13.5796C25.7698 13.5796 25.7697 13.6497 25.8397 13.6397L25.9998 13.4795C25.8398 13.3295 25.6098 13.3396 25.6898 13.5796Z" fill="#EAEAEA"/>
<path d="M24.9102 10.6895C24.6302 10.9895 24.9099 11.0494 25.0899 11.1694C25.5299 10.8094 25.2202 10.7495 24.9102 10.6895Z" fill="#EAEAEA"/>
<path d="M25.1401 11.2095C25.2048 11.2458 25.2593 11.2972 25.2998 11.3594C25.4798 11.2294 25.2701 11.2595 25.1401 11.2095Z" fill="#EAEAEA"/>
<path d="M24.0102 8.1797C24.0102 8.3297 24.4298 7.87956 24.3598 8.03956C24.8198 7.77956 23.3902 7.9097 24.0102 8.1797Z" fill="#EAEAEA"/>
<path d="M24.06 11.7496L24.37 11.3496L23.98 11.5196L24.06 11.7496Z" fill="#EAEAEA"/>
<path d="M23.0498 10.1198L23.2002 10.4899C23.2302 10.4713 23.2645 10.4611 23.2998 10.4611C23.3351 10.4611 23.3699 10.4713 23.3999 10.4899C23.2499 10.2699 23.1498 10.0098 23.0498 10.1198Z" fill="#EAEAEA"/>
<path d="M23.3999 10.4497C23.4299 10.4959 23.4695 10.5351 23.5161 10.5645C23.5627 10.5938 23.6153 10.6126 23.6699 10.6196C23.5942 10.5429 23.5018 10.4848 23.3999 10.4497Z" fill="#EAEAEA"/>
<path d="M23.59 11.4696V11.3196L23.44 11.0896L23.59 11.4696Z" fill="#EAEAEA"/>
<path d="M20.2403 6.95947L19.8599 6.75977C19.8338 6.78554 19.8142 6.81718 19.8028 6.85205C19.7914 6.88693 19.7886 6.92375 19.7945 6.95996C19.8004 6.99617 19.8152 7.03057 19.837 7.06006C19.8588 7.08955 19.8871 7.11319 19.92 7.12939C20.05 7.08939 20.2003 7.15947 20.2403 6.95947Z" fill="#EAEAEA"/>
<path d="M20.1802 8.90967C20.1982 8.76783 20.253 8.63313 20.3398 8.51953L19.8799 8.92969L20.1802 8.90967Z" fill="#EAEAEA"/>
<path d="M19.4401 8.32959C19.3201 8.43959 18.9203 8.48945 19.1603 8.68945C19.2603 8.57945 19.5501 8.64959 19.4401 8.32959Z" fill="#EAEAEA"/>
<path d="M15.9102 7.64941L15.9702 7.56982L15.4102 6.66943C15.5702 6.99943 15.7702 7.32941 15.9102 7.64941Z" fill="#EAEAEA"/>
<path d="M13.9798 13.2896C14.4898 13.0996 13.5997 12.7797 14.1297 12.6597C14.0297 12.4097 13.6999 12.7598 13.6199 12.5298C13.6099 12.9198 13.3998 12.9396 13.9798 13.2896Z" fill="#EAEAEA"/>
<path d="M13.6202 12.5796C13.6347 12.507 13.6347 12.432 13.6202 12.3594C13.6084 12.4322 13.6084 12.5067 13.6202 12.5796Z" fill="#EAEAEA"/>
<path d="M34.8901 25.4595L35.3901 25.2896L34.9502 25.2295L34.8901 25.4595Z" fill="#EAEAEA"/>
<path d="M35.1299 24.2095L35.6299 24.6294C35.5699 24.4094 35.5102 24.1995 35.4502 23.9995C35.3902 24.0895 35.2799 24.2695 35.1299 24.2095Z" fill="#EAEAEA"/>
<path d="M4.32004 20.5796V20.8096C4.32004 20.9096 4.32004 20.9595 4.32004 20.9795C4.31389 20.999 4.31389 21.02 4.32004 21.0396V20.5796Z" fill="#EAEAEA"/>
<path d="M5.14002 20.2996L5.08002 20.3396L5.60002 20.6396L5.14002 20.2996Z" fill="#EAEAEA"/>
<path d="M7.04004 17.1494C6.92004 17.2394 6.89979 17.4496 6.77979 17.5396C6.91979 17.2396 7.61004 17.5794 7.04004 17.1494Z" fill="#EAEAEA"/>
</svg>
