<svg width="19" height="13" viewBox="0 0 19 13" fill="none" xmlns="http://www.w3.org/2000/svg">
<path d="M7.62127 5.75426C9.00574 6.14063 9.68188 7.20313 9.68188 8.61979C9.68188 10.938 7.75006 11.9361 5.65726 11.9361H0.151574V0.538353H5.52847C7.46029 0.538353 9.16673 1.0857 9.16673 3.37169C9.16673 4.49858 8.61938 5.23911 7.62127 5.75426ZM2.63074 2.47017V5.14252H5.1743C6.07582 5.14252 6.71976 4.75616 6.71976 3.79025C6.71976 2.72775 5.91483 2.47017 5.01332 2.47017H2.63074ZM5.33529 10.0043C6.33339 10.0043 7.17051 9.65009 7.17051 8.491C7.17051 7.33191 6.49438 6.84896 5.36748 6.84896H2.63074V10.0043H5.33529ZM16.8618 2.24479H12.2576V1.1179H16.8618V2.24479ZM18.697 7.94366C18.697 8.07244 18.6648 8.23343 18.6648 8.36222H12.7084C12.7084 9.68229 13.4167 10.455 14.7368 10.455C15.4129 10.455 16.3145 10.1009 16.5398 9.39252H18.536C17.9243 11.2599 16.6364 12.1615 14.6724 12.1615C12.0645 12.1615 10.4224 10.3906 10.4224 7.81487C10.4224 5.3357 12.1288 3.43608 14.6724 3.43608C17.2482 3.43608 18.697 5.49669 18.697 7.94366ZM12.7084 6.91335H16.411C16.3145 5.81866 15.7349 5.17472 14.5758 5.17472C13.5133 5.17472 12.7728 5.85085 12.7084 6.91335Z" fill="#EAEAEA"/>
</svg>
