<svg width="33" height="34" viewBox="0 0 33 34" fill="none" xmlns="http://www.w3.org/2000/svg">
<rect y="0.730469" width="32.97" height="32.97" rx="6" fill="#464646"/>
<path d="M13.2358 12C13.7545 12 14.2337 12.0418 14.6736 12.1672C15.1124 12.2507 15.4735 12.4251 15.7941 12.634C16.1148 12.843 16.3533 13.1427 16.5153 13.526C16.6728 13.908 16.7583 14.3749 16.7583 14.8836C16.7583 15.4758 16.639 15.9844 16.3578 16.3665C16.1159 16.7486 15.721 17.0901 15.2361 17.342C15.9179 17.5522 16.4365 17.9343 16.7526 18.4429C17.0688 18.9516 17.2713 19.5856 17.2713 20.3092C17.2713 20.9014 17.1532 21.4101 16.9507 21.8352C16.7494 22.2635 16.4461 22.6286 16.0709 22.8942C15.7109 23.151 15.271 23.3599 14.7917 23.4865C14.3223 23.6184 13.8395 23.689 13.354 23.6966L8 23.705V12H13.2358ZM12.9152 16.7498C13.354 16.7498 13.714 16.6244 13.9919 16.4095C14.2686 16.1946 14.3912 15.8161 14.3912 15.3504C14.3912 15.0925 14.3519 14.8418 14.2731 14.6734C14.1871 14.5033 14.0636 14.3579 13.9131 14.2495C13.7501 14.1545 13.5756 14.0838 13.3945 14.0394C13.1965 13.9976 12.994 13.9976 12.7566 13.9976H10.4413V16.7558C10.4413 16.7498 12.9152 16.7498 12.9152 16.7498ZM13.0333 21.7563C13.2752 21.7563 13.5126 21.7146 13.7151 21.6728C13.9131 21.631 14.1156 21.5462 14.2731 21.4149C14.4306 21.2835 14.5544 21.1581 14.6736 20.9492C14.7524 20.739 14.8311 20.4823 14.8311 20.1838C14.8311 19.5916 14.6736 19.1665 14.3519 18.868C14.0312 18.6113 13.5913 18.4859 13.0727 18.4859H10.4413V21.7504H13.0345L13.0333 21.7563ZM20.7487 21.7146C21.0697 22.0545 21.549 22.224 22.1865 22.2232C22.6252 22.2232 23.0258 22.0966 23.3475 21.8817C23.667 21.627 23.8658 21.3723 23.9438 21.1175H25.9013C25.5795 22.1337 25.1003 22.8572 24.4635 23.3241C23.8268 23.748 23.0651 23.9999 22.146 23.9999C21.5582 24.0037 20.9751 23.8882 20.4281 23.6596C19.935 23.4665 19.4952 23.1455 19.1489 22.7259C18.7786 22.3356 18.5036 21.8552 18.3479 21.3265C18.151 20.7761 18.0667 20.1838 18.0667 19.502C18.0667 18.868 18.1454 18.2698 18.3479 17.7194C18.5504 17.1701 18.8272 16.7021 19.1883 16.2782C19.5483 15.8961 19.9882 15.5546 20.4675 15.3445C21.0017 15.1181 21.5719 15.0026 22.1471 15.0042C22.8289 15.0042 23.4263 15.1295 23.9449 15.428C24.4624 15.7265 24.864 16.0633 25.1847 16.5719C25.5053 17.0376 25.7427 17.588 25.9058 18.1814C25.9846 18.7737 26.0239 19.3707 25.9846 20.0477H20.1907C20.1907 20.7402 20.427 21.3731 20.7487 21.7146ZM23.2688 17.2585C22.9875 16.96 22.5465 16.7916 22.0279 16.7916C21.6679 16.7916 21.3911 16.8752 21.1492 17.0018C20.9073 17.1283 20.7487 17.3003 20.5912 17.4674C20.4443 17.6314 20.3465 17.8379 20.31 18.0609C20.2695 18.2698 20.2312 18.4429 20.2312 18.6101H23.8268C23.748 17.982 23.5466 17.557 23.2688 17.2585ZM19.7508 12.8072H24.2261V13.9498H19.7508V12.8072Z" fill="white"/>
</svg>
