<svg width="125" height="10" viewBox="0 0 125 10" fill="none" xmlns="http://www.w3.org/2000/svg">
<path d="M101.64 2.43001C101.79 2.43001 101.74 2.05001 101.76 1.97001C101.51 2.06001 101.65 2.54001 101.64 2.43001Z" fill="#A8A8A8"/>
<path d="M99.1601 3.38L99.2001 3.2L98.8301 3.62L99.1601 3.38Z" fill="#A8A8A8"/>
<path d="M96.8401 3.33C97.0601 4.04 97.6801 3.22001 98.0901 3.47001L98.16 3.62999L98.3501 3.06001C97.8501 3.19001 97.1801 3.57 96.8401 3.33Z" fill="#A8A8A8"/>
<path d="M95.6001 1.83C95.6801 2.1 95.34 2.06999 95.89 1.90999C95.8873 1.88673 95.8873 1.86326 95.89 1.84001C95.7938 1.85758 95.6949 1.85416 95.6001 1.83Z" fill="#A8A8A8"/>
<path d="M95.8401 1.84C95.6801 1.61 96.0801 1.84 95.8401 1.84V1.84Z" fill="#A8A8A8"/>
<path d="M94.71 2.00001L95.03 1.75001C94.97 1.59001 94.68 1.55001 94.79 1.43001C94.46 1.57001 94.52 1.73001 94.71 2.00001Z" fill="#A8A8A8"/>
<path d="M94.41 2.52001L94.5701 2.42001C94.5401 2.33001 94.5 2.33001 94.41 2.52001Z" fill="#A8A8A8"/>
<path d="M94.9301 2.2L94.5701 2.42001C94.5701 2.53001 94.6301 2.77001 94.7401 2.34001C94.7101 2.55001 94.7801 2.33 94.9301 2.2Z" fill="#A8A8A8"/>
<path d="M95.1801 2.32999C95.3601 2.47999 95.59 2.57999 95.27 2.82999C95.83 2.70999 95.7401 2.20999 95.1801 2.32999Z" fill="#A8A8A8"/>
<path d="M96.7201 4.10999L96.96 4.31998L97.17 4.07999C97.07 4.19999 96.7101 3.88999 96.7201 4.10999Z" fill="#A8A8A8"/>
<path d="M92.7101 1.62999C92.7383 1.83296 92.7818 2.03353 92.8401 2.22999L93.0801 2.06001C92.9601 1.95001 92.7201 1.85999 92.7101 1.62999Z" fill="#A8A8A8"/>
<path d="M92.8401 2.22999L92.4801 2.49C92.8001 2.52 92.8601 2.39999 92.8401 2.22999Z" fill="#A8A8A8"/>
<path d="M94.3501 3.31L94.9301 2.76L94.2301 3.32L94.3501 3.31Z" fill="#A8A8A8"/>
<path d="M91.3501 1.61L91.5501 1.26L91.1901 1.79L91.3501 1.61Z" fill="#A8A8A8"/>
<path d="M90.4501 1.68001C90.6001 1.38001 90.2401 1.18001 90.4501 1.00001C90.1914 1.11335 89.9696 1.29697 89.8101 1.53001C89.9601 1.40001 90.1801 1.44001 90.4501 1.68001Z" fill="#A8A8A8"/>
<path d="M89.4501 1.86C89.563 1.75937 89.6666 1.64895 89.76 1.53001C89.6305 1.61214 89.524 1.72564 89.4501 1.86Z" fill="#A8A8A8"/>
<path d="M91.88 2.42C91.8478 2.24235 91.7474 2.08438 91.6001 1.97999L91.7401 2.40999L91.88 2.42Z" fill="#A8A8A8"/>
<path d="M93.42 2.93001C93.21 3.17001 92.77 3.41999 93.19 3.78999C93.34 3.49999 93.1 3.33001 93.42 2.93001Z" fill="#A8A8A8"/>
<path d="M92.0901 2.95L92.4701 3.05C92.4701 2.94 92.3901 2.76999 92.4701 2.65999L92.0901 2.95Z" fill="#A8A8A8"/>
<path d="M91.9001 3.09L92.0801 2.95L91.9401 2.91L91.9001 3.09Z" fill="#A8A8A8"/>
<path d="M90.0901 2.25998C89.9469 2.40403 89.7531 2.48655 89.55 2.48999C89.7573 2.57148 89.9774 2.6155 90.2001 2.61999C90.2301 2.47999 90.3201 2.23998 90.0901 2.25998Z" fill="#A8A8A8"/>
<path d="M87.5601 2.49C87.5633 2.51322 87.5633 2.53679 87.5601 2.56001V2.49Z" fill="#A8A8A8"/>
<path d="M90.2401 2.7C90.4001 2.77999 90.5001 2.69999 90.5901 2.53999C90.4653 2.58766 90.3336 2.61468 90.2001 2.61999C90.1801 2.67999 90.1801 2.72 90.2401 2.7Z" fill="#A8A8A8"/>
<path d="M88.89 2.06C88.9762 2.14498 89.0699 2.22195 89.17 2.28998C89.09 2.15998 88.92 1.95 88.89 2.06Z" fill="#A8A8A8"/>
<path d="M90.8001 2.32999C90.7701 2.16999 90.7801 2.21999 90.8001 2.32999V2.32999Z" fill="#A8A8A8"/>
<path d="M90.8001 2.32999C90.7171 2.40535 90.6463 2.49306 90.5901 2.59001C90.6876 2.55956 90.779 2.51215 90.8601 2.45L90.8001 2.32999Z" fill="#A8A8A8"/>
<path d="M86.96 5.22999C86.96 4.82999 87.42 4.47 87.79 4.89C88.15 4.6 87.9101 3.29001 87.6001 2.56001C87.6001 2.74001 87.6 2.89999 87.21 3.12999C87.34 3.34999 88.0401 3.64 87.7301 3.99C87.2301 4.2 87.32 3.85001 87.08 3.65001C87.28 4.14001 86.45 4.36001 86.56 5.09001L86.9901 4.83C87.0001 4.95 86.84 5.12999 86.96 5.22999Z" fill="#A8A8A8"/>
<path d="M88.3101 2.59999H88.4601C88.2901 2.52999 88.1601 2.37001 87.9301 2.06001C87.8437 2.10899 87.7692 2.17657 87.7122 2.25786C87.6551 2.33914 87.6168 2.43211 87.6001 2.53001L88.3601 2.59001L88.3101 2.59999Z" fill="#A8A8A8"/>
<path d="M89.1801 2.55C89.0601 2.98 88.69 3.16999 88.92 3.62999C89.37 3.62999 89.23 3.27001 89.5 3.09001C88.78 3.19001 89.7101 2.84999 89.1901 2.59999C89.3135 2.54301 89.4451 2.5059 89.5801 2.49C89.4466 2.43717 89.3192 2.3701 89.2001 2.28999C89.2001 2.34999 89.2001 2.37999 89.2001 2.34999C89.2057 2.40317 89.2057 2.45681 89.2001 2.50999C88.9901 2.41999 89.2001 2.39999 89.2001 2.34999C89.2056 2.32698 89.2056 2.30302 89.2001 2.28001L88.4701 2.52C88.7005 2.58916 88.9446 2.59947 89.1801 2.55Z" fill="#A8A8A8"/>
<path d="M92.81 4.72001C92.7977 4.68782 92.7977 4.6522 92.81 4.62001C92.81 4.62001 92.72 4.70001 92.81 4.72001Z" fill="#A8A8A8"/>
<path d="M92.51 4.46C92.56 4.4 92.6 4.22 92.78 4.27C92.96 4.32 92.78 4.47001 92.78 4.62001C92.89 4.50001 93.15 4.30999 92.78 4.09999L92.7301 4.15999C92.4401 4.00999 92.0601 3.46999 92.1101 3.40999C92.1933 3.77706 92.3279 4.13057 92.51 4.46Z" fill="#A8A8A8"/>
<path d="M90.8101 3.61L90.2001 3.83L90.51 4.2V3.97001C90.84 4.06001 90.7601 3.79 90.8101 3.61Z" fill="#A8A8A8"/>
<path d="M87.4901 2.27L87.5701 1.81L87.2201 2.46L87.4901 2.27Z" fill="#A8A8A8"/>
<path d="M86.7001 2.32L86.7301 1.93L86.5301 2.17L86.7001 2.32Z" fill="#A8A8A8"/>
<path d="M42.1801 7.24L42 7.34999C42.0664 7.32506 42.1276 7.28774 42.1801 7.24Z" fill="#A8A8A8"/>
<path d="M43.5101 7.25999V7.06999C43.4801 7.17999 43.4601 7.25999 43.5101 7.25999Z" fill="#A8A8A8"/>
<path d="M67.35 2.33001C67.09 1.96001 66.8 1.39001 66.83 1.83001L66.91 2.27002C66.981 2.23543 67.0608 2.22266 67.1391 2.23333C67.2174 2.24401 67.2908 2.27766 67.35 2.33001Z" fill="#A8A8A8"/>
<path d="M54.0901 4.96L54.16 5.09001C54.23 4.94001 54.2901 4.81001 54.3401 4.68001L54.0901 4.96Z" fill="#A8A8A8"/>
<path d="M53.9 6.75999L53.5601 6.47999C53.6585 6.5901 53.7731 6.68452 53.9 6.75999Z" fill="#A8A8A8"/>
<path d="M35.1801 7.7L34.9801 8.14C35.2901 8.14 35.1801 7.91 35.1801 7.7Z" fill="#A8A8A8"/>
<path d="M78.63 2.49C78.4684 2.35535 78.2761 2.26263 78.0701 2.22001C78.3401 2.47001 78.56 2.85 78.63 2.49Z" fill="#A8A8A8"/>
<path d="M42.7302 2.62999C42.683 2.65716 42.6441 2.69665 42.6177 2.74422C42.5913 2.79178 42.5783 2.84563 42.5801 2.90001C42.6901 2.82001 42.7502 2.73999 42.7302 2.62999Z" fill="#A8A8A8"/>
<path d="M77.4301 2.22998L77.55 2.32999C77.7103 2.24708 77.89 2.2091 78.0701 2.22001C77.8701 2.04001 77.6501 1.91998 77.4301 2.22998Z" fill="#A8A8A8"/>
<path d="M9.61014 7.32999C9.61014 7.32999 9.61014 7.33001 9.61014 7.28001C9.61014 7.23001 9.58014 7.32999 9.61014 7.32999Z" fill="#A8A8A8"/>
<path d="M2.18005 2.96C2.27933 2.94302 2.38082 2.94302 2.4801 2.96C2.4801 2.96 2.33005 2.9 2.18005 2.96Z" fill="#A8A8A8"/>
<path d="M83.53 2.14C83.53 2.09 83.7 2.14 83.53 2.14V2.14Z" fill="#A8A8A8"/>
<path d="M84.3501 3.84999C84.3059 3.91121 84.2814 3.98451 84.28 4.06001C84.2846 3.9851 84.3088 3.91268 84.3501 3.84999Z" fill="#A8A8A8"/>
<path d="M75.76 4.93001C75.79 4.99001 75.8 5.01001 75.76 4.93001V4.93001Z" fill="#A8A8A8"/>
<path d="M83.79 2.33C83.7224 2.28036 83.6484 2.24001 83.5701 2.21C83.6381 2.25907 83.712 2.29938 83.79 2.33Z" fill="#A8A8A8"/>
<path d="M83.75 2.12997H83.9C83.92 2.09997 83.9 2.04997 83.75 2.12997Z" fill="#A8A8A8"/>
<path d="M83.3 2.15999C83.393 2.15058 83.4867 2.16795 83.5701 2.21C83.5637 2.18711 83.5637 2.16289 83.5701 2.14L83.3 2.15999Z" fill="#A8A8A8"/>
<path d="M23.31 6.18001C23.11 6.33001 23.18 6.33001 23.31 6.18001V6.18001Z" fill="#A8A8A8"/>
<path d="M62.39 7.2C62.65 6.66 62.8001 6.73001 62.9901 6.84001L62.79 5.59001L62.39 7.2Z" fill="#A8A8A8"/>
<path d="M56.3817 8.05491L56.9929 8.60067C56.2654 9.49624 55.7269 9.18839 56.2943 10C56.3816 8.09691 58.6807 9.80409 58.768 7.901L59.1754 8.30678C59.059 8.30678 59.0444 8.40476 58.928 8.37677C59.7137 9.28633 59.5099 6.97743 60.5285 7.27129C60.8777 7.42521 61.125 7.70508 60.8776 7.92897L61.6634 7.45321C61.7097 7.45321 61.7541 7.47087 61.7868 7.50236C61.8196 7.53385 61.838 7.57658 61.838 7.62112C61.838 7.66565 61.8196 7.70835 61.7868 7.73984C61.7541 7.77133 61.7097 7.78903 61.6634 7.78903L62.8564 7.63513C63.0789 7.29708 63.3321 6.97862 63.6131 6.68355C63.9186 6.94942 63.4531 6.87945 63.5404 7.11734L64.1951 6.65558C64.4716 7.14534 63.9187 7.62114 63.4676 7.55117C64.0787 9.45426 64.0206 7.07537 65.3592 8.18084L64.7335 8.43271C65.1263 9.5102 65.621 9.11838 66.3339 9.83204C66.1593 9.48221 64.879 8.13887 65.6356 7.6631C65.8393 7.80303 66.1011 7.873 66.494 7.49518C66.494 8.16686 66.8724 7.99893 67.3525 7.95695V8.85254C67.8618 8.60066 67.818 8.13887 68.1236 7.74705C68.691 7.83101 68.8221 8.51669 68.953 9.14639C69.8697 9.28632 68.3127 8.04091 69.404 7.87299C70.1606 8.20883 70.699 7.873 71.6156 7.31326C72.154 7.62112 71.5139 7.85901 71.7176 8.11089L72.1831 7.39722C72.2995 7.39722 72.2704 7.63511 72.1831 7.74705C72.5905 7.46719 72.1831 6.85149 72.8524 6.6136C73.0124 5.62007 74.1328 8.01295 74.904 6.93546C75.1077 7.18734 74.8167 7.48118 74.904 7.83101C75.5978 7.43913 76.2056 6.92107 76.6936 6.30574L77.4357 6.89348C76.8973 6.2218 77.5958 5.49412 78.2069 4.76647C78.0032 4.44463 77.8432 4.16476 77.7268 4.02483L78.7161 3.54906C78.8325 3.68899 78.7161 3.99684 78.5706 4.37466L78.7452 4.16477C79.0944 4.48662 78.9198 5.00437 78.7452 5.5641C78.6143 5.38219 78.4979 5.20028 78.3815 5.00438C78.1109 5.52573 77.9713 6.10086 77.974 6.68355C78.0451 6.56473 78.1591 6.47512 78.2943 6.43168C78.2256 6.54583 78.1998 6.67925 78.2214 6.80948C78.2214 6.89344 78.3523 6.69755 78.5124 6.47366L78.7307 7.46717V7.07536L80.0111 7.70508C80.9277 6.69756 81.7135 5.21426 83.1685 4.80845C82.8047 5.5361 83.1684 5.99788 83.0666 6.86547C82.6737 5.9559 81.9463 7.25727 81.1897 7.07536C81.5826 7.17331 81.4951 7.57915 81.4078 7.71908L82.7465 6.89348C82.7465 7.59315 83.023 7.42522 83.3868 7.71908C83.1103 6.31975 84.3761 6.78153 84.929 6.31975C84.929 6.79552 84.8271 7.27126 84.1578 7.15932C84.8999 8.20881 85.1182 5.50811 85.8311 6.41767C85.6711 6.41767 85.5838 6.34774 85.5256 6.58563C85.9039 6.16583 86.8351 6.50164 86.6169 6.90745H86.4423C87.5335 7.07537 89.7452 6.90745 89.9052 5.73201C89.8629 6.29039 89.7901 6.84623 89.6869 7.39722L91.622 3.39515C91.4474 4.41667 92.1023 6.85148 91.2002 7.4392C91.3585 7.56307 91.5561 7.63069 91.7602 7.63069C91.9643 7.63069 92.1621 7.56307 92.3204 7.4392C92.1458 7.29927 91.8839 5.96991 92.1312 5.87196C92.786 7.00541 92.5823 6.48767 93.3971 7.45321C93.1352 7.22931 93.3972 5.63405 93.8337 5.67603C93.848 6.26123 93.8091 6.84652 93.7173 7.42519L94.7503 5.85795C94.503 6.13781 94.7503 7.18734 94.9395 7.63513C94.8376 7.32727 95.8417 7.63509 96.1181 7.50915L95.667 7.14535C96.8456 7.38324 96.831 4.93438 97.9804 5.01834C97.8495 5.34019 97.6458 7.0194 98.2278 7.2153C98.5043 6.40369 99.421 3.33915 100.454 2.70945L100.643 3.17126L101.429 2.65351C100.71 4.31094 99.8384 5.90318 98.8244 7.41123C99.2609 7.77505 98.9407 7.95695 99.5955 7.91497C99.8283 8.33477 99.2317 8.55867 99.0425 8.58666L100.498 8.8665C100.498 7.92895 101.662 7.92898 101.603 7.14535L99.9446 8.11089C99.9446 7.17334 100.905 5.45215 101.982 5.60608C102.258 5.9839 101.778 7.2853 101.807 7.59315C101.938 7.2713 102.826 6.97742 102.927 7.2153L102.477 7.71908C103.073 8.06892 103.451 6.47368 104.179 7.36925C104.426 7.36925 104.921 8.57266 104.965 8.01293C104.555 6.3107 104.481 4.54986 104.746 2.82142C105.346 3.26717 105.88 3.78975 106.332 4.37466C106.754 5.21426 105.721 6.37572 106.07 7.10337C106.117 6.85452 106.232 6.62239 106.405 6.43168C106.667 6.64158 106.303 7.22931 106.871 7.10337C106.958 6.15183 108.02 7.18732 107.132 6.30574C107.7 6.02588 107.729 6.50163 108.384 6.45965C108.373 6.00492 108.471 5.5539 108.67 5.14141C108.87 4.72893 109.165 4.36605 109.533 4.08081C109.522 4.32646 109.572 4.57119 109.679 4.79449C110.828 4.87845 111.439 5.31223 112.501 5.31223C112.603 5.55012 113.113 5.82999 112.894 6.2358C113.04 6.06788 113.185 5.74599 113.52 5.71801C114.146 6.54361 112.778 5.85797 113.273 6.8375C113.273 6.29176 114.117 6.08185 114.582 5.73201C114.437 4.87842 113.505 5.5641 113.04 5.91393C113.058 5.30026 113.246 4.70233 113.584 4.18117C113.921 3.66 114.396 3.23426 114.96 2.94736C115.848 2.6535 115.339 3.71698 115.499 3.54906C117.158 3.74497 116.954 1.47806 118.292 2.33165C118.831 3.08729 118.292 3.82892 118.438 4.37466C117.71 4.65453 117.332 3.89888 116.837 3.92686L117.434 4.2767C117.216 4.52858 116.736 4.72449 116.474 4.5006C116.925 5.18627 119.267 4.64054 120.548 5.25625C120.78 5.00437 121.173 4.73851 120.984 4.44465L120.577 4.54257C120.213 3.94086 121.348 3.70299 120.839 3.42313C121.377 3.00333 121.988 2.33164 122.745 2.66747L122.89 3.53505C122.89 3.28317 122.396 3.01731 122.177 3.28318C122.497 2.90536 123.356 4.44463 123.632 3.28318L123.094 2.69549C123.647 2.2617 124.316 1.29613 125 1.61798C124.68 0.778378 124.84 1.71592 124.36 0.736391C124.767 1.9678 122.614 0.736398 123.298 1.96781C122.803 0.820358 122.439 1.49205 121.843 0.498529C121.843 0.792388 122.075 1.04428 121.508 0.904347C121.476 0.993518 121.432 1.07821 121.377 1.15622C121.505 1.27395 121.604 1.41725 121.668 1.576C121.377 2.23368 120.475 2.2057 120.213 2.54154C119.878 2.4156 120.359 2.21969 120.213 1.92583L119.747 2.42961C119.747 1.79991 118.86 1.38011 119.646 1.03028H118.933C118.768 0.849479 118.545 0.72753 118.299 0.684335C118.054 0.641139 117.8 0.679222 117.58 0.792376C117.245 0.666437 116.721 1.49203 117.012 1.00227L115.892 1.39408V1.24017C114.786 1.15621 113.622 2.27567 112.356 1.14221C112.139 1.26653 111.898 1.34572 111.647 1.37465C111.396 1.40357 111.142 1.38158 110.901 1.31012L110.785 0.764405C110.304 0.960311 109.33 0.232659 109.14 0.764405C108.631 -0.704893 106.812 0.442554 105.968 0.190674V0.89034C105.326 0.906895 104.695 1.05981 104.121 1.33814V1.96781C103.495 2.48556 102.52 1.52004 101.531 1.59001C101.531 1.35212 101.851 1.40809 102.025 1.59001C100.861 0.190674 99.5518 2.61152 98.4896 1.59001C98.4515 1.63658 98.403 1.67421 98.3475 1.7001C98.2921 1.72598 98.2312 1.73943 98.1696 1.73943C98.1079 1.73943 98.0472 1.72598 97.9918 1.7001C97.9363 1.67421 97.8876 1.63658 97.8495 1.59001H97.7477C97.6337 1.47102 97.5123 1.35887 97.384 1.25418C97.4635 1.38328 97.567 1.49712 97.6895 1.59001C97.4037 1.62318 97.127 1.70867 96.8746 1.84187L96.7437 1.17018C96.4381 0.918301 96.4964 1.49206 96.6565 1.99582C96.5038 2.10997 96.3711 2.24695 96.2636 2.4016C96.0163 1.31012 95.4633 2.76546 95.1286 1.60401C94.9249 2.17774 93.6736 2.03777 93.4408 3.2272C93.4408 3.07327 93.3389 3.00333 93.4408 2.98934C93.0916 2.8494 92.757 2.70947 92.4515 2.98934L92.3058 2.13572L91.5639 3.29719C91.1129 2.76545 90.9383 2.47158 91.3748 1.7999C90.2981 2.82141 90.5016 2.19171 89.585 3.19923V2.6395C89.2649 2.6395 88.7411 3.40914 88.5374 2.94736C87.8099 1.89786 84.9144 2.79344 83.0374 1.8139C83.4012 3.45112 82.1646 1.08623 82.0772 2.35962C81.9754 1.96781 81.7135 1.74392 82.0772 1.40809C81.1169 1.7999 80.6221 0.806354 79.9674 1.86985C79.8655 1.47803 80.1712 1.31015 80.0839 1.07226C79.9966 1.15622 79.7783 1.40808 79.6764 1.18419C79.5746 0.960294 79.8073 0.862333 79.9674 0.694413C78.978 0.694413 78.8908 1.93982 78.818 3.05929C78.3233 2.52754 78.076 2.59752 77.7122 3.33917C77.5376 2.97534 77.2466 2.58352 77.8577 2.45758C77.5085 2.45758 75.7625 1.92585 75.7334 2.82142C75.617 2.58354 75.2533 2.82142 75.1659 2.82142C74.6344 2.75876 74.097 2.75876 73.5655 2.82142L73.7836 2.96132C73.478 4.03881 73.1434 3.19924 72.5469 3.33917V3.2272C71.0919 2.44357 71.9358 3.59103 70.5681 2.70945V3.38115C70.4371 4.78048 69.3458 2.52757 68.5456 3.0873L68.8367 3.4651C68.4002 3.95487 67.6145 1.50604 67.178 1.32413C67.0761 1.19819 67.3234 1.11424 67.4543 1.03028C66.3049 0.176689 67.3089 1.91184 66.4504 2.10775C66.2904 1.63198 66.6541 0.904307 66.0867 0.820348C65.7957 0.428535 64.4133 2.35963 63.6276 1.45006C63.8022 1.81389 63.9768 2.17772 63.6276 2.45758C63.2784 2.73745 61.9835 1.05823 61.4306 2.21968C61.3674 2.13875 61.3319 2.04101 61.3288 1.93984C60.8632 2.2337 59.8738 2.42959 59.5392 3.05929C59.1026 0.736396 56.6291 4.17878 56.6291 2.0378L55.1741 2.16374V1.93984C54.272 1.7999 53.9373 2.30367 53.6172 2.82142C53.4135 2.68149 53.6172 2.47157 53.6172 2.35962C52.2931 1.93982 52.1621 2.02381 51.0272 3.0873L50.9109 2.4016C50.6053 2.8074 48.9757 1.31015 47.6662 2.12176C47.6796 2.00691 47.7305 1.89912 47.8117 1.8139C46.3567 2.62552 44.2761 -0.117184 43.7378 2.41561L42.7628 3.03131C44.0287 3.22722 42.5737 4.12277 43.0975 4.54257C42.6028 4.6965 41.8171 3.78693 42.4282 3.66099L42.5154 3.78697C42.7482 2.47159 40.9586 3.31119 41.0604 2.38763C38.5869 2.38763 36.1716 1.72994 33.7854 1.67396L34.0473 2.69549H33.247C33.0288 2.4576 32.9561 1.89786 33.5381 1.93984C33.2326 1.35212 32.5632 2.41561 32.5486 2.6395C31.4137 2.2337 32.9852 1.45008 32.636 1.42209L32.1703 1.50605L32.2723 1.61798C31.894 2.03778 31.8648 2.48559 31.1664 2.42961C30.7299 2.21971 30.9482 1.7999 30.7736 1.75792C30.599 1.71594 30.7735 1.65997 30.497 1.75792L29.4786 1.67396L29.886 2.48555C29.435 2.87737 28.9256 2.48559 29.4058 3.35318C28.7074 1.95385 25.5938 2.84938 25.1718 2.4016C24.9031 2.64296 24.5763 2.81657 24.2209 2.90692C23.8654 2.99726 23.4923 3.00153 23.1348 2.91934C23.3239 3.08726 23.4403 3.99683 22.771 3.88489C23.0184 2.00978 21.5487 3.07329 21.0103 1.71594C21.4905 2.61151 19.1189 1.93984 19.8755 3.21323C19.3081 3.05931 19.8754 2.51356 19.4098 2.06577C18.0858 2.79343 16.4998 1.58999 14.8411 1.84187C14.8411 2.07976 15.1031 2.4576 14.7393 2.82142L13.8809 1.60401C13.5608 1.71596 13.5754 3.00333 12.9934 2.16374C12.9934 2.37364 13.1971 2.68148 12.9934 2.76544C9.7778 1.56201 6.43126 3.74497 3.15749 1.49204C3.60854 1.96781 3.31753 2.00981 2.96833 2.0378C3.18658 2.14975 2.96833 2.63949 2.96833 2.97533L1.60053 2.05177C1.35318 2.97532 0.145555 2.05178 5.37109e-05 2.98934L0.422064 2.83539C-0.145391 3.88489 1.23687 5.15831 1.14957 6.50167C1.78977 5.31224 2.85195 8.25084 3.89956 6.50167C4.13236 6.78154 3.71041 6.93546 3.89956 7.24332C4.17601 6.66959 4.49604 6.54361 5.09259 6.80948V6.94943C6.7804 6.80949 7.50791 7.36923 9.45762 7.74705L9.31216 7.08937C9.71956 7.17333 9.80682 7.38325 9.99597 7.55117C10.4616 6.54365 8.86107 7.55115 9.28303 6.3897C9.82138 7.78903 12.193 6.38972 12.5131 7.94298C13.1388 7.94298 12.3386 7.17334 12.9642 7.18733L13.1243 7.59315L13.2843 7.0614C13.6917 7.14536 13.8955 7.66311 13.91 8.02694C13.8082 8.02694 13.6336 8.12489 13.5172 8.15287C14.0555 8.64264 14.972 7.98495 15.2048 8.15287L14.6084 7.901C16.3108 7.50919 18.3914 8.0549 20.0501 7.2153L19.9191 6.90745C21.1849 6.31973 20.9376 7.24331 22.3199 6.97744C22.444 6.83158 22.6024 6.71618 22.782 6.64076C22.9616 6.56534 23.1574 6.53206 23.353 6.54365C23.0038 6.90748 24.0078 7.25729 23.5422 7.6631C24.9099 7.04739 24.226 7.17334 25.1281 6.0119L25.3318 6.52964C25.6374 6.06786 25.6664 5.81596 26.3503 5.67603C25.7828 6.12381 26.8013 6.47365 26.1611 7.07536C27.6161 8.20882 28.3146 5.92794 28.9839 7.59315C29.6387 6.19382 27.7181 6.79552 28.0964 6.48766C27.7908 6.01189 28.6492 5.41016 29.1003 5.55009C29.5513 5.69003 29.8859 7.39724 31.0499 7.36925C30.9335 7.36925 30.9337 7.46717 30.8173 7.46717C31.2538 7.831 31.6757 6.96342 32.2723 7.56513C32.5778 6.69755 32.9706 7.56516 33.0578 6.50167L31.9957 6.75354C32.5923 6.47367 33.1597 5.17231 34.1637 5.80201C34.0211 6.06683 33.8229 6.3003 33.5816 6.48766C33.8726 6.80951 34.1492 6.26375 34.4402 6.59959C34.3529 7.70506 33.1451 6.83748 32.5049 7.69107C32.8105 8.15285 33.7271 6.87946 33.407 8.08288C33.8726 6.55761 34.5421 8.27878 35.3423 7.11734V7.77503C35.4733 7.67707 35.7205 7.35526 35.9533 7.36925L35.546 8.23683C36.1717 7.49518 36.7681 8.8805 37.3792 8.47469C36.0988 8.47469 37.1028 7.67711 36.5499 7.20134C38.1359 6.30577 37.4665 8.93651 39.2271 8.60067C38.9943 8.69862 38.3395 8.19485 38.7033 7.887C39.1055 8.0288 39.4516 8.28814 39.6928 8.62864C40.8713 8.48871 39.5181 7.94297 40.0128 7.53716C40.4202 8.34877 40.5948 7.2153 41.1041 6.94943V7.63513C42.4282 8.05493 41.4532 6.23577 42.6609 6.73953L42.1517 7.6771L42.7774 7.4392L42.6465 8.20881C43.3303 7.63509 43.534 7.78902 44.2033 7.99892C44.0578 7.52315 44.2905 6.78153 44.8871 6.75354C45.2945 7.15935 44.6689 7.39721 45.4983 7.29926C45.3091 7.71906 45.1054 8.25083 44.7416 7.63513C44.7416 7.84503 44.5524 8.0549 44.5088 8.2648C44.9453 8.72658 45.6 8.37676 45.9638 8.36276C45.9023 8.35947 45.8423 8.3441 45.7872 8.31763C45.7322 8.29115 45.6833 8.25412 45.6437 8.20881L46.8513 7.27129C47.055 7.52317 46.8514 7.73307 46.7495 7.92897C46.9969 7.85901 47.157 7.55116 47.5207 7.49518C47.4334 8.04092 47.448 8.60066 46.9387 8.89452L48.1028 8.27881C48.1028 8.51669 48.6992 8.93649 48.5392 9.14639C49.1939 9.46823 50.1252 8.0829 50.9691 8.5027C51.0327 8.36891 51.1472 8.26368 51.2892 8.20881C52.0894 8.33475 52.7441 9.00643 53.7481 8.20881L54.2866 9.18836C55.0286 8.96447 53.559 7.94297 54.7958 7.57914C55.6688 7.27129 55.1304 8.41875 55.4359 8.68462C55.8724 8.19486 56.629 7.18734 57.4293 7.98496C56.7745 8.16687 56.5563 8.05491 56.3817 8.05491ZM65.5483 7.62112C65.3737 7.76105 65.0244 8.19485 64.8935 7.80304C65.0244 7.07539 65.1845 7.4392 65.4755 7.6631L65.5483 7.62112ZM79.4873 5.99789C79.3563 6.22178 79.1526 6.10983 78.9344 5.85795C79.0238 5.84717 79.1148 5.85819 79.1987 5.88998C79.2826 5.92176 79.3567 5.9733 79.4145 6.03987L79.4873 5.99789ZM118.321 1.29616C117.841 1.05827 117.972 1.2122 118.249 1.33814L118.321 1.29616ZM119.151 1.59001C119.175 1.54703 119.188 1.49893 119.188 1.45006C119.188 1.4012 119.175 1.35309 119.151 1.31012C119.151 1.47804 118.903 1.49203 118.7 1.43606C118.729 1.65995 118.831 1.78591 119.078 1.63198L119.151 1.59001ZM30.759 1.85588L30.919 2.0378C30.4971 2.26169 30.5989 2.09377 30.6862 1.89786L30.759 1.85588Z" fill="#A8A8A8"/>
<path d="M53.9301 6.55C53.9104 6.46445 53.9104 6.37554 53.9301 6.28999C53.897 6.32521 53.8787 6.3717 53.8787 6.42C53.8787 6.46829 53.897 6.51478 53.9301 6.55Z" fill="#A8A8A8"/>
<path d="M35.1801 7.62001C35.1801 7.62001 35.1801 7.68 35.1801 7.71V7.62001Z" fill="#A8A8A8"/>
<path d="M73.51 6.83C73.4084 6.77358 73.3278 6.68591 73.28 6.58C73.28 6.7 73.33 6.8 73.51 6.83Z" fill="#A8A8A8"/>
<path d="M85.27 1.92L84.9 2.05C85.08 2.05 85.1401 2.13 85.2301 2.2C85.1801 2.09 85.18 1.93 85.27 1.92Z" fill="#A8A8A8"/>
<path d="M88.41 4.90001C88.41 4.85001 88.5201 4.90001 88.5701 4.84001V4.61C88.3301 4.63 88.18 4.81001 88.41 4.90001Z" fill="#A8A8A8"/>
<path d="M85.6001 3.51999C85.6001 3.92999 85.8601 3.79 86.1101 3.72C86.1801 3.15 85.8701 3.32999 85.6001 3.51999Z" fill="#A8A8A8"/>
<path d="M86.1801 3.70001C86.2554 3.68009 86.3347 3.68009 86.41 3.70001C86.43 3.46001 86.3101 3.64001 86.1801 3.70001Z" fill="#A8A8A8"/>
<path d="M82.9902 2.47003C83.1102 2.57003 83.0601 1.95002 83.1301 2.12002C83.2601 1.60002 82.3302 2.74003 82.9902 2.47003Z" fill="#A8A8A8"/>
<path d="M85.8001 4.86L85.7101 4.35L85.5701 4.76L85.8001 4.86Z" fill="#A8A8A8"/>
<path d="M83.8001 4.49001L84.2101 4.62999C84.2101 4.54999 84.2101 4.50001 84.3201 4.46001C84.0701 4.44001 83.7901 4.33001 83.8001 4.49001Z" fill="#A8A8A8"/>
<path d="M84.3201 4.46001C84.376 4.47233 84.434 4.47151 84.4895 4.45762C84.545 4.44374 84.5965 4.41716 84.64 4.37999C84.5285 4.38116 84.419 4.40859 84.3201 4.46001Z" fill="#A8A8A8"/>
<path d="M85.2501 5.01L85.1301 4.9L84.84 4.87L85.2501 5.01Z" fill="#A8A8A8"/>
<path d="M79.4401 4.40001L79 4.53999C79 4.70999 79.0801 4.82001 79.2401 4.75001C79.4001 4.68001 79.5101 4.56001 79.4401 4.40001Z" fill="#A8A8A8"/>
<path d="M80.78 5.77C80.6836 5.66278 80.618 5.53147 80.5901 5.39V6.00999L80.78 5.77Z" fill="#A8A8A8"/>
<path d="M79.4901 5.90999C79.4901 6.07999 78.85 6.41001 79.41 6.37001C79.45 6.20001 79.9001 6.04999 79.4901 5.90999Z" fill="#A8A8A8"/>
<path d="M72.8201 5.12H72.9301L72.9201 4.1L72.8201 5.12Z" fill="#A8A8A8"/>
<path d="M66.9401 7.56001C67.4701 7.81001 67.0701 6.93 67.5401 7.24C67.6701 7 67.1501 6.99001 67.2801 6.78001C66.9601 7.04001 66.8001 6.89001 66.9401 7.56001Z" fill="#A8A8A8"/>
<path d="M67.2801 6.78001C67.3383 6.73547 67.3919 6.68519 67.4401 6.62999C67.3778 6.66955 67.3236 6.72045 67.2801 6.78001Z" fill="#A8A8A8"/>
<path d="M0.930054 2.41L0.590054 2.2L0.810054 2.54L0.930054 2.41Z" fill="#A8A8A8"/>
<path d="M0.290039 3.17L0.210083 2.52L0 3.11C0.08 3.08 0.230039 3.02 0.290039 3.17Z" fill="#A8A8A8"/>
<path d="M46.37 8.33V8.17C46.37 8 46.2401 7.99001 46.0801 7.96L46.37 8.33Z" fill="#A8A8A8"/>
<path d="M41.7901 7.87L41.8701 7.88L41.7301 7.29L41.7901 7.87Z" fill="#A8A8A8"/>
<path d="M37.9601 8.62002C38.1201 8.62002 38.3001 8.51 38.4601 8.54C38.1201 8.65 37.9201 7.89002 37.9601 8.62002Z" fill="#A8A8A8"/>
</svg>
