<?xml version="1.0" encoding="UTF-8"?>
<svg id="Livello_1" data-name="Livello 1" xmlns="http://www.w3.org/2000/svg" version="1.1" viewBox="0 0 800 800">
  <defs>
    <style>
      .cls-1 {
        fill: #fff;
        stroke-width: 0px;
      }
    </style>
  </defs>
  <path class="cls-1" d="M528.4,299.4h-152.9V0h152.9C610.9,0,678.1,67.1,678.1,149.7s-67.1,149.7-149.7,149.7h0ZM424.5,250.3h103.9c55.5,0,100.6-45.2,100.6-100.6s-45.2-100.6-100.6-100.6h-103.9v201.3h0ZM424.5,299.4h-152.9c-82.5,0-149.7-67.1-149.7-149.7S189.1,0,271.6,0h152.9v299.4h0ZM271.6,49c-55.5,0-100.6,45.2-100.6,100.6s45.1,100.7,100.6,100.7h103.9V49s-103.9,0-103.9,0ZM424.5,549.7h-152.9c-82.5,0-149.7-67.1-149.7-149.7s67.1-149.7,149.7-149.7h152.9v299.3h0ZM271.6,299.4c-55.5,0-100.6,45.2-100.6,100.6s45.2,100.6,100.6,100.6h103.9v-201.3h-103.9ZM272.4,800c-83,0-150.5-67.1-150.5-149.7s67.1-149.7,149.7-149.7h152.9v148c0,83.4-68.2,151.3-152.1,151.3h0ZM271.6,549.7c-55.5,0-100.6,45.1-100.6,100.6,0,55.5,45.5,100.6,101.5,100.6s103.1-45.9,103.1-102.3v-99h-103.9ZM528.4,549.7h-3.3c-82.5,0-149.7-67.1-149.7-149.7s67.1-149.7,149.7-149.7h3.3c82.5,0,149.7,67.1,149.7,149.7s-67.1,149.7-149.7,149.7ZM525.2,299.4c-55.5,0-100.6,45.2-100.6,100.6s45.2,100.6,100.6,100.6h3.3c55.5,0,100.6-45.2,100.6-100.6s-45.2-100.6-100.6-100.6h-3.3,0Z"/>
</svg>