<svg width="15" height="15" viewBox="0 0 15 15" fill="none" xmlns="http://www.w3.org/2000/svg">
<path d="M7.45457 3.63116C9.48298 3.63116 11.1572 5.3054 11.1572 7.33381C11.1572 9.39441 9.48298 11.0365 7.45457 11.0365C5.39397 11.0365 3.75192 9.39441 3.75192 7.33381C3.75192 5.3054 5.39397 3.63116 7.45457 3.63116ZM7.45457 9.74858C8.77465 9.74858 9.83715 8.68608 9.83715 7.33381C9.83715 6.01373 8.77465 4.95123 7.45457 4.95123C6.1023 4.95123 5.0398 6.01373 5.0398 7.33381C5.0398 8.68608 6.1345 9.74858 7.45457 9.74858ZM12.1553 3.50237C12.1553 3.98532 11.769 4.37169 11.286 4.37169C10.8031 4.37169 10.4167 3.98532 10.4167 3.50237C10.4167 3.01941 10.8031 2.63305 11.286 2.63305C11.769 2.63305 12.1553 3.01941 12.1553 3.50237ZM14.6023 4.37169C14.6667 5.56297 14.6667 9.13684 14.6023 10.3281C14.5379 11.4872 14.2803 12.4853 13.4432 13.3546C12.6061 14.1918 11.5758 14.4493 10.4167 14.5137C9.22541 14.5781 5.65154 14.5781 4.46026 14.5137C3.30117 14.4493 2.30306 14.1918 1.43374 13.3546C0.59662 12.4853 0.339044 11.4872 0.274651 10.3281C0.210257 9.13684 0.210257 5.56297 0.274651 4.37169C0.339044 3.21259 0.59662 2.18229 1.43374 1.34517C2.30306 0.50805 3.30117 0.250474 4.46026 0.18608C5.65154 0.121686 9.22541 0.121686 10.4167 0.18608C11.5758 0.250474 12.6061 0.50805 13.4432 1.34517C14.2803 2.18229 14.5379 3.21259 14.6023 4.37169ZM13.0568 11.5838C13.4432 10.6501 13.3466 8.39631 13.3466 7.33381C13.3466 6.3035 13.4432 4.04972 13.0568 3.08381C12.7993 2.47206 12.3163 1.95691 11.7046 1.73153C10.7387 1.34517 8.48488 1.44176 7.45457 1.44176C6.39207 1.44176 4.13829 1.34517 3.20457 1.73153C2.56064 1.98911 2.07768 2.47206 1.82011 3.08381C1.43374 4.04972 1.53033 6.3035 1.53033 7.33381C1.53033 8.39631 1.43374 10.6501 1.82011 11.5838C2.07768 12.2277 2.56064 12.7107 3.20457 12.9683C4.13829 13.3546 6.39207 13.258 7.45457 13.258C8.48488 13.258 10.7387 13.3546 11.7046 12.9683C12.3163 12.7107 12.8315 12.2277 13.0568 11.5838Z" fill="#EAEAEA"/>
</svg>
