<svg width="15" height="15" viewBox="0 0 15 15" fill="none" xmlns="http://www.w3.org/2000/svg">
<path d="M3.46215 14.7305H0.467832V5.10358H3.46215V14.7305ZM1.94889 3.8157C1.01518 3.8157 0.242454 3.01077 0.242454 2.04486C0.242454 1.11115 1.01518 0.338424 1.94889 0.338424C2.9148 0.338424 3.68753 1.11115 3.68753 2.04486C3.68753 3.01077 2.9148 3.8157 1.94889 3.8157ZM14.6345 14.7305H11.6724V10.0619C11.6724 8.93501 11.6402 7.51835 10.0947 7.51835C8.54927 7.51835 8.32389 8.70964 8.32389 9.96532V14.7305H5.32957V5.10358H8.1951V6.42365H8.2273C8.64586 5.68312 9.61177 4.8782 11.0606 4.8782C14.0872 4.8782 14.6667 6.87441 14.6667 9.45017V14.7305H14.6345Z" fill="#EAEAEA"/>
</svg>
