<svg width="34" height="34" viewBox="0 0 34 34" fill="none" xmlns="http://www.w3.org/2000/svg">
<rect x="0.939453" y="0.730469" width="32.9697" height="32.9697" rx="6" fill="#464646"/>
<path d="M17.4243 13.846C19.4527 13.846 21.127 15.5202 21.127 17.5487C21.127 19.6093 19.4527 21.2513 17.4243 21.2513C15.3637 21.2513 13.7216 19.6093 13.7216 17.5487C13.7216 15.5202 15.3637 13.846 17.4243 13.846ZM17.4243 19.9634C18.7444 19.9634 19.8069 18.9009 19.8069 17.5487C19.8069 16.2286 18.7444 15.1661 17.4243 15.1661C16.072 15.1661 15.0095 16.2286 15.0095 17.5487C15.0095 18.9009 16.1042 19.9634 17.4243 19.9634ZM22.1251 13.7172C22.1251 14.2002 21.7387 14.5865 21.2557 14.5865C20.7728 14.5865 20.3864 14.2002 20.3864 13.7172C20.3864 13.2343 20.7728 12.8479 21.2557 12.8479C21.7387 12.8479 22.1251 13.2343 22.1251 13.7172ZM24.572 14.5865C24.6364 15.7778 24.6364 19.3517 24.572 20.543C24.5076 21.7021 24.2501 22.7002 23.4129 23.5695C22.5758 24.4066 21.5455 24.6642 20.3864 24.7286C19.1951 24.793 15.6213 24.793 14.43 24.7286C13.2709 24.6642 12.2728 24.4066 11.4035 23.5695C10.5663 22.7002 10.3088 21.7021 10.2444 20.543C10.18 19.3517 10.18 15.7778 10.2444 14.5865C10.3088 13.4274 10.5663 12.3971 11.4035 11.56C12.2728 10.7229 13.2709 10.4653 14.43 10.4009C15.6213 10.3365 19.1951 10.3365 20.3864 10.4009C21.5455 10.4653 22.5758 10.7229 23.4129 11.56C24.2501 12.3971 24.5076 13.4274 24.572 14.5865ZM23.0266 21.7987C23.4129 20.8649 23.3163 18.6112 23.3163 17.5487C23.3163 16.5183 23.4129 14.2646 23.0266 13.2987C22.769 12.6869 22.286 12.1718 21.6743 11.9464C20.7084 11.56 18.4546 11.6566 17.4243 11.6566C16.3618 11.6566 14.108 11.56 13.1743 11.9464C12.5304 12.204 12.0474 12.6869 11.7898 13.2987C11.4035 14.2646 11.5001 16.5183 11.5001 17.5487C11.5001 18.6112 11.4035 20.8649 11.7898 21.7987C12.0474 22.4426 12.5304 22.9255 13.1743 23.1831C14.108 23.5695 16.3618 23.4729 17.4243 23.4729C18.4546 23.4729 20.7084 23.5695 21.6743 23.1831C22.286 22.9255 22.8012 22.4426 23.0266 21.7987Z" fill="white"/>
</svg>
