<svg width="34" height="34" viewBox="0 0 34 34" fill="none" xmlns="http://www.w3.org/2000/svg">
<rect x="0.969727" y="0.730469" width="32.9697" height="32.9697" rx="6" fill="#464646"/>
<path d="M13.4622 23.7305H10.4678V14.1036H13.4622V23.7305ZM11.9489 12.8157C11.0152 12.8157 10.2425 12.0108 10.2425 11.0449C10.2425 10.1112 11.0152 9.33842 11.9489 9.33842C12.9148 9.33842 13.6875 10.1112 13.6875 11.0449C13.6875 12.0108 12.9148 12.8157 11.9489 12.8157ZM24.6345 23.7305H21.6724V19.0619C21.6724 17.935 21.6402 16.5183 20.0947 16.5183C18.5493 16.5183 18.3239 17.7096 18.3239 18.9653V23.7305H15.3296V14.1036H18.1951V15.4237H18.2273C18.6459 14.6831 19.6118 13.8782 21.0606 13.8782C24.0872 13.8782 24.6667 15.8744 24.6667 18.4502V23.7305H24.6345Z" fill="white"/>
</svg>
