<?xml version="1.0" encoding="UTF-8"?><svg id="Livello_2" xmlns="http://www.w3.org/2000/svg" viewBox="0 0 31 19.96"><defs><style>.cls-1{fill:#eaeaea;stroke-width:0px;}</style></defs><g id="Livello_1-2"><path class="cls-1" d="M27.67.04H3.33C1.49.04,0,1.52,0,3.36v13.27c0,1.84,1.49,3.33,3.33,3.33h24.35c1.84,0,3.33-1.49,3.33-3.33V3.33c0-1.84-1.49-3.33-3.33-3.33v.04ZM2.23,16.63V3.64l7.04,5.59-6.94,7.79c-.07-.14-.11-.28-.11-.42h0v.04ZM16.21,10.83c-.42.32-1.03.32-1.45,0L3.96,2.23h23l-10.79,8.6h.04ZM10.97,10.65l2.41,1.91c1.24.96,2.97.96,4.21,0l2.41-1.91,6.3,7.08H4.71l6.3-7.08h-.04ZM21.73,9.27l7.04-5.59v12.95c0,.14,0,.32-.11.42l-6.94-7.79Z"/></g></svg>