<?xml version="1.0" encoding="UTF-8"?>
<svg id="Livello_1" data-name="Livello 1" xmlns="http://www.w3.org/2000/svg" version="1.1" viewBox="0 0 110 90">
  <defs>
    <style>
      .cls-1 {
        fill: #eaeaea;
        stroke-width: 0px;
      }
    </style>
  </defs>
  <path class="cls-1" d="M89.4,18.9H20.6c-5.2,0-9.4,4.2-9.4,9.4v37.5c0,5.2,4.2,9.4,9.4,9.4h68.8c5.2,0,9.4-4.2,9.4-9.4V28.2c0-5.2-4.2-9.4-9.4-9.4ZM17.5,65.8V29.1l19.9,15.8-19.6,22c-.2-.4-.3-.8-.3-1.2h0ZM57,49.4c-1.2.9-2.9.9-4.1,0l-30.5-24.3h65l-30.5,24.3ZM42.2,48.9l6.8,5.4c3.5,2.7,8.4,2.7,11.9,0l6.8-5.4,17.8,20H24.5l17.8-20ZM72.6,45l19.9-15.8v36.6c0,.4,0,.9-.3,1.2l-19.6-22Z"/>
</svg>