<svg width="39" height="39" viewBox="0 0 39 39" fill="none" xmlns="http://www.w3.org/2000/svg">
<path d="M27.0765 20.4904C26.8492 20.4904 26.6312 20.5815 26.4704 20.7436C26.3097 20.9057 26.2194 21.1255 26.2194 21.3548C26.2194 21.584 26.3097 21.8038 26.4704 21.9659C26.6312 22.128 26.8492 22.2191 27.0765 22.2191C27.3038 22.2191 27.5218 22.128 27.6825 21.9659C27.8433 21.8038 27.9336 21.584 27.9336 21.3548C27.9336 21.1255 27.8433 20.9057 27.6825 20.7436C27.5218 20.5815 27.3038 20.4904 27.0765 20.4904ZM18.9846 14.1605C18.7617 14.1671 18.5501 14.2611 18.3948 14.4225C18.2395 14.5839 18.1527 14.7999 18.1527 15.0248C18.1527 15.2541 18.243 15.4739 18.4038 15.636C18.5645 15.7981 18.7825 15.8892 19.0098 15.8892C19.2371 15.8892 19.4551 15.7981 19.6159 15.636C19.7766 15.4739 19.8669 15.2541 19.8669 15.0248C19.867 14.9092 19.844 14.7947 19.7993 14.6881C19.7547 14.5815 19.6893 14.4851 19.607 14.4045C19.5248 14.3239 19.4273 14.2608 19.3204 14.2189C19.2134 14.177 19.0993 14.1571 18.9846 14.1605ZM35.1179 12.2539C34.895 12.2605 34.6834 12.3545 34.5281 12.5159C34.3728 12.6773 34.286 12.8933 34.2861 13.1182C34.2861 13.3475 34.3764 13.5673 34.5371 13.7294C34.6978 13.8915 34.9158 13.9826 35.1431 13.9826C35.3481 13.9728 35.5433 13.8914 35.6951 13.7522C35.8469 13.613 35.9459 13.4248 35.975 13.2199C35.9893 13.0982 35.9778 12.9748 35.9412 12.8579C35.9045 12.741 35.8437 12.6333 35.7626 12.5419C35.6815 12.4505 35.5821 12.3776 35.471 12.3279C35.3598 12.2783 35.2395 12.2531 35.1179 12.2539Z" fill="white"/>
<path d="M31.3871 8.13566C31.4486 8.30165 31.4466 8.48484 31.3813 8.64939C31.3161 8.81394 31.1923 8.94802 31.0342 9.0254C30.2344 9.37947 29.5178 9.89992 28.9313 10.5527C28.3449 11.2054 27.9018 11.9757 27.631 12.8132C27.5994 12.9147 27.5439 13.007 27.4693 13.0822C27.3947 13.1575 27.3032 13.2134 27.2025 13.2454C27.12 13.2768 27.0318 13.2904 26.9438 13.2853C26.8557 13.2802 26.7697 13.2565 26.6913 13.2158C26.6129 13.175 26.5438 13.1181 26.4886 13.0488C26.4334 12.9795 26.3932 12.8992 26.3706 12.8132C26.0852 11.9997 25.6385 11.2533 25.0578 10.6196C24.477 9.98589 23.7744 9.47806 22.9927 9.12709C22.8407 9.04906 22.7172 8.92446 22.6398 8.77119C22.6067 8.69107 22.5896 8.60516 22.5894 8.51836C22.5892 8.43156 22.606 8.34558 22.6388 8.26532C22.6715 8.18506 22.7196 8.11209 22.7804 8.05059C22.8411 7.98909 22.9133 7.94025 22.9927 7.90686C23.7852 7.53921 24.4941 7.0109 25.0753 6.35486C25.6564 5.69881 26.0974 4.92909 26.3706 4.09366C26.4169 3.96168 26.502 3.84712 26.6147 3.76533C26.7273 3.68355 26.8621 3.63844 27.0008 3.63607C27.1415 3.63043 27.2799 3.67242 27.3941 3.75535C27.5083 3.83828 27.5917 3.95738 27.631 4.09366C27.9116 4.93368 28.364 5.7049 28.9589 6.3574C29.5539 7.0099 30.278 7.52912 31.0846 7.88144C31.2047 7.93968 31.3086 8.02702 31.3871 8.13566Z" fill="white"/>
<path d="M39 20.1345C38.849 25.1991 36.7438 30.0042 33.1327 33.5272C29.5216 37.0502 24.6896 39.0127 19.6652 38.9972C14.5373 39.0848 9.58495 37.1146 5.89752 33.52C2.2101 29.9254 0.089694 25.0007 0.00278053 19.8295C-0.084133 14.6582 1.86956 9.66399 5.43407 5.94539C8.99859 2.22679 13.8819 0.0884667 19.0098 0.000818475C19.1374 -0.00546946 19.2642 0.0245723 19.3756 0.0875091C19.4871 0.150446 19.5787 0.243737 19.64 0.356718C19.721 0.515648 19.7374 0.700172 19.6856 0.871068C19.6338 1.04196 19.518 1.18576 19.3627 1.27189C18.1064 1.90748 16.9578 2.73975 15.9596 3.73776C14.0579 5.66103 12.7634 8.1091 12.2395 10.7733C11.7155 13.4374 11.9855 16.1984 13.0155 18.708C14.0454 21.2176 15.7892 23.3635 18.0269 24.8751C20.2645 26.3867 22.8959 27.1962 25.5892 27.2017C29.2068 27.1995 32.677 25.7558 35.244 23.1851C36.2562 22.1995 37.107 21.0584 37.7648 19.8041C37.8242 19.695 37.9118 19.6043 38.0184 19.5416C38.125 19.4789 38.2464 19.4466 38.3698 19.4482C38.5414 19.461 38.7019 19.539 38.8188 19.6663C38.9357 19.7937 39.0005 19.961 39 20.1345Z" fill="white"/>
<path d="M18.9846 14.1605C18.7617 14.1671 18.5501 14.2611 18.3948 14.4225C18.2395 14.5839 18.1527 14.7999 18.1527 15.0248C18.1527 15.2541 18.243 15.4739 18.4038 15.636C18.5645 15.7981 18.7825 15.8892 19.0098 15.8892C19.2371 15.8892 19.4551 15.7981 19.6159 15.636C19.7766 15.4739 19.8669 15.2541 19.8669 15.0248C19.867 14.9092 19.844 14.7947 19.7993 14.6881C19.7547 14.5815 19.6893 14.4851 19.607 14.4045C19.5248 14.3239 19.4273 14.2608 19.3204 14.2189C19.2134 14.177 19.0993 14.1571 18.9846 14.1605ZM27.0765 20.4904C26.8492 20.4904 26.6312 20.5815 26.4704 20.7436C26.3097 20.9057 26.2194 21.1255 26.2194 21.3548C26.2194 21.584 26.3097 21.8038 26.4704 21.9659C26.6312 22.128 26.8492 22.2191 27.0765 22.2191C27.3038 22.2191 27.5218 22.128 27.6825 21.9659C27.8433 21.8038 27.9336 21.584 27.9336 21.3548C27.9336 21.1255 27.8433 20.9057 27.6825 20.7436C27.5218 20.5815 27.3038 20.4904 27.0765 20.4904ZM35.1179 12.2539C34.895 12.2605 34.6834 12.3545 34.5281 12.5159C34.3728 12.6773 34.286 12.8933 34.2861 13.1182C34.2861 13.3475 34.3764 13.5673 34.5371 13.7294C34.6978 13.8915 34.9158 13.9826 35.1431 13.9826C35.3481 13.9728 35.5433 13.8914 35.6951 13.7522C35.8469 13.613 35.9459 13.4248 35.975 13.2199C35.9893 13.0982 35.9778 12.9748 35.9412 12.8579C35.9045 12.741 35.8437 12.6333 35.7626 12.5419C35.6815 12.4505 35.5821 12.3776 35.471 12.3279C35.3598 12.2783 35.2395 12.2531 35.1179 12.2539Z" fill="white"/>
</svg>
