<svg width="33" height="26" viewBox="0 0 33 26" fill="none" xmlns="http://www.w3.org/2000/svg">
<g clip-path="url(#clip0_752_8770)">
<path d="M18.9858 25.8588C18.8387 25.8588 18.8916 25.9741 18.8681 26C19.1269 25.9568 18.974 25.8271 18.9858 25.8588Z" fill="#EAEAEA"/>
<path d="M20.7976 25.0361L20.7888 25.0937L20.9741 24.8689L20.7976 25.0361Z" fill="#EAEAEA"/>
<path d="M22.2773 24.256C22.0302 24.158 21.7743 24.5932 21.4713 24.6652L21.4037 24.6451L21.3654 24.8555C21.653 24.6327 21.9579 24.4323 22.2773 24.256Z" fill="#EAEAEA"/>
<path d="M23.2778 24.1393C23.1866 24.1018 23.4014 23.9721 23.0896 24.2344L23.1307 24.2344L23.2778 24.1393Z" fill="#EAEAEA"/>
<path d="M23.1308 24.2351C22.9867 24.3389 23.2661 24.2351 23.1308 24.2351Z" fill="#EAEAEA"/>
<path d="M23.7838 23.7327L23.6367 23.9258C23.7044 23.9258 23.8809 23.8249 23.8368 23.897C24.0104 23.7269 23.9427 23.7183 23.7838 23.7327Z" fill="#EAEAEA"/>
<path d="M23.8838 23.4848L23.8044 23.577C23.822 23.5828 23.8544 23.5684 23.8838 23.4848Z" fill="#EAEAEA"/>
<path d="M23.6248 23.7773L23.7954 23.5756C23.7454 23.5756 23.7042 23.5179 23.713 23.6649C23.6924 23.6015 23.6866 23.6794 23.6248 23.7773Z" fill="#EAEAEA"/>
<path d="M23.4863 23.8315C23.351 23.869 23.1922 23.9381 23.3481 23.7508C23.001 24.0217 23.1304 24.1053 23.4863 23.8315Z" fill="#EAEAEA"/>
<path d="M22.2334 24.0214C22.1746 24.0214 22.1158 24.0473 22.054 24.0559L21.9628 24.1914C22.0098 24.1251 22.2775 24.0703 22.2334 24.0214Z" fill="#EAEAEA"/>
<path d="M25.0132 22.9436C24.9985 22.9032 24.8778 22.9032 24.8278 22.8715L24.7278 23.0156C24.8161 22.9868 24.9632 22.9003 25.0132 22.9436Z" fill="#EAEAEA"/>
<path d="M24.828 22.8711L24.981 22.652C24.7956 22.7875 24.7868 22.8423 24.828 22.8711Z" fill="#EAEAEA"/>
<path d="M23.7688 23.2766L23.5217 23.6484L23.8335 23.2276L23.7688 23.2766Z" fill="#EAEAEA"/>
<path d="M25.7781 22.3271L25.734 22.5L25.8281 22.2147L25.7781 22.3271Z" fill="#EAEAEA"/>
<path d="M26.2548 21.8829C26.2342 22.0183 26.4636 21.8829 26.4136 22.0039C26.5221 21.8788 26.6041 21.7338 26.6548 21.5774C26.558 21.7183 26.4179 21.8253 26.2548 21.8829Z" fill="#EAEAEA"/>
<path d="M26.752 21.3494C26.7147 21.4222 26.6822 21.4973 26.6549 21.5742C26.6994 21.5049 26.7323 21.429 26.752 21.3494Z" fill="#EAEAEA"/>
<path d="M25.334 22.3933C25.3732 22.4059 25.415 22.4094 25.4559 22.4034C25.4967 22.3974 25.5356 22.3821 25.5693 22.3587L25.4105 22.3299L25.334 22.3933Z" fill="#EAEAEA"/>
<path d="M25.3129 22.4102L25.334 22.3923C25.3159 22.3893 25.3099 22.3923 25.3129 22.4102Z" fill="#EAEAEA"/>
<path d="M24.3721 22.9687C24.4516 22.8246 24.6487 22.5797 24.3457 22.6805C24.3133 22.816 24.4722 22.7497 24.3721 22.9687Z" fill="#EAEAEA"/>
<path d="M25.1162 22.3732L24.8867 22.5202C24.9132 22.5404 24.9809 22.5462 24.9456 22.6211L25.1162 22.3732Z" fill="#EAEAEA"/>
<path d="M25.1928 22.2626L25.1164 22.375L25.1987 22.3202L25.1928 22.2626Z" fill="#EAEAEA"/>
<path d="M26.3311 21.5858C26.3935 21.4696 26.4738 21.3636 26.5693 21.2716C26.4419 21.3615 26.3191 21.4577 26.2016 21.5598C26.2134 21.606 26.2105 21.7011 26.3311 21.5858Z" fill="#EAEAEA"/>
<path d="M25.8779 21.9492L25.8779 21.9254C25.8749 21.9254 25.8628 21.9314 25.8779 21.9492Z" fill="#EAEAEA"/>
<path d="M27.5815 20.2712L27.5484 20.2712L27.5604 20.2891L27.5815 20.2712Z" fill="#EAEAEA"/>
<path d="M26.1664 21.56C26.1278 21.5815 26.094 21.6104 26.0672 21.6451C26.0404 21.6798 26.0211 21.7195 26.0105 21.7617C26.0694 21.6902 26.1333 21.6228 26.2017 21.56C26.1958 21.5398 26.1899 21.5312 26.1664 21.56Z" fill="#EAEAEA"/>
<path d="M26.9991 21.0328C26.9321 21.0588 26.8672 21.0896 26.8049 21.125C26.8755 21.1106 27.0079 21.0702 26.9991 21.0328Z" fill="#EAEAEA"/>
<path d="M25.9424 21.9196L25.9424 21.9375C25.9846 21.9315 25.9726 21.9256 25.9424 21.9196Z" fill="#EAEAEA"/>
<path d="M25.9431 21.9229C25.9709 21.8727 25.9926 21.8195 26.0078 21.7644C25.9635 21.8145 25.9241 21.8685 25.8902 21.9258L25.9431 21.9229Z" fill="#EAEAEA"/>
<path d="M27.2755 19.4247C27.3461 19.5111 27.2284 19.8109 26.9549 19.9089C26.8401 20.1481 27.2314 20.2893 27.5432 20.272C27.5108 20.2317 27.4785 20.2 27.6079 19.9579C27.4991 19.9896 27.0931 20.2835 27.1725 20.053C27.3696 19.7647 27.3961 19.8743 27.5579 19.7907C27.3549 19.7907 27.7021 19.3267 27.4903 19.2431L27.3402 19.514C27.3196 19.4967 27.355 19.3814 27.2755 19.4247Z" fill="#EAEAEA"/>
<path d="M27.1842 20.6284L27.1166 20.7148C27.2321 20.6385 27.3606 20.5829 27.4961 20.5506C27.5843 20.3805 27.5814 20.3257 27.5608 20.2912L27.1695 20.6658L27.1842 20.6284Z" fill="#EAEAEA"/>
<path d="M26.7637 21.0591C26.7372 20.9121 26.8872 20.6931 26.6754 20.7104C26.4519 20.9352 26.5872 20.9381 26.4872 21.1081C26.8402 20.7277 26.4283 21.2609 26.749 21.0534C26.695 21.1299 26.635 21.2022 26.5695 21.2695C26.6489 21.2177 26.7284 21.1687 26.8049 21.1254C26.7754 21.1254 26.7637 21.1254 26.7901 21.1254C26.78 21.1109 26.774 21.094 26.7725 21.0764C26.899 20.9899 26.8137 21.0764 26.7901 21.1254C26.7666 21.1744 26.7901 21.1254 26.7901 21.1427C26.9019 21.0044 27.0137 20.8718 27.1167 20.7277C26.9913 20.8299 26.8733 20.9407 26.7637 21.0591Z" fill="#EAEAEA"/>
<path d="M24.3898 22.3008C24.3947 22.2977 24.4003 22.296 24.406 22.296C24.4118 22.296 24.4174 22.2977 24.4222 22.3008C24.4369 22.2806 24.4399 22.2633 24.3898 22.3008Z" fill="#EAEAEA"/>
<path d="M24.6017 22.2225C24.596 22.2557 24.5831 22.2873 24.5638 22.3152C24.5445 22.3431 24.5193 22.3665 24.4899 22.3839C24.384 22.4214 24.4517 22.3378 24.4222 22.309C24.3869 22.381 24.2781 22.5396 24.4958 22.4416L24.5134 22.407C24.7017 22.3119 25.0135 22.2629 24.9959 22.2975C24.8715 22.2449 24.737 22.2193 24.6017 22.2225Z" fill="#EAEAEA"/>
<path d="M25.681 21.6406L25.9604 21.3092L25.7222 21.3755L25.7751 21.4158C25.578 21.5599 25.6722 21.583 25.681 21.6406Z" fill="#EAEAEA"/>
<path d="M27.6608 20.2805L27.7196 20.4102L27.752 20.0989L27.6608 20.2805Z" fill="#EAEAEA"/>
<path d="M28.0342 19.8492L28.1048 19.9414L28.1548 19.7858L28.0342 19.8492Z" fill="#EAEAEA"/>
<path d="M19.6504 3.56914L19.6092 3.67578C19.6268 3.64181 19.6407 3.60605 19.6504 3.56914Z" fill="#EAEAEA"/>
<path d="M20.1772 2.95633L20.1479 2.90445C20.1449 2.95345 20.1508 2.97939 20.1772 2.95633Z" fill="#EAEAEA"/>
<path d="M32.8618 7.125C32.953 6.92037 33.0707 6.67826 32.9472 6.72149L32.8324 6.8022C32.8735 6.90483 32.8837 7.01686 32.8618 7.125Z" fill="#EAEAEA"/>
<path d="M26.531 0.659061L26.5751 0.710937L26.7222 0.627361L26.531 0.659061Z" fill="#EAEAEA"/>
<path d="M26.29 1.13672L26.0812 1.02431C26.1463 1.06932 26.2163 1.10702 26.29 1.13672Z" fill="#EAEAEA"/>
<path d="M18.7211 7.62465C18.769 7.66029 18.8191 7.69303 18.8711 7.72266C18.8329 7.5382 18.7887 7.62754 18.7211 7.62465Z" fill="#EAEAEA"/>
<path d="M31.3056 15.0742C31.4029 14.9756 31.487 14.8652 31.5557 14.7456C31.4027 14.8898 31.2379 14.982 31.3056 15.0742Z" fill="#EAEAEA"/>
<path d="M18.7914 2.47885C18.7532 2.55379 18.7561 2.60278 18.7914 2.61719C18.812 2.5336 18.8297 2.4875 18.7914 2.47885Z" fill="#EAEAEA"/>
<path d="M31.7467 14.3167C31.7232 14.3397 31.7055 14.3628 31.6849 14.3858C31.6598 14.5114 31.6163 14.6328 31.5555 14.7461C31.6195 14.6942 31.6702 14.6283 31.7034 14.5537C31.7366 14.4791 31.7514 14.3979 31.7467 14.3167Z" fill="#EAEAEA"/>
<path d="M21.8452 21.1605C21.8329 21.1689 21.8201 21.1766 21.8069 21.1836C21.8069 21.1836 21.8246 21.1836 21.8452 21.1605Z" fill="#EAEAEA"/>
<path d="M17.2266 24.3906C17.2031 24.2827 17.1932 24.1723 17.1971 24.0621C17.1839 24.1724 17.1939 24.2842 17.2266 24.3906Z" fill="#EAEAEA"/>
<path d="M29.5288 18.1233C29.4641 18.2271 29.5288 18.1493 29.5288 18.1233Z" fill="#EAEAEA"/>
<path d="M28.7728 18.2891C28.7763 18.2759 28.7762 18.2621 28.7726 18.2489C28.769 18.2358 28.762 18.2238 28.7522 18.2141C28.7681 18.2358 28.7755 18.2625 28.7728 18.2891Z" fill="#EAEAEA"/>
<path d="M31.4438 12.9391C31.4107 12.954 31.4197 12.951 31.4438 12.9391Z" fill="#EAEAEA"/>
<path d="M29.373 18.2344C29.4177 18.2051 29.4591 18.1713 29.4966 18.1335C29.4522 18.1632 29.4108 18.197 29.373 18.2344Z" fill="#EAEAEA"/>
<path d="M29.4375 18.251L29.364 18.326C29.3728 18.3519 29.3904 18.349 29.4375 18.251Z" fill="#EAEAEA"/>
<path d="M29.623 17.9829C29.5864 18.0371 29.544 18.0873 29.4966 18.1328C29.5172 18.1328 29.5289 18.1155 29.5289 18.1328L29.623 17.9829Z" fill="#EAEAEA"/>
<path d="M23.3602 12.9297L23.3837 12.9297C23.5014 12.9066 23.4514 12.9095 23.3602 12.9297Z" fill="#EAEAEA"/>
<path d="M30.467 4.31335C30.6935 4.37387 30.72 4.47187 30.7406 4.60156L31.0112 4.31335C30.8377 4.30758 30.6494 4.31046 30.467 4.31335Z" fill="#EAEAEA"/>
<path d="M18.7945 5.27382L18.9945 5.06918C19.0563 5.41503 18.9622 5.59661 19.1681 5.42368C18.9769 5.34874 19.0593 5.11817 19.1329 4.8876C19.2064 4.65702 19.327 4.43798 19.1563 4.32846C19.2069 4.2887 19.26 4.25212 19.3152 4.21893C19.2858 4.25928 19.3152 4.27658 19.2741 4.31405C19.6182 4.12959 19.1416 3.95667 19.4446 3.61657C19.5623 3.50993 19.6741 3.45804 19.6506 3.57045C19.6918 3.46092 19.7271 3.34565 19.78 3.23901C19.833 3.13237 19.8888 3.239 19.8182 3.29952L20.1418 2.89315C20.1616 2.76765 20.1961 2.64482 20.2448 2.5271C20.383 2.47523 20.2213 2.60492 20.283 2.61645L20.436 2.32823C20.5919 2.32823 20.4772 2.56457 20.3213 2.68851C20.5566 2.74038 20.5801 2.68851 20.6154 2.58475C20.6515 2.50209 20.7086 2.42985 20.7812 2.37487C20.8538 2.31989 20.9395 2.28398 21.0302 2.27059L20.8478 2.47234C21.1214 2.5444 21.2303 2.3513 21.5568 2.32248C21.5098 2.32248 21.3391 2.32247 21.1979 2.29077C21.0567 2.25906 20.9596 2.23601 21.0567 2.10344C21.119 2.08807 21.1773 2.06013 21.228 2.02142C21.2786 1.98272 21.3205 1.93407 21.3508 1.87862C21.4303 1.99967 21.5421 1.87863 21.7274 1.78063L21.8009 1.95067C21.9716 1.80945 21.9128 1.73163 21.9951 1.59617C22.0722 1.56439 22.1581 1.55997 22.2381 1.58365C22.3181 1.60732 22.3872 1.65763 22.4334 1.72587C22.8041 1.61923 22.0952 1.60481 22.5188 1.41171C22.6704 1.3896 22.8187 1.34894 22.96 1.29066C23.0983 1.23302 23.2365 1.13214 23.4277 1.05721C23.6748 1.08315 23.4071 1.17537 23.5012 1.21284L23.6837 1.03703C23.7337 1.03703 23.7248 1.08026 23.7189 1.10332C23.8866 1.0255 23.719 0.910213 23.9837 0.835276C24.0131 0.731518 24.172 0.797816 24.3544 0.861224C24.4451 0.905715 24.5443 0.931008 24.6457 0.935477C24.747 0.939945 24.8483 0.92348 24.9427 0.887153C25.028 0.944797 24.8956 0.99668 24.9192 1.07162C25.2042 1.00486 25.4851 0.922102 25.7605 0.823754L26.0782 0.996677C25.8546 0.826629 26.2017 0.708458 26.5194 0.633522C26.4656 0.559582 26.4012 0.493584 26.3283 0.437536C26.4932 0.433221 26.6582 0.438996 26.8224 0.454829C26.8724 0.498061 26.8078 0.547061 26.7107 0.601822L26.8077 0.581645C26.9548 0.691167 26.8372 0.76899 26.696 0.838162L26.5636 0.685398C26.4253 0.763217 26.2988 0.86121 26.2988 0.973615C26.3491 0.961964 26.4015 0.961964 26.4518 0.973615C26.4165 0.996672 26.393 1.01686 26.4018 1.03992C26.4106 1.06297 26.4636 1.03992 26.5459 1.00822L26.593 1.23302L26.6371 1.16096C26.8133 1.24552 26.9833 1.34182 27.1461 1.44918C27.3667 1.429 27.5991 1.37424 27.8579 1.35983C28.1553 1.3611 28.449 1.42397 28.7198 1.5443C28.4963 1.57312 28.5581 1.73163 28.4522 1.87573C28.3963 1.6221 27.9638 1.69993 27.6873 1.52123C27.8402 1.6077 27.7638 1.67687 27.7138 1.67975L28.3227 1.80656C28.2345 1.92185 28.3757 1.95932 28.4669 2.09478C28.4992 1.94203 28.6169 1.96221 28.761 2.03427C28.9052 2.10632 29.0758 2.2216 29.1935 2.27636C29.1811 2.29815 29.1626 2.31599 29.1402 2.32774C29.1177 2.3395 29.0923 2.34467 29.067 2.34264C28.9732 2.31403 28.8869 2.26585 28.814 2.20142C28.8846 2.37435 29.0081 2.38011 29.1493 2.38011C29.2905 2.38011 29.4435 2.38011 29.4935 2.55881C29.4376 2.51269 29.4171 2.47523 29.3612 2.49252C29.5612 2.52999 29.7965 2.89603 29.6553 2.87874L29.6053 2.82686C29.9377 3.17849 30.5173 3.97972 30.7585 3.92208C30.6457 3.96686 30.5283 3.9997 30.4084 4.02006C30.6025 4.06906 30.7996 4.12671 30.9967 4.19012C31.1938 4.25353 31.3821 4.33711 31.585 4.42069C31.3585 4.44086 31.0203 4.91643 30.7379 4.60515C30.7611 4.773 30.8396 4.92883 30.9614 5.049C30.9614 4.9683 31.1614 4.76079 31.2262 4.84149C31.1709 5.05582 31.1375 5.27495 31.1262 5.49573C31.1262 5.3718 31.4909 5.38333 31.5498 5.57067C31.4909 5.55626 31.238 5.68308 31.1821 5.6312C31.3409 5.74072 31.4762 5.86465 31.6321 5.98859C31.541 5.89059 31.3556 6.04334 31.2909 6.1644C31.3173 6.13269 31.3438 6.23069 31.3703 6.34886C31.3848 6.45604 31.4074 6.56201 31.4379 6.66589L31.4762 6.45838C31.5174 6.98294 32.0645 6.88782 32.0881 7.44119C32.0145 7.38067 31.6527 7.33168 31.641 7.59972C31.8258 7.69553 32.0002 7.80948 32.1616 7.93982C32.3819 8.11162 32.549 8.34017 32.6441 8.59983L32.547 8.69494L32.6411 9.08114C32.5146 8.95721 32.347 8.72664 32.1381 8.50471C31.9583 8.30412 31.7894 8.09439 31.6321 7.8764C31.5615 8.07815 31.5174 7.93982 31.538 8.23092C31.4497 8.33756 31.3938 8.07816 31.388 7.99458L31.3497 8.66611C31.5497 8.63441 31.5292 9.18778 31.6939 9.17049C31.6321 8.91686 31.588 8.66612 31.5027 8.42113C31.5968 8.42113 31.7498 8.50759 31.8587 8.68629C31.9775 8.89197 32.0298 9.12816 32.0087 9.36361C31.9263 9.48466 31.6615 9.24832 31.5939 9.25697C31.6721 9.41704 31.6868 9.5999 31.6351 9.76998L31.5527 9.55382C31.4468 9.81322 31.7704 10.0265 31.538 10.3291C31.5056 10.4415 31.2291 10.6173 31.3409 10.6606C31.5939 10.5194 32.294 10.5799 32.4382 10.7384C32.3119 10.9885 32.1537 11.2219 31.9675 11.433C31.7468 11.5829 31.6233 11.0641 31.435 11.1909C31.488 11.2082 31.5262 11.3235 31.538 11.3725C31.4644 11.4791 31.3851 11.286 31.3468 11.5454C31.5321 11.6348 31.2056 12.0584 31.4821 11.7068C31.4821 11.972 31.3732 11.9604 31.2938 12.2544C31.4438 12.1939 31.638 12.6435 31.6027 12.9173C31.5615 12.8856 31.4762 12.9173 31.4379 12.9375C31.3512 13.149 31.253 13.3559 31.1438 13.5572C31.0346 13.7436 30.9363 13.9361 30.8496 14.1336C30.7878 14.1566 30.6349 14.3526 30.5996 14.2229C30.6187 14.3267 30.6075 14.4336 30.5672 14.5313C30.273 14.7215 30.6966 14.2114 30.4054 14.3267C30.5025 14.393 30.376 14.7504 30.3407 14.9809C30.5319 15.0011 30.5996 14.5371 30.6349 14.3123C30.8584 14.4103 30.929 14.8714 30.7761 15.4046C30.6202 15.8081 30.5437 15.4911 30.5378 15.5718C30.3929 15.7836 30.3188 16.0345 30.326 16.2894C30.3326 16.3999 30.3114 16.5103 30.2642 16.6108C30.217 16.7113 30.1453 16.7989 30.0554 16.8659C29.7612 17.0013 29.7848 16.7074 29.6553 16.6958C29.7965 16.3788 30.023 16.301 30.1436 16.0992L29.9259 16.3067C29.9485 16.149 30.0204 16.0019 30.1318 15.8859C29.9254 16.0773 29.7533 16.3014 29.6229 16.5488C29.4224 16.8612 29.1876 17.1511 28.9228 17.4135C28.9022 17.5317 28.8345 17.7017 28.9228 17.6786L29.0199 17.5086C29.2317 17.4394 28.9434 17.9063 29.1405 17.7421C29.0836 18.0571 28.9284 18.3471 28.6963 18.5721L28.511 18.5174C28.558 18.5433 28.7463 18.3934 28.7699 18.2781C28.7316 18.4482 28.2286 18.5664 28.2962 18.8546C28.3884 18.8181 28.4766 18.7777 28.561 18.7335C28.4952 19.0477 28.3472 19.3397 28.1315 19.5809C28.3639 19.5809 28.1639 19.5117 28.4787 19.4627C28.1492 19.4627 29.0435 18.8171 28.6198 18.8863C28.9611 18.8459 28.9611 18.6211 29.3258 18.4943C29.2699 18.4655 29.167 18.5174 29.3612 18.3098C29.3582 18.284 29.3582 18.2579 29.3612 18.232C29.3161 18.2667 29.2621 18.2886 29.2052 18.2954C29.1788 18.1023 29.4464 17.7478 29.4759 17.5893C29.5994 17.4711 29.4905 17.6815 29.5964 17.6469C29.6141 17.5662 29.6288 17.4855 29.6406 17.4048C29.7612 17.4596 30.0701 17.1598 29.9112 17.5288L30.1171 17.2405C30.3082 17.1065 30.4513 16.9169 30.5261 16.6987C30.6408 16.5719 30.6231 16.2664 30.6349 16.4422C30.7143 16.2722 30.7819 16.0992 30.8467 15.9234L30.8791 15.9234C31.1732 15.4479 31.2232 14.8368 31.6939 14.3613C31.7388 14.1348 31.8181 13.9162 31.9293 13.7128L32.0587 13.6955C32.1028 13.4592 32.4234 13.0585 32.3352 12.9202C32.5205 12.8424 32.6294 12.5657 32.7029 12.2602C32.7436 11.9689 32.8016 11.6802 32.8765 11.3955L32.7353 11.3494C32.7925 11.0424 32.8162 10.7304 32.8059 10.4185L32.6734 10.4185C32.6525 10.2238 32.6756 10.027 32.7412 9.84204C32.7706 9.7354 32.8029 9.62011 32.8323 9.50195C32.8545 9.38306 32.8664 9.26253 32.8676 9.14168C32.9177 9.17626 32.9 9.30019 32.8676 9.38665C32.9989 9.10191 33.0188 8.77984 32.9235 8.48167C32.8246 8.20417 32.8003 7.90639 32.8529 7.61702C32.8021 7.51702 32.7896 7.40249 32.8177 7.29422C32.816 7.30472 32.816 7.31541 32.8177 7.32592C32.8177 7.32592 32.8177 7.29421 32.8177 7.27115C32.8177 7.2481 32.8529 7.14723 32.8676 7.07805C32.8428 7.13033 32.825 7.18554 32.8147 7.24232C32.7962 7.10536 32.7616 6.97095 32.7117 6.84171L32.8382 6.75525C32.8395 6.74376 32.8395 6.73215 32.8382 6.72065C32.8617 6.56213 32.75 6.61113 32.6617 6.72065C32.6282 6.65457 32.5867 6.59266 32.5381 6.53621C32.7352 6.3748 32.397 6.16152 32.5794 5.95977C32.4352 5.88772 32.2851 5.23346 32.0116 5.24498C32.041 5.24498 32.041 5.18446 32.0705 5.24498C32.0565 5.07985 31.993 4.92243 31.888 4.79248L32.0292 4.65991C31.9116 4.57345 31.7762 4.49562 31.6527 4.4178C31.6527 4.1757 31.6704 4.05754 31.8939 4.20453C31.4703 3.80391 31.6203 3.8385 31.2055 3.5474L31.3144 3.50993C31.2544 3.43214 31.1853 3.36151 31.1085 3.29952C31.0291 3.23323 30.9614 3.17271 30.9703 3.10354C30.9368 2.95048 30.8706 2.8061 30.7761 2.67987C30.6349 2.48392 30.4786 2.2989 30.3084 2.12648C30.1319 1.92185 29.8965 1.74892 29.6965 1.55005C29.4964 1.35118 29.267 1.19554 29.1081 1.01108C29.0934 1.20419 29.0228 1.10621 28.9287 0.990925C28.8345 0.875638 28.7022 0.754581 28.6345 0.858339C28.6345 0.763228 28.5198 0.659465 28.6963 0.673876C28.2198 0.495182 28.0491 0.235782 27.6432 0.307836C27.6167 0.212724 27.7873 0.238675 27.7549 0.175267C27.7108 0.175267 27.5784 0.175264 27.5461 0.117621C27.5137 0.0599774 27.6373 0.0830333 27.7256 0.0801511C27.6459 0.03852 27.5569 0.0167519 27.4667 0.0167519C27.3764 0.0167519 27.2875 0.03852 27.2078 0.0801511C27.111 0.154201 27.0384 0.254389 26.999 0.368367C26.7842 0.204084 26.6548 0.175257 26.4459 0.290543C26.3753 0.204078 26.243 0.100336 26.5577 0.126275C26.39 0.0916895 25.5075 -0.161947 25.4722 0.0484513C25.4222 -0.000545448 25.231 0.0225118 25.178 0.0484513C24.9114 0.00762557 24.6406 -0.000126165 24.372 0.025389L24.4809 0.0513362C24.3367 0.279027 24.1661 0.114745 23.8601 0.16086L23.8601 0.134913C23.6914 0.101455 23.5165 0.113405 23.3542 0.169497C23.1893 0.212351 23.018 0.226019 22.8482 0.209852L22.9188 0.333783C22.9188 0.486537 22.7688 0.480779 22.5599 0.466368C22.3419 0.433482 22.1189 0.47412 21.9275 0.581644L22.0922 0.604707C22.0098 0.694054 21.8275 0.645057 21.6363 0.604707C21.4699 0.553869 21.2949 0.53623 21.1215 0.55283C21.0656 0.55283 21.1744 0.48078 21.2303 0.431784C20.5949 0.555717 21.2303 0.613354 20.8714 0.875631C20.7478 0.83528 20.8331 0.604709 20.5595 0.7517C20.4772 0.7517 20.3154 0.933274 20.1566 1.14655C20.0144 1.35507 19.8185 1.5231 19.5888 1.63364C19.7094 1.63364 19.8242 1.63363 19.7124 1.80656C19.5569 1.92754 19.3927 2.03736 19.2211 2.13513C19.1346 2.18028 19.0599 2.24432 19.0028 2.32229C18.9457 2.40026 18.9076 2.49006 18.8916 2.58475C18.8793 2.59083 18.8657 2.594 18.8519 2.594C18.8381 2.594 18.8245 2.59083 18.8122 2.58475C18.7651 2.70004 18.668 2.87297 18.5886 3.03725C18.5142 3.16729 18.4775 3.31481 18.4827 3.46381C18.4163 3.46247 18.351 3.47965 18.2942 3.51333C18.2375 3.54701 18.1916 3.59581 18.1621 3.65404C18.085 3.80288 18.0277 3.96076 17.9914 4.12383C17.8973 4.45528 17.8768 4.77232 17.6591 4.70027C17.5828 4.9347 17.5209 5.17338 17.4737 5.41504L17.4326 5.38622C17.3792 5.51842 17.356 5.66045 17.3647 5.80235C17.3733 5.94425 17.4135 6.08258 17.4825 6.20763C17.4472 6.31139 17.409 6.23069 17.3854 6.20763C17.3219 6.43848 17.3 6.67843 17.3207 6.91665C17.3626 7.13072 17.4455 7.33509 17.5649 7.51901L17.4267 7.59684C17.4691 7.80553 17.4879 8.01819 17.4825 8.23092C17.4901 8.39991 17.5188 8.56735 17.5679 8.72953C17.6101 8.90018 17.6827 9.06215 17.7826 9.20796C17.7648 9.20774 17.7473 9.20345 17.7315 9.19545C17.7156 9.18745 17.7019 9.17595 17.6914 9.16185C17.8019 9.33401 17.8852 9.52154 17.9385 9.71811C18.0121 9.91409 18.0738 10.1216 18.1385 10.3118C18.2944 10.6779 18.4622 10.9863 18.771 10.943L19.174 11.2601C18.8269 10.7355 19.4123 11.1967 19.327 10.9373C19.48 11.116 19.6211 11.5137 19.3858 11.3091L19.3858 11.2572C19.0916 11.3465 19.8359 11.9028 19.7094 12.0037L20.0683 12.3236C20.183 12.4302 20.3184 12.5196 20.4419 12.6118C20.6934 12.8065 20.9577 12.9846 21.2332 13.145C21.509 13.2986 21.7928 13.4381 22.0833 13.5629C22.3775 13.6656 22.677 13.7532 22.9806 13.8252C22.9482 13.7503 22.9159 13.6753 22.8865 13.5917C23.0218 13.6292 23.16 13.6436 23.2953 13.6696C23.4307 13.6955 23.4189 13.854 23.1188 13.8021C23.1644 13.8326 23.217 13.8517 23.2719 13.8578C23.3267 13.8638 23.3822 13.8566 23.4336 13.8367L23.513 13.8108C23.5262 13.8007 23.5381 13.7891 23.5484 13.7762C23.5634 13.7589 23.5771 13.7406 23.5895 13.7214C23.7454 13.7848 23.6719 13.8281 23.6072 13.88C23.5425 13.9318 23.5395 13.9203 23.5219 13.9347C23.5042 13.9491 23.5219 13.9635 23.5219 13.9635C23.5219 13.9635 23.5836 13.9635 23.6131 13.9635L23.6131 13.9405C23.6596 13.8899 23.7169 13.85 23.781 13.8236C23.845 13.7972 23.9143 13.785 23.9837 13.7877C24.069 13.831 23.9219 13.9117 23.9543 13.9203C23.9396 13.9347 23.9543 13.9405 24.0072 13.9203L23.9749 14.148C24.0422 14.0861 24.106 14.0207 24.1661 13.952C24.2484 14.0241 24.1367 14.2402 24.3544 14.001C24.2723 14.0982 24.2076 14.2083 24.1631 14.3267C24.1401 14.3848 24.1214 14.4446 24.1073 14.5054C24.0837 14.5774 24.0484 14.6956 24.0249 14.7936C23.9687 15.0939 23.8697 15.385 23.7307 15.6582C23.7284 15.9765 23.6433 16.289 23.4836 16.5661C23.5512 16.4998 23.7513 16.5258 23.5954 16.7996C23.2806 16.5373 23.2071 17.2521 22.8246 17.3414C23.0982 17.229 22.4452 18.1311 22.8482 17.9525C22.6864 18.16 22.7099 17.8948 22.5305 18.0187C22.351 18.6298 21.7245 19.1111 21.3126 19.748C21.345 19.7884 21.4862 19.748 21.4479 19.9094L20.992 20.0622C20.9155 20.1919 21.1362 20.3504 20.8214 20.4542C20.8802 20.4542 20.9684 20.4542 20.9125 20.5349C20.3242 21.0162 19.8271 21.5782 19.2446 22.0538C19.1025 22.1733 18.9521 22.2831 18.7945 22.3823L18.5562 22.5178C18.4709 22.5639 18.4092 22.5985 18.2886 22.6561C18.0533 22.7729 17.8371 22.9235 17.6473 23.1029C17.4251 23.316 17.2577 23.5778 17.1589 23.8667C17.2383 23.7024 17.2766 23.688 17.2796 23.7341C17.2825 23.7802 17.2619 23.8955 17.256 24.0223C17.2943 23.8638 17.3825 24.0223 17.456 24.0079C17.3682 24.3211 17.3911 24.6543 17.5208 24.9532C17.6503 24.9792 17.815 25.1723 18.015 25.3077C18.215 25.4432 18.4474 25.5095 18.5151 25.4317C18.421 25.4181 18.3284 25.3959 18.2386 25.3654C18.4592 25.3423 18.3651 25.178 18.3209 25.0051C18.2881 24.9318 18.2773 24.8508 18.2898 24.7717C18.3023 24.6925 18.3376 24.6185 18.3915 24.5584C18.2268 24.5728 18.2003 24.3682 18.2533 24.2269C18.3062 24.0857 18.3739 24.0108 18.2915 23.7888C18.3739 23.7542 18.3415 23.8811 18.418 23.8782C18.3415 23.7658 18.3856 23.6418 18.5857 23.5525L18.5857 23.59C18.6378 23.5427 18.6951 23.5012 18.7563 23.466L18.9681 23.3507C19.1211 23.27 19.2623 23.2009 19.4182 23.1317C19.7619 22.9559 20.0913 22.7545 20.4036 22.5293L20.2565 22.4717C20.3555 22.4008 20.4673 22.3489 20.586 22.3189C20.6213 22.0134 20.1389 22.685 20.1477 22.3737C20.5625 22.4198 21.1891 21.4024 21.5362 21.4744C21.748 21.241 21.3538 21.437 21.5627 21.2064L21.6862 21.2064L21.6538 21.0767C21.795 20.9326 21.9481 20.9211 22.0069 20.9614C21.9663 21.0132 21.9317 21.0692 21.9039 21.1286C22.151 20.9845 22.357 20.5291 22.4305 20.4715C22.3599 20.5435 22.2805 20.6098 22.204 20.6761C22.6658 19.9642 23.3395 19.1658 23.5925 18.3704L23.5012 18.3905C23.6866 17.7911 23.8131 17.9957 24.0632 17.3587L24.0632 17.3875C24.0685 17.2165 24.1138 17.0489 24.1955 16.8976C24.1955 17.0849 24.4632 16.6583 24.4514 16.8976C24.5867 16.2174 24.4868 16.546 24.422 16.0502L24.5573 15.9897C24.49 15.8191 24.49 15.63 24.5573 15.4594C24.5573 15.7476 24.7839 15.3037 24.8015 15.6352C24.9713 15.3956 25.056 15.108 25.0427 14.8167C25.0427 14.7129 25.0427 14.5544 25.0721 14.442C25.1023 14.3075 25.1648 14.182 25.2545 14.0759C25.0103 13.7013 24.9604 14.9089 24.9398 14.6668C24.8721 14.7475 24.8368 14.6668 24.8132 14.5198C24.7934 14.3747 24.8004 14.2273 24.8338 14.0846C24.9004 13.9151 24.9811 13.7512 25.0751 13.5946C25.1391 13.4629 25.1913 13.326 25.231 13.1854C25.2516 13.1047 25.2722 13.0182 25.2869 12.926C25.2869 12.9058 25.3045 12.8712 25.2869 12.8625L25.2222 12.8625L25.078 12.8625C25.1575 12.8625 25.1868 12.8625 25.2692 12.8625C25.1132 12.8261 24.9516 12.8182 24.7927 12.8395C24.6215 12.8588 24.4481 12.8381 24.2867 12.779C24.1725 12.8393 24.0417 12.8625 23.9131 12.8452C23.8102 12.8452 23.7101 12.8453 23.666 12.9461C23.919 12.9663 24.1484 12.9461 24.3926 12.9461C24.1749 12.9605 23.9543 13.0384 23.7307 13.0701C23.6334 13.0848 23.535 13.0916 23.4365 13.0902C23.3349 13.0815 23.2355 13.0562 23.1424 13.0153C23.2331 12.964 23.3329 12.9298 23.4365 12.9144C23.3189 12.8222 23.1718 12.9317 23.0541 12.8251C23.0982 12.7242 23.2424 12.7357 23.4159 12.753C23.5071 12.753 23.5954 12.7732 23.7101 12.7761C23.8622 12.7907 24.0157 12.778 24.1631 12.7386C24.0873 12.71 24.0057 12.6991 23.9248 12.7069C23.8366 12.7069 23.6807 12.7069 23.6572 12.7069C23.5542 12.7069 23.4895 12.7069 23.5807 12.5974C23.5337 12.6513 23.4694 12.6881 23.3984 12.7017C23.3274 12.7153 23.2537 12.7049 23.1894 12.6723C23.1171 12.6314 23.037 12.6054 22.954 12.596C22.871 12.5866 22.787 12.5939 22.707 12.6176L22.7688 12.4936C22.6723 12.518 22.5711 12.518 22.4746 12.4936C22.5532 12.4583 22.6298 12.4188 22.7041 12.3755C22.6356 12.3887 22.5648 12.3837 22.4991 12.3608C22.4333 12.338 22.3751 12.2983 22.3305 12.2458C22.2434 12.1481 22.1252 12.0821 21.9951 12.0584C22.4982 12.2515 22.0393 12.2515 22.2187 12.4302C22.0924 12.4244 21.9702 12.3845 21.8656 12.3149C21.8126 12.2578 21.7752 12.1884 21.7568 12.1132C21.7376 12.033 21.7036 11.9568 21.6568 11.8884C21.5667 11.7927 21.4614 11.712 21.345 11.6492C21.4274 11.6982 21.6186 11.9143 21.4479 11.8941C21.3329 11.796 21.2449 11.6712 21.1921 11.531C20.7714 11.2745 21.1655 11.6866 20.942 11.6348C20.9037 11.4099 20.7096 11.5281 20.4948 11.4186L20.5919 11.3148C20.4037 11.0958 20.333 11.1102 20.2595 11.1361C20.1859 11.1621 20.1183 11.188 19.9653 10.9545L20.2595 10.992L20.0359 10.822L20.1977 10.7614C19.9036 10.626 19.8888 10.5107 19.7476 10.2628C19.7094 10.3695 19.5064 10.381 19.3652 10.1533C19.3417 9.95733 19.5329 10.1677 19.3211 9.8651C19.4417 9.8968 19.5829 9.9141 19.5565 10.1158C19.6035 10.1158 19.6741 10.1389 19.7212 10.1158C19.7212 9.90545 19.4888 9.71234 19.427 9.59418C19.4461 9.63837 19.459 9.68491 19.4652 9.73251C19.3211 9.61435 19.1917 9.48178 19.0475 9.3492C19.0475 9.25121 19.127 9.29444 19.1946 9.3492C19.1299 9.26273 19.0417 9.22238 18.9711 9.06098C19.0946 9.06098 19.1946 9.00622 19.3358 9.18203C19.227 9.05233 19.1328 8.91111 19.0269 8.77277C19.0563 8.72665 19.0711 8.48453 19.1329 8.53929C19.0983 8.38075 19.0257 8.23254 18.921 8.10697C18.8144 7.95388 18.7562 7.77348 18.7534 7.58818C18.7134 7.55807 18.6853 7.51528 18.6739 7.46714C18.6739 7.38355 18.6739 7.29998 18.6739 7.21928C18.6739 7.13858 18.6974 7.05787 18.7033 6.97717C18.7163 6.80046 18.6974 6.62288 18.6474 6.45261C18.7175 6.38359 18.7911 6.31818 18.8681 6.25663C18.8681 5.95112 18.5592 6.52755 18.5739 6.00588C18.5739 5.62543 18.771 5.89924 18.8475 5.78683C18.7945 5.59949 18.6533 5.21041 18.9504 4.95101C18.9134 5.06495 18.861 5.17351 18.7945 5.27382ZM21.0596 2.13225C21.0126 2.20142 20.9508 2.36859 20.8537 2.334C20.8243 2.15531 20.9272 2.1726 21.0596 2.13225ZM27.0696 1.08027C26.996 1.10909 26.9107 1.06297 26.8224 0.985155C26.9116 0.99603 26.9967 1.02874 27.0696 1.08027ZM30.1936 16.9812C30.2907 16.8832 30.3554 16.8342 30.1936 16.9812ZM29.9142 17.2694C29.9142 17.3126 29.9142 17.3213 29.9495 17.3184C29.9848 17.3155 29.9848 17.2002 30.0524 17.1195C30.0054 17.1368 29.9554 17.1656 29.9142 17.2838L29.9142 17.2694ZM23.9661 13.8972C23.9661 13.8972 23.9661 13.8742 23.9661 13.8627C24.0984 13.8425 24.0337 13.8799 23.9661 13.9117L23.9661 13.8972Z" fill="#EAEAEA"/>
<path d="M26.3193 1.08203C26.3042 1.0579 26.298 1.02941 26.3017 1.00132C26.2634 1.01862 26.2576 1.04456 26.3193 1.08203Z" fill="#EAEAEA"/>
<path d="M31.3351 11.3203C31.3591 11.2693 31.3954 11.2248 31.4409 11.1906C31.4086 11.1791 31.3704 11.2079 31.3351 11.3203Z" fill="#EAEAEA"/>
<path d="M28.8081 19.1445C28.8551 19.0725 28.8992 18.9947 28.9434 18.9197C28.8969 18.9858 28.8342 19.0394 28.761 19.0754C28.7904 19.0898 28.8581 19.0696 28.8081 19.1445Z" fill="#EAEAEA"/>
<path d="M26.6487 20.22C26.634 20.2604 26.5928 20.2777 26.5811 20.3151L26.6341 20.3555C26.7429 20.22 26.7811 20.1191 26.6487 20.22Z" fill="#EAEAEA"/>
<path d="M28.2964 19.0297C28.1905 18.9721 28.117 19.1191 28.0169 19.269L28.0376 19.243C28.1229 19.39 28.2052 19.2084 28.2964 19.0297Z" fill="#EAEAEA"/>
<path d="M27.9844 19.3054C27.9533 19.3509 27.9178 19.3933 27.8785 19.4322C27.9138 19.4899 27.9344 19.389 27.9844 19.3054Z" fill="#EAEAEA"/>
<path d="M29.6849 17.7523C29.6084 17.8042 29.7761 17.882 29.7085 17.8936C29.7673 18.0579 29.8967 17.3229 29.6849 17.7523Z" fill="#EAEAEA"/>
<path d="M27.8905 18.8943L28.0464 18.9375L28.0199 18.7876L27.8905 18.8943Z" fill="#EAEAEA"/>
<path d="M28.8582 17.873C28.7905 17.9421 28.7229 18.0113 28.6523 18.0747C28.6758 18.0747 28.6523 18.1237 28.6523 18.1641C28.7611 18.0315 28.8847 17.896 28.8582 17.873Z" fill="#EAEAEA"/>
<path d="M28.6465 18.1624C28.591 18.2168 28.5487 18.2828 28.523 18.3555C28.5697 18.2947 28.611 18.23 28.6465 18.1624Z" fill="#EAEAEA"/>
<path d="M28.108 18.5742L28.1874 18.5281L28.3198 18.3782L28.108 18.5742Z" fill="#EAEAEA"/>
<path d="M30.5405 15.321C30.5788 15.2259 30.6171 15.1308 30.6494 15.0328C30.6171 14.9838 30.5553 15.0328 30.52 15.1539C30.4847 15.2749 30.4758 15.3527 30.5405 15.321Z" fill="#EAEAEA"/>
<path d="M29.7259 15.9414C29.7756 15.908 29.8334 15.8881 29.8936 15.8838L29.7406 15.7858L29.7259 15.9414Z" fill="#EAEAEA"/>
<path d="M30.1317 15.1582C30.1023 15.1092 30.217 14.7114 30.0405 15.0487C30.0611 15.0977 29.9582 15.3801 30.1317 15.1582Z" fill="#EAEAEA"/>
<path d="M31.9202 10.9727L31.9114 11.0476L32.2056 11.0938L31.9202 10.9727Z" fill="#EAEAEA"/>
<path d="M31.3115 7.06607C31.2938 7.40616 31.5056 7.11796 31.4556 7.43499C31.535 7.50705 31.4997 7.17559 31.5703 7.24765C31.4762 7.05166 31.4821 6.94502 31.3115 7.06607Z" fill="#EAEAEA"/>
<path d="M31.5705 7.25069C31.5863 7.28575 31.6051 7.31948 31.6265 7.35156C31.6136 7.31519 31.5946 7.28112 31.5705 7.25069Z" fill="#EAEAEA"/>
<path d="M17.8561 25.5848C17.9584 25.672 18.0698 25.7483 18.1885 25.8125C18.1187 25.7532 18.0538 25.6886 17.9944 25.6194L17.8561 25.5848Z" fill="#EAEAEA"/>
<path d="M18.5887 25.6321C18.6064 25.6955 18.624 25.7618 18.6475 25.8281C18.7244 25.7809 18.7981 25.7289 18.8682 25.6725C18.7946 25.6811 18.6417 25.684 18.5887 25.6321Z" fill="#EAEAEA"/>
<path d="M21.7539 2.14844L21.7539 2.10233C21.701 2.07063 21.6597 2.10233 21.5744 2.1398C21.6303 2.14268 21.6921 2.14267 21.7539 2.14844Z" fill="#EAEAEA"/>
<path d="M19.6449 3.88672L19.6772 3.84925L19.4802 3.82907L19.6449 3.88672Z" fill="#EAEAEA"/>
<path d="M18.9945 6.03125C18.996 5.93439 19.0068 5.83789 19.0269 5.74303C19.0004 5.9419 18.7827 6.01972 18.9945 6.03125Z" fill="#EAEAEA"/>
<path d="M1.88856 25.8588C1.73853 25.8588 1.79445 25.9741 1.77092 26C2.02979 25.9568 1.87679 25.8271 1.88856 25.8588Z" fill="#EAEAEA"/>
<path d="M3.69751 25.0361L3.69163 25.0937L3.87695 24.8689L3.69751 25.0361Z" fill="#EAEAEA"/>
<path d="M5.17725 24.256C4.93308 24.158 4.67716 24.5903 4.37122 24.6652L4.30651 24.6451L4.26831 24.8555C4.55421 24.6318 4.85816 24.4313 5.17725 24.256Z" fill="#EAEAEA"/>
<path d="M6.18066 24.1393C6.08653 24.1018 6.30123 23.9721 5.98941 24.2344L6.03358 24.2344C6.08036 24.1995 6.1295 24.1677 6.18066 24.1393Z" fill="#EAEAEA"/>
<path d="M6.03363 24.2312C5.88948 24.335 6.16894 24.2312 6.03363 24.2312Z" fill="#EAEAEA"/>
<path d="M6.68659 23.7327L6.53656 23.9258C6.60421 23.9258 6.7807 23.8249 6.73952 23.897C6.91308 23.7269 6.8425 23.7183 6.68659 23.7327Z" fill="#EAEAEA"/>
<path d="M6.7749 23.4848L6.69547 23.577C6.72489 23.5828 6.75431 23.5684 6.7749 23.4848Z" fill="#EAEAEA"/>
<path d="M6.5276 23.7773L6.69824 23.5756C6.65117 23.5756 6.60998 23.5179 6.61587 23.6621C6.59527 23.6015 6.58938 23.6794 6.5276 23.7773Z" fill="#EAEAEA"/>
<path d="M6.38916 23.8324C6.25384 23.8699 6.095 23.939 6.24796 23.7517C5.8979 24.0197 6.03321 24.1062 6.38916 23.8324Z" fill="#EAEAEA"/>
<path d="M5.13622 24.0214L4.95675 24.0588L4.86561 24.1914C4.91268 24.128 5.18035 24.0732 5.13622 24.0214Z" fill="#EAEAEA"/>
<path d="M7.91602 22.9436C7.89837 22.9003 7.78073 22.9032 7.73072 22.8686L7.62773 23.0156C7.70422 22.9839 7.86601 22.9003 7.91602 22.9436Z" fill="#EAEAEA"/>
<path d="M7.73083 22.8711L7.88086 22.6549C7.70436 22.7904 7.68965 22.8423 7.73083 22.8711Z" fill="#EAEAEA"/>
<path d="M6.67161 23.2766L6.42451 23.6484L6.73633 23.2276L6.67161 23.2766Z" fill="#EAEAEA"/>
<path d="M8.67801 22.3271L8.63682 22.5L8.73096 22.2147L8.67801 22.3271Z" fill="#EAEAEA"/>
<path d="M9.15751 21.8818C9.13398 22.0144 9.36639 21.8818 9.31638 22C9.42436 21.8756 9.50634 21.7317 9.55762 21.5763C9.45951 21.7161 9.31977 21.8228 9.15751 21.8818Z" fill="#EAEAEA"/>
<path d="M9.65479 21.3494C9.61506 21.4211 9.58259 21.4964 9.55776 21.5742C9.60235 21.5049 9.63508 21.429 9.65479 21.3494Z" fill="#EAEAEA"/>
<path d="M8.23387 22.3933C8.27362 22.4059 8.31577 22.4094 8.35711 22.4034C8.39845 22.3974 8.43787 22.3821 8.47217 22.3587L8.3133 22.3299L8.23387 22.3933Z" fill="#EAEAEA"/>
<path d="M8.21275 22.4102L8.23389 22.3923C8.2188 22.3893 8.21275 22.3923 8.21275 22.4102Z" fill="#EAEAEA"/>
<path d="M7.27503 22.9687C7.35152 22.8246 7.55153 22.5768 7.24559 22.6805C7.21323 22.816 7.38976 22.7497 7.27503 22.9687Z" fill="#EAEAEA"/>
<path d="M8.01611 22.3732L7.7896 22.5231C7.81313 22.5433 7.88371 22.549 7.84547 22.6211L8.01611 22.3732Z" fill="#EAEAEA"/>
<path d="M8.09274 22.2597L8.0192 22.375L8.10156 22.3202L8.09274 22.2597Z" fill="#EAEAEA"/>
<path d="M9.23387 21.5858C9.29547 21.4691 9.37595 21.3631 9.47217 21.2716C9.34413 21.3608 9.22136 21.457 9.10446 21.5598C9.11328 21.606 9.11326 21.7011 9.23387 21.5858Z" fill="#EAEAEA"/>
<path d="M8.7808 21.9492L8.7959 21.9284C8.77478 21.9254 8.7627 21.9314 8.7808 21.9492Z" fill="#EAEAEA"/>
<path d="M10.4814 20.2712L10.4483 20.2712L10.4633 20.2891L10.4814 20.2712Z" fill="#EAEAEA"/>
<path d="M9.06916 21.56C9.0302 21.5814 8.99605 21.6103 8.96875 21.645C8.94146 21.6797 8.92164 21.7194 8.91037 21.7617C8.97033 21.6902 9.03517 21.6228 9.10449 21.56C9.09861 21.5398 9.09269 21.5312 9.06916 21.56Z" fill="#EAEAEA"/>
<path d="M9.90196 21.0328C9.835 21.0588 9.77013 21.0896 9.70784 21.125C9.76373 21.1106 9.91079 21.0702 9.90196 21.0328Z" fill="#EAEAEA"/>
<path d="M8.84816 21.9196L8.84816 21.9375C8.88134 21.9315 8.88134 21.9226 8.84816 21.9196Z" fill="#EAEAEA"/>
<path d="M8.84881 21.9229C8.877 21.8732 8.89787 21.8198 8.91064 21.7644C8.8682 21.8152 8.8298 21.8692 8.79588 21.9258C8.81302 21.9206 8.83119 21.9196 8.84881 21.9229Z" fill="#EAEAEA"/>
<path d="M10.1753 19.4242C10.2489 19.5136 10.1313 19.8104 9.85769 19.9084C9.74297 20.1476 10.1342 20.2917 10.446 20.2716C10.4166 20.2341 10.3842 20.2024 10.5107 19.9603C10.4048 19.992 9.99889 20.286 10.0754 20.0554C10.2754 19.7672 10.3018 19.8738 10.4636 19.7931C10.2577 19.7931 10.6078 19.3262 10.396 19.2455L10.2459 19.5164C10.2195 19.4991 10.2548 19.3839 10.1753 19.4242Z" fill="#EAEAEA"/>
<path d="M10.084 20.6284L10.0193 20.7148C10.1346 20.6381 10.2631 20.5824 10.3987 20.5506C10.487 20.3805 10.4811 20.3257 10.4634 20.2912L10.0693 20.6658L10.084 20.6284Z" fill="#EAEAEA"/>
<path d="M9.66656 21.0591C9.64008 20.9121 9.79017 20.6931 9.57837 20.7075C9.35185 20.9352 9.49007 20.9381 9.39006 21.1081C9.74306 20.7277 9.33126 21.2609 9.65191 21.0534C9.59725 21.1294 9.53726 21.2016 9.47243 21.2695C9.54818 21.2174 9.62675 21.1693 9.70778 21.1254L9.69012 21.1254C9.66364 21.1254 9.65186 21.1254 9.67539 21.1254C9.67277 21.1082 9.67277 21.0907 9.67539 21.0735C9.80189 20.9871 9.71363 21.0735 9.67539 21.1254L9.67539 21.1427C9.78424 21.0044 9.89605 20.8689 10.002 20.7277C9.88126 20.8292 9.76907 20.94 9.66656 21.0591Z" fill="#EAEAEA"/>
<path d="M7.29243 22.3008C7.29691 22.2983 7.30192 22.2969 7.30708 22.2969C7.31225 22.2969 7.31734 22.2983 7.32181 22.3008C7.33946 22.2806 7.34244 22.2633 7.29243 22.3008Z" fill="#EAEAEA"/>
<path d="M7.50407 22.2237C7.49842 22.2569 7.48552 22.2885 7.46623 22.3164C7.44693 22.3442 7.42166 22.3677 7.39225 22.3851C7.28635 22.4225 7.35401 22.339 7.32165 22.3101C7.28635 22.3822 7.18046 22.5378 7.39814 22.4427L7.41581 22.4081C7.60408 22.3102 7.91292 22.264 7.89527 22.2986C7.7724 22.2447 7.63862 22.2191 7.50407 22.2237Z" fill="#EAEAEA"/>
<path d="M8.58678 21.6406L8.86328 21.3063L8.62793 21.3755L8.68093 21.4158C8.47796 21.5599 8.57207 21.583 8.58678 21.6406Z" fill="#EAEAEA"/>
<path d="M10.5636 20.2805L10.6195 20.4102L10.6548 20.0989L10.5636 20.2805Z" fill="#EAEAEA"/>
<path d="M10.9341 19.8492L11.0076 19.9414L11.0576 19.7858L10.9341 19.8492Z" fill="#EAEAEA"/>
<path d="M2.55029 3.56914L2.51209 3.67578C2.52777 3.64131 2.54052 3.60565 2.55029 3.56914Z" fill="#EAEAEA"/>
<path d="M3.07715 2.95633L3.0477 2.90445C3.0477 2.95345 3.05361 2.97939 3.07715 2.95633Z" fill="#EAEAEA"/>
<path d="M15.7645 7.125C15.8557 6.92037 15.9704 6.67826 15.8498 6.72149L15.7351 6.8022C15.7755 6.90501 15.7856 7.01682 15.7645 7.125Z" fill="#EAEAEA"/>
<path d="M9.42503 0.659061L9.46618 0.710937L9.61621 0.627361L9.42503 0.659061Z" fill="#EAEAEA"/>
<path d="M9.17529 1.13672L8.96939 1.02431C9.03298 1.07003 9.10214 1.1078 9.17529 1.13672Z" fill="#EAEAEA"/>
<path d="M1.62391 7.62568L1.771 7.72656C1.7357 7.53922 1.68863 7.62856 1.62391 7.62568Z" fill="#EAEAEA"/>
<path d="M14.2084 15.0742C14.3093 14.9757 14.3972 14.8654 14.4702 14.7456C14.3055 14.8898 14.1349 14.982 14.2084 15.0742Z" fill="#EAEAEA"/>
<path d="M1.69446 2.47885C1.65328 2.55379 1.65915 2.60278 1.67974 2.61719C1.7121 2.5336 1.72976 2.4875 1.69446 2.47885Z" fill="#EAEAEA"/>
<path d="M14.6497 14.3167L14.5878 14.3829C14.5656 14.5087 14.5261 14.6308 14.4702 14.7461C14.5315 14.6927 14.5796 14.6262 14.6107 14.5517C14.6418 14.4773 14.6552 14.3969 14.6497 14.3167Z" fill="#EAEAEA"/>
<path d="M4.74805 21.1605C4.7349 21.1676 4.72217 21.1753 4.70984 21.1836C4.70984 21.1836 4.73334 21.1836 4.74805 21.1605Z" fill="#EAEAEA"/>
<path d="M0.129395 24.3906C0.104443 24.2829 0.0945184 24.1724 0.0999488 24.0621C0.0867315 24.1724 0.096772 24.2842 0.129395 24.3906Z" fill="#EAEAEA"/>
<path d="M12.4316 18.1241C12.364 18.2279 12.4316 18.1472 12.4316 18.1241Z" fill="#EAEAEA"/>
<path d="M11.6754 18.2891C11.6782 18.2759 11.6778 18.2622 11.6742 18.2492C11.6706 18.2362 11.664 18.2242 11.6548 18.2141C11.6708 18.2358 11.6781 18.2625 11.6754 18.2891Z" fill="#EAEAEA"/>
<path d="M14.3467 12.9391C14.3135 12.954 14.3195 12.951 14.3467 12.9391Z" fill="#EAEAEA"/>
<path d="M12.2759 18.2344C12.319 18.2043 12.3594 18.1705 12.3965 18.1335C12.3539 18.1643 12.3136 18.198 12.2759 18.2344Z" fill="#EAEAEA"/>
<path d="M12.3374 18.2482L12.2668 18.3261C12.2727 18.352 12.2933 18.3491 12.3374 18.2482Z" fill="#EAEAEA"/>
<path d="M12.5259 17.9829C12.4874 18.0366 12.4441 18.0868 12.3965 18.1328C12.42 18.1328 12.4318 18.1155 12.4318 18.1328L12.5259 17.9829Z" fill="#EAEAEA"/>
<path d="M6.26315 12.9297L6.28369 12.9297C6.4043 12.9066 6.35435 12.9095 6.26315 12.9297Z" fill="#EAEAEA"/>
<path d="M13.3669 4.31335C13.5963 4.37387 13.6198 4.47187 13.6434 4.60156L13.9141 4.31335C13.7376 4.30758 13.5463 4.31046 13.3669 4.31335Z" fill="#EAEAEA"/>
<path d="M1.69743 5.276L1.89744 5.07136C1.95627 5.41722 1.86216 5.59879 2.06808 5.42586C1.87687 5.35092 1.95921 5.12035 2.03275 4.88978C2.10629 4.65921 2.22987 4.44016 2.05925 4.33064C2.10928 4.29023 2.16239 4.25361 2.21811 4.22112C2.1887 4.26147 2.21807 4.27877 2.17689 4.31623C2.51813 4.13178 2.04453 3.95885 2.34753 3.61876C2.4652 3.51212 2.57402 3.46023 2.55049 3.57263C2.59462 3.46311 2.62696 3.34783 2.67991 3.24119C2.73286 3.13455 2.79173 3.24118 2.71819 3.30171L3.04173 2.89533C3.0629 2.77013 3.09744 2.64744 3.14472 2.52929C3.28298 2.47741 3.12409 2.60711 3.18293 2.61864L3.3359 2.33042C3.49181 2.33042 3.37712 2.56676 3.22415 2.69069C3.45949 2.74257 3.48302 2.69069 3.51832 2.58694C3.55367 2.50434 3.61015 2.43204 3.68228 2.37702C3.75441 2.322 3.83973 2.28609 3.93013 2.27277L3.75073 2.47453C4.02431 2.54658 4.13018 2.35349 4.45965 2.32467C4.40964 2.32467 4.23903 2.32465 4.10077 2.29295C3.96251 2.26125 3.85956 2.2382 3.95958 2.10562C4.02173 2.08993 4.0799 2.06186 4.13051 2.02319C4.18111 1.98451 4.22308 1.93604 4.25375 1.8808C4.33023 2.00185 4.44202 1.88081 4.62735 1.78282L4.70384 1.95286C4.87151 1.81163 4.81559 1.73382 4.89502 1.59836C4.97206 1.56658 5.05803 1.56215 5.13805 1.58583C5.21807 1.60951 5.28712 1.65981 5.33333 1.72806C5.70692 1.62142 4.99505 1.607 5.42159 1.41389C5.57232 1.39179 5.71959 1.35112 5.8599 1.29285C5.99816 1.2352 6.13645 1.13433 6.3306 1.05939C6.57477 1.08533 6.31001 1.17755 6.4012 1.21502L6.58355 1.03922C6.6365 1.03922 6.62477 1.08244 6.61888 1.1055C6.78656 1.02768 6.61886 0.912397 6.88655 0.83746C6.91597 0.733702 7.07188 0.8 7.25427 0.863408C7.34301 0.905852 7.43973 0.930051 7.53838 0.934512C7.63703 0.938973 7.73552 0.923592 7.82788 0.889337C7.91319 0.946981 7.78381 0.998864 7.80734 1.0738C8.09144 1.00706 8.37133 0.924307 8.64569 0.825938L8.96636 0.998861C8.73985 0.828813 9.08697 0.710642 9.40761 0.635706C9.35375 0.561766 9.28932 0.495768 9.21636 0.439721C9.3813 0.435458 9.5464 0.441232 9.71062 0.457013C9.75768 0.500245 9.69293 0.549245 9.59879 0.604006L9.69295 0.583829C9.84297 0.693351 9.72527 0.771174 9.58407 0.840346L9.44876 0.687582C9.3105 0.765401 9.18404 0.863394 9.18404 0.975799C9.23435 0.964253 9.28671 0.964253 9.33701 0.975799C9.30171 0.998856 9.27813 1.01904 9.28696 1.0421C9.29578 1.06516 9.35167 1.0421 9.43404 1.0104L9.47821 1.2352L9.52525 1.16315C9.70012 1.24835 9.86913 1.34462 10.0312 1.45136C10.2548 1.43119 10.4843 1.37643 10.7461 1.36202C11.0434 1.36389 11.337 1.42673 11.608 1.54648C11.3844 1.5753 11.4433 1.73381 11.3374 1.87792C11.2844 1.62429 10.852 1.70211 10.5725 1.52342C10.7255 1.60988 10.649 1.67905 10.599 1.68193L11.2079 1.80875C11.1226 1.92404 11.2638 1.9615 11.352 2.09696C11.3844 1.94421 11.5021 1.9644 11.6462 2.03645C11.7903 2.1085 11.961 2.22378 12.0758 2.27854C12.0645 2.30061 12.0466 2.31878 12.0245 2.33063C12.0025 2.34248 11.9772 2.34743 11.9522 2.34483C11.8574 2.31651 11.7701 2.26832 11.6963 2.2036C11.7698 2.37653 11.8933 2.3823 12.0316 2.3823C12.1698 2.3823 12.3257 2.38229 12.3787 2.56099C12.3199 2.51487 12.2993 2.47741 12.2434 2.4947C12.4464 2.53217 12.6788 2.89822 12.5375 2.88092L12.4846 2.82905C12.82 3.18067 13.3995 3.98191 13.6407 3.92426C13.5278 3.96866 13.4105 4.00149 13.2906 4.02225C13.4819 4.07125 13.6789 4.1289 13.879 4.1923C14.079 4.25571 14.2614 4.33929 14.4673 4.42287C14.2408 4.44305 13.9025 4.91573 13.6172 4.60734C13.6419 4.77476 13.7201 4.93017 13.8408 5.05118C13.8408 4.97048 14.0408 4.76298 14.1084 4.84368C14.0507 5.05761 14.0162 5.27689 14.0055 5.49791C14.0055 5.37398 14.3732 5.38551 14.4321 5.57285C14.3732 5.55844 14.1202 5.68526 14.0614 5.63339C14.2232 5.74291 14.3555 5.86684 14.5114 5.99077C14.4232 5.89278 14.2379 6.04553 14.1732 6.16658C14.1996 6.13488 14.2232 6.23287 14.2526 6.35104C14.2656 6.45846 14.2882 6.56454 14.3202 6.66807L14.3556 6.46057C14.3997 6.98512 14.9439 6.89001 14.9703 7.44051C14.8939 7.38286 14.535 7.33099 14.5232 7.60191C14.7076 7.6984 14.882 7.8123 15.0439 7.942C15.2647 8.11327 15.432 8.342 15.5264 8.60201L15.4263 8.69713L15.5234 9.08333C15.3969 8.95939 15.2293 8.72882 15.0175 8.50689C14.8057 8.28497 14.6232 8.03999 14.5114 7.87859C14.4438 8.08034 14.3997 7.942 14.4203 8.2331C14.332 8.33974 14.2761 8.08035 14.2673 7.99676L14.232 8.6683C14.4291 8.63659 14.4115 9.18997 14.5762 9.17267C14.5115 8.91904 14.4703 8.6683 14.382 8.42332C14.4791 8.40603 14.6291 8.50978 14.7379 8.68847C14.8587 8.8935 14.9121 9.12999 14.8909 9.36579C14.8085 9.48684 14.5438 9.25051 14.4762 9.25915C14.5528 9.41964 14.5674 9.60191 14.5173 9.77217L14.4349 9.55601C14.329 9.8154 14.6526 10.0287 14.4349 10.3313C14.4026 10.4437 14.1261 10.6195 14.2379 10.6599C14.4908 10.5215 15.188 10.5821 15.3322 10.7406C15.207 10.9913 15.0488 11.2248 14.8615 11.4352C14.6438 11.5822 14.5203 11.0634 14.332 11.1931C14.382 11.2104 14.4232 11.3257 14.4321 11.3747C14.3585 11.4813 14.282 11.2882 14.2437 11.5476C14.4291 11.6369 14.1025 12.0606 14.3791 11.709C14.3791 11.9742 14.2702 11.9626 14.1908 12.2537C14.3408 12.1961 14.535 12.6457 14.485 12.9195C14.4438 12.8878 14.3585 12.9195 14.3202 12.9397C14.2329 13.15 14.1347 13.3559 14.0261 13.5565C13.9164 13.7427 13.8182 13.9352 13.7319 14.1329C13.6701 14.1559 13.5171 14.3519 13.4818 14.2222C13.5009 14.326 13.4897 14.4329 13.4495 14.5306C13.1553 14.7208 13.5789 14.2107 13.2877 14.326C13.3848 14.3923 13.2553 14.7497 13.223 14.9774C13.4142 14.9975 13.4819 14.5364 13.5172 14.3116C13.7407 14.4096 13.8113 14.8707 13.6584 15.401C13.5024 15.8074 13.4259 15.4904 13.4201 15.5711C13.2734 15.7822 13.1993 16.0335 13.2083 16.2887C13.2134 16.399 13.1915 16.5089 13.1444 16.6092C13.0973 16.7094 13.0264 16.7972 12.9377 16.8652C12.6435 17.0006 12.667 16.7067 12.5375 16.6951C12.6758 16.3781 12.9053 16.3003 13.0259 16.0956L12.8082 16.3032C12.8313 16.1464 12.9032 16.0005 13.0141 15.8852C12.8073 16.0752 12.6352 16.2984 12.5052 16.5453C12.3034 16.8575 12.0676 17.1474 11.8021 17.4099C11.7815 17.5252 11.7139 17.6981 11.8198 17.6751L11.9169 17.505C12.1258 17.4358 11.8404 17.9028 12.0375 17.7385C11.9794 18.0531 11.8244 18.3428 11.5933 18.5685L11.408 18.5138C11.4521 18.5397 11.6433 18.3898 11.6639 18.2746C11.6286 18.4446 11.1226 18.5628 11.1932 18.851C11.2815 18.8135 11.3697 18.7703 11.458 18.7299C11.3904 19.0441 11.2415 19.3359 11.0255 19.5773C11.2609 19.5773 11.0608 19.5052 11.3756 19.4591C11.0432 19.4591 11.9404 18.8135 11.5138 18.8827C11.8551 18.8423 11.8581 18.6175 12.2199 18.4907C12.1669 18.4619 12.061 18.5138 12.2581 18.3063C12.2536 18.2795 12.2536 18.2523 12.2581 18.2256C12.2119 18.2598 12.1569 18.2808 12.0992 18.2861C12.0757 18.0959 12.3405 17.7414 12.3729 17.5828C12.4935 17.4647 12.3728 17.6751 12.4935 17.6405C12.5082 17.5598 12.5228 17.4791 12.5346 17.3984C12.6552 17.4531 12.9671 17.1534 12.8082 17.5194L13.0141 17.2312C13.2046 17.0966 13.3475 16.9072 13.423 16.6894C13.5348 16.5625 13.5201 16.257 13.5319 16.4328C13.6084 16.2638 13.679 16.0908 13.7437 15.9141L13.776 15.9141C14.0702 15.4385 14.1172 14.8275 14.5909 14.349C14.6362 14.1236 14.7156 13.906 14.8262 13.7034L14.9527 13.6862C14.9968 13.4498 15.3204 13.0492 15.2322 12.9108C15.4175 12.833 15.5264 12.5563 15.5999 12.2508C15.6391 11.9593 15.6971 11.6705 15.7734 11.3862L15.6293 11.3401C15.6889 11.0334 15.7136 10.7212 15.7028 10.4091L15.5675 10.4091C15.5478 10.2142 15.5719 10.0175 15.6381 9.8327C15.6675 9.72318 15.6999 9.61078 15.7264 9.49261C15.7494 9.37378 15.7622 9.25327 15.7646 9.13234C15.8146 9.16692 15.7969 9.29085 15.7646 9.37731C15.8945 9.09225 15.9144 8.77065 15.8205 8.47231C15.7202 8.19512 15.6958 7.89696 15.7499 7.60766C15.6964 7.50846 15.6837 7.39292 15.7146 7.28486C15.7129 7.29537 15.7129 7.30605 15.7146 7.31656C15.7158 7.29832 15.7158 7.28005 15.7146 7.26182C15.7293 7.20129 15.7499 7.13787 15.7646 7.0687C15.7397 7.12097 15.7219 7.1762 15.7117 7.23298C15.6919 7.09595 15.6564 6.96155 15.6058 6.83236L15.7352 6.7459L15.7352 6.71131C15.7587 6.55279 15.6469 6.60179 15.5557 6.71131C15.5231 6.64536 15.4827 6.58344 15.4352 6.52685C15.6322 6.36545 15.291 6.15217 15.4763 5.95042C15.3322 5.87836 15.1822 5.22412 14.9086 5.23565C14.938 5.23565 14.935 5.17512 14.9674 5.23565C14.9543 5.06978 14.8897 4.91184 14.7821 4.78314L14.9262 4.65056C14.8086 4.56409 14.6733 4.48628 14.5497 4.40847C14.5497 4.16636 14.5674 4.0482 14.7909 4.19519C14.3673 3.79457 14.5144 3.82915 14.0996 3.53805L14.2114 3.49769C14.1495 3.42149 14.0794 3.35194 14.0025 3.29019C13.9231 3.2239 13.8554 3.16049 13.8672 3.0942C13.8325 2.94153 13.7665 2.79737 13.6731 2.67051C13.5301 2.47593 13.3738 2.29105 13.2053 2.11714C13.0259 1.91251 12.7935 1.73958 12.5935 1.54071C12.3935 1.34184 12.161 1.1862 11.9875 1.00175C11.9728 1.19485 11.9021 1.09686 11.808 0.981569C11.7139 0.866282 11.5815 0.745243 11.5138 0.849001C11.5138 0.753889 11.4021 0.650127 11.5786 0.664538C11.102 0.485844 10.9285 0.226443 10.5255 0.298497C10.499 0.203386 10.6666 0.229319 10.6343 0.165912C10.5902 0.165912 10.4607 0.165926 10.4254 0.108282C10.3901 0.0506391 10.5167 0.073695 10.6078 0.0708128C10.5283 0.0289354 10.4393 0.00700904 10.3489 0.00700904C10.2586 0.00700903 10.1697 0.0289354 10.0901 0.0708128C9.99237 0.144009 9.91949 0.244492 9.88119 0.359029C9.66644 0.194746 9.5341 0.165919 9.32818 0.281205C9.25758 0.19474 9.12517 0.0909773 9.43993 0.114035C9.27225 0.0823308 8.38682 -0.174185 8.35446 0.0390955C8.30445 -0.00990134 8.11324 0.013156 8.06029 0.0390954C7.7938 -0.00306585 7.52282 -0.010805 7.25427 0.0160507L7.3602 0.0419803C7.21606 0.269671 7.04835 0.105389 6.73947 0.151504L6.73947 0.125574C6.56975 0.0918744 6.3939 0.103825 6.23056 0.160159C6.06677 0.203413 5.89633 0.217091 5.72754 0.200513L5.79814 0.324444C5.79814 0.477199 5.64812 0.474305 5.43926 0.457012C5.22025 0.424377 4.99636 0.464997 4.80381 0.572306L4.9715 0.595368C4.88914 0.684715 4.70379 0.635719 4.51258 0.595368C4.34726 0.54453 4.17317 0.52687 4.00073 0.543474C3.94189 0.543474 4.05371 0.471425 4.10961 0.422428C3.4742 0.546361 4.10961 0.604015 3.74778 0.866292C3.62423 0.825942 3.71247 0.595353 3.43889 0.742344C3.35358 0.742344 3.19175 0.923936 3.03584 1.13722C2.89224 1.34449 2.69678 1.51219 2.46811 1.62429C2.58578 1.62429 2.70055 1.6243 2.58877 1.79723C2.43486 1.91889 2.27156 2.02874 2.1004 2.1258C2.01395 2.17095 1.93928 2.23498 1.88214 2.31295C1.82501 2.39092 1.78699 2.48072 1.77097 2.57541C1.75814 2.58153 1.74401 2.5847 1.72974 2.5847C1.71547 2.5847 1.70142 2.58153 1.68859 2.57541C1.64152 2.6907 1.54445 2.86363 1.46502 3.02791C1.39196 3.15847 1.35539 3.30562 1.35909 3.45447C1.29302 3.45262 1.22782 3.46962 1.17142 3.50339C1.11502 3.53716 1.0699 3.58624 1.04143 3.64468C0.963935 3.79363 0.905609 3.95144 0.867846 4.11448C0.773711 4.44593 0.756024 4.76297 0.535396 4.69091C0.460177 4.9266 0.398341 5.16619 0.350103 5.40857L0.311896 5.37975C0.258807 5.51151 0.235747 5.65305 0.244386 5.79445C0.253025 5.93585 0.293131 6.07369 0.361882 6.1983C0.32364 6.30205 0.288316 6.22135 0.264783 6.1983C0.199799 6.42888 0.177883 6.66907 0.200074 6.9073C0.240351 7.12183 0.323336 7.32652 0.444258 7.50968L0.306006 7.58748C0.348688 7.79711 0.367417 8.01075 0.361881 8.22445C0.369708 8.39247 0.398366 8.55894 0.447202 8.72019C0.487072 8.8911 0.558873 9.05331 0.658996 9.19862C0.641641 9.19818 0.624616 9.19378 0.609297 9.18578C0.593979 9.17777 0.580776 9.16639 0.570731 9.15251C0.680216 9.32484 0.762552 9.51237 0.814915 9.70877C0.891399 9.90476 0.950216 10.1123 1.01787 10.3025C1.17378 10.6685 1.34143 10.9798 1.65031 10.9337L2.05336 11.2507C1.70624 10.7262 2.2887 11.1873 2.20633 10.9308C2.3593 11.1066 2.50049 11.5072 2.26515 11.2997L2.26515 11.2478C1.97098 11.3372 2.71232 11.8934 2.58877 11.9943L2.9447 12.3142C3.06237 12.4209 3.1977 12.5102 3.32125 12.6025C3.57222 12.7978 3.8366 12.9759 4.11255 13.1356C4.38743 13.291 4.67126 13.4305 4.96267 13.5536C5.25204 13.6558 5.5466 13.7434 5.84518 13.8159C5.80977 13.7397 5.7784 13.6617 5.7511 13.5824C5.88347 13.6199 6.0217 13.6343 6.15996 13.6602C6.29822 13.6861 6.28348 13.8447 5.98343 13.7928C6.02903 13.8233 6.08161 13.8424 6.13648 13.8484C6.19134 13.8544 6.24685 13.8472 6.29821 13.8274L6.37764 13.8014C6.39074 13.7922 6.40178 13.7804 6.41004 13.7668C6.42769 13.7409 6.44825 13.7236 6.45413 13.7121C6.6071 13.7755 6.53652 13.8187 6.4718 13.8706C6.40708 13.9225 6.40413 13.911 6.38648 13.9254C6.36883 13.9398 6.36883 13.9542 6.38648 13.9542C6.40413 13.9542 6.44533 13.9542 6.47769 13.9542L6.47769 13.9311C6.52425 13.8806 6.58154 13.8407 6.6456 13.8143C6.70966 13.7879 6.77891 13.7756 6.84835 13.7784C6.93365 13.8216 6.78654 13.9023 6.8189 13.911C6.80419 13.9254 6.81888 13.9311 6.87183 13.911L6.83657 14.1358C6.90465 14.0746 6.9685 14.0092 7.02775 13.9398C7.11306 14.0118 7.00132 14.228 7.219 13.9888C7.13767 14.087 7.07214 14.1968 7.0248 14.3145C7.00308 14.3731 6.98445 14.4327 6.96893 14.4932C6.9454 14.5681 6.91303 14.6834 6.8895 14.7814C6.83237 15.0814 6.73338 15.3724 6.59533 15.646C6.59333 15.9638 6.50714 16.2756 6.34525 16.551C6.41586 16.4847 6.61593 16.5107 6.46002 16.7845C6.14526 16.5222 6.06874 17.237 5.68632 17.3263C5.96284 17.2139 5.3098 18.116 5.71282 17.9373C5.54808 18.1449 5.57453 17.8797 5.39215 18.0036C5.21564 18.6146 4.58615 19.096 4.17431 19.7329C4.20961 19.7733 4.34786 19.7329 4.31256 19.8943L3.85364 20.0471C3.7801 20.1768 4.00078 20.3353 3.68307 20.4391C3.74191 20.4391 3.83305 20.4391 3.77715 20.5226C3.18881 21.004 2.69169 21.566 2.10923 22.0415C1.96581 22.1586 1.81552 22.2674 1.65914 22.3672L1.4179 22.5027C1.3326 22.5488 1.27379 22.5834 1.15024 22.641C0.915502 22.7573 0.700265 22.9079 0.51191 23.0878C0.287792 23.2999 0.119213 23.5619 0.0205968 23.8515C0.100023 23.6873 0.141253 23.6728 0.141253 23.719C0.141253 23.7651 0.141232 23.8832 0.12064 24.0072C0.158883 23.8487 0.247114 24.0072 0.320656 23.9928C0.23193 24.3057 0.253759 24.6388 0.382492 24.9381C0.514869 24.9641 0.676642 25.1601 0.876678 25.2926C1.07671 25.4252 1.31204 25.4944 1.3797 25.4166C1.28561 25.403 1.19304 25.3808 1.10319 25.3503C1.32088 25.3272 1.2297 25.1629 1.18557 24.99C1.15125 24.917 1.13962 24.8357 1.15217 24.7562C1.16473 24.6768 1.20092 24.6027 1.25617 24.5433C1.09143 24.5577 1.06497 24.353 1.11792 24.2118C1.17087 24.0706 1.23849 23.9985 1.15318 23.7737C1.23849 23.742 1.20611 23.8688 1.2826 23.8631C1.20611 23.7507 1.24731 23.6267 1.44735 23.5374L1.44735 23.5749C1.49847 23.5277 1.55472 23.4861 1.61505 23.4509L1.82979 23.3356C1.98275 23.2549 2.12396 23.1858 2.27987 23.1166C2.62299 22.9413 2.95146 22.7399 3.26236 22.5142L3.11822 22.4566C3.21622 22.3859 3.32705 22.334 3.44478 22.3038C3.48302 21.9983 2.99764 22.6698 3.00941 22.3586C3.42419 22.4047 4.05076 21.3902 4.39494 21.4593C4.60674 21.2288 4.21258 21.4219 4.42439 21.1913L4.54497 21.1913L4.51258 21.0616C4.65672 20.9175 4.80681 20.906 4.86859 20.9463C4.82793 20.9981 4.79337 21.0541 4.7656 21.1135C5.0127 20.9694 5.21863 20.514 5.29217 20.4564C5.21863 20.5284 5.14214 20.5947 5.06566 20.661C5.5275 19.9491 6.20114 19.1507 6.45119 18.3553L6.36292 18.3754C6.54825 17.7759 6.67479 17.9806 6.92483 17.3436L6.92483 17.3724C6.93021 17.2014 6.97547 17.0337 7.05719 16.8825C7.05719 17.0698 7.32485 16.6432 7.31308 16.8825C7.4484 16.2052 7.34843 16.5308 7.28371 16.0351L7.41902 15.9746C7.35127 15.805 7.35127 15.6167 7.41902 15.4471C7.41902 15.7354 7.6485 15.2886 7.66615 15.6201C7.83588 15.3805 7.92057 15.0929 7.90731 14.8015C7.90879 14.6762 7.91865 14.551 7.93676 14.4269C7.96741 14.2931 8.02873 14.1679 8.11616 14.0608C7.872 13.6861 7.82205 14.8938 7.8044 14.6517C7.73674 14.7324 7.69844 14.6517 7.67785 14.5047C7.65546 14.3598 7.66147 14.2121 7.69552 14.0695C7.76465 13.9006 7.84628 13.7368 7.9397 13.5795C8.00263 13.4477 8.05381 13.3107 8.09268 13.1703C8.11772 13.0851 8.13736 12.9984 8.1515 12.9108C8.1515 12.8907 8.16621 12.8561 8.1515 12.8474L8.08679 12.8474L7.94265 12.8474C8.02208 12.8474 8.05146 12.8474 8.13383 12.8474C7.9778 12.8109 7.81625 12.8031 7.65731 12.8244C7.48614 12.8437 7.31274 12.823 7.15135 12.7639C7.03714 12.8242 6.9063 12.8474 6.77775 12.8301C6.67479 12.8301 6.57474 12.8302 6.53062 12.931C6.78066 12.9512 7.01305 12.931 7.25721 12.931C7.03952 12.9454 6.81595 13.0233 6.59533 13.055C6.49802 13.0697 6.39962 13.0765 6.30116 13.0751C6.19951 13.0665 6.10008 13.0411 6.00699 13.0002C6.09816 12.9497 6.19777 12.9156 6.30116 12.8993C6.18349 12.8071 6.03639 12.9166 5.91872 12.81C5.96285 12.7091 6.10404 12.7206 6.28055 12.7379C6.37174 12.7379 6.45705 12.7581 6.57472 12.761C6.72679 12.7756 6.88032 12.7629 7.02775 12.7235C6.95188 12.6951 6.87031 12.6842 6.78945 12.6918C6.7012 12.6918 6.54532 12.6918 6.52178 12.6918C6.41883 12.6918 6.3541 12.6918 6.44235 12.5823C6.39583 12.636 6.33212 12.6726 6.26159 12.6862C6.19106 12.6998 6.11786 12.6896 6.05403 12.6572C5.98169 12.6163 5.90158 12.5903 5.81861 12.5809C5.73564 12.5715 5.65159 12.5788 5.57162 12.6025L5.63339 12.4785C5.53691 12.5029 5.43569 12.5029 5.33922 12.4785C5.4157 12.4468 5.49219 12.4007 5.56868 12.3603C5.50025 12.3739 5.42936 12.369 5.36356 12.3462C5.29776 12.3233 5.23952 12.2834 5.19508 12.2307C5.10798 12.133 4.98986 12.067 4.85975 12.0433C5.36278 12.2364 4.90388 12.2364 5.08333 12.4151C4.95697 12.4098 4.83462 12.3698 4.73026 12.2998C4.6772 12.2426 4.6398 12.1732 4.62146 12.0981C4.60286 12.018 4.5678 11.9425 4.51847 11.8761C4.43005 11.7779 4.32451 11.6959 4.2067 11.6341C4.29201 11.683 4.48318 11.8992 4.30962 11.879C4.19643 11.7793 4.1088 11.6549 4.05373 11.5159C3.63601 11.2594 4.03017 11.6715 3.8066 11.6196C3.76542 11.3948 3.5742 11.513 3.35946 11.4035L3.45656 11.2997C3.26829 11.0807 3.19765 11.0951 3.12116 11.121C3.04468 11.147 2.97996 11.1729 2.82699 10.9394L3.12116 10.9769L2.89759 10.8069L3.0594 10.7463C2.94362 10.7052 2.84177 10.6334 2.76523 10.5388C2.70149 10.4474 2.64539 10.351 2.59753 10.2506C2.55635 10.3601 2.35343 10.3688 2.21517 10.1411C2.19163 9.94511 2.3828 10.1555 2.16805 9.85288C2.29161 9.8817 2.43282 9.89899 2.40635 10.1007C2.45342 10.1007 2.52403 10.1238 2.56816 10.1007C2.56816 9.89034 2.33576 9.69724 2.27399 9.57907C2.2931 9.62326 2.30593 9.6698 2.31219 9.71741C2.16805 9.59924 2.0357 9.46665 1.8945 9.33407C1.8945 9.23896 1.97392 9.27931 2.04158 9.33407C1.97686 9.24761 1.88567 9.20727 1.81801 9.06317C1.94156 9.06317 2.04157 9.00552 2.17983 9.18133C2.07099 9.05163 1.9798 8.91041 1.88566 8.77207C1.91508 8.72595 1.92982 8.48385 1.9916 8.53861C1.95705 8.38006 1.88446 8.23186 1.7798 8.10629C1.67356 7.95286 1.61433 7.77282 1.60916 7.58748C1.57127 7.55605 1.5445 7.51368 1.53267 7.46644C1.52826 7.38387 1.52826 7.30114 1.53267 7.21857C1.53267 7.13787 1.55623 7.05717 1.55917 6.97935C1.57364 6.80262 1.55463 6.62479 1.50323 6.45479C1.57971 6.38562 1.64443 6.31933 1.72385 6.25592C1.72385 5.95041 1.42968 6.52685 1.42968 6.00518C1.42968 5.62473 1.62389 5.89853 1.70037 5.78613C1.65036 5.59879 1.50912 5.20971 1.80329 4.95031C1.78235 5.06287 1.7468 5.17232 1.69743 5.276ZM3.96252 2.13443C3.91545 2.20361 3.85075 2.37077 3.75367 2.33619C3.7272 2.15749 3.83014 2.17478 3.96252 2.13443ZM9.96945 1.08246C9.89591 1.11128 9.81359 1.06516 9.72239 0.987339C9.81173 0.997718 9.89679 1.03048 9.96945 1.08246ZM13.0936 16.9833C13.1936 16.8854 13.2465 16.8364 13.0936 16.9833ZM12.7994 17.2716C12.7994 17.3148 12.7994 17.3234 12.8376 17.3206C12.8758 17.3177 12.8729 17.1995 12.9406 17.1217C12.9082 17.139 12.8553 17.1678 12.8141 17.286L12.7994 17.2716ZM6.85129 13.8994C6.85274 13.8879 6.85274 13.8763 6.85129 13.8648C7.00132 13.8447 6.9336 13.8821 6.86594 13.9138L6.85129 13.8994Z" fill="#EAEAEA"/>
<path d="M9.21924 1.08203C9.20561 1.05733 9.19954 1.02932 9.20164 1.00132C9.17517 1.01862 9.1604 1.04456 9.21924 1.08203Z" fill="#EAEAEA"/>
<path d="M14.2349 11.3203C14.2597 11.269 14.2971 11.2244 14.3438 11.1906C14.3114 11.1791 14.2731 11.2079 14.2349 11.3203Z" fill="#EAEAEA"/>
<path d="M11.7079 19.1445C11.7579 19.0725 11.7991 18.9947 11.8462 18.9197C11.7996 18.9861 11.7355 19.0389 11.6608 19.0725C11.6902 19.0898 11.7609 19.0696 11.7079 19.1445Z" fill="#EAEAEA"/>
<path d="M9.54863 20.2229C9.54863 20.2604 9.49569 20.2805 9.48393 20.318L9.53686 20.3555C9.6457 20.2229 9.68395 20.1191 9.54863 20.2229Z" fill="#EAEAEA"/>
<path d="M11.1904 19.0297C11.0845 18.9721 11.0109 19.1191 10.9109 19.269L10.9315 19.243C11.0227 19.39 11.1081 19.2084 11.1904 19.0297Z" fill="#EAEAEA"/>
<path d="M10.8872 19.3026C10.8558 19.3495 10.8193 19.393 10.7783 19.4323C10.8166 19.4899 10.8343 19.389 10.8872 19.3026Z" fill="#EAEAEA"/>
<path d="M12.5844 17.7523C12.5079 17.8042 12.6785 17.882 12.6079 17.8936C12.6785 18.0579 12.7992 17.3229 12.5844 17.7523Z" fill="#EAEAEA"/>
<path d="M10.7933 18.8943L10.9463 18.9375L10.9228 18.7876L10.7933 18.8943Z" fill="#EAEAEA"/>
<path d="M11.7611 17.873L11.5552 18.0747C11.5758 18.0747 11.5552 18.1237 11.5552 18.1641C11.6611 18.0315 11.7993 17.8931 11.7611 17.873Z" fill="#EAEAEA"/>
<path d="M11.5464 18.1624C11.4929 18.2183 11.4509 18.2839 11.4228 18.3555C11.4699 18.2949 11.5113 18.2303 11.5464 18.1624Z" fill="#EAEAEA"/>
<path d="M11.0109 18.5742L11.0873 18.5281L11.2227 18.3782L11.0109 18.5742Z" fill="#EAEAEA"/>
<path d="M13.4434 15.321C13.4817 15.2259 13.5199 15.1308 13.5522 15.0328C13.5199 14.9809 13.4581 15.0328 13.4199 15.1539C13.3816 15.2749 13.3758 15.3527 13.4434 15.321Z" fill="#EAEAEA"/>
<path d="M12.6287 15.9414C12.6772 15.9057 12.7358 15.8856 12.7964 15.8838L12.6434 15.7858L12.6287 15.9414Z" fill="#EAEAEA"/>
<path d="M13.0348 15.1582C13.0053 15.1092 13.1171 14.7114 12.9435 15.0487C12.973 15.0977 12.8612 15.3801 13.0348 15.1582Z" fill="#EAEAEA"/>
<path d="M14.8231 10.9698L14.8113 11.0476L15.1084 11.0938L14.8231 10.9698Z" fill="#EAEAEA"/>
<path d="M14.2114 7.06607C14.1937 7.40616 14.4085 7.11796 14.3584 7.43499C14.4379 7.50705 14.4025 7.17559 14.4731 7.24765C14.3761 7.05166 14.3849 6.94502 14.2114 7.06607Z" fill="#EAEAEA"/>
<path d="M14.47 7.25069C14.4858 7.28575 14.5045 7.31948 14.5259 7.35156C14.5105 7.31631 14.4918 7.28254 14.47 7.25069Z" fill="#EAEAEA"/>
<path d="M0.758874 25.5848C0.85989 25.6722 0.970406 25.7486 1.08838 25.8125C1.02026 25.7535 0.956399 25.6899 0.897197 25.6223L0.758874 25.5848Z" fill="#EAEAEA"/>
<path d="M1.49148 25.6321C1.49148 25.6955 1.52683 25.7618 1.54742 25.8281C1.6257 25.7816 1.70043 25.7296 1.771 25.6725C1.69451 25.6811 1.52678 25.684 1.49148 25.6321Z" fill="#EAEAEA"/>
<path d="M4.65674 2.14844L4.65674 2.10233C4.60379 2.07063 4.56264 2.10233 4.47733 2.1398L4.65674 2.14844Z" fill="#EAEAEA"/>
<path d="M2.54769 3.88672L2.58008 3.84925L2.38294 3.82907L2.54769 3.88672Z" fill="#EAEAEA"/>
<path d="M1.89437 6.03125C1.89742 5.93449 1.90827 5.83813 1.92676 5.74303C1.90322 5.9419 1.68551 6.01972 1.89437 6.03125Z" fill="#EAEAEA"/>
</g>
<defs>
<clipPath id="clip0_752_8770">
<rect width="33" height="26" fill="white" transform="translate(33 26) rotate(-180)"/>
</clipPath>
</defs>
</svg>
