<svg width="33" height="26" viewBox="0 0 33 26" fill="none" xmlns="http://www.w3.org/2000/svg">
<g clip-path="url(#clip0_752_8770)">
<path d="M14.0142 0.141223C14.1613 0.141223 14.1084 0.0259395 14.1319 0C13.8731 0.0432325 14.026 0.172927 14.0142 0.141223Z" fill="#EAEAEA"/>
<path d="M12.2024 0.963893L12.2112 0.90625L12.0259 1.13106L12.2024 0.963893Z" fill="#EAEAEA"/>
<path d="M10.7227 1.74403C10.9698 1.84202 11.2257 1.40682 11.5287 1.33476L11.5963 1.35494L11.6346 1.14453C11.347 1.36726 11.0421 1.5677 10.7227 1.74403Z" fill="#EAEAEA"/>
<path d="M9.72217 1.86074C9.81336 1.89821 9.59858 2.0279 9.91041 1.76562H9.86925L9.72217 1.86074Z" fill="#EAEAEA"/>
<path d="M9.86921 1.76486C10.0133 1.66111 9.73389 1.76486 9.86921 1.76486Z" fill="#EAEAEA"/>
<path d="M9.21619 2.26732L9.36328 2.07422C9.29562 2.07422 9.11907 2.17509 9.16319 2.10303C8.98963 2.27308 9.05734 2.28173 9.21619 2.26732Z" fill="#EAEAEA"/>
<path d="M9.11621 2.51523L9.19564 2.423C9.17799 2.41723 9.14563 2.43164 9.11621 2.51523Z" fill="#EAEAEA"/>
<path d="M9.37516 2.22266L9.20459 2.42441C9.2546 2.42441 9.29579 2.48206 9.28697 2.33506C9.30756 2.39847 9.31338 2.32065 9.37516 2.22266Z" fill="#EAEAEA"/>
<path d="M9.51367 2.16849C9.64899 2.13103 9.80783 2.06186 9.65192 2.2492C9.99904 1.97828 9.86962 1.89469 9.51367 2.16849Z" fill="#EAEAEA"/>
<path d="M10.7666 1.97865C10.8254 1.97865 10.8842 1.95271 10.946 1.94406L11.0372 1.80859C10.9902 1.87488 10.7225 1.92965 10.7666 1.97865Z" fill="#EAEAEA"/>
<path d="M7.98682 3.05643C8.00152 3.09678 8.12217 3.09678 8.17218 3.12848L8.27215 2.98438C8.1839 3.0132 8.03683 3.09966 7.98682 3.05643Z" fill="#EAEAEA"/>
<path d="M8.17202 3.12891L8.01904 3.34795C8.20437 3.21249 8.2132 3.15773 8.17202 3.12891Z" fill="#EAEAEA"/>
<path d="M9.23122 2.72336L9.47832 2.35156L9.1665 2.77236L9.23122 2.72336Z" fill="#EAEAEA"/>
<path d="M7.22188 3.67293L7.26601 3.5L7.17188 3.78533L7.22188 3.67293Z" fill="#EAEAEA"/>
<path d="M6.74525 4.11714C6.76584 3.98168 6.53637 4.11714 6.58638 3.99609C6.47787 4.12118 6.39592 4.26618 6.34521 4.42265C6.442 4.2817 6.58211 4.17468 6.74525 4.11714Z" fill="#EAEAEA"/>
<path d="M6.24805 4.6506C6.28533 4.5778 6.31778 4.50269 6.34515 4.42578C6.30056 4.49506 6.26775 4.571 6.24805 4.6506Z" fill="#EAEAEA"/>
<path d="M7.66601 3.6067C7.62675 3.59407 7.585 3.59061 7.54414 3.59662C7.50327 3.60262 7.46441 3.61792 7.43066 3.64128L7.58953 3.6701L7.66601 3.6067Z" fill="#EAEAEA"/>
<path d="M7.68708 3.58984L7.66602 3.60769C7.68412 3.61067 7.6901 3.60769 7.68708 3.58984Z" fill="#EAEAEA"/>
<path d="M8.62786 3.03125C8.54844 3.17536 8.3513 3.42034 8.65429 3.31947C8.68665 3.184 8.52784 3.25029 8.62786 3.03125Z" fill="#EAEAEA"/>
<path d="M7.88379 3.62679L8.11325 3.47979C8.08678 3.45962 8.01906 3.45384 8.05436 3.37891L7.88379 3.62679Z" fill="#EAEAEA"/>
<path d="M7.80715 3.7374L7.88364 3.625L7.80127 3.67976L7.80715 3.7374Z" fill="#EAEAEA"/>
<path d="M6.66889 4.41423C6.60653 4.5304 6.5262 4.63637 6.43066 4.72838C6.55815 4.63848 6.68088 4.54228 6.79838 4.44016C6.78661 4.39404 6.7895 4.29894 6.66889 4.41423Z" fill="#EAEAEA"/>
<path d="M7.12207 4.05078V4.07459C7.12509 4.07459 7.13716 4.06863 7.12207 4.05078Z" fill="#EAEAEA"/>
<path d="M5.41846 5.72879H5.45165L5.43958 5.71094L5.41846 5.72879Z" fill="#EAEAEA"/>
<path d="M6.8336 4.44002C6.87223 4.41855 6.90598 4.38958 6.93278 4.35489C6.95959 4.3202 6.9789 4.28053 6.98952 4.23828C6.9306 4.30977 6.86674 4.37716 6.79834 4.44002C6.80422 4.46019 6.81007 4.46884 6.8336 4.44002Z" fill="#EAEAEA"/>
<path d="M6.00091 4.96723C6.06787 4.94124 6.13281 4.91041 6.19511 4.875C6.12451 4.88941 5.99208 4.92976 6.00091 4.96723Z" fill="#EAEAEA"/>
<path d="M7.05761 4.08035V4.0625C7.01537 4.06845 7.02744 4.0744 7.05761 4.08035Z" fill="#EAEAEA"/>
<path d="M7.0569 4.07709C7.02906 4.12726 7.00735 4.18048 6.99219 4.23562C7.03648 4.18555 7.07585 4.13151 7.10983 4.07422L7.0569 4.07709Z" fill="#EAEAEA"/>
<path d="M5.72447 6.57534C5.65387 6.48888 5.77156 6.18914 6.04514 6.09114C6.15987 5.85192 5.76862 5.71069 5.4568 5.72799C5.48916 5.76834 5.52152 5.80003 5.39209 6.04213C5.50093 6.01043 5.90688 5.71646 5.82746 5.94703C5.63036 6.23525 5.60387 6.12572 5.44208 6.2093C5.64505 6.2093 5.29793 6.67334 5.50973 6.75692L5.65976 6.486C5.68035 6.50329 5.64504 6.61858 5.72447 6.57534Z" fill="#EAEAEA"/>
<path d="M5.81579 5.37164L5.88344 5.28516C5.76788 5.36151 5.63938 5.41713 5.50395 5.44944C5.4157 5.61949 5.41865 5.67426 5.43924 5.70884L5.83051 5.33417L5.81579 5.37164Z" fill="#EAEAEA"/>
<path d="M6.23629 4.94088C6.26277 5.08787 6.11275 5.3069 6.32456 5.28961C6.54813 5.0648 6.41278 5.06192 6.51279 4.89187C6.15979 5.27231 6.57166 4.73912 6.25101 4.94663C6.30497 4.87009 6.365 4.79781 6.43049 4.73047C6.35106 4.78235 6.27162 4.83134 6.19514 4.87458C6.22456 4.87458 6.23634 4.87458 6.20986 4.87458C6.22001 4.88912 6.22604 4.90602 6.22746 4.92359C6.10096 5.01005 6.18633 4.92357 6.20986 4.87458C6.23339 4.82558 6.20986 4.87458 6.20986 4.85728C6.09808 4.99563 5.98626 5.12821 5.8833 5.27232C6.00874 5.17007 6.12669 5.05932 6.23629 4.94088Z" fill="#EAEAEA"/>
<path d="M8.61015 3.69922C8.60535 3.70232 8.59974 3.70397 8.59399 3.70397C8.58824 3.70397 8.58256 3.70232 8.57776 3.69922C8.56305 3.71939 8.56014 3.73669 8.61015 3.69922Z" fill="#EAEAEA"/>
<path d="M8.39835 3.77748C8.404 3.74428 8.4169 3.71266 8.4362 3.6848C8.45549 3.65694 8.48069 3.6335 8.5101 3.61608C8.616 3.57862 8.54834 3.6622 8.57775 3.69102C8.61305 3.61897 8.7219 3.46044 8.50421 3.55844L8.48662 3.59302C8.29835 3.68813 7.98649 3.73713 8.00414 3.70255C8.12847 3.7551 8.26297 3.78066 8.39835 3.77748Z" fill="#EAEAEA"/>
<path d="M7.319 4.35938L7.03955 4.69081L7.27785 4.62453L7.22492 4.58417C7.42201 4.44007 7.32782 4.41702 7.319 4.35938Z" fill="#EAEAEA"/>
<path d="M5.33924 5.71954L5.28041 5.58984L5.24805 5.90112L5.33924 5.71954Z" fill="#EAEAEA"/>
<path d="M4.96582 6.15082L4.89522 6.05859L4.84521 6.21423L4.96582 6.15082Z" fill="#EAEAEA"/>
<path d="M13.3496 22.4309L13.3908 22.3242C13.3732 22.3582 13.3593 22.394 13.3496 22.4309Z" fill="#EAEAEA"/>
<path d="M12.8228 23.0437L12.8521 23.0955C12.8551 23.0465 12.8492 23.0206 12.8228 23.0437Z" fill="#EAEAEA"/>
<path d="M0.138164 18.875C0.0469717 19.0796 -0.0707078 19.3217 0.0528436 19.2785L0.16761 19.1978C0.126498 19.0952 0.11626 18.9831 0.138164 18.875Z" fill="#EAEAEA"/>
<path d="M6.46901 25.3409L6.42492 25.2891L6.27783 25.3726L6.46901 25.3409Z" fill="#EAEAEA"/>
<path d="M6.70996 24.8633L6.91881 24.9757C6.8537 24.9307 6.78365 24.893 6.70996 24.8633Z" fill="#EAEAEA"/>
<path d="M14.2789 18.3753C14.231 18.3397 14.1809 18.307 14.1289 18.2773C14.1671 18.4618 14.2113 18.3725 14.2789 18.3753Z" fill="#EAEAEA"/>
<path d="M1.69441 10.9258C1.59705 11.0244 1.51299 11.1348 1.44434 11.2544C1.5973 11.1102 1.76207 11.018 1.69441 10.9258Z" fill="#EAEAEA"/>
<path d="M14.2086 23.5212C14.2468 23.4462 14.2439 23.3972 14.2086 23.3828C14.188 23.4664 14.1703 23.5125 14.2086 23.5212Z" fill="#EAEAEA"/>
<path d="M1.25331 11.6833C1.27684 11.6603 1.29448 11.6372 1.31507 11.6142C1.34016 11.4886 1.38375 11.3672 1.44449 11.2539C1.38047 11.3058 1.32983 11.3717 1.29661 11.4463C1.2634 11.5209 1.24856 11.6021 1.25331 11.6833Z" fill="#EAEAEA"/>
<path d="M11.1548 4.83947C11.1671 4.83114 11.1799 4.82344 11.1931 4.81641C11.1931 4.81641 11.1754 4.81641 11.1548 4.83947Z" fill="#EAEAEA"/>
<path d="M15.7734 1.60938C15.7969 1.71731 15.8068 1.82766 15.8029 1.93795C15.8161 1.8276 15.8061 1.71578 15.7734 1.60938Z" fill="#EAEAEA"/>
<path d="M3.47119 7.87666C3.53591 7.7729 3.47119 7.85072 3.47119 7.87666Z" fill="#EAEAEA"/>
<path d="M4.22723 7.71094C4.22367 7.7241 4.22376 7.73795 4.22737 7.7511C4.23099 7.76425 4.23802 7.77623 4.24784 7.78586C4.23187 7.76418 4.22453 7.73754 4.22723 7.71094Z" fill="#EAEAEA"/>
<path d="M1.55615 13.0609C1.58934 13.046 1.58029 13.049 1.55615 13.0609Z" fill="#EAEAEA"/>
<path d="M3.62702 7.76562C3.58233 7.7949 3.54087 7.82871 3.50342 7.86649C3.54776 7.83677 3.58918 7.803 3.62702 7.76562Z" fill="#EAEAEA"/>
<path d="M3.5625 7.74898L3.63604 7.67404C3.62722 7.6481 3.60957 7.65098 3.5625 7.74898Z" fill="#EAEAEA"/>
<path d="M3.37695 8.01707C3.41364 7.96291 3.45602 7.91267 3.50343 7.86719C3.48283 7.86719 3.47111 7.88448 3.47111 7.86719L3.37695 8.01707Z" fill="#EAEAEA"/>
<path d="M9.63981 13.0703H9.61626C9.49859 13.0934 9.54862 13.0905 9.63981 13.0703Z" fill="#EAEAEA"/>
<path d="M2.53301 21.6867C2.3065 21.6261 2.27997 21.5281 2.25938 21.3984L1.98877 21.6867C2.16233 21.6924 2.35063 21.6895 2.53301 21.6867Z" fill="#EAEAEA"/>
<path d="M14.2055 20.7262L14.0055 20.9308C13.9437 20.585 14.0378 20.4034 13.8319 20.5763C14.0231 20.6513 13.9407 20.8818 13.8671 21.1124C13.7936 21.343 13.673 21.562 13.8437 21.6715C13.7931 21.7113 13.74 21.7479 13.6848 21.7811C13.7142 21.7407 13.6848 21.7234 13.7259 21.6859C13.3818 21.8704 13.8584 22.0433 13.5554 22.3834C13.4377 22.4901 13.3259 22.542 13.3494 22.4296C13.3082 22.5391 13.2729 22.6544 13.22 22.761C13.167 22.8676 13.1112 22.761 13.1818 22.7005L12.8582 23.1069C12.8384 23.2323 12.8039 23.3552 12.7552 23.4729C12.617 23.5248 12.7787 23.3951 12.717 23.3835L12.564 23.6718C12.4081 23.6718 12.5228 23.4354 12.6788 23.3115C12.4434 23.2596 12.4199 23.3115 12.3846 23.4152C12.3485 23.4979 12.2914 23.5701 12.2188 23.6251C12.1462 23.6801 12.0605 23.716 11.9698 23.7294L12.1522 23.5277C11.8786 23.4556 11.7697 23.6487 11.4432 23.6775C11.4902 23.6775 11.6609 23.6775 11.8021 23.7092C11.9433 23.7409 12.0404 23.764 11.9433 23.8966C11.881 23.9119 11.8227 23.9399 11.772 23.9786C11.7214 24.0173 11.6795 24.0659 11.6492 24.1214C11.5697 24.0003 11.4579 24.1214 11.2726 24.2194L11.1991 24.0493C11.0284 24.1906 11.0872 24.2684 11.0049 24.4038C10.9278 24.4356 10.8419 24.44 10.7619 24.4164C10.6819 24.3927 10.6128 24.3424 10.5666 24.2741C10.1959 24.3808 10.9048 24.3952 10.4812 24.5883C10.3296 24.6104 10.1813 24.6511 10.04 24.7093C9.90172 24.767 9.76351 24.8679 9.5723 24.9428C9.3252 24.9169 9.59289 24.8246 9.49876 24.7872L9.31634 24.963C9.26633 24.963 9.27519 24.9197 9.28107 24.8967C9.1134 24.9745 9.28103 25.0898 9.01628 25.1647C8.98686 25.2685 8.82801 25.2022 8.64562 25.1388C8.55489 25.0943 8.45568 25.069 8.35432 25.0645C8.25296 25.0601 8.15172 25.0765 8.05728 25.1128C7.97197 25.0552 8.10437 25.0033 8.08084 24.9284C7.79578 24.9951 7.51491 25.0779 7.23955 25.1762L6.92182 25.0033C7.14539 25.1734 6.79827 25.2915 6.48057 25.3665C6.53443 25.4404 6.59879 25.5064 6.67175 25.5625C6.50681 25.5668 6.34177 25.561 6.17756 25.5452C6.12756 25.5019 6.19224 25.4529 6.28931 25.3982L6.19229 25.4184C6.0452 25.3088 6.16284 25.231 6.30404 25.1618L6.4364 25.3146C6.57466 25.2368 6.7012 25.1388 6.7012 25.0264C6.6509 25.038 6.59852 25.038 6.54822 25.0264C6.58352 25.0033 6.60703 24.9831 6.59821 24.9601C6.58938 24.937 6.53644 24.9601 6.45407 24.9918L6.40703 24.767L6.36286 24.839C6.18669 24.7545 6.01666 24.6582 5.85395 24.5508C5.63332 24.571 5.40095 24.6258 5.14208 24.6402C4.84471 24.6389 4.551 24.576 4.28018 24.4557C4.50375 24.4269 4.44195 24.2684 4.54785 24.1243C4.60374 24.3779 5.0362 24.3001 5.31272 24.4788C5.15975 24.3923 5.23621 24.3231 5.28622 24.3203L4.67727 24.1934C4.76552 24.0781 4.62432 24.0407 4.53313 23.9052C4.50077 24.058 4.3831 24.0378 4.23896 23.9657C4.09481 23.8937 3.9242 23.7784 3.80654 23.7236C3.81889 23.7019 3.83739 23.684 3.85983 23.6723C3.88226 23.6605 3.90765 23.6553 3.93301 23.6574C4.02676 23.686 4.1131 23.7341 4.18603 23.7986C4.11543 23.6257 3.99191 23.6199 3.85071 23.6199C3.7095 23.6199 3.55649 23.6199 3.50648 23.4412C3.56237 23.4873 3.58295 23.5248 3.63884 23.5075C3.4388 23.47 3.20347 23.104 3.34467 23.1213L3.39473 23.1731C3.06232 22.8215 2.48275 22.0203 2.24153 22.0779C2.35433 22.0331 2.47173 22.0003 2.59165 21.9799C2.3975 21.9309 2.2004 21.8733 2.00331 21.8099C1.80621 21.7465 1.61795 21.6629 1.41497 21.5793C1.64148 21.5591 1.97974 21.0836 2.26214 21.3948C2.23891 21.227 2.16041 21.0712 2.03857 20.951C2.03857 21.0317 1.83856 21.2392 1.77385 21.1585C1.82909 20.9442 1.86254 20.725 1.87382 20.5043C1.87382 20.6282 1.50907 20.6167 1.45023 20.4293C1.50907 20.4437 1.76205 20.3169 1.81794 20.3688C1.65909 20.2593 1.52377 20.1353 1.36786 20.0114C1.45905 20.1094 1.64442 19.9567 1.70914 19.8356C1.68266 19.8673 1.65618 19.7693 1.62971 19.6511C1.61525 19.544 1.59263 19.438 1.56205 19.3341L1.52377 19.5416C1.48259 19.0171 0.935483 19.1122 0.911949 18.5588C0.985491 18.6193 1.34725 18.6683 1.35902 18.4003C1.17416 18.3045 0.999768 18.1905 0.838406 18.0602C0.618118 17.8884 0.451016 17.6598 0.355927 17.4002L0.453026 17.3051L0.358872 16.9189C0.485365 17.0428 0.65303 17.2734 0.861891 17.4953C1.04169 17.6959 1.21057 17.9056 1.36786 18.1236C1.43846 17.9218 1.4826 18.0602 1.46201 17.7691C1.55026 17.6624 1.60616 17.9218 1.61204 18.0054L1.65032 17.3339C1.45028 17.3656 1.47083 16.8122 1.30609 16.8295C1.36787 17.0831 1.41204 17.3339 1.49734 17.5789C1.40321 17.5789 1.25018 17.4924 1.14134 17.3137C1.02249 17.108 0.970176 16.8718 0.991309 16.6364C1.07368 16.5153 1.33848 16.7517 1.40613 16.743C1.32787 16.583 1.31315 16.4001 1.36491 16.23L1.44729 16.4462C1.55319 16.1868 1.22962 15.9735 1.46201 15.6709C1.49437 15.5585 1.77087 15.3827 1.65908 15.3394C1.40609 15.4806 0.705975 15.4201 0.561832 15.2616C0.688092 15.0115 0.846276 14.7781 1.03253 14.567C1.25316 14.4171 1.37673 14.9359 1.565 14.8091C1.51205 14.7918 1.47378 14.6765 1.46201 14.6275C1.53555 14.5209 1.61495 14.714 1.65319 14.4546C1.46786 14.3652 1.7944 13.9416 1.51788 14.2932C1.51788 14.028 1.62677 14.0396 1.70619 13.7456C1.55617 13.8061 1.362 13.3565 1.3973 13.0827C1.43848 13.1144 1.52381 13.0827 1.56205 13.0625C1.64883 12.851 1.74702 12.6441 1.85622 12.4428C1.96545 12.2564 2.06367 12.0639 2.15039 11.8664C2.21217 11.8434 2.36509 11.6474 2.4004 11.7771C2.3813 11.6733 2.39255 11.5664 2.43279 11.4687C2.72696 11.2785 2.30336 11.7886 2.59459 11.6733C2.49752 11.607 2.624 11.2496 2.6593 11.0191C2.46809 10.9989 2.40043 11.4629 2.36513 11.6877C2.14156 11.5897 2.07097 11.1286 2.22394 10.5954C2.37985 10.1919 2.45628 10.5089 2.46216 10.4282C2.60713 10.2164 2.68122 9.96553 2.67402 9.71056C2.66741 9.6001 2.68859 9.48973 2.73579 9.3892C2.78299 9.28868 2.85473 9.20109 2.94464 9.13413C3.23881 8.99867 3.21523 9.29264 3.34467 9.30417C3.20347 9.62121 2.97698 9.69903 2.85637 9.90078L3.07406 9.69327C3.05153 9.85104 2.97959 9.99805 2.86815 10.1141C3.07463 9.9227 3.24668 9.6986 3.37706 9.45116C3.57757 9.1388 3.81237 8.84886 4.07722 8.58651C4.09781 8.46834 4.16547 8.2983 4.07722 8.32136L3.98012 8.4914C3.76832 8.56057 4.05656 8.09366 3.85947 8.25794C3.91641 7.94292 4.0716 7.65293 4.30367 7.42788L4.48903 7.48264C4.44196 7.4567 4.25366 7.60658 4.23012 7.72186C4.26837 7.55181 4.77143 7.43365 4.70377 7.14543C4.6116 7.18194 4.52337 7.22228 4.43905 7.26648C4.50484 6.95233 4.65283 6.66033 4.86852 6.41912C4.63613 6.41912 4.83611 6.4883 4.52135 6.5373C4.85082 6.5373 3.95655 7.1829 4.38015 7.11373C4.03892 7.15408 4.03895 7.37888 3.67417 7.5057C3.73007 7.53452 3.83299 7.48265 3.63884 7.69016C3.64175 7.71602 3.64175 7.74213 3.63884 7.76799C3.68395 7.73334 3.73787 7.7114 3.79476 7.70457C3.82123 7.89768 3.55356 8.25218 3.52414 8.4107C3.40059 8.52887 3.50946 8.31847 3.40356 8.35306C3.38591 8.43376 3.37116 8.51447 3.35939 8.59517C3.23878 8.54041 2.92993 8.84015 3.08878 8.47124L2.88287 8.75945C2.69184 8.89348 2.54873 9.08305 2.47394 9.30128C2.35921 9.4281 2.3769 9.73361 2.36513 9.5578C2.28571 9.72785 2.21806 9.90077 2.15334 10.0766H2.12095C1.82678 10.5521 1.77676 11.1632 1.30609 11.6387C1.2612 11.8652 1.18186 12.0838 1.07074 12.2872L0.941323 12.3045C0.897197 12.5408 0.576569 12.9415 0.66482 13.0798C0.479493 13.1576 0.37065 13.4343 0.297108 13.7398C0.256404 14.0311 0.198427 14.3198 0.123521 14.6045L0.264717 14.6506C0.207477 14.9576 0.183812 15.2696 0.194119 15.5815H0.326553C0.347523 15.7762 0.324355 15.973 0.258828 16.158C0.229411 16.2646 0.197107 16.3799 0.16769 16.4981C0.145469 16.6169 0.133625 16.7375 0.132355 16.8583C0.0823462 16.8237 0.0999964 16.6998 0.132355 16.6133C0.00108085 16.8981 -0.0187935 17.2202 0.07648 17.5183C0.175382 17.7958 0.199693 18.0936 0.147078 18.383C0.197876 18.483 0.210363 18.5975 0.182341 18.7058C0.183999 18.6953 0.183999 18.6846 0.182341 18.6741C0.182341 18.6741 0.182341 18.7058 0.182341 18.7288C0.182341 18.7519 0.147064 18.8528 0.132355 18.9219C0.157224 18.8697 0.175004 18.8145 0.185286 18.7577C0.203836 18.8946 0.238411 19.029 0.288274 19.1583L0.161801 19.2447C0.160536 19.2562 0.160536 19.2679 0.161801 19.2793C0.138267 19.4379 0.250009 19.3889 0.33826 19.2793C0.371811 19.3454 0.413337 19.4073 0.46186 19.4638C0.264766 19.6252 0.603021 19.8385 0.420636 20.0402C0.564779 20.1123 0.714858 20.7665 0.988436 20.755C0.959019 20.755 0.958962 20.8155 0.929545 20.755C0.943546 20.9202 1.00703 21.0776 1.11196 21.2075L0.970769 21.3401C1.08844 21.4266 1.22376 21.5044 1.34731 21.5822C1.34731 21.8243 1.32964 21.9425 1.10608 21.7955C1.52968 22.1961 1.37968 22.1615 1.79446 22.4526L1.68558 22.4901C1.74558 22.5679 1.81468 22.6385 1.89149 22.7005C1.97091 22.7668 2.03856 22.8273 2.02974 22.8965C2.06323 23.0495 2.12944 23.1939 2.22394 23.3201C2.36512 23.5161 2.52144 23.7011 2.69162 23.8735C2.86812 24.0782 3.10348 24.2511 3.30352 24.45C3.50355 24.6488 3.73301 24.8045 3.89186 24.9889C3.90657 24.7958 3.9772 24.8938 4.07133 25.0091C4.16547 25.1244 4.29784 25.2454 4.3655 25.1417C4.3655 25.2368 4.48017 25.3405 4.30367 25.3261C4.78022 25.5048 4.95086 25.7642 5.35682 25.6922C5.38329 25.7873 5.21271 25.7613 5.24507 25.8247C5.28919 25.8247 5.42156 25.8247 5.45392 25.8824C5.48628 25.94 5.36269 25.917 5.27444 25.9198C5.35411 25.9615 5.44306 25.9832 5.53335 25.9832C5.62364 25.9832 5.71251 25.9615 5.79218 25.9198C5.88901 25.8458 5.9616 25.7456 6.00103 25.6316C6.21578 25.7959 6.34525 25.8247 6.55411 25.7095C6.62471 25.7959 6.75705 25.8997 6.44229 25.8737C6.60997 25.9083 7.49253 26.1619 7.52783 25.9515C7.57784 26.0005 7.76905 25.9775 7.822 25.9515C8.08862 25.9924 8.35943 26.0001 8.62802 25.9746L8.51915 25.9487C8.66329 25.721 8.83394 25.8853 9.13988 25.8391V25.8651C9.30863 25.8985 9.48347 25.8866 9.64584 25.8305C9.8107 25.7876 9.98204 25.774 10.1518 25.7901L10.0812 25.6662C10.0812 25.5135 10.2312 25.5192 10.4401 25.5336C10.6582 25.5665 10.8811 25.5259 11.0725 25.4184L10.9078 25.3953C10.9902 25.3059 11.1725 25.3549 11.3637 25.3953C11.5301 25.4461 11.7051 25.4638 11.8785 25.4472C11.9344 25.4472 11.8256 25.5192 11.7697 25.5682C12.4051 25.4443 11.7697 25.3866 12.1286 25.1244C12.2522 25.1647 12.1669 25.3953 12.4405 25.2483C12.5228 25.2483 12.6846 25.0667 12.8434 24.8534C12.9856 24.6449 13.1815 24.4769 13.4112 24.3664C13.2906 24.3664 13.1758 24.3664 13.2876 24.1934C13.4431 24.0725 13.6073 23.9626 13.7789 23.8649C13.8654 23.8197 13.9401 23.7557 13.9972 23.6777C14.0543 23.5997 14.0924 23.5099 14.1084 23.4152C14.1207 23.4092 14.1343 23.406 14.1481 23.406C14.1619 23.406 14.1755 23.4092 14.1878 23.4152C14.2349 23.3 14.332 23.127 14.4114 22.9627C14.4858 22.8327 14.5225 22.6852 14.5173 22.5362C14.5837 22.5375 14.649 22.5204 14.7058 22.4867C14.7625 22.453 14.8084 22.4042 14.8379 22.346C14.915 22.1971 14.9723 22.0392 15.0086 21.8762C15.1027 21.5447 15.1232 21.2277 15.3409 21.2997C15.4172 21.0653 15.4791 20.8266 15.5263 20.585L15.5675 20.6138C15.6208 20.4816 15.644 20.3396 15.6353 20.1977C15.6267 20.0558 15.5865 19.9174 15.5175 19.7924C15.5528 19.6886 15.591 19.7693 15.6146 19.7924C15.6781 19.5615 15.7 19.3216 15.6793 19.0833C15.6374 18.8693 15.5545 18.6649 15.4351 18.481L15.5733 18.4032C15.5309 18.1945 15.5121 17.9818 15.5175 17.7691C15.5099 17.6001 15.4812 17.4326 15.4321 17.2705C15.39 17.0998 15.3173 16.9378 15.2174 16.792C15.2352 16.7923 15.2527 16.7965 15.2685 16.8045C15.2844 16.8126 15.2981 16.8241 15.3086 16.8381C15.1981 16.666 15.1148 16.4785 15.0615 16.2819C14.9879 16.0859 14.9262 15.8784 14.8615 15.6882C14.7056 15.3221 14.5378 15.0137 14.229 15.057L13.826 14.7399C14.1731 15.2645 13.5877 14.8033 13.673 15.0627C13.52 14.884 13.3789 14.4863 13.6142 14.6909V14.7428C13.9084 14.6535 13.1641 14.0972 13.2906 13.9963L12.9317 13.6764C12.817 13.5698 12.6816 13.4804 12.5581 13.3882C12.3066 13.1935 12.0423 13.0154 11.7668 12.855C11.491 12.7014 11.2072 12.5619 10.9167 12.4371C10.6225 12.3344 10.323 12.2468 10.0194 12.1748C10.0518 12.2497 10.0841 12.3247 10.1135 12.4083C9.97821 12.3708 9.83998 12.3564 9.70466 12.3304C9.56934 12.3045 9.58114 12.146 9.88119 12.1979C9.83559 12.1674 9.78301 12.1483 9.72815 12.1422C9.67328 12.1362 9.61777 12.1434 9.56641 12.1633L9.48698 12.1892C9.47378 12.1993 9.46189 12.2109 9.45164 12.2238C9.43661 12.2411 9.42288 12.2594 9.41049 12.2786C9.25458 12.2152 9.32811 12.1719 9.39282 12.12C9.45754 12.0682 9.46049 12.0797 9.47814 12.0653C9.49579 12.0509 9.47814 12.0365 9.47814 12.0365C9.47814 12.0365 9.41635 12.0365 9.38693 12.0365V12.0595C9.34037 12.1101 9.28308 12.15 9.21902 12.1764C9.15497 12.2028 9.08571 12.215 9.01628 12.2123C8.93097 12.169 9.07808 12.0883 9.04572 12.0797C9.06043 12.0653 9.04574 12.0595 8.99279 12.0797L9.02511 11.852C8.95778 11.9139 8.89397 11.9793 8.83393 12.048C8.75156 11.9759 8.86331 11.7598 8.64562 11.999C8.72769 11.9018 8.79239 11.7917 8.83687 11.6733C8.85993 11.6152 8.87859 11.5554 8.89275 11.4946C8.91628 11.4226 8.95159 11.3044 8.97513 11.2064C9.03129 10.9061 9.13032 10.615 9.2693 10.3418C9.27161 10.0235 9.35668 9.71102 9.51642 9.43387C9.44876 9.50016 9.24869 9.47422 9.4046 9.20041C9.71936 9.46269 9.79294 8.74791 10.1754 8.65857C9.90178 8.77097 10.5548 7.86885 10.1518 8.04755C10.3136 7.84003 10.2901 8.1052 10.4695 7.98126C10.649 7.37025 11.2755 6.88892 11.6874 6.25197C11.655 6.21162 11.5138 6.25197 11.5521 6.09057L12.008 5.9378C12.0845 5.8081 11.8638 5.64959 12.1786 5.54583C12.1198 5.54583 12.0316 5.54582 12.0875 5.46512C12.6758 4.9838 13.1729 4.42179 13.7554 3.94623C13.8975 3.82667 14.0479 3.71688 14.2055 3.61766L14.4438 3.48221C14.5291 3.4361 14.5908 3.4015 14.7114 3.34385C14.9467 3.22707 15.1629 3.0765 15.3527 2.89712C15.5749 2.68397 15.7423 2.4222 15.8411 2.13334C15.7617 2.29763 15.7234 2.31204 15.7204 2.26593C15.7175 2.21981 15.7381 2.10453 15.744 1.97771C15.7057 2.13623 15.6175 1.97771 15.544 1.99212C15.6318 1.67886 15.6089 1.34574 15.4792 1.04678C15.3497 1.02084 15.185 0.827722 14.985 0.692261C14.785 0.556799 14.5526 0.490511 14.4849 0.56833C14.579 0.58189 14.6716 0.604096 14.7614 0.634631C14.5408 0.657689 14.6349 0.821972 14.6791 0.994902C14.7119 1.06823 14.7227 1.14921 14.7102 1.22834C14.6977 1.30747 14.6624 1.38147 14.6085 1.44163C14.7732 1.42722 14.7997 1.63185 14.7467 1.77307C14.6938 1.9143 14.6261 1.98924 14.7085 2.21117C14.6261 2.24575 14.6585 2.11894 14.582 2.12182C14.6585 2.23422 14.6144 2.35816 14.4143 2.44751V2.41004C14.3622 2.45725 14.3049 2.4988 14.2437 2.53397L14.0319 2.64926C13.8789 2.72996 13.7377 2.79914 13.5818 2.86831C13.2381 3.04412 12.9087 3.24549 12.5964 3.47067L12.7435 3.52832C12.6445 3.59922 12.5327 3.65105 12.414 3.68106C12.3787 3.98657 12.8611 3.31505 12.8523 3.62632C12.4375 3.5802 11.8109 4.59761 11.4638 4.52555C11.252 4.75901 11.6462 4.56302 11.4373 4.79359H11.3138L11.3462 4.92329C11.205 5.0674 11.0519 5.07892 10.9931 5.03857C11.0337 4.98683 11.0683 4.93075 11.0961 4.8714C10.849 5.01551 10.643 5.4709 10.5695 5.52854C10.6401 5.45649 10.7195 5.39019 10.796 5.3239C10.3342 6.03579 9.66053 6.83415 9.40755 7.62963L9.49876 7.60945C9.31343 8.20894 9.18689 8.00432 8.93685 8.64127V8.61246C8.93147 8.78354 8.8862 8.95115 8.80448 9.10243C8.80448 8.91509 8.53683 9.34165 8.54859 9.10243C8.41327 9.78262 8.51325 9.45404 8.57797 9.94977L8.44266 10.0103C8.51002 10.1809 8.51002 10.37 8.44266 10.5406C8.44266 10.2524 8.21613 10.6962 8.19848 10.3648C8.02874 10.6044 7.94405 10.892 7.95731 11.1833C7.95731 11.2871 7.95728 11.4456 7.92786 11.558C7.89769 11.6925 7.83519 11.818 7.74551 11.9241C7.98968 12.2987 8.03963 11.0911 8.06022 11.3332C8.12788 11.2525 8.16324 11.3332 8.18677 11.4802C8.20663 11.6253 8.19964 11.7727 8.16616 11.9154C8.09956 12.0849 8.01887 12.2488 7.92492 12.4054C7.86092 12.5371 7.80875 12.674 7.769 12.8146C7.74841 12.8953 7.72783 12.9818 7.71312 13.074C7.71312 13.0942 7.69547 13.1288 7.71312 13.1375H7.77783H7.92197C7.84255 13.1375 7.81316 13.1375 7.73079 13.1375C7.88682 13.1739 8.04837 13.1818 8.20731 13.1605C8.37848 13.1412 8.55188 13.1619 8.71327 13.221C8.82748 13.1607 8.95832 13.1375 9.08688 13.1548C9.18983 13.1548 9.28988 13.1547 9.334 13.0539C9.08102 13.0337 8.85157 13.0539 8.60741 13.0539C8.8251 13.0395 9.04573 12.9616 9.2693 12.9299C9.36661 12.9152 9.46501 12.9084 9.56346 12.9098C9.6651 12.9185 9.76453 12.9438 9.85763 12.9847C9.76688 13.036 9.66709 13.0702 9.56346 13.0856C9.68113 13.1778 9.82823 13.0683 9.9459 13.1749C9.90177 13.2758 9.75764 13.2643 9.58408 13.247C9.49288 13.247 9.40463 13.2268 9.28991 13.2239C9.13783 13.2093 8.9843 13.222 8.83687 13.2614C8.91269 13.29 8.99431 13.3009 9.07517 13.2931C9.16342 13.2931 9.3193 13.2931 9.34284 13.2931C9.4458 13.2931 9.51052 13.2931 9.41932 13.4026C9.46633 13.3487 9.53057 13.3119 9.6016 13.2983C9.67264 13.2847 9.74632 13.2951 9.81059 13.3277C9.88294 13.3686 9.96305 13.3945 10.046 13.404C10.129 13.4134 10.213 13.4061 10.293 13.3824L10.2312 13.5064C10.3277 13.482 10.4289 13.482 10.5254 13.5064C10.4468 13.5417 10.3702 13.5812 10.2959 13.6245C10.3644 13.6113 10.4352 13.6163 10.5009 13.6392C10.5667 13.662 10.6249 13.7017 10.6695 13.7542C10.7566 13.8519 10.8748 13.9179 11.0049 13.9416C10.5018 13.7485 10.9607 13.7485 10.7813 13.5698C10.9076 13.5756 11.0298 13.6155 11.1344 13.6851C11.1874 13.7422 11.2248 13.8116 11.2432 13.8868C11.2624 13.967 11.2964 14.0432 11.3432 14.1116C11.4333 14.2073 11.5386 14.288 11.655 14.3508C11.5726 14.3018 11.3814 14.0857 11.5521 14.1059C11.6671 14.204 11.7551 14.3288 11.8079 14.469C12.2286 14.7255 11.8345 14.3134 12.058 14.3652C12.0963 14.5901 12.2904 14.4719 12.5052 14.5814L12.4081 14.6852C12.5963 14.9042 12.667 14.8898 12.7405 14.8639C12.8141 14.8379 12.8817 14.812 13.0347 15.0454L12.7405 15.008L12.9641 15.178L12.8023 15.2385C13.0965 15.374 13.1112 15.4893 13.2524 15.7372C13.2906 15.6305 13.4936 15.619 13.6348 15.8467C13.6583 16.0427 13.4671 15.8323 13.6789 16.1349C13.5583 16.1032 13.4171 16.0859 13.4436 15.8842C13.3965 15.8842 13.3259 15.8611 13.2788 15.8842C13.2788 16.0945 13.5112 16.2877 13.573 16.4058C13.5539 16.3616 13.541 16.3151 13.5348 16.2675C13.6789 16.3857 13.8083 16.5182 13.9525 16.6508C13.9525 16.7488 13.873 16.7056 13.8054 16.6508C13.8701 16.7373 13.9583 16.7776 14.0289 16.939C13.9054 16.939 13.8054 16.9938 13.6642 16.818C13.773 16.9477 13.8672 17.0889 13.9731 17.2272C13.9437 17.2733 13.9289 17.5155 13.8671 17.4607C13.9017 17.6193 13.9743 17.7675 14.079 17.893C14.1856 18.0461 14.2438 18.2265 14.2466 18.4118C14.2866 18.4419 14.3147 18.4847 14.3261 18.5329C14.3261 18.6164 14.3261 18.7 14.3261 18.7807C14.3261 18.8614 14.3026 18.9421 14.2967 19.0228C14.2837 19.1995 14.3026 19.3771 14.3526 19.5474C14.2825 19.6164 14.2089 19.6818 14.1319 19.7434C14.1319 20.0489 14.4408 19.4724 14.4261 19.9941C14.4261 20.3746 14.229 20.1008 14.1525 20.2132C14.2055 20.4005 14.3467 20.7896 14.0496 21.049C14.0866 20.9351 14.139 20.8265 14.2055 20.7262ZM11.9404 23.8677C11.9874 23.7986 12.0492 23.6314 12.1463 23.666C12.1757 23.8447 12.0728 23.8274 11.9404 23.8677ZM5.93044 24.9197C6.00398 24.8909 6.08931 24.937 6.17756 25.0148C6.08835 25.004 6.00335 24.9713 5.93044 24.9197ZM2.80639 9.01884C2.70931 9.11683 2.64459 9.16583 2.80639 9.01884ZM3.08583 8.73062C3.08583 8.68739 3.0858 8.67875 3.0505 8.68163C3.0152 8.68451 3.01524 8.7998 2.94758 8.8805C2.99465 8.8632 3.04465 8.83438 3.08583 8.71621V8.73062ZM9.03394 12.1028C9.03394 12.1028 9.03394 12.1258 9.03394 12.1373C8.90157 12.1575 8.96629 12.1201 9.03394 12.0883V12.1028Z" fill="#EAEAEA"/>
<path d="M6.68066 24.918C6.69579 24.9421 6.70203 24.9706 6.69833 24.9987C6.73657 24.9814 6.74244 24.9554 6.68066 24.918Z" fill="#EAEAEA"/>
<path d="M1.66494 14.6797C1.64092 14.7307 1.60461 14.7752 1.55908 14.8094C1.59144 14.8209 1.62964 14.7921 1.66494 14.6797Z" fill="#EAEAEA"/>
<path d="M4.19195 6.85547C4.14488 6.92752 4.10077 7.00535 4.05664 7.08029C4.10306 7.01416 4.16576 6.96061 4.23899 6.92464C4.20957 6.91023 4.14194 6.93041 4.19195 6.85547Z" fill="#EAEAEA"/>
<path d="M6.35129 5.77998C6.366 5.73963 6.40718 5.72234 6.41894 5.68487L6.36594 5.64453C6.2571 5.77999 6.21891 5.88086 6.35129 5.77998Z" fill="#EAEAEA"/>
<path d="M4.70361 6.97025C4.80951 7.0279 4.88304 6.8809 4.98306 6.73103L4.96245 6.75698C4.87714 6.60999 4.79481 6.79156 4.70361 6.97025Z" fill="#EAEAEA"/>
<path d="M5.01562 6.69458C5.04675 6.64912 5.08217 6.60665 5.12149 6.56776C5.08619 6.51012 5.06563 6.61099 5.01562 6.69458Z" fill="#EAEAEA"/>
<path d="M3.31507 8.24765C3.39156 8.19578 3.22386 8.11796 3.29152 8.10643C3.23268 7.94215 3.10327 8.6771 3.31507 8.24765Z" fill="#EAEAEA"/>
<path d="M5.10952 7.10573L4.95361 7.0625L4.98009 7.21237L5.10952 7.10573Z" fill="#EAEAEA"/>
<path d="M4.14181 8.12704C4.20947 8.05787 4.27711 7.98869 4.34772 7.92528C4.32418 7.92528 4.34772 7.87629 4.34772 7.83594C4.23887 7.96852 4.11534 8.10398 4.14181 8.12704Z" fill="#EAEAEA"/>
<path d="M4.35352 7.83765C4.40904 7.78323 4.45125 7.7172 4.47704 7.64453C4.43033 7.70534 4.38902 7.76995 4.35352 7.83765Z" fill="#EAEAEA"/>
<path d="M4.89198 7.42578L4.81255 7.4719L4.68018 7.62177L4.89198 7.42578Z" fill="#EAEAEA"/>
<path d="M2.45946 10.679C2.42122 10.7741 2.38294 10.8692 2.35059 10.9672C2.38294 11.0162 2.4447 10.9672 2.48 10.8461C2.5153 10.7251 2.52418 10.6473 2.45946 10.679Z" fill="#EAEAEA"/>
<path d="M3.27407 10.0586C3.22435 10.092 3.16655 10.1119 3.10645 10.1162L3.25942 10.2142L3.27407 10.0586Z" fill="#EAEAEA"/>
<path d="M2.86828 10.8418C2.8977 10.8908 2.78299 11.2886 2.95949 10.9513C2.9389 10.9023 3.04184 10.6199 2.86828 10.8418Z" fill="#EAEAEA"/>
<path d="M1.07978 15.0273L1.0886 14.9524L0.794434 14.9062L1.07978 15.0273Z" fill="#EAEAEA"/>
<path d="M1.68852 18.9339C1.70617 18.5938 1.49437 18.882 1.54438 18.565C1.46496 18.493 1.50029 18.8244 1.42969 18.7524C1.52382 18.9483 1.5179 19.055 1.68852 18.9339Z" fill="#EAEAEA"/>
<path d="M1.42948 18.7493C1.41368 18.7143 1.39493 18.6805 1.37354 18.6484C1.38645 18.6848 1.40538 18.7189 1.42948 18.7493Z" fill="#EAEAEA"/>
<path d="M15.1439 0.415202C15.0416 0.328008 14.9302 0.251673 14.8115 0.1875C14.8813 0.246792 14.9462 0.311371 15.0056 0.380618L15.1439 0.415202Z" fill="#EAEAEA"/>
<path d="M14.4113 0.36786C14.3936 0.304452 14.376 0.238165 14.3525 0.171875C14.2756 0.219065 14.2019 0.271062 14.1318 0.327523C14.2054 0.318877 14.3583 0.315981 14.4113 0.36786Z" fill="#EAEAEA"/>
<path d="M11.2461 23.8516V23.8977C11.299 23.9294 11.3403 23.8977 11.4256 23.8602C11.3697 23.8573 11.3079 23.8573 11.2461 23.8516Z" fill="#EAEAEA"/>
<path d="M13.3551 22.1133L13.3228 22.1508L13.5198 22.1709L13.3551 22.1133Z" fill="#EAEAEA"/>
<path d="M14.0055 19.9688C14.004 20.0656 13.9932 20.1621 13.9731 20.257C13.9996 20.0581 14.2173 19.9803 14.0055 19.9688Z" fill="#EAEAEA"/>
<path d="M31.1114 0.141223C31.2615 0.141223 31.2055 0.0259395 31.2291 0C30.9702 0.0432325 31.1232 0.172927 31.1114 0.141223Z" fill="#EAEAEA"/>
<path d="M29.3025 0.963893L29.3084 0.90625L29.123 1.13106L29.3025 0.963893Z" fill="#EAEAEA"/>
<path d="M27.8228 1.74403C28.0669 1.84202 28.3228 1.4097 28.6288 1.33476L28.6935 1.35494L28.7317 1.14453C28.4458 1.36818 28.1418 1.56868 27.8228 1.74403Z" fill="#EAEAEA"/>
<path d="M26.8193 1.86074C26.9135 1.89821 26.6988 2.0279 27.0106 1.76562H26.9664C26.9196 1.80054 26.8705 1.83233 26.8193 1.86074Z" fill="#EAEAEA"/>
<path d="M26.9664 1.76877C27.1105 1.66501 26.8311 1.76877 26.9664 1.76877Z" fill="#EAEAEA"/>
<path d="M26.3134 2.26732L26.4634 2.07422C26.3958 2.07422 26.2193 2.17509 26.2605 2.10303C26.0869 2.27308 26.1575 2.28173 26.3134 2.26732Z" fill="#EAEAEA"/>
<path d="M26.2251 2.51523L26.3045 2.423C26.2751 2.41723 26.2457 2.43164 26.2251 2.51523Z" fill="#EAEAEA"/>
<path d="M26.4724 2.22266L26.3018 2.42441C26.3488 2.42441 26.39 2.48206 26.3841 2.33795C26.4047 2.39848 26.4106 2.32065 26.4724 2.22266Z" fill="#EAEAEA"/>
<path d="M26.6108 2.16759C26.7462 2.13013 26.905 2.06096 26.752 2.2483C27.1021 1.98026 26.9668 1.89379 26.6108 2.16759Z" fill="#EAEAEA"/>
<path d="M27.8638 1.97865L28.0433 1.94118L28.1344 1.80859C28.0873 1.872 27.8197 1.92677 27.8638 1.97865Z" fill="#EAEAEA"/>
<path d="M25.084 3.05643C25.1016 3.09966 25.2193 3.09678 25.2693 3.13137L25.3723 2.98438C25.2958 3.01608 25.134 3.09966 25.084 3.05643Z" fill="#EAEAEA"/>
<path d="M25.2692 3.12891L25.1191 3.34507C25.2956 3.20961 25.3104 3.15773 25.2692 3.12891Z" fill="#EAEAEA"/>
<path d="M26.3284 2.72336L26.5755 2.35156L26.2637 2.77236L26.3284 2.72336Z" fill="#EAEAEA"/>
<path d="M24.322 3.67293L24.3632 3.5L24.269 3.78533L24.322 3.67293Z" fill="#EAEAEA"/>
<path d="M23.8425 4.11816C23.866 3.98558 23.6336 4.11817 23.6836 4C23.5756 4.12436 23.4937 4.26831 23.4424 4.42367C23.5405 4.28393 23.6802 4.17725 23.8425 4.11816Z" fill="#EAEAEA"/>
<path d="M23.3452 4.6506C23.3849 4.57893 23.4174 4.50363 23.4422 4.42578C23.3977 4.49506 23.3649 4.571 23.3452 4.6506Z" fill="#EAEAEA"/>
<path d="M24.7661 3.60673C24.7264 3.59408 24.6842 3.59061 24.6429 3.59661C24.6015 3.60261 24.5621 3.61791 24.5278 3.64131L24.6867 3.67013L24.7661 3.60673Z" fill="#EAEAEA"/>
<path d="M24.7873 3.58984L24.7661 3.60769C24.7812 3.61067 24.7873 3.60769 24.7873 3.58984Z" fill="#EAEAEA"/>
<path d="M25.725 3.03125C25.6485 3.17536 25.4485 3.42322 25.7544 3.31947C25.7868 3.184 25.6102 3.25029 25.725 3.03125Z" fill="#EAEAEA"/>
<path d="M24.9839 3.62677L25.2104 3.47691C25.1869 3.45673 25.1163 3.45096 25.1545 3.37891L24.9839 3.62677Z" fill="#EAEAEA"/>
<path d="M24.9073 3.74029L24.9808 3.625L24.8984 3.67976L24.9073 3.74029Z" fill="#EAEAEA"/>
<path d="M23.7661 4.41423C23.7045 4.53086 23.624 4.63695 23.5278 4.72838C23.6559 4.6392 23.7786 4.54297 23.8955 4.44016C23.8867 4.39404 23.8867 4.29894 23.7661 4.41423Z" fill="#EAEAEA"/>
<path d="M24.2192 4.05078L24.2041 4.07161C24.2252 4.07458 24.2373 4.06863 24.2192 4.05078Z" fill="#EAEAEA"/>
<path d="M22.5186 5.72879H22.5517L22.5367 5.71094L22.5186 5.72879Z" fill="#EAEAEA"/>
<path d="M23.9308 4.44002C23.9698 4.41858 24.004 4.38966 24.0312 4.355C24.0585 4.32034 24.0784 4.28064 24.0896 4.23828C24.0297 4.30977 23.9648 4.37717 23.8955 4.44002C23.9014 4.46019 23.9073 4.46884 23.9308 4.44002Z" fill="#EAEAEA"/>
<path d="M23.098 4.96723C23.165 4.94124 23.2299 4.91041 23.2922 4.875C23.2363 4.88941 23.0892 4.92976 23.098 4.96723Z" fill="#EAEAEA"/>
<path d="M24.1518 4.08035V4.0625C24.1187 4.06845 24.1187 4.07737 24.1518 4.08035Z" fill="#EAEAEA"/>
<path d="M24.1512 4.07709C24.123 4.12677 24.1021 4.18017 24.0894 4.23562C24.1318 4.18481 24.1702 4.13085 24.2041 4.07422C24.187 4.07944 24.1688 4.08042 24.1512 4.07709Z" fill="#EAEAEA"/>
<path d="M22.8247 6.57579C22.7511 6.48645 22.8687 6.18959 23.1423 6.09159C23.257 5.85237 22.8658 5.70826 22.554 5.72844C22.5834 5.76591 22.6158 5.7976 22.4893 6.0397C22.5952 6.00799 23.0011 5.71403 22.9246 5.9446C22.7246 6.23282 22.6982 6.12617 22.5364 6.20687C22.7423 6.20687 22.3922 6.67379 22.604 6.75449L22.7541 6.48356C22.7805 6.50086 22.7452 6.61614 22.8247 6.57579Z" fill="#EAEAEA"/>
<path d="M22.916 5.37164L22.9807 5.28516C22.8654 5.36194 22.7369 5.41761 22.6013 5.44944C22.513 5.61949 22.5189 5.67426 22.5366 5.70884L22.9307 5.33417L22.916 5.37164Z" fill="#EAEAEA"/>
<path d="M23.3334 4.94088C23.3599 5.08787 23.2098 5.30691 23.4216 5.29249C23.6481 5.0648 23.5099 5.06192 23.6099 4.89187C23.2569 5.27231 23.6687 4.73912 23.3481 4.94663C23.4028 4.87061 23.4627 4.79839 23.5276 4.73047C23.4518 4.78262 23.3733 4.83072 23.2922 4.87458H23.3099C23.3364 4.87458 23.3481 4.87458 23.3246 4.87458C23.3272 4.89177 23.3272 4.90926 23.3246 4.92645C23.1981 5.01292 23.2864 4.92646 23.3246 4.87458V4.85728C23.2158 4.99563 23.1039 5.13109 22.998 5.27232C23.1187 5.17084 23.2309 5.06001 23.3334 4.94088Z" fill="#EAEAEA"/>
<path d="M25.7076 3.69922C25.7031 3.70175 25.6981 3.70309 25.6929 3.70309C25.6878 3.70309 25.6827 3.70175 25.6782 3.69922C25.6605 3.71939 25.6576 3.73669 25.7076 3.69922Z" fill="#EAEAEA"/>
<path d="M25.4959 3.77632C25.5016 3.74311 25.5145 3.71149 25.5338 3.68363C25.5531 3.65577 25.5783 3.63233 25.6077 3.61492C25.7136 3.57745 25.646 3.66104 25.6783 3.68986C25.7136 3.6178 25.8195 3.46216 25.6019 3.55727L25.5842 3.59186C25.3959 3.68985 25.0871 3.73597 25.1047 3.70138C25.2276 3.75527 25.3614 3.7809 25.4959 3.77632Z" fill="#EAEAEA"/>
<path d="M24.4132 4.35938L24.1367 4.6937L24.3721 4.62453L24.3191 4.58417C24.522 4.44007 24.4279 4.41702 24.4132 4.35938Z" fill="#EAEAEA"/>
<path d="M22.4364 5.71954L22.3805 5.58984L22.3452 5.90112L22.4364 5.71954Z" fill="#EAEAEA"/>
<path d="M22.0659 6.15082L21.9924 6.05859L21.9424 6.21423L22.0659 6.15082Z" fill="#EAEAEA"/>
<path d="M30.4497 22.4309L30.4879 22.3242C30.4722 22.3587 30.4595 22.3944 30.4497 22.4309Z" fill="#EAEAEA"/>
<path d="M29.9229 23.0437L29.9523 23.0955C29.9523 23.0465 29.9464 23.0206 29.9229 23.0437Z" fill="#EAEAEA"/>
<path d="M17.2355 18.875C17.1443 19.0796 17.0296 19.3217 17.1502 19.2785L17.2649 19.1978C17.2245 19.095 17.2144 18.9832 17.2355 18.875Z" fill="#EAEAEA"/>
<path d="M23.575 25.3409L23.5338 25.2891L23.3838 25.3726L23.575 25.3409Z" fill="#EAEAEA"/>
<path d="M23.8247 24.8633L24.0306 24.9757C23.967 24.93 23.8979 24.8922 23.8247 24.8633Z" fill="#EAEAEA"/>
<path d="M31.3761 18.3743L31.229 18.2734C31.2643 18.4608 31.3114 18.3714 31.3761 18.3743Z" fill="#EAEAEA"/>
<path d="M18.7916 10.9258C18.6907 11.0243 18.6028 11.1346 18.5298 11.2544C18.6945 11.1102 18.8651 11.018 18.7916 10.9258Z" fill="#EAEAEA"/>
<path d="M31.3055 23.5212C31.3467 23.4462 31.3409 23.3972 31.3203 23.3828C31.2879 23.4664 31.2702 23.5125 31.3055 23.5212Z" fill="#EAEAEA"/>
<path d="M18.3503 11.6833L18.4122 11.6171C18.4344 11.4913 18.4739 11.3692 18.5298 11.2539C18.4685 11.3073 18.4204 11.3738 18.3893 11.4483C18.3582 11.5227 18.3448 11.6031 18.3503 11.6833Z" fill="#EAEAEA"/>
<path d="M28.252 4.83947C28.2651 4.83243 28.2778 4.82473 28.2902 4.81641C28.2902 4.81641 28.2667 4.81641 28.252 4.83947Z" fill="#EAEAEA"/>
<path d="M32.8706 1.60938C32.8956 1.71709 32.9055 1.82762 32.9001 1.93795C32.9133 1.8276 32.9032 1.71578 32.8706 1.60938Z" fill="#EAEAEA"/>
<path d="M20.5684 7.8759C20.636 7.77214 20.5684 7.85284 20.5684 7.8759Z" fill="#EAEAEA"/>
<path d="M21.3246 7.71094C21.3218 7.72414 21.3222 7.73777 21.3258 7.75078C21.3294 7.76379 21.336 7.7758 21.3452 7.78586C21.3292 7.76418 21.3219 7.73754 21.3246 7.71094Z" fill="#EAEAEA"/>
<path d="M18.6533 13.0609C18.6865 13.046 18.6805 13.049 18.6533 13.0609Z" fill="#EAEAEA"/>
<path d="M20.7241 7.76562C20.681 7.79572 20.6406 7.82947 20.6035 7.86649C20.6461 7.83567 20.6864 7.80197 20.7241 7.76562Z" fill="#EAEAEA"/>
<path d="M20.6626 7.75176L20.7332 7.67394C20.7273 7.648 20.7067 7.65089 20.6626 7.75176Z" fill="#EAEAEA"/>
<path d="M20.4741 8.01707C20.5126 7.96338 20.5559 7.91322 20.6035 7.86719C20.58 7.86719 20.5682 7.88448 20.5682 7.86719L20.4741 8.01707Z" fill="#EAEAEA"/>
<path d="M26.7368 13.0703H26.7163C26.5957 13.0934 26.6457 13.0905 26.7368 13.0703Z" fill="#EAEAEA"/>
<path d="M19.6331 21.6867C19.4037 21.6261 19.3802 21.5281 19.3566 21.3984L19.0859 21.6867C19.2624 21.6924 19.4537 21.6895 19.6331 21.6867Z" fill="#EAEAEA"/>
<path d="M31.3026 20.724L31.1026 20.9286C31.0437 20.5828 31.1378 20.4012 30.9319 20.5741C31.1231 20.6491 31.0408 20.8796 30.9673 21.1102C30.8937 21.3408 30.7701 21.5598 30.9408 21.6694C30.8907 21.7098 30.8376 21.7464 30.7819 21.7789C30.8113 21.7385 30.7819 21.7212 30.8231 21.6838C30.4819 21.8682 30.9555 22.0411 30.6525 22.3812C30.5348 22.4879 30.426 22.5398 30.4495 22.4274C30.4054 22.5369 30.373 22.6522 30.3201 22.7588C30.2671 22.8654 30.2083 22.7588 30.2818 22.6983L29.9583 23.1047C29.9371 23.2299 29.9026 23.3526 29.8553 23.4707C29.717 23.5226 29.8759 23.3929 29.8171 23.3814L29.6641 23.6696C29.5082 23.6696 29.6229 23.4332 29.7759 23.3093C29.5405 23.2574 29.517 23.3093 29.4817 23.4131C29.4463 23.4957 29.3898 23.568 29.3177 23.623C29.2456 23.678 29.1603 23.7139 29.0699 23.7272L29.2493 23.5255C28.9757 23.4534 28.8698 23.6465 28.5404 23.6753C28.5904 23.6753 28.761 23.6753 28.8992 23.707C29.0375 23.7388 29.1404 23.7618 29.0404 23.8944C28.9783 23.9101 28.9201 23.9381 28.8695 23.9768C28.8189 24.0155 28.7769 24.064 28.7463 24.1192C28.6698 23.9981 28.558 24.1192 28.3727 24.2172L28.2962 24.0471C28.1285 24.1884 28.1844 24.2662 28.105 24.4016C28.0279 24.4334 27.942 24.4378 27.8619 24.4142C27.7819 24.3905 27.7129 24.3402 27.6667 24.2719C27.2931 24.3786 28.005 24.393 27.5784 24.5861C27.4277 24.6082 27.2804 24.6489 27.1401 24.7072C27.0018 24.7648 26.8635 24.8657 26.6694 24.9406C26.4252 24.9147 26.69 24.8224 26.5988 24.785L26.4165 24.9608C26.3635 24.9608 26.3752 24.9176 26.3811 24.8945C26.2134 24.9723 26.3811 25.0876 26.1134 25.1625C26.084 25.2663 25.9281 25.2 25.7457 25.1366C25.657 25.0941 25.5603 25.0699 25.4616 25.0655C25.363 25.061 25.2645 25.0764 25.1721 25.1107C25.0868 25.053 25.2162 25.0011 25.1927 24.9262C24.9086 24.9929 24.6287 25.0757 24.3543 25.1741L24.0336 25.0011C24.2602 25.1712 23.913 25.2894 23.5924 25.3643C23.6462 25.4382 23.7107 25.5042 23.7836 25.5603C23.6187 25.5645 23.4536 25.5588 23.2894 25.543C23.2423 25.4998 23.3071 25.4508 23.4012 25.396L23.3071 25.4162C23.157 25.3066 23.2747 25.2288 23.4159 25.1597L23.5512 25.3124C23.6895 25.2346 23.816 25.1366 23.816 25.0242C23.7657 25.0357 23.7133 25.0357 23.663 25.0242C23.6983 25.0011 23.7219 24.981 23.713 24.9579C23.7042 24.9348 23.6483 24.9579 23.566 24.9896L23.5218 24.7648L23.4748 24.8369C23.2999 24.7517 23.1309 24.6554 22.9688 24.5486C22.7452 24.5688 22.5157 24.6236 22.2539 24.638C21.9566 24.6361 21.663 24.5733 21.392 24.4535C21.6156 24.4247 21.5567 24.2662 21.6626 24.1221C21.7156 24.3757 22.148 24.2979 22.4275 24.4766C22.2745 24.3901 22.351 24.3209 22.401 24.3181L21.7921 24.1913C21.8774 24.076 21.7362 24.0385 21.648 23.903C21.6156 24.0558 21.4979 24.0356 21.3538 23.9635C21.2097 23.8915 21.039 23.7762 20.9242 23.7215C20.9355 23.6994 20.9534 23.6812 20.9755 23.6694C20.9975 23.6575 21.0228 23.6526 21.0478 23.6552C21.1426 23.6835 21.2299 23.7317 21.3037 23.7964C21.2302 23.6235 21.1067 23.6177 20.9684 23.6177C20.8302 23.6177 20.6743 23.6177 20.6213 23.439C20.6801 23.4851 20.7007 23.5226 20.7566 23.5053C20.5536 23.4678 20.3213 23.1018 20.4625 23.1191L20.5154 23.171C20.18 22.8193 19.6005 22.0181 19.3593 22.0757C19.4722 22.0313 19.5895 21.9985 19.7094 21.9778C19.5181 21.9288 19.3211 21.8711 19.121 21.8077C18.921 21.7443 18.7386 21.6607 18.5327 21.5771C18.7592 21.557 19.0975 21.0843 19.3828 21.3927C19.3582 21.2252 19.2799 21.0698 19.1592 20.9488C19.1592 21.0295 18.9592 21.237 18.8916 21.1563C18.9493 20.9424 18.9838 20.7231 18.9945 20.5021C18.9945 20.626 18.6268 20.6145 18.5679 20.4271C18.6268 20.4416 18.8798 20.3147 18.9386 20.3666C18.7768 20.2571 18.6445 20.1332 18.4886 20.0092C18.5768 20.1072 18.7621 19.9545 18.8268 19.8334C18.8004 19.8651 18.7768 19.7671 18.7474 19.649C18.7344 19.5415 18.7118 19.4355 18.6798 19.3319L18.6444 19.5394C18.6003 19.0149 18.0561 19.11 18.0297 18.5595C18.1061 18.6171 18.465 18.669 18.4768 18.3981C18.2924 18.3016 18.118 18.1877 17.9561 18.058C17.7353 17.8867 17.568 17.658 17.4736 17.398L17.5737 17.3029L17.4766 16.9167C17.6031 17.0406 17.7707 17.2712 17.9825 17.4931C18.1943 17.715 18.3768 17.96 18.4886 18.1214C18.5562 17.9197 18.6003 18.058 18.5797 17.7669C18.668 17.6603 18.7239 17.9197 18.7327 18.0032L18.768 17.3317C18.5709 17.3634 18.5885 16.81 18.4238 16.8273C18.4885 17.081 18.5297 17.3317 18.618 17.5767C18.5209 17.594 18.3709 17.4902 18.2621 17.3115C18.1413 17.1065 18.0879 16.87 18.1091 16.6342C18.1915 16.5132 18.4562 16.7495 18.5238 16.7408C18.4472 16.5804 18.4326 16.3981 18.4827 16.2278L18.5651 16.444C18.671 16.1846 18.3474 15.9713 18.5651 15.6687C18.5974 15.5563 18.8739 15.3805 18.7621 15.3401C18.5092 15.4785 17.812 15.4179 17.6678 15.2594C17.793 15.0087 17.9512 14.7752 18.1385 14.5648C18.3562 14.4178 18.4797 14.9366 18.668 14.8069C18.618 14.7896 18.5768 14.6743 18.5679 14.6253C18.6415 14.5187 18.718 14.7118 18.7563 14.4524C18.5709 14.3631 18.8975 13.9394 18.6209 14.291C18.6209 14.0258 18.7298 14.0374 18.8092 13.7463C18.6592 13.8039 18.465 13.3543 18.515 13.0805C18.5562 13.1122 18.6415 13.0805 18.6798 13.0603C18.7671 12.85 18.8653 12.6441 18.9739 12.4435C19.0836 12.2573 19.1818 12.0648 19.2681 11.8671C19.3299 11.8441 19.4829 11.6481 19.5182 11.7778C19.4991 11.674 19.5103 11.5671 19.5505 11.4694C19.8447 11.2792 19.4211 11.7893 19.7123 11.674C19.6152 11.6077 19.7447 11.2503 19.777 11.0226C19.5858 11.0025 19.5181 11.4636 19.4828 11.6884C19.2593 11.5904 19.1887 11.1293 19.3416 10.599C19.4976 10.1926 19.5741 10.5096 19.5799 10.4289C19.7266 10.2178 19.8007 9.96645 19.7917 9.71126C19.7866 9.60099 19.8085 9.49112 19.8556 9.39084C19.9027 9.29056 19.9736 9.20279 20.0623 9.13483C20.3565 8.99937 20.333 9.29334 20.4625 9.30487C20.3242 9.62191 20.0947 9.69973 19.9741 9.90436L20.1918 9.69684C20.1687 9.85358 20.0968 9.99953 19.9859 10.1148C20.1927 9.92479 20.3648 9.70157 20.4948 9.45475C20.6966 9.14253 20.9324 8.85263 21.1979 8.5901C21.2185 8.47481 21.2861 8.30189 21.1802 8.32494L21.0831 8.49498C20.8743 8.56415 21.1596 8.09724 20.9625 8.26153C21.0206 7.94688 21.1756 7.65719 21.4067 7.43146L21.592 7.48622C21.5479 7.46028 21.3567 7.61016 21.3361 7.72545C21.3714 7.5554 21.8774 7.43723 21.8068 7.14901C21.7185 7.18648 21.6303 7.22971 21.542 7.27006C21.6096 6.95593 21.7585 6.66412 21.9745 6.4227C21.7391 6.4227 21.9392 6.49477 21.6244 6.54088C21.9568 6.54088 21.0596 7.18649 21.4862 7.11732C21.1449 7.15767 21.1419 7.38247 20.7801 7.50929C20.8331 7.53811 20.939 7.48623 20.7419 7.69375C20.7464 7.72047 20.7464 7.74772 20.7419 7.77444C20.7881 7.7402 20.8431 7.71924 20.9008 7.71391C20.9243 7.90413 20.6595 8.25864 20.6271 8.41716C20.5065 8.53533 20.6272 8.32494 20.5065 8.35953C20.4918 8.44023 20.4772 8.52092 20.4654 8.60162C20.3448 8.54686 20.0329 8.84661 20.1918 8.48057L19.9859 8.76879C19.7954 8.90337 19.6525 9.09277 19.577 9.31064C19.4652 9.43745 19.4799 9.74297 19.4681 9.56715C19.3916 9.73624 19.321 9.90917 19.2563 10.0859H19.224C18.9298 10.5615 18.8828 11.1725 18.4092 11.651C18.3638 11.8764 18.2844 12.094 18.1738 12.2966L18.0473 12.3138C18.0032 12.5502 17.6796 12.9508 17.7678 13.0892C17.5825 13.167 17.4736 13.4437 17.4001 13.7492C17.3609 14.0407 17.3029 14.3295 17.2266 14.6138L17.3707 14.6599C17.3111 14.9666 17.2864 15.2788 17.2972 15.5909H17.4325C17.4522 15.7858 17.4281 15.9825 17.3619 16.1673C17.3325 16.2768 17.3001 16.3892 17.2736 16.5074C17.2506 16.6262 17.2378 16.7467 17.2354 16.8677C17.1854 16.8331 17.2031 16.7092 17.2354 16.6227C17.1055 16.9078 17.0856 17.2294 17.1795 17.5277C17.2798 17.8049 17.3042 18.103 17.2501 18.3923C17.3036 18.4915 17.3163 18.6071 17.2854 18.7151C17.2871 18.7046 17.2871 18.6939 17.2854 18.6834C17.2843 18.7017 17.2843 18.7199 17.2854 18.7382C17.2707 18.7987 17.2501 18.8621 17.2354 18.9313C17.2603 18.879 17.2781 18.8238 17.2883 18.767C17.3081 18.9041 17.3436 19.0385 17.3942 19.1676L17.2648 19.2541V19.2887C17.2413 19.4472 17.3531 19.3982 17.4443 19.2887C17.4769 19.3546 17.5173 19.4166 17.5648 19.4732C17.3678 19.6346 17.709 19.8478 17.5237 20.0496C17.6678 20.1216 17.8178 20.7759 18.0914 20.7644C18.062 20.7644 18.065 20.8249 18.0326 20.7644C18.0457 20.9302 18.1103 21.0882 18.2179 21.2169L18.0738 21.3494C18.1914 21.4359 18.3268 21.5137 18.4503 21.5915C18.4503 21.8336 18.4326 21.9518 18.2091 21.8048C18.6327 22.2054 18.4856 22.1709 18.9004 22.462L18.7886 22.5023C18.8505 22.5785 18.9206 22.6481 18.9975 22.7098C19.0769 22.7761 19.1446 22.8395 19.1328 22.9058C19.1675 23.0585 19.2335 23.2026 19.3269 23.3295C19.4699 23.5241 19.6262 23.7089 19.7947 23.8829C19.9741 24.0875 20.2065 24.2604 20.4065 24.4593C20.6065 24.6582 20.839 24.8138 21.0125 24.9983C21.0272 24.8051 21.0979 24.9031 21.192 25.0184C21.2861 25.1337 21.4185 25.2548 21.4862 25.151C21.4862 25.2461 21.598 25.3499 21.4214 25.3355C21.898 25.5142 22.0715 25.7736 22.4745 25.7015C22.501 25.7966 22.3334 25.7707 22.3657 25.8341C22.4098 25.8341 22.5393 25.8341 22.5746 25.8917C22.6099 25.9494 22.4833 25.9263 22.3922 25.9292C22.4717 25.9711 22.5607 25.993 22.6511 25.993C22.7414 25.993 22.8303 25.9711 22.9099 25.9292C23.0076 25.856 23.0805 25.7555 23.1188 25.641C23.3336 25.8053 23.4659 25.8341 23.6718 25.7188C23.7424 25.8053 23.8748 25.909 23.5601 25.886C23.7277 25.9177 24.6132 26.1742 24.6455 25.9609C24.6956 26.0099 24.8868 25.9868 24.9397 25.9609C25.2062 26.0031 25.4772 26.0108 25.7457 25.9839L25.6398 25.958C25.7839 25.7303 25.9517 25.8946 26.2605 25.8485V25.8744C26.4302 25.9081 26.6061 25.8962 26.7694 25.8398C26.9332 25.7966 27.1037 25.7829 27.2725 25.7995L27.2019 25.6756C27.2019 25.5228 27.3519 25.5257 27.5607 25.543C27.7797 25.5756 28.0036 25.535 28.1962 25.4277L28.0285 25.4046C28.1109 25.3153 28.2962 25.3643 28.4874 25.4046C28.6527 25.4555 28.8268 25.4731 28.9993 25.4565C29.0581 25.4565 28.9463 25.5286 28.8904 25.5776C29.5258 25.4536 28.8904 25.396 29.2522 25.1337C29.3758 25.1741 29.2875 25.4046 29.5611 25.2577C29.6464 25.2577 29.8082 25.0761 29.9642 24.8628C30.1078 24.6555 30.3032 24.4878 30.5319 24.3757C30.4142 24.3757 30.2994 24.3757 30.4112 24.2028C30.5651 24.0811 30.7284 23.9713 30.8996 23.8742C30.986 23.8291 31.0607 23.765 31.1179 23.687C31.175 23.6091 31.213 23.5193 31.229 23.4246C31.2419 23.4185 31.256 23.4153 31.2703 23.4153C31.2845 23.4153 31.2986 23.4185 31.3114 23.4246C31.3585 23.3093 31.4556 23.1364 31.535 22.9721C31.608 22.8415 31.6446 22.6944 31.6409 22.5455C31.707 22.5474 31.7722 22.5304 31.8286 22.4966C31.885 22.4628 31.9301 22.4138 31.9586 22.3553C32.0361 22.2064 32.0944 22.0486 32.1322 21.8855C32.2263 21.5541 32.244 21.237 32.4646 21.3091C32.5398 21.0734 32.6017 20.8338 32.6499 20.5914L32.6881 20.6202C32.7412 20.4885 32.7643 20.3469 32.7556 20.2055C32.747 20.0642 32.7069 19.9263 32.6381 19.8017C32.6764 19.6979 32.7117 19.7786 32.7352 19.8017C32.8002 19.5711 32.8221 19.3309 32.7999 19.0927C32.7597 18.8782 32.6767 18.6735 32.5557 18.4903L32.694 18.4125C32.6513 18.2029 32.6326 17.9892 32.6381 17.7756C32.6303 17.6075 32.6016 17.4411 32.5528 17.2798C32.5129 17.1089 32.4411 16.9467 32.341 16.8014C32.3584 16.8018 32.3754 16.8062 32.3907 16.8142C32.406 16.8222 32.4192 16.8336 32.4293 16.8475C32.3198 16.6752 32.2374 16.4876 32.1851 16.2912C32.1086 16.0952 32.0498 15.8877 31.9821 15.6975C31.8262 15.3315 31.6586 15.0202 31.3497 15.0663L30.9466 14.7493C31.2938 15.2738 30.7113 14.8127 30.7937 15.0692C30.6407 14.8934 30.4995 14.4928 30.7348 14.7003V14.7522C31.029 14.6628 30.2877 14.1066 30.4112 14.0057L30.0553 13.6858C29.9376 13.5791 29.8023 13.4898 29.6788 13.3975C29.4278 13.2022 29.1634 13.0241 28.8875 12.8644C28.6126 12.709 28.3287 12.5695 28.0373 12.4464C27.748 12.3442 27.4534 12.2566 27.1548 12.1841C27.1902 12.2603 27.2216 12.3383 27.2489 12.4176C27.1165 12.3801 26.9783 12.3657 26.84 12.3398C26.7018 12.3139 26.7165 12.1553 27.0166 12.2072C26.971 12.1767 26.9184 12.1576 26.8635 12.1516C26.8087 12.1456 26.7532 12.1528 26.7018 12.1726L26.6224 12.1986C26.6093 12.2078 26.5982 12.2196 26.59 12.2332C26.5723 12.2591 26.5518 12.2764 26.5459 12.2879C26.3929 12.2245 26.4635 12.1813 26.5282 12.1294C26.5929 12.0775 26.5959 12.089 26.6135 12.0746C26.6312 12.0602 26.6312 12.0458 26.6135 12.0458C26.5959 12.0458 26.5547 12.0458 26.5223 12.0458V12.0689C26.4758 12.1194 26.4185 12.1593 26.3544 12.1857C26.2903 12.2121 26.2211 12.2244 26.1517 12.2216C26.0663 12.1784 26.2135 12.0977 26.1811 12.089C26.1958 12.0746 26.1811 12.0689 26.1282 12.089L26.1634 11.8642C26.0954 11.9254 26.0315 11.9908 25.9723 12.0602C25.8869 11.9882 25.9987 11.772 25.781 12.0112C25.8623 11.913 25.9279 11.8032 25.9752 11.6855C25.9969 11.6269 26.0156 11.5673 26.0311 11.5068C26.0546 11.4319 26.087 11.3166 26.1105 11.2186C26.1676 10.9186 26.2666 10.6276 26.4047 10.354C26.4067 10.0362 26.4929 9.72436 26.6547 9.44898C26.5841 9.51527 26.3841 9.48933 26.54 9.21552C26.8547 9.4778 26.9313 8.76302 27.3137 8.67367C27.0372 8.78608 27.6902 7.88396 27.2872 8.06266C27.4519 7.85514 27.4255 8.1203 27.6079 7.99637C27.7844 7.38535 28.4138 6.90403 28.8257 6.26707C28.7904 6.22672 28.6521 6.26707 28.6874 6.10567L29.1464 5.95291C29.2199 5.82321 28.9992 5.6647 29.3169 5.56094C29.2581 5.56094 29.167 5.56095 29.2228 5.47736C29.8112 4.99604 30.3083 4.43401 30.8908 3.95846C31.0342 3.8414 31.1845 3.73265 31.3409 3.63277L31.5821 3.49732C31.6674 3.4512 31.7262 3.41661 31.8498 3.35896C32.0845 3.24273 32.2997 3.09208 32.4881 2.91223C32.7122 2.7001 32.8808 2.43807 32.9794 2.14845C32.9 2.31273 32.8587 2.32715 32.8587 2.28104C32.8587 2.23492 32.8588 2.11675 32.8794 1.99282C32.8411 2.15134 32.7529 1.99282 32.6793 2.00723C32.7681 1.69429 32.7462 1.36118 32.6175 1.06189C32.4851 1.03595 32.3234 0.839948 32.1233 0.707368C31.9233 0.574789 31.688 0.505619 31.6203 0.583438C31.7144 0.596998 31.807 0.619204 31.8968 0.649739C31.6791 0.672797 31.7703 0.83708 31.8144 1.01001C31.8487 1.08304 31.8604 1.16433 31.8478 1.24378C31.8353 1.32323 31.7991 1.3973 31.7438 1.45674C31.9086 1.44233 31.935 1.64695 31.8821 1.78818C31.8291 1.92941 31.7615 2.00147 31.8468 2.22627C31.7615 2.25798 31.7939 2.13116 31.7174 2.13693C31.7939 2.24933 31.7527 2.37327 31.5526 2.46261V2.42514C31.5015 2.47231 31.4453 2.51387 31.385 2.54908L31.1702 2.66437C31.0172 2.74507 30.876 2.81424 30.7201 2.88342C30.377 3.05867 30.0485 3.26007 29.7376 3.48578L29.8818 3.54343C29.7838 3.61412 29.6729 3.66597 29.5552 3.69619C29.517 4.0017 30.0024 3.33015 29.9906 3.64143C29.5758 3.59531 28.9492 4.60983 28.6051 4.54066C28.3933 4.77123 28.7874 4.57813 28.5756 4.8087H28.455L28.4874 4.9384C28.3433 5.08251 28.1932 5.09403 28.1314 5.05368C28.1721 5.00194 28.2066 4.94586 28.2344 4.88651C27.9873 5.03061 27.7814 5.486 27.7078 5.54365C27.7814 5.47159 27.8579 5.4053 27.9343 5.33901C27.4725 6.0509 26.7989 6.84926 26.5488 7.64474L26.6371 7.62456C26.4518 8.22405 26.3252 8.01942 26.0752 8.65638V8.62757C26.0698 8.79865 26.0245 8.96626 25.9428 9.11754C25.9428 8.9302 25.6751 9.35676 25.6869 9.11754C25.5516 9.79485 25.6516 9.46916 25.7163 9.96489L25.581 10.0254C25.6487 10.195 25.6487 10.3833 25.581 10.5528C25.581 10.2646 25.3515 10.7114 25.3339 10.3799C25.1641 10.6195 25.0794 10.9071 25.0927 11.1985C25.0912 11.3238 25.0814 11.449 25.0632 11.5731C25.0326 11.7069 24.9713 11.8321 24.8838 11.9392C25.128 12.3139 25.178 11.1062 25.1956 11.3483C25.2633 11.2676 25.3016 11.3483 25.3221 11.4953C25.3445 11.6402 25.3385 11.7879 25.3045 11.9305C25.2353 12.0994 25.1537 12.2632 25.0603 12.4205C24.9974 12.5523 24.9462 12.6893 24.9073 12.8297C24.8823 12.9149 24.8626 13.0016 24.8485 13.0892C24.8485 13.1093 24.8338 13.1439 24.8485 13.1526H24.9132H25.0574C24.9779 13.1526 24.9485 13.1526 24.8662 13.1526C25.0222 13.1891 25.1837 13.1969 25.3427 13.1756C25.5139 13.1563 25.6873 13.177 25.8487 13.2361C25.9629 13.1758 26.0937 13.1526 26.2223 13.1699C26.3252 13.1699 26.4253 13.1698 26.4694 13.069C26.2193 13.0488 25.987 13.069 25.7428 13.069C25.9605 13.0546 26.184 12.9767 26.4047 12.945C26.502 12.9303 26.6004 12.9235 26.6988 12.9249C26.8005 12.9335 26.8999 12.9589 26.993 12.9998C26.9018 13.0503 26.8022 13.0844 26.6988 13.1007C26.8165 13.1929 26.9636 13.0834 27.0813 13.19C27.0372 13.2909 26.896 13.2794 26.7195 13.2621C26.6283 13.2621 26.543 13.2419 26.4253 13.239C26.2732 13.2244 26.1197 13.2371 25.9723 13.2765C26.0481 13.3049 26.1297 13.3158 26.2105 13.3082C26.2988 13.3082 26.4547 13.3082 26.4782 13.3082C26.5812 13.3082 26.6459 13.3082 26.5576 13.4177C26.6042 13.364 26.6679 13.3274 26.7384 13.3138C26.8089 13.3002 26.8821 13.3104 26.946 13.3428C27.0183 13.3837 27.0984 13.4097 27.1814 13.4191C27.2644 13.4285 27.3484 13.4212 27.4284 13.3975L27.3666 13.5215C27.4631 13.4971 27.5643 13.4971 27.6608 13.5215C27.5843 13.5532 27.5078 13.5993 27.4313 13.6397C27.4997 13.6261 27.5706 13.631 27.6364 13.6538C27.7022 13.6767 27.7605 13.7166 27.8049 13.7693C27.892 13.867 28.0101 13.933 28.1402 13.9567C27.6372 13.7636 28.0961 13.7636 27.9167 13.5849C28.043 13.5902 28.1654 13.6302 28.2697 13.7002C28.3228 13.7574 28.3602 13.8268 28.3785 13.9019C28.3971 13.982 28.4322 14.0575 28.4815 14.1239C28.5699 14.2221 28.6755 14.3041 28.7933 14.3659C28.708 14.317 28.5168 14.1008 28.6904 14.121C28.8036 14.2207 28.8912 14.3451 28.9463 14.4841C29.364 14.7406 28.9698 14.3285 29.1934 14.3804C29.2346 14.6052 29.4258 14.487 29.6405 14.5965L29.5434 14.7003C29.7317 14.9193 29.8024 14.9049 29.8788 14.879C29.9553 14.853 30.02 14.8271 30.173 15.0606L29.8788 15.0231L30.1024 15.1931L29.9406 15.2537C30.0564 15.2948 30.1582 15.3666 30.2348 15.4612C30.2985 15.5526 30.3546 15.649 30.4025 15.7494C30.4437 15.6399 30.6466 15.6312 30.7848 15.8589C30.8084 16.0549 30.6172 15.8445 30.8319 16.1471C30.7084 16.1183 30.5672 16.101 30.5937 15.8993C30.5466 15.8993 30.476 15.8762 30.4318 15.8993C30.4318 16.1097 30.6642 16.3028 30.726 16.4209C30.7069 16.3767 30.6941 16.3302 30.6878 16.2826C30.832 16.4008 30.9643 16.5333 31.1055 16.6659C31.1055 16.761 31.0261 16.7207 30.9584 16.6659C31.0231 16.7524 31.1143 16.7927 31.182 16.9368C31.0584 16.9368 30.9584 16.9945 30.8202 16.8187C30.929 16.9484 31.0202 17.0896 31.1143 17.2279C31.0849 17.274 31.0702 17.5161 31.0084 17.4614C31.0429 17.6199 31.1155 17.7681 31.2202 17.8937C31.3264 18.0471 31.3857 18.2272 31.3908 18.4125C31.4287 18.444 31.4555 18.4863 31.4673 18.5336C31.4717 18.6161 31.4717 18.6989 31.4673 18.7814C31.4673 18.8621 31.4438 18.9428 31.4408 19.0206C31.4264 19.1974 31.4454 19.3752 31.4968 19.5452C31.4203 19.6144 31.3556 19.6807 31.2761 19.7441C31.2761 20.0496 31.5703 19.4731 31.5703 19.9948C31.5703 20.3753 31.3761 20.1015 31.2996 20.2139C31.3496 20.4012 31.4909 20.7903 31.1967 21.0497C31.2177 20.9371 31.2532 20.8277 31.3026 20.724ZM29.0375 23.8656C29.0845 23.7964 29.1493 23.6292 29.2463 23.6638C29.2728 23.8425 29.1699 23.8252 29.0375 23.8656ZM23.0306 24.9175C23.1041 24.8887 23.1864 24.9348 23.2776 25.0127C23.1883 25.0023 23.1032 24.9695 23.0306 24.9175ZM19.9064 9.01665C19.8064 9.11465 19.7535 9.16364 19.9064 9.01665ZM20.2006 8.72844C20.2006 8.6852 20.2006 8.67656 20.1624 8.67944C20.1242 8.68233 20.1271 8.80049 20.0594 8.87831C20.0918 8.86102 20.1447 8.8322 20.1859 8.71403L20.2006 8.72844ZM26.1487 12.1006C26.1473 12.1121 26.1473 12.1237 26.1487 12.1352C25.9987 12.1553 26.0664 12.1179 26.1341 12.0862L26.1487 12.1006Z" fill="#EAEAEA"/>
<path d="M23.7808 24.918C23.7944 24.9427 23.8005 24.9707 23.7984 24.9987C23.8248 24.9814 23.8396 24.9554 23.7808 24.918Z" fill="#EAEAEA"/>
<path d="M18.7651 14.6797C18.7403 14.731 18.7029 14.7756 18.6562 14.8094C18.6886 14.8209 18.7269 14.7921 18.7651 14.6797Z" fill="#EAEAEA"/>
<path d="M21.2921 6.85547C21.2421 6.92752 21.2009 7.00535 21.1538 7.08029C21.2004 7.01393 21.2645 6.96114 21.3392 6.92752C21.3098 6.91023 21.2391 6.93041 21.2921 6.85547Z" fill="#EAEAEA"/>
<path d="M23.4514 5.77712C23.4514 5.73965 23.5043 5.71947 23.5161 5.682L23.4631 5.64453C23.3543 5.77711 23.316 5.88088 23.4514 5.77712Z" fill="#EAEAEA"/>
<path d="M21.8096 6.97025C21.9155 7.0279 21.9891 6.8809 22.0891 6.73103L22.0685 6.75698C21.9773 6.60999 21.8919 6.79156 21.8096 6.97025Z" fill="#EAEAEA"/>
<path d="M22.1128 6.69744C22.1442 6.65047 22.1807 6.60698 22.2217 6.56774C22.1834 6.51009 22.1657 6.61097 22.1128 6.69744Z" fill="#EAEAEA"/>
<path d="M20.4156 8.24765C20.4921 8.19578 20.3215 8.11796 20.3921 8.10643C20.3215 7.94215 20.2008 8.6771 20.4156 8.24765Z" fill="#EAEAEA"/>
<path d="M22.2067 7.10573L22.0537 7.0625L22.0772 7.21237L22.2067 7.10573Z" fill="#EAEAEA"/>
<path d="M21.2389 8.12704L21.4448 7.92528C21.4242 7.92528 21.4448 7.87629 21.4448 7.83594C21.3389 7.96852 21.2007 8.10686 21.2389 8.12704Z" fill="#EAEAEA"/>
<path d="M21.4536 7.83765C21.5071 7.7817 21.5491 7.71611 21.5772 7.64453C21.5301 7.70509 21.4887 7.76974 21.4536 7.83765Z" fill="#EAEAEA"/>
<path d="M21.9891 7.42578L21.9127 7.4719L21.7773 7.62177L21.9891 7.42578Z" fill="#EAEAEA"/>
<path d="M19.5566 10.679C19.5183 10.7741 19.4801 10.8692 19.4478 10.9672C19.4801 11.0191 19.5419 10.9672 19.5801 10.8461C19.6184 10.7251 19.6242 10.6473 19.5566 10.679Z" fill="#EAEAEA"/>
<path d="M20.3713 10.0586C20.3228 10.0943 20.2642 10.1144 20.2036 10.1162L20.3566 10.2142L20.3713 10.0586Z" fill="#EAEAEA"/>
<path d="M19.9652 10.8418C19.9947 10.8908 19.8829 11.2886 20.0565 10.9513C20.027 10.9023 20.1388 10.6199 19.9652 10.8418Z" fill="#EAEAEA"/>
<path d="M18.1769 15.0302L18.1887 14.9524L17.8916 14.9062L18.1769 15.0302Z" fill="#EAEAEA"/>
<path d="M18.7886 18.9339C18.8063 18.5938 18.5915 18.882 18.6416 18.565C18.5621 18.493 18.5975 18.8244 18.5269 18.7524C18.6239 18.9483 18.6151 19.055 18.7886 18.9339Z" fill="#EAEAEA"/>
<path d="M18.53 18.7493C18.5142 18.7143 18.4955 18.6805 18.4741 18.6484C18.4895 18.6837 18.5082 18.7175 18.53 18.7493Z" fill="#EAEAEA"/>
<path d="M32.2411 0.415202C32.1401 0.327756 32.0296 0.251393 31.9116 0.1875C31.9797 0.24653 32.0436 0.310098 32.1028 0.377733L32.2411 0.415202Z" fill="#EAEAEA"/>
<path d="M31.5085 0.36786C31.5085 0.304452 31.4732 0.238165 31.4526 0.171875C31.3743 0.218368 31.2996 0.270396 31.229 0.327523C31.3055 0.318877 31.4732 0.315981 31.5085 0.36786Z" fill="#EAEAEA"/>
<path d="M28.3433 23.8516V23.8977C28.3962 23.9294 28.4374 23.8977 28.5227 23.8602L28.3433 23.8516Z" fill="#EAEAEA"/>
<path d="M30.4523 22.1133L30.4199 22.1508L30.6171 22.1709L30.4523 22.1133Z" fill="#EAEAEA"/>
<path d="M31.1056 19.9688C31.1026 20.0655 31.0917 20.1619 31.0732 20.257C31.0968 20.0581 31.3145 19.9803 31.1056 19.9688Z" fill="#EAEAEA"/>
</g>
<defs>
<clipPath id="clip0_752_8770">
<rect width="33" height="26" fill="white"/>
</clipPath>
</defs>
</svg>
