<svg width="40" height="40" viewBox="0 0 40 40" fill="none" xmlns="http://www.w3.org/2000/svg">
<path fill-rule="evenodd" clip-rule="evenodd" d="M20 0C19.7053 0 19.4227 0.117063 19.2143 0.325437C19.006 0.533811 18.8889 0.816426 18.8889 1.11111V5.55556C18.8889 5.85024 19.006 6.13286 19.2143 6.34123C19.4227 6.5496 19.7053 6.66667 20 6.66667C20.2947 6.66667 20.5773 6.5496 20.7857 6.34123C20.994 6.13286 21.1111 5.85024 21.1111 5.55556V1.11111C21.1111 0.816426 20.994 0.533811 20.7857 0.325437C20.5773 0.117063 20.2947 0 20 0ZM10.5944 9.02778L7.45 5.88333C7.34874 5.77198 7.2259 5.68236 7.08896 5.61991C6.95201 5.55746 6.8038 5.52349 6.65332 5.52005C6.50285 5.51662 6.35324 5.54379 6.21359 5.59992C6.07393 5.65605 5.94714 5.73997 5.84089 5.84659C5.73465 5.95321 5.65118 6.0803 5.59554 6.22015C5.53991 6.36001 5.51326 6.50971 5.51723 6.66017C5.5212 6.81063 5.5557 6.95872 5.61863 7.09545C5.68156 7.23217 5.77162 7.35469 5.88333 7.45556L9.02222 10.6C9.12546 10.7032 9.24801 10.7851 9.38289 10.841C9.51777 10.8969 9.66234 10.9256 9.80833 10.9256C9.95433 10.9256 10.0989 10.8969 10.2338 10.841C10.3687 10.7851 10.4912 10.7032 10.5944 10.6C10.6977 10.4968 10.7796 10.3742 10.8354 10.2393C10.8913 10.1044 10.9201 9.95988 10.9201 9.81389C10.9201 9.6679 10.8913 9.52333 10.8354 9.38845C10.7796 9.25357 10.6977 9.13101 10.5944 9.02778ZM34.1167 5.88333C33.9085 5.67639 33.6269 5.56023 33.3333 5.56023C33.0398 5.56023 32.7582 5.67639 32.55 5.88333L29.4056 9.02778C29.3023 9.13101 29.2204 9.25357 29.1646 9.38845C29.1087 9.52333 29.0799 9.6679 29.0799 9.81389C29.0799 9.95988 29.1087 10.1044 29.1646 10.2393C29.2204 10.3742 29.3023 10.4968 29.4056 10.6C29.614 10.8085 29.8968 10.9256 30.1917 10.9256C30.3377 10.9256 30.4822 10.8969 30.6171 10.841C30.752 10.7851 30.8745 10.7032 30.9778 10.6L34.1167 7.45556C34.22 7.35236 34.3019 7.22982 34.3578 7.09493C34.4138 6.96005 34.4425 6.81546 34.4425 6.66944C34.4425 6.52343 34.4138 6.37884 34.3578 6.24396C34.3019 6.10907 34.22 5.98653 34.1167 5.88333ZM38.8889 18.8889H34.4444C34.1498 18.8889 33.8671 19.006 33.6588 19.2143C33.4504 19.4227 33.3333 19.7053 33.3333 20C33.3333 20.2947 33.4504 20.5773 33.6588 20.7857C33.8671 20.994 34.1498 21.1111 34.4444 21.1111H38.8889C39.1836 21.1111 39.4662 20.994 39.6746 20.7857C39.8829 20.5773 40 20.2947 40 20C40 19.7053 39.8829 19.4227 39.6746 19.2143C39.4662 19.006 39.1836 18.8889 38.8889 18.8889ZM5.55556 18.8889H1.11111C0.816426 18.8889 0.533811 19.006 0.325437 19.2143C0.117063 19.4227 0 19.7053 0 20C0 20.2947 0.117063 20.5773 0.325437 20.7857C0.533811 20.994 0.816426 21.1111 1.11111 21.1111H5.55556C5.85024 21.1111 6.13286 20.994 6.34123 20.7857C6.5496 20.5773 6.66667 20.2947 6.66667 20C6.66667 19.7053 6.5496 19.4227 6.34123 19.2143C6.13286 19.006 5.85024 18.8889 5.55556 18.8889ZM20 8.88889C17.8024 8.88889 15.6542 9.54054 13.827 10.7614C11.9998 11.9824 10.5756 13.7177 9.73467 15.748C8.8937 17.7783 8.67366 20.0123 9.10239 22.1677C9.53111 24.323 10.5893 26.3028 12.1433 27.8567C13.6972 29.4107 15.677 30.4689 17.8323 30.8976C19.9877 31.3263 22.2217 31.1063 24.252 30.2653C26.2823 29.4244 28.0176 28.0002 29.2386 26.173C30.4595 24.3458 31.1111 22.1976 31.1111 20C31.1111 18.5409 30.8237 17.096 30.2653 15.748C29.7069 14.3999 28.8885 13.175 27.8567 12.1433C26.825 11.1115 25.6001 10.2931 24.252 9.73467C22.904 9.17629 21.4591 8.88889 20 8.88889ZM20 28.8889C18.2419 28.8889 16.5234 28.3676 15.0616 27.3908C13.5998 26.4141 12.4605 25.0259 11.7877 23.4016C11.115 21.7774 10.9389 19.9901 11.2819 18.2659C11.6249 16.5416 12.4715 14.9577 13.7146 13.7146C14.9577 12.4715 16.5416 11.6249 18.2659 11.2819C19.9901 10.9389 21.7774 11.115 23.4016 11.7877C25.0259 12.4605 26.4141 13.5998 27.3908 15.0616C28.3676 16.5234 28.8889 18.2419 28.8889 20C28.8889 22.3575 27.9524 24.6184 26.2854 26.2854C24.6184 27.9524 22.3575 28.8889 20 28.8889ZM34.1167 32.55L30.9778 29.4056C30.7693 29.1971 30.4865 29.0799 30.1917 29.0799C29.8968 29.0799 29.614 29.1971 29.4056 29.4056C29.1971 29.614 29.0799 29.8968 29.0799 30.1917C29.0799 30.4865 29.1971 30.7693 29.4056 30.9778L32.55 34.1222C32.6513 34.2336 32.7741 34.3232 32.911 34.3856C33.048 34.4481 33.1962 34.4821 33.3467 34.4855C33.4972 34.4889 33.6468 34.4618 33.7864 34.4056C33.9261 34.3495 34.0529 34.2656 34.1591 34.159C34.2653 34.0523 34.3488 33.9253 34.4045 33.7854C34.4601 33.6455 34.4867 33.4958 34.4828 33.3454C34.4788 33.1949 34.4443 33.0468 34.3814 32.9101C34.3184 32.7734 34.2284 32.6509 34.1167 32.55ZM10.5944 29.4056C10.4913 29.3022 10.3687 29.2203 10.2338 29.1644C10.0989 29.1085 9.95435 29.0797 9.80833 29.0797C9.66232 29.0797 9.51773 29.1085 9.38284 29.1644C9.24796 29.2203 9.12541 29.3022 9.02222 29.4056L5.88333 32.55C5.69144 32.761 5.58804 33.0378 5.59455 33.3229C5.60106 33.6081 5.71698 33.8798 5.91831 34.0818C6.11964 34.2839 6.39095 34.4007 6.67608 34.4083C6.9612 34.4158 7.2383 34.3134 7.45 34.1222L10.5944 30.9778C10.6978 30.8746 10.7797 30.752 10.8356 30.6172C10.8915 30.4823 10.9203 30.3377 10.9203 30.1917C10.9203 30.0457 10.8915 29.9011 10.8356 29.7662C10.7797 29.6313 10.6978 29.5087 10.5944 29.4056ZM20 33.3333C19.7053 33.3333 19.4227 33.4504 19.2143 33.6588C19.006 33.8671 18.8889 34.1498 18.8889 34.4444V38.8889C18.8889 39.1836 19.006 39.4662 19.2143 39.6746C19.4227 39.8829 19.7053 40 20 40C20.2947 40 20.5773 39.8829 20.7857 39.6746C20.994 39.4662 21.1111 39.1836 21.1111 38.8889V34.4444C21.1111 34.1498 20.994 33.8671 20.7857 33.6588C20.5773 33.4504 20.2947 33.3333 20 33.3333Z" fill="white"/>
<path fill-rule="evenodd" clip-rule="evenodd" d="M5.55556 21.1111H1.11111C0.816426 21.1111 0.533811 20.994 0.325437 20.7857C0.117063 20.5773 0 20.2947 0 20C0 19.7053 0.117063 19.4227 0.325437 19.2143C0.533811 19.006 0.816426 18.8889 1.11111 18.8889H5.55556C5.85024 18.8889 6.13286 19.006 6.34123 19.2143C6.5496 19.4227 6.66667 19.7053 6.66667 20C6.66667 20.2947 6.5496 20.5773 6.34123 20.7857C6.13286 20.994 5.85024 21.1111 5.55556 21.1111Z" fill="white"/>
<path fill-rule="evenodd" clip-rule="evenodd" d="M10.5944 29.4056C10.6978 29.5087 10.7797 29.6313 10.8356 29.7662C10.8915 29.9011 10.9203 30.0457 10.9203 30.1917C10.9203 30.3377 10.8915 30.4823 10.8356 30.6172C10.7797 30.752 10.6978 30.8746 10.5944 30.9778L7.45 34.1222C7.2383 34.3134 6.9612 34.4158 6.67608 34.4083C6.39095 34.4007 6.11964 34.2839 5.91831 34.0818C5.71698 33.8798 5.60106 33.6081 5.59455 33.3229C5.58804 33.0378 5.69144 32.761 5.88333 32.55L9.02222 29.4056C9.12541 29.3022 9.24796 29.2203 9.38284 29.1644C9.51773 29.1085 9.66232 29.0797 9.80833 29.0797C9.95435 29.0797 10.0989 29.1085 10.2338 29.1644C10.3687 29.2203 10.4913 29.3022 10.5944 29.4056Z" fill="white"/>
<path fill-rule="evenodd" clip-rule="evenodd" d="M5.88333 7.45556C5.77162 7.35469 5.68156 7.23217 5.61863 7.09545C5.5557 6.95872 5.5212 6.81063 5.51723 6.66017C5.51326 6.50971 5.53991 6.36001 5.59554 6.22015C5.65118 6.0803 5.73465 5.95321 5.84089 5.84659C5.94714 5.73997 6.07393 5.65605 6.21359 5.59992C6.35324 5.54379 6.50285 5.51662 6.65332 5.52005C6.8038 5.52349 6.95201 5.55746 7.08896 5.61991C7.2259 5.68236 7.34874 5.77198 7.45 5.88333L10.5944 9.02778C10.6977 9.13101 10.7796 9.25357 10.8354 9.38845C10.8913 9.52333 10.9201 9.6679 10.9201 9.81389C10.9201 9.95988 10.8913 10.1044 10.8354 10.2393C10.7796 10.3742 10.6977 10.4968 10.5944 10.6C10.4912 10.7032 10.3687 10.7851 10.2338 10.841C10.0989 10.8969 9.95433 10.9256 9.80833 10.9256C9.66234 10.9256 9.51777 10.8969 9.38289 10.841C9.24801 10.7851 9.12546 10.7032 9.02222 10.6L5.88333 7.45556Z" fill="white"/>
<path fill-rule="evenodd" clip-rule="evenodd" d="M18.8889 5.55556V1.11111C18.8889 0.816426 19.006 0.533811 19.2143 0.325437C19.4227 0.117063 19.7053 0 20 0C20.2947 0 20.5773 0.117063 20.7857 0.325437C20.994 0.533811 21.1111 0.816426 21.1111 1.11111V5.55556C21.1111 5.85024 20.994 6.13286 20.7857 6.34123C20.5773 6.5496 20.2947 6.66667 20 6.66667C19.7053 6.66667 19.4227 6.5496 19.2143 6.34123C19.006 6.13286 18.8889 5.85024 18.8889 5.55556Z" fill="white"/>
<path fill-rule="evenodd" clip-rule="evenodd" d="M21.1111 34.4444V38.8889C21.1111 39.1836 20.994 39.4662 20.7857 39.6746C20.5773 39.8829 20.2947 40 20 40C19.7053 40 19.4227 39.8829 19.2143 39.6746C19.006 39.4662 18.8889 39.1836 18.8889 38.8889V34.4444C18.8889 34.1498 19.006 33.8671 19.2143 33.6588C19.4227 33.4504 19.7053 33.3333 20 33.3333C20.2947 33.3333 20.5773 33.4504 20.7857 33.6588C20.994 33.8671 21.1111 34.1498 21.1111 34.4444Z" fill="white"/>
<path d="M20 31.1111C26.1365 31.1111 31.1111 26.1365 31.1111 20C31.1111 13.8635 26.1365 8.88889 20 8.88889C13.8635 8.88889 8.88889 13.8635 8.88889 20C8.88889 26.1365 13.8635 31.1111 20 31.1111Z" fill="white"/>
<path fill-rule="evenodd" clip-rule="evenodd" d="M34.1167 32.55C34.2284 32.6509 34.3184 32.7734 34.3814 32.9101C34.4443 33.0468 34.4788 33.1949 34.4828 33.3454C34.4867 33.4958 34.4601 33.6455 34.4045 33.7854C34.3488 33.9253 34.2653 34.0523 34.1591 34.159C34.0529 34.2656 33.9261 34.3495 33.7864 34.4056C33.6468 34.4618 33.4972 34.4889 33.3467 34.4855C33.1962 34.4821 33.048 34.4481 32.911 34.3856C32.7741 34.3232 32.6513 34.2336 32.55 34.1222L29.4056 30.9778C29.3023 30.8745 29.2204 30.752 29.1646 30.6171C29.1087 30.4822 29.0799 30.3377 29.0799 30.1917C29.0799 30.0457 29.1087 29.9011 29.1646 29.7662C29.2204 29.6313 29.3023 29.5088 29.4056 29.4056C29.5088 29.3023 29.6313 29.2204 29.7662 29.1646C29.9011 29.1087 30.0457 29.0799 30.1917 29.0799C30.3377 29.0799 30.4822 29.1087 30.6171 29.1646C30.752 29.2204 30.8745 29.3023 30.9778 29.4056L34.1167 32.55Z" fill="white"/>
<path fill-rule="evenodd" clip-rule="evenodd" d="M29.4056 10.6C29.3023 10.4968 29.2204 10.3742 29.1646 10.2393C29.1087 10.1044 29.0799 9.95988 29.0799 9.81389C29.0799 9.6679 29.1087 9.52333 29.1646 9.38845C29.2204 9.25357 29.3023 9.13101 29.4056 9.02778L32.55 5.88333C32.6513 5.77198 32.7741 5.68236 32.911 5.61991C33.048 5.55746 33.1962 5.52349 33.3467 5.52005C33.4972 5.51662 33.6468 5.54379 33.7864 5.59992C33.9261 5.65605 34.0529 5.73997 34.1591 5.84659C34.2654 5.95321 34.3488 6.0803 34.4045 6.22015C34.4601 6.36001 34.4867 6.50971 34.4828 6.66017C34.4788 6.81063 34.4443 6.95872 34.3814 7.09545C34.3184 7.23217 34.2284 7.35469 34.1167 7.45556L30.9778 10.6C30.8745 10.7032 30.752 10.7851 30.6171 10.841C30.4822 10.8969 30.3377 10.9256 30.1917 10.9256C30.0457 10.9256 29.9011 10.8971 29.7662 10.8412C29.6313 10.7853 29.5087 10.7033 29.4056 10.6Z" fill="white"/>
<path fill-rule="evenodd" clip-rule="evenodd" d="M40 20C40 20.2947 39.8829 20.5773 39.6746 20.7857C39.4662 20.994 39.1836 21.1111 38.8889 21.1111H34.4444C34.1498 21.1111 33.8671 20.994 33.6588 20.7857C33.4504 20.5773 33.3333 20.2947 33.3333 20C33.3333 19.7053 33.4504 19.4227 33.6588 19.2143C33.8671 19.006 34.1498 18.8889 34.4444 18.8889H38.8889C39.1836 18.8889 39.4662 19.006 39.6746 19.2143C39.8829 19.4227 40 19.7053 40 20Z" fill="white"/>
</svg>
